<?xml version="1.0" encoding="UTF-8" standalone="no"?>
<!-- Created with Inkscape (http://www.inkscape.org/) -->

<svg
   xmlns:dc="http://purl.org/dc/elements/1.1/"
   xmlns:cc="http://creativecommons.org/ns#"
   xmlns:rdf="http://www.w3.org/1999/02/22-rdf-syntax-ns#"
   xmlns:svg="http://www.w3.org/2000/svg"
   xmlns="http://www.w3.org/2000/svg"
   xmlns:xlink="http://www.w3.org/1999/xlink"
   xmlns:sodipodi="http://sodipodi.sourceforge.net/DTD/sodipodi-0.dtd"
   xmlns:inkscape="http://www.inkscape.org/namespaces/inkscape"
   width="1024"
   height="1024"
   id="svg4045"
   version="1.1"
   inkscape:version="0.92.1 r15371"
   sodipodi:docname="logo.svg"
   inkscape:export-filename="/home/holger/Projekte/Titania/miscellaneous/logo/logo/icon.png"
   inkscape:export-xdpi="16.875"
   inkscape:export-ydpi="16.875">
  <defs
     id="defs4047">
    <filter
       id="filter3266"
       style="color-interpolation-filters:sRGB;"
       inkscape:label="Drop Shadow">
      <feFlood
         id="feFlood3268"
         flood-opacity="0.66"
         flood-color="rgb(0,0,0)"
         result="flood" />
      <feComposite
         id="feComposite3270"
         in2="SourceGraphic"
         in="flood"
         operator="in"
         result="composite1" />
      <feGaussianBlur
         id="feGaussianBlur3272"
         in="composite"
         stdDeviation="16"
         result="blur" />
      <feOffset
         id="feOffset3274"
         dx="0"
         dy="2"
         result="offset" />
      <feComposite
         id="feComposite3276"
         in2="offset"
         in="SourceGraphic"
         operator="over"
         result="composite2" />
    </filter>
    <linearGradient
       id="linearGradient3737-0">
      <stop
         offset="0"
         style="stop-color:#ffffff;stop-opacity:1"
         id="stop3739-9" />
      <stop
         offset="1"
         style="stop-color:#ffffff;stop-opacity:0"
         id="stop3741-4" />
    </linearGradient>
    <clipPath
       id="clipPath3613-2">
      <rect
         style="fill:#ffffff;fill-opacity:1;fill-rule:nonzero;stroke:none"
         id="rect3615-6"
         y="6"
         x="6"
         ry="6"
         rx="6"
         height="84"
         width="84" />
    </clipPath>
    <filter
       id="filter3794-6"
       color-interpolation-filters="sRGB"
       height="1.3839999"
       width="1.3839999"
       y="-0.192"
       x="-0.192">
      <feGaussianBlur
         stdDeviation="5.28"
         id="feGaussianBlur3796-0" />
    </filter>
    <linearGradient
       id="linearGradient3737-0-5">
      <stop
         offset="0"
         style="stop-color:#ffffff;stop-opacity:1"
         id="stop3739-9-5" />
      <stop
         offset="1"
         style="stop-color:#ffffff;stop-opacity:0"
         id="stop3741-4-0" />
    </linearGradient>
    <linearGradient
       id="linearGradient9543">
      <stop
         offset="0"
         style="stop-color:#ffffff;stop-opacity:1"
         id="stop9545" />
      <stop
         offset="1"
         style="stop-color:#ffffff;stop-opacity:0"
         id="stop9547" />
    </linearGradient>
    <linearGradient
       id="linearGradient3737-0-8">
      <stop
         offset="0"
         style="stop-color:#ffffff;stop-opacity:1"
         id="stop3739-9-9" />
      <stop
         offset="1"
         style="stop-color:#ffffff;stop-opacity:0"
         id="stop3741-4-2" />
    </linearGradient>
    <linearGradient
       id="linearGradient5266">
      <stop
         style="stop-color:#ffe32d;stop-opacity:1;"
         offset="0"
         id="stop5268" />
      <stop
         style="stop-color:#ffea65;stop-opacity:1;"
         offset="1"
         id="stop5270" />
    </linearGradient>
    <linearGradient
       id="linearGradient5274">
      <stop
         style="stop-color:#ff9f2e;stop-opacity:1;"
         offset="0"
         id="stop5276" />
      <stop
         style="stop-color:#ffae4e;stop-opacity:1;"
         offset="1"
         id="stop5278" />
    </linearGradient>
    <linearGradient
       id="linearGradient5282">
      <stop
         style="stop-color:#d71f1f;stop-opacity:1;"
         offset="0"
         id="stop5284" />
      <stop
         style="stop-color:#e23838;stop-opacity:1;"
         offset="1"
         id="stop5286" />
    </linearGradient>
    <linearGradient
       id="linearGradient4403">
      <stop
         id="stop4405"
         style="stop-color:#404554;stop-opacity:1;"
         offset="0" />
      <stop
         id="stop4407"
         style="stop-color:#3b3e4d;stop-opacity:1;"
         offset="1" />
    </linearGradient>
    <linearGradient
       gradientTransform="matrix(1.0058652,0,0,0.994169,100,0)"
       gradientUnits="userSpaceOnUse"
       id="ButtonShadow-0-4"
       y2="7.0165396"
       x2="45.447727"
       y1="92.539597"
       x1="45.447727">
      <stop
         offset="0"
         style="stop-color:#000000;stop-opacity:1"
         id="stop3750-8-2" />
      <stop
         offset="1"
         style="stop-color:#000000;stop-opacity:0.58823532"
         id="stop3752-5-1" />
    </linearGradient>
    <linearGradient
       gradientTransform="matrix(1.0058652,0,0,0.994169,100,0)"
       gradientUnits="userSpaceOnUse"
       id="linearGradient3183"
       y2="7.0165396"
       x2="45.447727"
       y1="92.539597"
       x1="45.447727">
      <stop
         offset="0"
         style="stop-color:#000000;stop-opacity:1"
         id="stop3185" />
      <stop
         offset="1"
         style="stop-color:#000000;stop-opacity:0.58823532"
         id="stop3187" />
    </linearGradient>
    <linearGradient
       gradientTransform="matrix(1.0058652,0,0,0.994169,100,0)"
       gradientUnits="userSpaceOnUse"
       id="linearGradient3190"
       y2="7.0165396"
       x2="45.447727"
       y1="92.539597"
       x1="45.447727">
      <stop
         offset="0"
         style="stop-color:#000000;stop-opacity:1"
         id="stop3192" />
      <stop
         offset="1"
         style="stop-color:#000000;stop-opacity:0.58823532"
         id="stop3194" />
    </linearGradient>
    <linearGradient
       gradientTransform="matrix(1.0058652,0,0,0.994169,100,0)"
       gradientUnits="userSpaceOnUse"
       id="linearGradient3197"
       y2="7.0165396"
       x2="45.447727"
       y1="92.539597"
       x1="45.447727">
      <stop
         offset="0"
         style="stop-color:#000000;stop-opacity:1"
         id="stop3199" />
      <stop
         offset="1"
         style="stop-color:#000000;stop-opacity:0.58823532"
         id="stop3201" />
    </linearGradient>
    <linearGradient
       inkscape:collect="always"
       xlink:href="#ButtonShadow-0-4"
       id="linearGradient3546"
       gradientUnits="userSpaceOnUse"
       gradientTransform="translate(0,-97)"
       x1="32.251034"
       y1="6.1317081"
       x2="32.251034"
       y2="90.238609" />
    <linearGradient
       gradientTransform="matrix(1.0058652,0,0,0.994169,100,0)"
       gradientUnits="userSpaceOnUse"
       id="linearGradient3204"
       y2="7.0165396"
       x2="45.447727"
       y1="92.539597"
       x1="45.447727">
      <stop
         offset="0"
         style="stop-color:#000000;stop-opacity:1"
         id="stop3206" />
      <stop
         offset="1"
         style="stop-color:#000000;stop-opacity:0.58823532"
         id="stop3208" />
    </linearGradient>
  </defs>
  <sodipodi:namedview
     id="base"
     pagecolor="#ffffff"
     bordercolor="#666666"
     borderopacity="1.0"
     inkscape:pageopacity="0.0"
     inkscape:pageshadow="2"
     inkscape:zoom="0.82519532"
     inkscape:cx="488.17286"
     inkscape:cy="480.78238"
     inkscape:document-units="px"
     inkscape:current-layer="g3261"
     showgrid="true"
     inkscape:window-width="1621"
     inkscape:window-height="1026"
     inkscape:window-x="59"
     inkscape:window-y="24"
     inkscape:window-maximized="1"
     units="px"
     showguides="false"
     inkscape:guide-bbox="true"
     inkscape:object-nodes="false"
     inkscape:snap-nodes="true"
     inkscape:snap-bbox="true"
     inkscape:snap-page="true"
     showborder="true">
    <sodipodi:guide
       orientation="1,0"
       position="512,512"
       id="guide4121"
       inkscape:locked="false" />
    <sodipodi:guide
       orientation="0,1"
       position="512,512"
       id="guide4123"
       inkscape:locked="false" />
    <inkscape:grid
       type="xygrid"
       id="grid3247"
       empspacing="4"
       visible="true"
       enabled="false"
       snapvisiblegridlinesonly="true"
       spacingy="8"
       spacingx="8"
       originx="0"
       originy="0" />
    <sodipodi:guide
       orientation="0,1"
       position="512,960"
       id="guide3278"
       inkscape:locked="false" />
    <sodipodi:guide
       orientation="1,0"
       position="64,512"
       id="guide3280"
       inkscape:locked="false" />
    <sodipodi:guide
       orientation="0,1"
       position="512,64"
       id="guide3282"
       inkscape:locked="false" />
    <sodipodi:guide
       orientation="1,0"
       position="960,512"
       id="guide3284"
       inkscape:locked="false" />
    <sodipodi:guide
       orientation="1,0"
       position="0,512"
       id="guide3286"
       inkscape:locked="false" />
    <sodipodi:guide
       orientation="1,0"
       position="1024,512"
       id="guide3288"
       inkscape:locked="false" />
    <sodipodi:guide
       orientation="0,1"
       position="512,1024"
       id="guide3290"
       inkscape:locked="false" />
    <sodipodi:guide
       orientation="0,1"
       position="512,0"
       id="guide3292"
       inkscape:locked="false" />
    <sodipodi:guide
       orientation="1,0"
       position="1536.0133,782.2124"
       id="guide3314"
       inkscape:locked="false" />
  </sodipodi:namedview>
  <metadata
     id="metadata4050">
    <rdf:RDF>
      <cc:Work
         rdf:about="">
        <dc:format>image/svg+xml</dc:format>
        <dc:type
           rdf:resource="http://purl.org/dc/dcmitype/StillImage" />
        <dc:title />
      </cc:Work>
    </rdf:RDF>
  </metadata>
  <g
     inkscape:groupmode="layer"
     id="layer2"
     inkscape:label="Logo"
     style="display:inline">
    <g
       id="g3261">
      <path
         inkscape:connector-curvature="0"
         id="path4499-8"
         d="m 255.53125,110.03125 -5.71875,8.625 c -1.1147,1.26181 -2.22387,2.66934 -3.25,4.375 l -0.0937,0.15625 -0.0937,0.15625 c -24.88538,42.69133 -38.90625,92.39275 -38.90625,145.125 0,115.62954 68.4814,215.58334 166.96875,261.59375 -98.67608,45.93609 -167.34375,146.01355 -167.34375,261.78125 0,52.36192 14.05,101.57047 38.5,143.9375 l 7.71875,13.375 h 15.40625 c 0.1683,2.2e-4 0.30762,0 0.40625,0 159.06878,0 288.625,-129.55622 288.625,-288.625 0,-8.67334 -0.527,-17.20385 -1.28125,-25.6875 47.1122,33.40954 104.56889,53.1875 166.5625,53.1875 106.55407,0 199.83562,-58.17012 249.75,-144.28125 l 7.75,-13.375 -7.75,-13.40625 C 922.90334,430.54013 829.35836,372.65625 722.6875,372.65625 c -61.70702,0 -118.92528,19.48727 -165.90625,52.5625 0.79337,-8.75845 1.34375,-17.57896 1.34375,-26.53125 0,-158.50435 -128.64011,-287.67939 -286.9375,-288.59375 -0.0524,-3e-4 -0.10385,2.7e-4 -0.15625,0 -0.14085,-0.008 -0.03,-0.0237 -0.1875,-0.0312 -0.24111,-0.0116 -0.64675,0.0136 -0.9375,0 -0.45477,-0.0213 -0.90074,-0.0282 -1.5625,0 l -12.8125,-0.0312 z m 29.625,54.09375 c 122.79934,8.03138 219.46875,109.67873 219.46875,234.5625 0,37.63088 -8.64283,72.9656 -24.1875,104.34375 -122.80353,-8.02697 -219.46875,-109.67572 -219.46875,-234.5625 0,-37.63069 8.64299,-72.9657 24.1875,-104.34375 z M 722.6875,426.15625 c 81.68823,0 153.25592,41.27043 195.40625,104.15625 -42.2026,62.75807 -113.61466,104.21875 -195.0625,104.21875 C 641.40516,634.53125 569.79516,592.94942 527.625,530 569.80752,467.30528 641.17704,426.15625 722.6875,426.15625 Z m -242.34375,131.125 c 15.31216,31.16935 23.90625,66.06602 23.90625,103.25 0,124.97128 -96.79434,226.68852 -219.71875,234.59375 -15.32312,-31.17829 -23.9375,-66.08308 -23.9375,-103.28125 0,-124.98184 96.81086,-226.67245 219.75,-234.5625 z"
         style="color:#000000;font-style:normal;font-variant:normal;font-weight:normal;font-stretch:normal;font-size:medium;line-height:normal;font-family:Sans;-inkscape-font-specification:Sans;text-indent:0;text-align:start;text-decoration:none;text-decoration-line:none;letter-spacing:normal;word-spacing:normal;text-transform:none;writing-mode:lr-tb;direction:ltr;baseline-shift:baseline;text-anchor:start;display:inline;overflow:visible;visibility:visible;fill:#d71f1f;fill-opacity:1;stroke:none;stroke-width:53.48926163;marker:none;enable-background:accumulate" />
      <path
         inkscape:connector-curvature="0"
         id="path4501-8"
         d="m 330.90625,74.4375 -7.59375,9.125 c -0.60336,0.558308 -1.20935,1.065699 -1.8125,1.71875 l -0.78125,0.875 -6.3125,6.8125 V 94.125 c -28.50538,36.24347 -48.68984,79.81748 -57.21875,128.1875 -20.07703,113.86231 30.01395,224.20833 119,286.625 -105.14326,28.10968 -190.11735,114.74926 -210.21875,228.75 -9.09252,51.56646 -3.81541,102.46832 12.90625,148.4375 l 5.09375,14 14.5625,3.03125 c 1.21956,0.2545 1.35138,0.26613 0.375,0.0625 l 0.40625,0.0937 0.40625,0.0625 c 156.65223,27.62197 306.7218,-77.44161 334.34375,-234.09375 1.50679,-8.54543 2.48839,-17.07296 3.21875,-25.5625 40.59579,41.08644 93.7574,70.54683 154.8125,81.3125 104.93531,18.50292 206.85972,-22.58337 270.96875,-98.71875 l 9.96875,-11.8437 L 967.75,599.9375 C 933.63806,506.16075 851.55039,432.89829 746.5,414.375 c -60.77652,-10.71649 -120.51636,-1.45219 -172.53125,22.96875 2.30267,-8.48889 4.38271,-17.08859 5.9375,-25.90625 C 607.40822,255.46614 503.33912,106.05959 347.8125,77.5 c -0.10341,-0.02629 -0.29462,-0.06429 -0.40625,-0.09375 -0.57304,-0.151239 -1.34966,-0.31982 -2.375,-0.46875 -0.008,-0.0012 -0.023,0.0012 -0.0312,0 -0.19773,-0.02846 -0.52684,-0.0061 -0.75,-0.03125 0.13886,0.01472 0.40218,-0.01651 0.53125,0 l -13.875,-2.46875 z m 1.4375,54.21875 c 0.12703,0.0452 0.912,0.37667 3.03125,0.875 -0.2263,-0.0586 -0.55863,-0.13885 -0.75,-0.1875 -2.13162,-0.54189 -2.41865,-0.73639 -2.28125,-0.6875 z m 3.5625,1 c 0.24468,0.0561 0.61433,0.0947 0.90625,0.15625 0.0525,0.0111 0.10179,0.0514 0.15625,0.0625 -0.44292,-0.0713 -0.7327,-0.14196 -1.0625,-0.21875 z m 15.9375,3.40625 c 119.52605,29.24263 197.05946,146.11512 175.375,269.09375 -6.51396,36.94266 -21.09634,70.13585 -41.75,98.28125 l -6.6875,-1.40625 C 362.94663,467.21639 288.58475,352.33657 309.875,231.59375 c 6.53339,-37.0528 21.21715,-70.33214 41.96875,-98.53125 z M 689.4375,463.53125 c 15.69216,-0.43346 31.6513,0.69263 47.75,3.53125 80.44558,14.18478 143.78431,67.28369 174.375,136.53125 -52.45927,54.47904 -129.97489,82.89365 -210.1875,68.75 -80.38426,-14.17392 -143.71331,-67.56133 -174.3125,-136.875 41.91419,-43.50638 99.82016,-70.20956 162.375,-71.9375 z m -246,89.15625 c 10.65313,-0.28321 21.45357,0.23508 32.3125,1.4375 9.67186,33.36027 12.11446,69.21732 5.65625,105.84375 C 459.70568,783.03902 346.70822,866.36894 224.28125,852.8125 214.6094,819.45222 212.1668,783.59519 218.625,746.96875 238.40082,634.81447 333.98403,555.59733 443.4375,552.6875 Z"
         style="color:#000000;font-style:normal;font-variant:normal;font-weight:normal;font-stretch:normal;font-size:medium;line-height:normal;font-family:Sans;-inkscape-font-specification:Sans;text-indent:0;text-align:start;text-decoration:none;text-decoration-line:none;letter-spacing:normal;word-spacing:normal;text-transform:none;writing-mode:lr-tb;direction:ltr;baseline-shift:baseline;text-anchor:start;display:inline;overflow:visible;visibility:visible;fill:#ff9f2e;fill-opacity:1;stroke:none;stroke-width:53.48926163;marker:none;enable-background:accumulate" />
      <path
         inkscape:connector-curvature="0"
         id="path4501-8-3"
         d="m 412.20135,52.445214 -9.06385,7.666621 c -0.6912,0.444968 -1.37614,0.839338 -2.0836,1.377644 l -0.92141,0.725933 -7.40027,5.611943 -0.20091,1.138659 c -34.3697,30.738736 -61.81889,70.142406 -78.62325,116.294486 -39.55729,108.6413 -9.40307,226.01282 67.38312,302.9429 -108.42825,9.41142 -207.16483,79.96707 -246.77019,188.74046 -17.91483,49.20196 -21.56316,100.24642 -13.0839,148.42195 l 2.58349,14.67214 13.81421,5.51565 c 1.15679,0.46253 1.28458,0.4969 0.35843,0.1267 l 0.3838,0.16287 0.3892,0.13215 c 149.46918,54.42301 315.51243,-22.96478 369.9354,-172.43386 2.96879,-8.15359 5.41728,-16.38081 7.61175,-24.61428 32.83864,47.51565 80.07217,85.76567 138.32769,106.97703 100.12363,36.4559 207.63693,13.70596 284.00059,-50.13099 l 11.87515,-9.93124 -2.67582,-15.22792 C 930.74347,582.3364 862.63537,495.92425 762.40194,459.42829 704.41223,438.31377 643.9714,437.05621 588.50424,452.06705 c 3.74274,-7.9596 7.2855,-16.06703 10.34888,-24.48037 54.18651,-148.81949 -22.33714,-314.037 -170.53488,-369.187779 -0.0972,-0.04386 -0.27897,-0.114507 -0.38378,-0.162917 -0.53805,-0.248515 -1.27356,-0.549484 -2.25742,-0.87432 -0.008,-0.0025 -0.0228,-0.0029 -0.0308,-0.0054 -0.18978,-0.06238 -0.51776,-0.09755 -0.73316,-0.161101 0.13419,0.03863 0.39893,0.05363 0.52317,0.09231 z m -8.00588,53.643676 c 0.11723,0.0666 0.83266,0.52943 2.83308,1.38843 -0.21268,-0.097 -0.52601,-0.23381 -0.70602,-0.31497 -2.00503,-0.90406 -2.25388,-1.14547 -2.12706,-1.07346 z m 3.33453,1.60385 c 0.2312,0.0977 0.58852,0.2 0.8653,0.31135 0.0497,0.0201 0.0913,0.0683 0.14302,0.0887 -0.42379,-0.14718 -0.69689,-0.26712 -1.00832,-0.40005 z m 15.10313,6.12387 c 112.62619,49.56764 168.67125,178.13497 125.94683,295.47458 -12.83434,35.24871 -32.96281,65.40296 -58.19305,89.53119 l -6.3414,-2.54693 C 375.50158,444.81617 322.23353,318.76231 364.18121,203.55599 c 12.87263,-35.3538 33.1159,-65.57526 58.45192,-89.73938 z m 275.03261,384.10441 c 15.52875,2.29994 31.04941,6.1821 46.40993,11.77499 76.75685,27.9479 129.90504,91.24529 147.99727,164.75505 -61.12792,44.53444 -142.40183,59.04697 -218.93641,31.18005 -76.69835,-27.92656 -129.78687,-91.50637 -147.87599,-165.08273 48.83658,-35.56111 110.50177,-51.79579 172.4052,-42.62736 z m -257.75005,45.05275 c 10.54027,1.57228 21.08633,3.95946 31.57112,7.03053 3.72774,34.53341 -0.0977,70.2694 -12.82214,105.21637 -42.7562,117.42706 -168.51471,179.8538 -286.72345,145.22963 -3.72773,-34.53342 0.0977,-70.2694 12.82214,-105.21638 38.96388,-107.0116 146.85839,-168.41419 255.15233,-152.26015 z"
         style="color:#000000;font-style:normal;font-variant:normal;font-weight:normal;font-stretch:normal;font-size:medium;line-height:normal;font-family:Sans;-inkscape-font-specification:Sans;text-indent:0;text-align:start;text-decoration:none;text-decoration-line:none;letter-spacing:normal;word-spacing:normal;text-transform:none;writing-mode:lr-tb;direction:ltr;baseline-shift:baseline;text-anchor:start;display:inline;overflow:visible;visibility:visible;fill:#ffe32d;fill-opacity:1;stroke:none;stroke-width:53.48926163;marker:none;enable-background:accumulate" />
    </g>
  </g>
</svg>
