<?xml version="1.0" encoding="UTF-8" standalone="no"?>
<!-- Created with Inkscape (http://www.inkscape.org/) -->

<svg
   xmlns:dc="http://purl.org/dc/elements/1.1/"
   xmlns:cc="http://creativecommons.org/ns#"
   xmlns:rdf="http://www.w3.org/1999/02/22-rdf-syntax-ns#"
   xmlns:svg="http://www.w3.org/2000/svg"
   xmlns="http://www.w3.org/2000/svg"
   xmlns:sodipodi="http://sodipodi.sourceforge.net/DTD/sodipodi-0.dtd"
   xmlns:inkscape="http://www.inkscape.org/namespaces/inkscape"
   version="1.0"
   width="96"
   height="96"
   id="svg2408"
   inkscape:version="0.48.5 r10040"
   sodipodi:docname="Environment.svg"
   inkscape:export-filename="/home/holger/Projekte/Titania/Titania/share/titania/ui/icon14x14.png"
   inkscape:export-xdpi="13.125"
   inkscape:export-ydpi="13.125">
  <sodipodi:namedview
     pagecolor="#ffffff"
     bordercolor="#666666"
     borderopacity="1"
     objecttolerance="10"
     gridtolerance="10"
     guidetolerance="10"
     inkscape:pageopacity="0"
     inkscape:pageshadow="2"
     inkscape:window-width="1855"
     inkscape:window-height="1056"
     id="namedview3312"
     showgrid="true"
     inkscape:zoom="5.12"
     inkscape:cx="52.844269"
     inkscape:cy="62.694539"
     inkscape:window-x="65"
     inkscape:window-y="24"
     inkscape:window-maximized="1"
     inkscape:current-layer="layer3"
     inkscape:snap-bbox="true"
     inkscape:bbox-paths="true"
     showguides="true"
     inkscape:guide-bbox="true"
     inkscape:object-paths="false"
     inkscape:snap-object-midpoints="false"
     inkscape:snap-intersection-paths="false"
     inkscape:object-nodes="true"
     inkscape:snap-page="true"
     inkscape:snap-nodes="true">
    <sodipodi:guide
       orientation="0,1"
       position="-190.05815,48"
       id="guide4411" />
    <sodipodi:guide
       orientation="1,0"
       position="48,99.034133"
       id="guide4413" />
    <inkscape:grid
       type="xygrid"
       id="grid3989"
       empspacing="2"
       visible="true"
       enabled="true"
       snapvisiblegridlinesonly="true"
       spacingy="3px"
       spacingx="3px" />
  </sodipodi:namedview>
  <defs
     id="defs2410">
    <filter
       id="filter11405"
       inkscape:label="Blur">
      <feGaussianBlur
         stdDeviation="5"
         id="feGaussianBlur11407" />
    </filter>
    <linearGradient
       id="linearGradient4389">
      <stop
         style="stop-color:#0078fe;stop-opacity:1;"
         offset="0"
         id="stop4391" />
      <stop
         style="stop-color:#323232;stop-opacity:1;"
         offset="1"
         id="stop4393" />
    </linearGradient>
    <linearGradient
       id="linearGradient4389-1">
      <stop
         style="stop-color:#ffffff;stop-opacity:1;"
         offset="0"
         id="stop4391-7" />
      <stop
         style="stop-color:#323232;stop-opacity:1;"
         offset="1"
         id="stop4393-0" />
    </linearGradient>
    <filter
       id="filter4926-8-3-4-5-4"
       inkscape:label="Inner Shadow"
       inkscape:menu="Shadows and Glows"
       inkscape:menu-tooltip="Adds a colorizable drop shadow inside"
       color-interpolation-filters="sRGB"
       x="-0.23"
       y="-0.28999999"
       width="1.24"
       height="1.3">
      <feGaussianBlur
         id="feGaussianBlur4928-2-9-1-7-7"
         stdDeviation="4"
         result="result8" />
      <feOffset
         id="feOffset4930-8-9-7-3-9"
         dx="6"
         dy="6"
         result="result11" />
      <feComposite
         id="feComposite4932-3-6-4-3-4"
         in2="result11"
         result="result6"
         in="SourceGraphic"
         operator="in" />
      <feFlood
         id="feFlood4934-0-5-4-5-4"
         result="result10"
         in="result6"
         flood-opacity="1"
         flood-color="rgb(0,0,0)" />
      <feBlend
         id="feBlend4936-6-6-7-2-3"
         in2="result10"
         mode="normal"
         in="result6"
         result="result12" />
      <feComposite
         id="feComposite4938-0-3-9-4-9"
         in2="SourceGraphic"
         result="result2"
         operator="in" />
    </filter>
    <linearGradient
       id="linearGradient4389-4">
      <stop
         style="stop-color:#ffffff;stop-opacity:1;"
         offset="0"
         id="stop4391-2" />
      <stop
         style="stop-color:#323232;stop-opacity:1;"
         offset="1"
         id="stop4393-1" />
    </linearGradient>
    <linearGradient
       id="linearGradient4389-4-9">
      <stop
         style="stop-color:#feef00;stop-opacity:1;"
         offset="0"
         id="stop4391-2-2" />
      <stop
         style="stop-color:#323232;stop-opacity:1;"
         offset="1"
         id="stop4393-1-6" />
    </linearGradient>
    <linearGradient
       id="linearGradient4389-4-9-8">
      <stop
         style="stop-color:#fe0000;stop-opacity:1;"
         offset="0"
         id="stop4391-2-2-5" />
      <stop
         style="stop-color:#323232;stop-opacity:1;"
         offset="1"
         id="stop4393-1-6-9" />
    </linearGradient>
  </defs>
  <metadata
     id="metadata2413">
    <rdf:RDF>
      <cc:Work
         rdf:about="">
        <dc:format>image/svg+xml</dc:format>
        <dc:type
           rdf:resource="http://purl.org/dc/dcmitype/StillImage" />
        <dc:title></dc:title>
      </cc:Work>
    </rdf:RDF>
  </metadata>
  <g
     inkscape:groupmode="layer"
     id="layer12"
     inkscape:label="Background"
     style="display:none">
    <rect
       style="fill:#444444;fill-opacity:1;stroke:none"
       id="rect4390"
       width="96"
       height="96"
       x="0"
       y="0" />
  </g>
  <g
     inkscape:groupmode="layer"
     id="layer4"
     inkscape:label="Shadow"
     style="display:inline">
    <path
       inkscape:connector-curvature="0"
       style="fill:#ffffff;fill-opacity:1;stroke:none;display:inline;filter:url(#filter11405)"
       d="M 48,6 C 40.027496,6 33.271708,11.194604 30.90625,18.375 23.50183,16.827673 15.613279,20.092098 11.625,27 7.6369055,33.907582 8.7708633,42.361248 13.8125,48 8.7708633,53.638752 7.6369055,62.092418 11.625,69 15.613279,75.907902 23.50183,79.172327 30.90625,77.625 33.271708,84.805396 40.027496,90 48,90 55.972504,90 62.728292,84.805396 65.09375,77.625 72.49817,79.172327 80.386721,75.907902 84.375,69 88.363095,62.092418 87.229137,53.638752 82.1875,48 87.229137,42.361248 88.363095,33.907582 84.375,27 80.386721,20.092098 72.49817,16.827673 65.09375,18.375 62.728292,11.194604 55.972504,6 48,6 z m 0,27 c 8.284275,0 15,6.715729 15,15 0,8.284271 -6.715725,15 -15,15 -8.284275,0 -15,-6.715729 -15,-15 0,-8.284271 6.715725,-15 15,-15 z"
       id="path4234-1-3" />
  </g>
  <g
     inkscape:groupmode="layer"
     id="layer3"
     inkscape:label="Prototype"
     style="display:inline">
    <g
       id="g4384"
       style="filter:url(#filter4926-8-3-4-5-4)" />
    <path
       style="fill:#141414;fill-opacity:1;stroke:none;display:inline;filter:url(#filter4926-8-3-4-5-4)"
       d="M 48,6 C 40.027496,6 33.271708,11.194604 30.90625,18.375 23.50183,16.827673 15.613279,20.092098 11.625,27 7.6369055,33.907582 8.7708634,42.361248 13.8125,48 8.7708634,53.638752 7.6369055,62.092418 11.625,69 15.613279,75.907902 23.50183,79.172327 30.90625,77.625 33.271708,84.805396 40.027496,90 48,90 55.972504,90 62.728292,84.805396 65.09375,77.625 72.49817,79.172327 80.386721,75.907902 84.375,69 88.363095,62.092418 87.229137,53.638752 82.1875,48 87.229137,42.361248 88.363095,33.907582 84.375,27 80.386721,20.092098 72.49817,16.827673 65.09375,18.375 62.728292,11.194604 55.972504,6 48,6 z m 0,27 c 8.284275,0 15,6.715729 15,15 0,8.284271 -6.715725,15 -15,15 -8.284275,0 -15,-6.715729 -15,-15 0,-8.284271 6.715725,-15 15,-15 z"
       id="path4234-1"
       inkscape:connector-curvature="0" />
  </g>
</svg>
