<?xml version="1.0" encoding="UTF-8" standalone="no"?>
<!-- Created with Inkscape (http://www.inkscape.org/) -->

<svg
   xmlns:dc="http://purl.org/dc/elements/1.1/"
   xmlns:cc="http://creativecommons.org/ns#"
   xmlns:rdf="http://www.w3.org/1999/02/22-rdf-syntax-ns#"
   xmlns:svg="http://www.w3.org/2000/svg"
   xmlns="http://www.w3.org/2000/svg"
   xmlns:sodipodi="http://sodipodi.sourceforge.net/DTD/sodipodi-0.dtd"
   xmlns:inkscape="http://www.inkscape.org/namespaces/inkscape"
   version="1.0"
   width="96"
   height="96"
   id="svg2408"
   inkscape:version="0.48.4 r9939"
   sodipodi:docname="Text.svg"
   inkscape:export-filename="/home/holger/Projekte/Titania/Titania/share/titania/ui/icon14x14.png"
   inkscape:export-xdpi="13.125"
   inkscape:export-ydpi="13.125">
  <sodipodi:namedview
     pagecolor="#ffffff"
     bordercolor="#666666"
     borderopacity="1"
     objecttolerance="10"
     gridtolerance="10"
     guidetolerance="10"
     inkscape:pageopacity="0"
     inkscape:pageshadow="2"
     inkscape:window-width="1855"
     inkscape:window-height="1056"
     id="namedview3312"
     showgrid="true"
     inkscape:zoom="3.6203867"
     inkscape:cx="28.558197"
     inkscape:cy="28.358957"
     inkscape:window-x="65"
     inkscape:window-y="24"
     inkscape:window-maximized="1"
     inkscape:current-layer="layer2"
     inkscape:snap-bbox="true"
     inkscape:bbox-paths="true"
     showguides="true"
     inkscape:guide-bbox="true"
     inkscape:object-paths="false"
     inkscape:snap-object-midpoints="false"
     inkscape:snap-intersection-paths="false"
     inkscape:object-nodes="true"
     inkscape:snap-page="true">
    <sodipodi:guide
       orientation="0,1"
       position="-190.05815,48"
       id="guide4411" />
    <sodipodi:guide
       orientation="1,0"
       position="48,99.034133"
       id="guide4413" />
    <inkscape:grid
       type="xygrid"
       id="grid3989"
       empspacing="2"
       visible="true"
       enabled="true"
       snapvisiblegridlinesonly="true"
       spacingy="3px"
       spacingx="3px" />
  </sodipodi:namedview>
  <defs
     id="defs2410">
    <filter
       id="filter8810"
       inkscape:label="Blur">
      <feGaussianBlur
         stdDeviation="5"
         id="feGaussianBlur8812" />
    </filter>
    <filter
       id="filter4926-8-3-1"
       inkscape:label="Inner Shadow"
       inkscape:menu="Shadows and Glows"
       inkscape:menu-tooltip="Adds a colorizable drop shadow inside"
       color-interpolation-filters="sRGB"
       x="-0.23"
       y="-0.28999999"
       width="1.24"
       height="1.3">
      <feGaussianBlur
         id="feGaussianBlur4928-2-9-7"
         stdDeviation="4"
         result="result8" />
      <feOffset
         id="feOffset4930-8-9-4"
         dx="6"
         dy="6"
         result="result11" />
      <feComposite
         id="feComposite4932-3-6-4"
         in2="result11"
         result="result6"
         in="SourceGraphic"
         operator="in" />
      <feFlood
         id="feFlood4934-0-5-3"
         result="result10"
         in="result6"
         flood-opacity="1"
         flood-color="rgb(0,0,0)" />
      <feBlend
         id="feBlend4936-6-6-2"
         in2="result10"
         mode="normal"
         in="result6"
         result="result12" />
      <feComposite
         id="feComposite4938-0-3-8"
         in2="SourceGraphic"
         result="result2"
         operator="in" />
    </filter>
  </defs>
  <metadata
     id="metadata2413">
    <rdf:RDF>
      <cc:Work
         rdf:about="">
        <dc:format>image/svg+xml</dc:format>
        <dc:type
           rdf:resource="http://purl.org/dc/dcmitype/StillImage" />
        <dc:title />
      </cc:Work>
    </rdf:RDF>
  </metadata>
  <g
     inkscape:groupmode="layer"
     id="layer12"
     inkscape:label="Background"
     style="display:none"
     sodipodi:insensitive="true">
    <rect
       style="fill:#444444;fill-opacity:1;stroke:none"
       id="rect4390"
       width="96"
       height="96"
       x="0"
       y="0" />
  </g>
  <g
     inkscape:groupmode="layer"
     id="layer11"
     inkscape:label="Shadow white"
     style="display:inline"
     sodipodi:insensitive="true">
    <g
       id="g5998"
       style="fill:#ffffff;fill-opacity:1;filter:url(#filter8810)">
      <g
         id="text7563-8-6"
         style="font-size:76.04562378px;font-style:normal;font-variant:normal;font-weight:normal;font-stretch:normal;text-align:start;line-height:129.99999523%;letter-spacing:0px;word-spacing:0px;writing-mode:lr-tb;text-anchor:start;fill:#ffffff;fill-opacity:1;stroke:none;display:inline;font-family:Ubuntu;-inkscape-font-specification:Ubuntu">
        <path
           sodipodi:nodetypes="cccccccscccccssccccccccccc"
           d="m 80.38783,45.011407 c -3.2e-5,-3.903652 -0.785836,-6.996171 -2.357414,-9.277566 -1.520941,-2.281337 -3.954399,-3.422021 -7.30038,-3.422053 -1.520934,3.2e-5 -2.965799,0.228169 -4.334601,0.68441 -1.318141,0.456306 -2.382779,0.963276 -3.193916,1.520913 l 0,22.889733 c 0.659046,0.152098 1.495547,0.304189 2.509506,0.456273 1.06462,0.101402 2.332045,0.152099 3.802281,0.152092 3.39668,7e-6 6.058274,-1.140677 7.98479,-3.422054 1.926458,-2.332053 2.889702,-5.525966 2.889734,-9.581748 m 9.429657,0.152091 c -4.1e-5,3.193933 -0.481663,6.083664 -1.444867,8.669201 -0.912586,2.534863 -2.256058,4.714835 -4.030418,6.539924 -1.723735,1.825098 -3.827662,3.219266 -6.311786,4.182509 -2.484185,0.963244 -5.29787,1.444866 -8.441065,1.444867 -3.041843,-10e-7 -5.956922,-0.228138 -8.745246,-0.684411 -2.737653,-0.456273 -5.019019,-0.963243 -6.844106,-1.520912 l 0,-56.2737616 9.20152,-1.5209125 0,20.6083641 c 1.064623,-0.557629 2.357397,-1.064599 3.878327,-1.520913 1.571589,-0.456233 3.295288,-0.68437 5.171102,-0.68441 2.788313,4e-5 5.272467,0.507011 7.452471,1.520912 2.230638,0.963283 4.08108,2.357451 5.551331,4.18251 1.470177,1.825128 2.585511,4.030449 3.346007,6.615969 0.811112,2.53488 1.216689,5.348565 1.21673,8.441064"
           style="font-weight:500;fill:#ffffff;fill-opacity:1;-inkscape-font-specification:Ubuntu Medium"
           id="path7670-9"
           inkscape:connector-curvature="0" />
      </g>
      <path
         sodipodi:nodetypes="ccccccccccccccccccssccscccccccccccccccc"
         d="m 24.808514,81.829788 c 3.177277,7e-6 5.588621,-0.170205 7.234034,-0.510639 l 0,-11.404254 c -0.567397,-0.170193 -1.390099,-0.340406 -2.468077,-0.510639 -1.078043,-0.170192 -2.269533,-0.255299 -3.574468,-0.255318 -1.134775,1.9e-5 -2.297898,0.08513 -3.489369,0.255318 -1.134766,0.170233 -2.184416,0.482289 -3.148929,0.936171 -0.907819,0.453918 -1.645413,1.1064 -2.212773,1.957446 -0.567387,0.794342 -0.851077,1.815618 -0.851058,3.06383 -1.9e-5,2.439727 0.765941,4.141854 2.297871,5.106383 1.531901,0.907808 3.602815,1.361709 6.212769,1.361702 M 23.957446,43.44681 c 3.404234,4.7e-5 6.269474,0.425578 8.595748,1.276596 2.326209,0.851108 4.170175,2.042596 5.531908,3.574468 1.418409,1.531954 2.411316,3.404293 2.978723,5.617021 0.624073,2.156061 0.936138,4.539038 0.936175,7.148936 l 0,26.978723 C 40.411311,88.38298 37.999966,88.780143 34.765957,89.234043 31.588625,89.744681 27.985791,89.999999 23.957446,90 21.29076,89.999999 18.851049,89.744681 16.638295,89.234043 14.425523,88.723405 12.524815,87.900711 10.936172,86.765958 9.4042517,85.63121 8.1843877,84.156034 7.2765968,82.340426 6.4255291,80.524832 5.9999971,78.283699 5.9999999,75.617022 c -2.8e-6,-2.553175 0.4822708,-4.709201 1.4468123,-6.468084 1.0212645,-1.758844 2.3829695,-3.177282 4.0851048,-4.25532 1.702117,-1.134726 3.659557,-1.929051 5.872338,-2.382978 2.269487,-0.510611 4.62409,-0.76593 7.063828,-0.765958 1.134729,2.8e-5 2.326219,0.08514 3.574468,0.255319 1.248203,0.113503 2.581532,0.340452 3.999997,0.680852 l 0,-1.702128 c -2.8e-5,-1.19146 -0.141868,-2.326211 -0.42553,-3.404255 -0.283716,-1.077982 -0.794353,-2.014152 -1.53191,-2.808511 -0.68088,-0.851029 -1.617046,-1.50351 -2.808517,-1.957446 -1.134776,-0.453864 -2.581579,-0.680815 -4.340419,-0.680852 -2.382997,3.7e-5 -4.567394,0.17025 -6.55319,0.510639 -1.985834,0.340461 -3.602853,0.737624 -4.851065,1.191489 L 10.25532,45.489364 c 1.304954,-0.453857 3.205662,-0.907757 5.702123,-1.361702 2.496443,-0.453856 5.163102,-0.680805 8.000003,-0.680852"
         style="font-size:76.04562378px;font-style:normal;font-variant:normal;font-weight:500;font-stretch:normal;text-align:start;line-height:129.99999523%;letter-spacing:0px;word-spacing:0px;writing-mode:lr-tb;text-anchor:start;fill:#ffffff;fill-opacity:1;stroke:none;display:inline;font-family:Ubuntu;-inkscape-font-specification:Ubuntu Medium"
         id="path7670-90-0"
         inkscape:connector-curvature="0" />
    </g>
  </g>
  <g
     inkscape:groupmode="layer"
     id="layer2"
     inkscape:label="Navigation"
     style="display:inline">
    <g
       id="g6003"
       style="filter:url(#filter4926-8-3-1);fill:#0a0a0a;fill-opacity:1">
      <g
         id="text7563-8"
         style="font-size:76.04562377999999967px;font-style:normal;font-variant:normal;font-weight:normal;font-stretch:normal;text-align:start;line-height:129.99999522999999613%;letter-spacing:0px;word-spacing:0px;writing-mode:lr-tb;text-anchor:start;fill:#0a0a0a;fill-opacity:1;stroke:none;font-family:Ubuntu;-inkscape-font-specification:Ubuntu">
        <path
           sodipodi:nodetypes="cccccccscccccssccccccccccc"
           d="m 80.38783,45.011407 c -3.2e-5,-3.903652 -0.785836,-6.996171 -2.357414,-9.277566 -1.520941,-2.281337 -3.954399,-3.422021 -7.30038,-3.422053 -1.520934,3.2e-5 -2.965799,0.228169 -4.334601,0.68441 -1.318141,0.456306 -2.382779,0.963276 -3.193916,1.520913 l 0,22.889733 c 0.659046,0.152098 1.495547,0.304189 2.509506,0.456273 1.06462,0.101402 2.332045,0.152099 3.802281,0.152092 3.39668,7e-6 6.058274,-1.140677 7.98479,-3.422054 1.926458,-2.332053 2.889702,-5.525966 2.889734,-9.581748 m 9.429657,0.152091 c -4.1e-5,3.193933 -0.481663,6.083664 -1.444867,8.669201 -0.912586,2.534863 -2.256058,4.714835 -4.030418,6.539924 -1.723735,1.825098 -3.827662,3.219266 -6.311786,4.182509 -2.484185,0.963244 -5.29787,1.444866 -8.441065,1.444867 -3.041843,-10e-7 -5.956922,-0.228138 -8.745246,-0.684411 -2.737653,-0.456273 -5.019019,-0.963243 -6.844106,-1.520912 l 0,-56.2737616 9.20152,-1.5209125 0,20.6083641 c 1.064623,-0.557629 2.357397,-1.064599 3.878327,-1.520913 1.571589,-0.456233 3.295288,-0.68437 5.171102,-0.68441 2.788313,4e-5 5.272467,0.507011 7.452471,1.520912 2.230638,0.963283 4.08108,2.357451 5.551331,4.18251 1.470177,1.825128 2.585511,4.030449 3.346007,6.615969 0.811112,2.53488 1.216689,5.348565 1.21673,8.441064"
           style="font-weight:500;fill:#0a0a0a;fill-opacity:1;-inkscape-font-specification:Ubuntu Medium"
           id="path7670"
           inkscape:connector-curvature="0" />
      </g>
      <path
         sodipodi:nodetypes="ccccccccccccccccccssccscccccccccccccccc"
         d="m 24.808514,81.829788 c 3.177277,7e-6 5.588621,-0.170205 7.234034,-0.510639 l 0,-11.404254 c -0.567397,-0.170193 -1.390099,-0.340406 -2.468077,-0.510639 -1.078043,-0.170192 -2.269533,-0.255299 -3.574468,-0.255318 -1.134775,1.9e-5 -2.297898,0.08513 -3.489369,0.255318 -1.134766,0.170233 -2.184416,0.482289 -3.148929,0.936171 -0.907819,0.453918 -1.645413,1.1064 -2.212773,1.957446 -0.567387,0.794342 -0.851077,1.815618 -0.851058,3.06383 -1.9e-5,2.439727 0.765941,4.141854 2.297871,5.106383 1.531901,0.907808 3.602815,1.361709 6.212769,1.361702 M 23.957446,43.44681 c 3.404234,4.7e-5 6.269474,0.425578 8.595748,1.276596 2.326209,0.851108 4.170175,2.042596 5.531908,3.574468 1.418409,1.531954 2.411316,3.404293 2.978723,5.617021 0.624073,2.156061 0.936138,4.539038 0.936175,7.148936 l 0,26.978723 C 40.411311,88.38298 37.999966,88.780143 34.765957,89.234043 31.588625,89.744681 27.985791,89.999999 23.957446,90 21.29076,89.999999 18.851049,89.744681 16.638295,89.234043 14.425523,88.723405 12.524815,87.900711 10.936172,86.765958 9.4042523,85.63121 8.1843877,84.156034 7.2765969,82.340426 6.4255292,80.524832 5.9999972,78.283699 6,75.617022 c -2.8e-6,-2.553175 0.4822708,-4.709201 1.4468123,-6.468084 1.0212646,-1.758844 2.3829692,-3.177282 4.0851047,-4.25532 1.702117,-1.134726 3.659557,-1.929051 5.872338,-2.382978 2.269487,-0.510611 4.62409,-0.76593 7.063828,-0.765958 1.134729,2.8e-5 2.326219,0.08514 3.574468,0.255319 1.248203,0.113503 2.581532,0.340452 3.999997,0.680852 l 0,-1.702128 c -2.8e-5,-1.19146 -0.141868,-2.326211 -0.42553,-3.404255 -0.283716,-1.077982 -0.794353,-2.014152 -1.53191,-2.808511 -0.68088,-0.851029 -1.617046,-1.50351 -2.808517,-1.957446 -1.134776,-0.453864 -2.581579,-0.680815 -4.340419,-0.680852 -2.382997,3.7e-5 -4.567394,0.17025 -6.55319,0.510639 -1.985834,0.340461 -3.602853,0.737624 -4.851065,1.191489 L 10.25532,45.489364 c 1.304954,-0.453857 3.205662,-0.907757 5.702123,-1.361702 2.496443,-0.453856 5.163102,-0.680805 8.000003,-0.680852"
         style="font-size:76.04562377999999967px;font-style:normal;font-variant:normal;font-weight:500;font-stretch:normal;text-align:start;line-height:129.99999522999999613%;letter-spacing:0px;word-spacing:0px;writing-mode:lr-tb;text-anchor:start;fill:#0a0a0a;fill-opacity:1;stroke:none;display:inline;font-family:Ubuntu;-inkscape-font-specification:Ubuntu Medium"
         id="path7670-90"
         inkscape:connector-curvature="0" />
    </g>
  </g>
  <g
     style="font-size:92.19857788px;font-style:normal;font-variant:normal;font-weight:normal;font-stretch:normal;text-align:start;line-height:129.99999523%;letter-spacing:0px;word-spacing:0px;writing-mode:lr-tb;text-anchor:start;fill:#000000;fill-opacity:1;stroke:none;font-family:Ubuntu;-inkscape-font-specification:Ubuntu"
     id="text7563" />
</svg>
