<?xml version="1.0" encoding="UTF-8" standalone="no"?>
<!-- Created with Inkscape (http://www.inkscape.org/) -->

<svg
   xmlns:dc="http://purl.org/dc/elements/1.1/"
   xmlns:cc="http://creativecommons.org/ns#"
   xmlns:rdf="http://www.w3.org/1999/02/22-rdf-syntax-ns#"
   xmlns:svg="http://www.w3.org/2000/svg"
   xmlns="http://www.w3.org/2000/svg"
   xmlns:sodipodi="http://sodipodi.sourceforge.net/DTD/sodipodi-0.dtd"
   xmlns:inkscape="http://www.inkscape.org/namespaces/inkscape"
   version="1.0"
   width="96"
   height="96"
   id="svg2408"
   inkscape:version="0.91 r13725"
   sodipodi:docname="Titania.svg"
   inkscape:export-filename="/home/holger/Projekte/Titania/Titania/share/titania/ui/icon14x14.png"
   inkscape:export-xdpi="13.125"
   inkscape:export-ydpi="13.125">
  <sodipodi:namedview
     pagecolor="#ffffff"
     bordercolor="#666666"
     borderopacity="1"
     objecttolerance="10"
     gridtolerance="10"
     guidetolerance="10"
     inkscape:pageopacity="0"
     inkscape:pageshadow="2"
     inkscape:window-width="1855"
     inkscape:window-height="1056"
     id="namedview3312"
     showgrid="true"
     inkscape:zoom="7.2407734"
     inkscape:cx="48.547542"
     inkscape:cy="51.116519"
     inkscape:window-x="65"
     inkscape:window-y="24"
     inkscape:window-maximized="1"
     inkscape:current-layer="layer3"
     inkscape:snap-bbox="true"
     inkscape:bbox-paths="true"
     showguides="true"
     inkscape:guide-bbox="true"
     inkscape:object-paths="false"
     inkscape:snap-object-midpoints="false"
     inkscape:snap-intersection-paths="false"
     inkscape:object-nodes="true"
     inkscape:snap-page="true"
     inkscape:snap-nodes="false"
     inkscape:bbox-nodes="true">
    <sodipodi:guide
       orientation="0,1"
       position="-190.05815,48"
       id="guide4411" />
    <sodipodi:guide
       orientation="1,0"
       position="48,99.034133"
       id="guide4413" />
    <inkscape:grid
       type="xygrid"
       id="grid3989"
       empspacing="2"
       visible="true"
       enabled="true"
       snapvisiblegridlinesonly="true"
       spacingy="3px"
       spacingx="3px" />
  </sodipodi:namedview>
  <defs
     id="defs2410">
    <filter
       id="filter11405"
       inkscape:label="Blur">
      <feGaussianBlur
         stdDeviation="5"
         id="feGaussianBlur11407" />
    </filter>
    <linearGradient
       id="linearGradient4389">
      <stop
         style="stop-color:#0078fe;stop-opacity:1;"
         offset="0"
         id="stop4391" />
      <stop
         style="stop-color:#323232;stop-opacity:1;"
         offset="1"
         id="stop4393" />
    </linearGradient>
    <linearGradient
       id="linearGradient4389-1">
      <stop
         style="stop-color:#ffffff;stop-opacity:1;"
         offset="0"
         id="stop4391-7" />
      <stop
         style="stop-color:#323232;stop-opacity:1;"
         offset="1"
         id="stop4393-0" />
    </linearGradient>
    <filter
       id="filter4926-8-3-4-5-4"
       inkscape:label="Inner Shadow"
       inkscape:menu="Shadows and Glows"
       inkscape:menu-tooltip="Adds a colorizable drop shadow inside"
       color-interpolation-filters="sRGB"
       x="-0.23"
       y="-0.28999999"
       width="1.24"
       height="1.3">
      <feGaussianBlur
         id="feGaussianBlur4928-2-9-1-7-7"
         stdDeviation="4"
         result="result8" />
      <feOffset
         id="feOffset4930-8-9-7-3-9"
         dx="6"
         dy="6"
         result="result11" />
      <feComposite
         id="feComposite4932-3-6-4-3-4"
         in2="result11"
         result="result6"
         in="SourceGraphic"
         operator="in" />
      <feFlood
         id="feFlood4934-0-5-4-5-4"
         result="result10"
         in="result6"
         flood-opacity="1"
         flood-color="rgb(0,0,0)" />
      <feBlend
         id="feBlend4936-6-6-7-2-3"
         in2="result10"
         mode="normal"
         in="result6"
         result="result12" />
      <feComposite
         id="feComposite4938-0-3-9-4-9"
         in2="SourceGraphic"
         result="result2"
         operator="in" />
    </filter>
    <linearGradient
       id="linearGradient4389-4">
      <stop
         style="stop-color:#ffffff;stop-opacity:1;"
         offset="0"
         id="stop4391-2" />
      <stop
         style="stop-color:#323232;stop-opacity:1;"
         offset="1"
         id="stop4393-1" />
    </linearGradient>
    <linearGradient
       id="linearGradient4389-4-9">
      <stop
         style="stop-color:#feef00;stop-opacity:1;"
         offset="0"
         id="stop4391-2-2" />
      <stop
         style="stop-color:#323232;stop-opacity:1;"
         offset="1"
         id="stop4393-1-6" />
    </linearGradient>
    <linearGradient
       id="linearGradient4389-4-9-8">
      <stop
         style="stop-color:#fe0000;stop-opacity:1;"
         offset="0"
         id="stop4391-2-2-5" />
      <stop
         style="stop-color:#323232;stop-opacity:1;"
         offset="1"
         id="stop4393-1-6-9" />
    </linearGradient>
  </defs>
  <metadata
     id="metadata2413">
    <rdf:RDF>
      <cc:Work
         rdf:about="">
        <dc:format>image/svg+xml</dc:format>
        <dc:type
           rdf:resource="http://purl.org/dc/dcmitype/StillImage" />
        <dc:title />
      </cc:Work>
    </rdf:RDF>
  </metadata>
  <g
     inkscape:groupmode="layer"
     id="layer12"
     inkscape:label="Background"
     style="display:none"
     sodipodi:insensitive="true">
    <rect
       style="fill:#444444;fill-opacity:1;stroke:none"
       id="rect4390"
       width="96"
       height="96"
       x="0"
       y="0" />
  </g>
  <g
     inkscape:groupmode="layer"
     id="layer4"
     inkscape:label="Shadow"
     style="display:none" />
  <g
     inkscape:groupmode="layer"
     id="layer3"
     inkscape:label="Prototype"
     style="display:inline">
    <g
       transform="matrix(0.09384602,0,0,0.09384602,-3.5189638,1.0153985)"
       style="display:inline"
       id="g3261">
      <path
         inkscape:connector-curvature="0"
         id="path4499-8"
         d="m 255.53125,110.03125 -5.71875,8.625 c -1.1147,1.26181 -2.22387,2.66934 -3.25,4.375 l -0.0937,0.15625 -0.0937,0.15625 c -24.88538,42.69133 -38.90625,92.39275 -38.90625,145.125 0,115.62954 68.4814,215.58334 166.96875,261.59375 -98.67608,45.93609 -167.34375,146.01355 -167.34375,261.78125 0,52.36192 14.05,101.57047 38.5,143.9375 l 7.71875,13.375 15.40625,0 c 0.1683,2.2e-4 0.30762,0 0.40625,0 159.06878,0 288.625,-129.55622 288.625,-288.625 0,-8.67334 -0.527,-17.20385 -1.28125,-25.6875 47.1122,33.40954 104.56889,53.1875 166.5625,53.1875 106.55407,0 199.83562,-58.17012 249.75,-144.28125 l 7.75,-13.375 -7.75,-13.40625 C 922.90334,430.54013 829.35836,372.65625 722.6875,372.65625 c -61.70702,0 -118.92528,19.48727 -165.90625,52.5625 0.79337,-8.75845 1.34375,-17.57896 1.34375,-26.53125 0,-158.50435 -128.64011,-287.67939 -286.9375,-288.59375 -0.0524,-3e-4 -0.10385,2.7e-4 -0.15625,0 -0.14085,-0.008 -0.03,-0.0237 -0.1875,-0.0312 -0.24111,-0.0116 -0.64675,0.0136 -0.9375,0 -0.45477,-0.0213 -0.90074,-0.0282 -1.5625,0 l -12.8125,-0.0312 z m 29.625,54.09375 c 122.79934,8.03138 219.46875,109.67873 219.46875,234.5625 0,37.63088 -8.64283,72.9656 -24.1875,104.34375 -122.80353,-8.02697 -219.46875,-109.67572 -219.46875,-234.5625 0,-37.63069 8.64299,-72.9657 24.1875,-104.34375 z M 722.6875,426.15625 c 81.68823,0 153.25592,41.27043 195.40625,104.15625 -42.2026,62.75807 -113.61466,104.21875 -195.0625,104.21875 C 641.40516,634.53125 569.79516,592.94942 527.625,530 569.80752,467.30528 641.17704,426.15625 722.6875,426.15625 Z m -242.34375,131.125 c 15.31216,31.16935 23.90625,66.06602 23.90625,103.25 0,124.97128 -96.79434,226.68852 -219.71875,234.59375 -15.32312,-31.17829 -23.9375,-66.08308 -23.9375,-103.28125 0,-124.98184 96.81086,-226.67245 219.75,-234.5625 z"
         style="color:#000000;font-style:normal;font-variant:normal;font-weight:normal;font-stretch:normal;font-size:medium;line-height:normal;font-family:Sans;-inkscape-font-specification:Sans;text-indent:0;text-align:start;text-decoration:none;text-decoration-line:none;letter-spacing:normal;word-spacing:normal;text-transform:none;direction:ltr;block-progression:tb;writing-mode:lr-tb;baseline-shift:baseline;text-anchor:start;display:inline;overflow:visible;visibility:visible;fill:#d71f1f;fill-opacity:1;stroke:none;stroke-width:53.48926163;marker:none;enable-background:accumulate" />
      <path
         inkscape:connector-curvature="0"
         id="path4501-8"
         d="m 330.90625,74.4375 -7.59375,9.125 c -0.60336,0.558308 -1.20935,1.065699 -1.8125,1.71875 l -0.78125,0.875 -6.3125,6.8125 0,1.15625 c -28.50538,36.24347 -48.68984,79.81748 -57.21875,128.1875 -20.07703,113.86231 30.01395,224.20833 119,286.625 -105.14326,28.10968 -190.11735,114.74926 -210.21875,228.75 -9.09252,51.56646 -3.81541,102.46832 12.90625,148.4375 l 5.09375,14 14.5625,3.03125 c 1.21956,0.2545 1.35138,0.26613 0.375,0.0625 l 0.40625,0.0937 0.40625,0.0625 c 156.65223,27.62197 306.7218,-77.44161 334.34375,-234.09375 1.50679,-8.54543 2.48839,-17.07296 3.21875,-25.5625 40.59579,41.08644 93.7574,70.54683 154.8125,81.3125 104.93531,18.50292 206.85972,-22.58337 270.96875,-98.71875 l 9.96875,-11.8437 L 967.75,599.9375 C 933.63806,506.16075 851.55039,432.89829 746.5,414.375 c -60.77652,-10.71649 -120.51636,-1.45219 -172.53125,22.96875 2.30267,-8.48889 4.38271,-17.08859 5.9375,-25.90625 C 607.40822,255.46614 503.33912,106.05959 347.8125,77.5 c -0.10341,-0.02629 -0.29462,-0.06429 -0.40625,-0.09375 -0.57304,-0.151239 -1.34966,-0.31982 -2.375,-0.46875 -0.008,-0.0012 -0.023,0.0012 -0.0312,0 -0.19773,-0.02846 -0.52684,-0.0061 -0.75,-0.03125 0.13886,0.01472 0.40218,-0.01651 0.53125,0 l -13.875,-2.46875 z m 1.4375,54.21875 c 0.12703,0.0452 0.912,0.37667 3.03125,0.875 -0.2263,-0.0586 -0.55863,-0.13885 -0.75,-0.1875 -2.13162,-0.54189 -2.41865,-0.73639 -2.28125,-0.6875 z m 3.5625,1 c 0.24468,0.0561 0.61433,0.0947 0.90625,0.15625 0.0525,0.0111 0.10179,0.0514 0.15625,0.0625 -0.44292,-0.0713 -0.7327,-0.14196 -1.0625,-0.21875 z m 15.9375,3.40625 c 119.52605,29.24263 197.05946,146.11512 175.375,269.09375 -6.51396,36.94266 -21.09634,70.13585 -41.75,98.28125 l -6.6875,-1.40625 C 362.94663,467.21639 288.58475,352.33657 309.875,231.59375 c 6.53339,-37.0528 21.21715,-70.33214 41.96875,-98.53125 z M 689.4375,463.53125 c 15.69216,-0.43346 31.6513,0.69263 47.75,3.53125 80.44558,14.18478 143.78431,67.28369 174.375,136.53125 -52.45927,54.47904 -129.97489,82.89365 -210.1875,68.75 -80.38426,-14.17392 -143.71331,-67.56133 -174.3125,-136.875 41.91419,-43.50638 99.82016,-70.20956 162.375,-71.9375 z m -246,89.15625 c 10.65313,-0.28321 21.45357,0.23508 32.3125,1.4375 9.67186,33.36027 12.11446,69.21732 5.65625,105.84375 C 459.70568,783.03902 346.70822,866.36894 224.28125,852.8125 214.6094,819.45222 212.1668,783.59519 218.625,746.96875 238.40082,634.81447 333.98403,555.59733 443.4375,552.6875 Z"
         style="color:#000000;font-style:normal;font-variant:normal;font-weight:normal;font-stretch:normal;font-size:medium;line-height:normal;font-family:Sans;-inkscape-font-specification:Sans;text-indent:0;text-align:start;text-decoration:none;text-decoration-line:none;letter-spacing:normal;word-spacing:normal;text-transform:none;direction:ltr;block-progression:tb;writing-mode:lr-tb;baseline-shift:baseline;text-anchor:start;display:inline;overflow:visible;visibility:visible;fill:#ff9f2e;fill-opacity:1;stroke:none;stroke-width:53.48926163;marker:none;enable-background:accumulate" />
      <path
         inkscape:connector-curvature="0"
         id="path4503-4"
         d="m 411,52.15625 -9.46875,9.4375 c -0.33544,0.25351 -0.66262,0.442041 -1,0.71875 l -0.0625,0.0625 -0.0625,0.0625 C 362.4203,94.04291 332.22291,135.94787 314.1875,185.5 c -39.54742,108.65557 -9.37286,226.01715 67.4375,302.9375 -108.44238,9.41117 -207.18448,79.95876 -246.78125,188.75 -17.90888,49.20418 -21.5476,100.26304 -13.0625,148.4375 l 2.6875,15.1875 14.5,5.3125 c 0.006,0.002 0.17211,0.0628 0.34375,0.125 0.0603,0.0218 0.0442,0.002 0.125,0.0312 149.44428,54.3186 315.42253,-23.09603 369.8125,-172.53125 2.96571,-8.14822 5.37005,-16.36585 7.5625,-24.59375 32.84457,47.51355 80.11522,85.73263 138.375,106.9375 100.12811,36.44356 207.64407,13.68999 284,-50.15625 L 951.0625,696 948.375,680.78125 C 931.06535,582.5057 862.92538,496.10864 762.6875,459.625 704.69167,438.51627 644.24933,437.2607 588.78125,452.28125 c 3.74631,-7.96779 7.3095,-16.07762 10.375,-24.5 54.21255,-148.94774 -22.49481,-314.31498 -170.9375,-369.3125 -0.031,-0.01148 -0.0628,-0.01978 -0.0937,-0.03125 -0.0346,-0.0128 -0.0591,-0.04971 -0.0937,-0.0625 -0.25105,-0.106512 -0.68932,-0.245108 -1,-0.375 L 425.875,57.5625 c -0.0304,-0.0101 -0.0627,-0.02112 -0.0937,-0.03125 -0.0531,-0.01733 -0.1637,-0.04509 -0.21875,-0.0625 L 411,52.15625 Z m 11.875,61.875 c 112.6456,49.5474 168.71257,178.11694 126,295.46875 -12.86969,35.35906 -33.06952,65.58159 -58.40625,89.75 C 377.82315,449.70259 321.72494,321.13297 364.4375,203.78125 c 12.86957,-35.35902 33.10074,-65.58159 58.4375,-89.75 z m 244.09375,381.5625 c 25.70035,0.34886 51.83549,4.96289 77.4375,14.28125 76.75134,27.93523 129.89266,91.22204 148,164.71875 C 831.28254,719.14142 750.011,733.67153 673.46875,705.8125 596.77622,677.89864 543.66691,614.34413 525.5625,540.78125 c 40.6676,-29.62367 90.21139,-45.88242 141.40625,-45.1875 z m -261.4375,45.0625 c 21.97245,-0.0227 44.24611,3.1087 66.28125,9.5625 3.72986,34.52945 -0.12494,70.27411 -12.84375,105.21875 -42.74348,117.43677 -168.4706,179.89973 -286.6875,145.28125 -3.73016,-34.52996 0.0935,-70.27357 12.8125,-105.21875 34.77746,-95.55031 124.52648,-154.74468 220.4375,-154.84375 z"
         style="color:#000000;font-style:normal;font-variant:normal;font-weight:normal;font-stretch:normal;font-size:medium;line-height:normal;font-family:Sans;-inkscape-font-specification:Sans;text-indent:0;text-align:start;text-decoration:none;text-decoration-line:none;letter-spacing:normal;word-spacing:normal;text-transform:none;direction:ltr;block-progression:tb;writing-mode:lr-tb;baseline-shift:baseline;text-anchor:start;display:inline;overflow:visible;visibility:visible;fill:#ffe32d;fill-opacity:1;stroke:none;stroke-width:53.48926163;marker:none;enable-background:accumulate" />
    </g>
  </g>
</svg>
