<?xml version="1.0" encoding="UTF-8" standalone="no"?>
<!-- Created with Inkscape (http://www.inkscape.org/) -->

<svg
   xmlns:dc="http://purl.org/dc/elements/1.1/"
   xmlns:cc="http://creativecommons.org/ns#"
   xmlns:rdf="http://www.w3.org/1999/02/22-rdf-syntax-ns#"
   xmlns:svg="http://www.w3.org/2000/svg"
   xmlns="http://www.w3.org/2000/svg"
   xmlns:sodipodi="http://sodipodi.sourceforge.net/DTD/sodipodi-0.dtd"
   xmlns:inkscape="http://www.inkscape.org/namespaces/inkscape"
   id="svg2"
   version="1.1"
   inkscape:version="0.47 r22583"
   width="810"
   height="300.29999"
   xml:space="preserve"
   sodipodi:docname="Java Printing.pdf"><metadata
     id="metadata8"><rdf:RDF><cc:Work
         rdf:about=""><dc:format>image/svg+xml</dc:format><dc:type
           rdf:resource="http://purl.org/dc/dcmitype/StillImage" /><dc:title></dc:title></cc:Work></rdf:RDF></metadata><defs
     id="defs6"><inkscape:perspective
       sodipodi:type="inkscape:persp3d"
       inkscape:vp_x="0 : 0.5 : 1"
       inkscape:vp_y="0 : 1000 : 0"
       inkscape:vp_z="1 : 0.5 : 1"
       inkscape:persp3d-origin="0.5 : 0.33333333 : 1"
       id="perspective10" /><clipPath
       clipPathUnits="userSpaceOnUse"
       id="clipPath20"><path
         d="m 600,6000 3900,0 0,-5400 -3900,0 0,5400 z"
         id="path22" /></clipPath><clipPath
       clipPathUnits="userSpaceOnUse"
       id="clipPath56"><path
         d="m 2901,1822 225,0 0,-1222 -225,0 0,1222 z"
         id="path58" /></clipPath></defs><sodipodi:namedview
     pagecolor="#ffffff"
     bordercolor="#666666"
     borderopacity="1"
     objecttolerance="10"
     gridtolerance="10"
     guidetolerance="10"
     inkscape:pageopacity="0"
     inkscape:pageshadow="2"
     inkscape:window-width="2560"
     inkscape:window-height="1548"
     id="namedview4"
     showgrid="false"
     inkscape:zoom="0.67425131"
     inkscape:cx="57.15465"
     inkscape:cy="507.85506"
     inkscape:window-x="0"
     inkscape:window-y="25"
     inkscape:window-maximized="1"
     inkscape:current-layer="g12" /><g
     id="g12"
     inkscape:groupmode="layer"
     inkscape:label="Java Printing"
     transform="matrix(1.25,0,0,-1.25,22.5,645.15)"><path
       id="path26"
       style="fill:#95072c;fill-opacity:1;fill-rule:nonzero;stroke:none"
       d="m 56.16,468.96 c -9.36,0 -14.04,-5.76 -14.04,-17.52 0,-11.76 4.68,-17.76 14.04,-17.76 9.36,0 14.04,6 14.04,17.76 0,11.76 -4.68,17.52 -14.04,17.52 z m 0,13.08 c 4.56,0 8.76,-0.72 12.36,-2.16 3.72,-1.44 6.72,-3.6 9.36,-6.24 2.52,-2.64 4.44,-5.88 5.76,-9.72 1.44,-3.72 2.04,-7.92 2.04,-12.48 0,-4.56 -0.6,-8.76 -2.04,-12.6 -1.44,-3.72 -3.36,-6.96 -5.88,-9.6 -2.52,-2.64 -5.64,-4.8 -9.36,-6.24 -3.6,-1.44 -7.68,-2.16 -12.24,-2.16 -4.68,0 -8.88,0.72 -12.48,2.28 -3.72,1.44 -6.84,3.48 -9.36,6.24 -2.52,2.64 -4.56,5.88 -5.88,9.6 -1.32,3.84 -2.04,7.92 -2.04,12.48 0,4.56 0.72,8.76 2.04,12.48 1.44,3.72 3.36,6.96 6,9.6 2.52,2.64 5.64,4.8 9.36,6.24 3.72,1.44 7.8,2.28 12.36,2.28 z m 86.64,-59.64 -14.52,0 0,8.16 c -3.84,-6.48 -9.84,-9.72 -18,-9.72 -2.88,0 -5.52,0.48 -7.92,1.56 -2.4,0.96 -4.56,2.52 -6.24,4.44 -1.8,1.92 -3.12,4.08 -4.08,6.72 -0.96,2.52 -1.44,5.52 -1.44,8.76 l 0,38.16 15.24,0 0,-35.88 c 0,-7.2 3.24,-10.92 9.84,-10.92 3.84,0 6.84,1.32 8.88,3.72 2.04,2.52 3.12,5.64 3.12,9.6 l 0,33.48 15.12,0 0,-58.08 z m 53.28,47.16 -32.04,0 0,-24 c 0,-3.6 0.72,-6.48 2.04,-8.4 1.32,-2.04 3.6,-3 6.84,-3 3,0 5.28,0.96 6.72,2.88 1.44,1.92 2.16,4.8 2.16,8.4 l 0,15.12 14.28,0 0,-16.68 c 0,-3 -0.48,-6 -1.32,-8.76 -0.96,-2.76 -2.4,-5.28 -4.2,-7.44 -1.92,-2.04 -4.44,-3.72 -7.32,-5.04 -3,-1.32 -6.6,-1.92 -10.68,-1.92 -4.2,0 -7.8,0.6 -10.8,1.92 -3,1.32 -5.4,3 -7.32,5.04 -1.92,2.16 -3.24,4.68 -4.2,7.44 -0.84,2.76 -1.32,5.76 -1.32,8.88 l 0,52.2 15.12,0 0,-15.72 32.04,0 0,-10.92" /><path
       id="path28"
       style="fill:#1f0202;fill-opacity:1;fill-rule:nonzero;stroke:none"
       d="m 303.12,358.8 -7.68,0 0,39.6 7.68,0 0,-39.6 z m 20.64,14.16 c -0.72,-0.6 -2.16,-1.08 -3.96,-1.56 -2.64,-0.48 -4.44,-1.08 -5.4,-1.8 -0.96,-0.72 -1.44,-1.68 -1.44,-2.88 0,-2.16 1.2,-3.24 3.48,-3.24 0.96,0 1.92,0.12 2.88,0.36 0.84,0.36 1.68,0.72 2.28,1.32 0.72,0.48 1.32,1.2 1.68,2.04 0.36,0.84 0.6,1.92 0.6,3 0,0.36 0,0.72 0,1.32 0,0.6 -0.12,1.08 -0.12,1.44 z m -4.68,15.6 c 4.08,0 7.2,-0.96 9.24,-2.88 2.04,-1.92 3.12,-4.8 3.12,-8.52 l 0,-18.36 -7.2,0 c -0.12,0.36 -0.12,0.72 -0.24,1.08 -0.12,0.36 -0.12,0.72 -0.12,1.2 -0.96,-0.96 -2.16,-1.68 -3.72,-2.16 -1.44,-0.48 -3.12,-0.72 -5.16,-0.72 -2.88,0 -5.28,0.72 -6.96,2.16 -1.8,1.44 -2.64,3.48 -2.64,6 0,2.04 0.24,3.6 0.96,4.8 0.6,1.2 1.56,2.04 2.76,2.76 1.2,0.72 2.64,1.2 4.2,1.56 1.68,0.36 3.48,0.6 5.4,0.84 1.44,0.24 2.64,0.6 3.6,1.08 0.84,0.48 1.2,1.08 1.2,1.92 0,1.08 -0.48,1.92 -1.44,2.52 -1.08,0.6 -2.16,0.84 -3.36,0.84 -1.44,0 -2.52,-0.48 -3.48,-1.2 -0.96,-0.84 -1.44,-1.8 -1.56,-3.12 l -7.32,0 c 0.24,3.24 1.32,5.76 3.24,7.56 1.92,1.8 5.16,2.64 9.48,2.64 z m 41.52,-30.6 c 0,-2.04 -0.36,-3.84 -1.08,-5.4 -0.6,-1.68 -1.56,-3 -2.76,-4.2 -1.2,-1.08 -2.64,-1.92 -4.32,-2.52 -1.56,-0.6 -3.36,-0.84 -5.16,-0.84 -4.2,0 -7.44,1.08 -9.6,3.24 -2.16,2.04 -3.24,5.04 -3.24,8.88 l 7.2,0 c 0,-1.8 0.48,-3.12 1.44,-4.08 0.96,-0.96 2.52,-1.44 4.56,-1.44 0.72,0 1.32,0.24 1.92,0.48 0.72,0.24 1.2,0.72 1.8,1.2 0.48,0.6 0.84,1.2 1.08,2.04 0.36,0.72 0.48,1.56 0.48,2.52 l 0,4.8 c -0.6,-1.32 -1.56,-2.4 -3,-3.12 -1.44,-0.72 -3,-1.08 -4.8,-1.08 -1.56,0 -3,0.24 -4.2,0.72 -1.32,0.48 -2.52,1.2 -3.48,2.16 -0.96,0.96 -1.68,2.04 -2.16,3.36 -0.6,1.2 -0.84,2.64 -0.84,4.32 l 0,18.84 7.68,0 0,-17.76 c 0,-3.6 1.56,-5.4 4.92,-5.4 1.8,0 3.24,0.48 4.32,1.56 1.08,0.96 1.56,2.28 1.56,3.84 l 0,17.76 7.68,0 0,-29.88 z m 17.28,24.12 c -4.68,0 -6.96,-2.88 -6.96,-8.76 0,-5.88 2.28,-8.88 6.96,-8.88 4.68,0 7.08,3 7.08,8.88 0,5.88 -2.4,8.76 -7.08,8.76 z m 0,6.48 c 2.28,0 4.32,-0.36 6.24,-1.08 1.8,-0.72 3.36,-1.8 4.56,-3.12 1.32,-1.32 2.28,-2.88 3,-4.8 0.72,-1.92 0.96,-3.96 0.96,-6.24 0,-2.28 -0.36,-4.44 -0.96,-6.36 -0.72,-1.8 -1.8,-3.48 -3,-4.8 -1.32,-1.32 -2.88,-2.4 -4.68,-3.12 -1.8,-0.72 -3.84,-1.08 -6.12,-1.08 -2.28,0 -4.44,0.36 -6.24,1.2 -1.8,0.72 -3.48,1.8 -4.68,3.12 -1.32,1.32 -2.28,2.88 -3,4.8 -0.6,1.92 -0.96,3.96 -0.96,6.24 0,2.28 0.36,4.32 1.08,6.24 0.72,1.8 1.68,3.48 2.88,4.8 1.32,1.32 2.88,2.4 4.68,3.12 1.92,0.72 3.96,1.08 6.24,1.08 z m 43.32,-29.76 -7.2,0 0,4.08 c -1.92,-3.24 -4.92,-4.92 -9,-4.92 -1.44,0 -2.76,0.24 -3.96,0.84 -1.2,0.48 -2.28,1.2 -3.12,2.16 -0.96,0.96 -1.56,2.04 -2.04,3.36 -0.48,1.32 -0.84,2.76 -0.84,4.44 l 0,19.08 7.68,0 0,-18 c 0,-3.6 1.68,-5.4 4.92,-5.4 1.92,0 3.48,0.6 4.44,1.8 1.08,1.2 1.56,2.88 1.56,4.8 l 0,16.8 7.56,0 0,-29.04 z m 26.64,23.52 -15.96,0 0,-12 c 0,-1.8 0.24,-3.24 0.96,-4.2 0.72,-0.96 1.8,-1.44 3.36,-1.44 1.56,0 2.64,0.48 3.36,1.44 0.72,0.96 1.08,2.4 1.08,4.2 l 0,7.56 7.2,0 0,-8.4 c 0,-1.44 -0.24,-3 -0.72,-4.32 -0.48,-1.44 -1.08,-2.64 -2.04,-3.72 -0.96,-1.08 -2.16,-1.92 -3.72,-2.52 -1.44,-0.6 -3.24,-0.96 -5.28,-0.96 -2.16,0 -3.96,0.24 -5.4,0.96 -1.44,0.6 -2.64,1.44 -3.6,2.52 -0.96,1.08 -1.68,2.28 -2.16,3.72 -0.48,1.44 -0.6,2.88 -0.6,4.44 l 0,26.04 7.56,0 0,-7.8 15.96,0 0,-5.52" /><path
       id="path30"
       style="fill:#1f0206;fill-opacity:1;fill-rule:nonzero;stroke:none"
       d="m 237.6,422.16 -7.92,0 0,-6 c 0,-0.84 0.12,-1.56 0.48,-2.04 0.36,-0.48 0.84,-0.72 1.68,-0.72 0.72,0 1.32,0.24 1.68,0.72 0.36,0.48 0.6,1.2 0.6,2.04 l 0,3.84 3.48,0 0,-4.2 c 0,-0.72 -0.12,-1.44 -0.36,-2.16 -0.24,-0.72 -0.48,-1.32 -0.96,-1.92 -0.48,-0.48 -1.08,-0.96 -1.92,-1.2 -0.72,-0.36 -1.56,-0.48 -2.64,-0.48 -1.08,0 -1.92,0.12 -2.64,0.48 -0.72,0.24 -1.32,0.72 -1.8,1.2 -0.48,0.6 -0.84,1.2 -1.08,1.92 -0.24,0.72 -0.36,1.44 -0.36,2.16 l 0,13.08 3.84,0 0,-3.96 7.92,0 0,-2.76 z m 11.16,-3.12 c -0.12,1.08 -0.36,1.92 -0.96,2.4 -0.6,0.6 -1.32,0.84 -2.04,0.84 -0.84,0 -1.44,-0.24 -2.04,-0.84 -0.48,-0.6 -0.84,-1.32 -0.96,-2.4 l 6,0 z m -6.12,-2.4 c 0.12,-1.08 0.36,-1.92 0.96,-2.64 0.6,-0.6 1.32,-0.96 2.28,-0.96 0.6,0 1.2,0.12 1.68,0.48 0.48,0.24 0.84,0.72 0.96,1.2 l 3.96,0 c -0.48,-1.56 -1.2,-2.64 -2.4,-3.48 -1.08,-0.84 -2.4,-1.2 -3.96,-1.2 -4.8,0 -7.32,2.64 -7.32,7.92 0,2.28 0.6,4.08 1.8,5.4 1.2,1.32 3,1.92 5.28,1.92 4.56,0 6.84,-2.88 6.84,-8.64 l -10.08,0 z m 19.92,1.2 4.92,-7.44 -4.68,0 -2.52,4.44 -2.52,-4.44 -4.56,0 4.8,7.44 -4.68,7.08 4.68,0 2.4,-4.2 2.4,4.2 4.56,0 -4.8,-7.08 z m 17.52,4.32 -7.92,0 0,-6 c 0,-0.84 0.12,-1.56 0.48,-2.04 0.36,-0.48 0.84,-0.72 1.68,-0.72 0.72,0 1.32,0.24 1.68,0.72 0.36,0.48 0.6,1.2 0.6,2.04 l 0,3.84 3.48,0 0,-4.2 c 0,-0.72 -0.12,-1.44 -0.36,-2.16 -0.24,-0.72 -0.48,-1.32 -0.96,-1.92 -0.48,-0.48 -1.08,-0.96 -1.92,-1.2 -0.72,-0.36 -1.56,-0.48 -2.64,-0.48 -1.08,0 -1.92,0.12 -2.64,0.48 -0.72,0.24 -1.32,0.72 -1.8,1.2 -0.48,0.6 -0.84,1.2 -1.08,1.92 -0.24,0.72 -0.36,1.44 -0.36,2.16 l 0,13.08 3.84,0 0,-3.96 7.92,0 0,-2.76 z m 14.64,-11.76 -3.6,0 0,2.04 c -0.96,-1.56 -2.52,-2.4 -4.56,-2.4 -0.72,0 -1.32,0.12 -1.92,0.36 -0.6,0.24 -1.2,0.6 -1.56,1.08 -0.48,0.48 -0.84,1.08 -1.08,1.68 -0.24,0.72 -0.36,1.44 -0.36,2.28 l 0,9.48 3.84,0 0,-9 c 0,-1.8 0.84,-2.64 2.4,-2.64 0.96,0 1.8,0.24 2.28,0.84 0.48,0.6 0.72,1.44 0.72,2.4 l 0,8.4 3.84,0 0,-14.52 z m 9.96,10.92 c -0.36,0.12 -0.72,0.12 -1.08,0.12 -2.4,0 -3.6,-1.08 -3.6,-3.48 l 0,-7.56 -3.72,0 0,14.52 3.6,0 0,-1.68 c 0.24,0.48 0.6,0.84 0.96,1.08 0.36,0.24 0.6,0.48 1.08,0.6 0.36,0.24 0.72,0.24 1.08,0.36 0.36,0 0.72,0 1.08,0 l 0.6,0 0,-3.96 z m 10.44,-2.28 c -0.12,1.08 -0.36,1.92 -0.96,2.4 -0.6,0.6 -1.32,0.84 -2.04,0.84 -0.84,0 -1.44,-0.24 -2.04,-0.84 -0.48,-0.6 -0.84,-1.32 -0.96,-2.4 l 6,0 z m -6.12,-2.4 c 0.12,-1.08 0.36,-1.92 0.96,-2.64 0.6,-0.6 1.32,-0.96 2.28,-0.96 0.6,0 1.2,0.12 1.68,0.48 0.48,0.24 0.84,0.72 0.96,1.2 l 3.96,0 c -0.48,-1.56 -1.2,-2.64 -2.4,-3.48 -1.08,-0.84 -2.4,-1.2 -3.96,-1.2 -4.8,0 -7.32,2.64 -7.32,7.92 0,2.28 0.6,4.08 1.8,5.4 1.2,1.32 3,1.92 5.28,1.92 4.56,0 6.84,-2.88 6.84,-8.64 l -10.08,0 z m 20.28,14.04 c 3.12,0 5.4,-0.96 6.96,-2.76 1.56,-1.92 2.4,-4.56 2.4,-7.92 0,-1.2 -0.12,-2.4 -0.48,-3.48 -0.36,-1.08 -0.84,-2.04 -1.44,-2.88 -0.6,-0.84 -1.32,-1.56 -2.28,-2.16 -0.96,-0.6 -1.92,-0.96 -3.12,-1.2 0,-1.08 0.12,-1.92 0.6,-2.4 0.36,-0.48 0.84,-0.72 1.44,-0.72 0.6,0 1.08,0.24 1.44,0.72 0.36,0.48 0.6,1.2 0.6,2.16 l 3.6,0 c 0,-0.96 -0.12,-1.8 -0.48,-2.64 -0.24,-0.84 -0.6,-1.44 -1.2,-2.04 -0.48,-0.6 -1.2,-1.08 -1.92,-1.32 -0.72,-0.36 -1.44,-0.48 -2.28,-0.48 -0.84,0 -1.56,0.12 -2.28,0.36 -0.72,0.36 -1.32,0.72 -1.8,1.32 -0.48,0.48 -0.84,1.08 -1.08,1.8 -0.36,0.72 -0.48,1.56 -0.48,2.4 l 0,0.6 c -2.52,0.36 -4.44,1.32 -5.64,3 -1.32,1.56 -1.92,3.96 -1.92,6.96 0,1.68 0.12,3.24 0.6,4.44 0.36,1.32 0.96,2.52 1.8,3.36 0.84,0.96 1.8,1.68 3,2.16 1.08,0.48 2.4,0.72 3.96,0.72 z M 323.88,420 c 0,-2.4 0.48,-4.08 1.44,-5.16 0.96,-1.08 2.28,-1.56 3.96,-1.56 0.72,0 1.44,0.12 2.04,0.36 0.72,0.24 1.2,0.72 1.68,1.2 0.48,0.6 0.96,1.32 1.2,2.16 0.24,0.84 0.36,1.8 0.36,3 0,2.28 -0.36,3.96 -1.32,5.16 -0.96,1.2 -2.28,1.8 -3.96,1.8 -1.68,0 -3,-0.6 -3.96,-1.8 -0.96,-1.2 -1.44,-2.88 -1.44,-5.16 z m 29.04,-9.6 -3.6,0 0,2.04 c -0.96,-1.56 -2.52,-2.4 -4.56,-2.4 -0.72,0 -1.32,0.12 -1.92,0.36 -0.6,0.24 -1.2,0.6 -1.56,1.08 -0.48,0.48 -0.84,1.08 -1.08,1.68 -0.24,0.72 -0.36,1.44 -0.36,2.28 l 0,9.48 3.84,0 0,-9 c 0,-1.8 0.84,-2.64 2.4,-2.64 0.96,0 1.8,0.24 2.28,0.84 0.48,0.6 0.72,1.44 0.72,2.4 l 0,8.4 3.84,0 0,-14.52 z m 11.04,8.64 c 0,1.08 -0.36,1.92 -0.96,2.4 -0.6,0.6 -1.2,0.84 -1.92,0.84 -0.84,0 -1.56,-0.24 -2.04,-0.84 -0.6,-0.6 -0.84,-1.32 -0.96,-2.4 l 5.88,0 z m -6,-2.4 c 0,-1.08 0.36,-1.92 0.96,-2.64 0.6,-0.6 1.32,-0.96 2.28,-0.96 0.6,0 1.2,0.12 1.68,0.48 0.48,0.24 0.72,0.72 0.96,1.2 l 3.96,0 c -0.48,-1.56 -1.32,-2.64 -2.4,-3.48 -1.08,-0.84 -2.52,-1.2 -4.08,-1.2 -4.8,0 -7.2,2.64 -7.2,7.92 0,2.28 0.6,4.08 1.8,5.4 1.2,1.32 3,1.92 5.16,1.92 4.56,0 6.84,-2.88 6.84,-8.64 l -9.96,0 z m 19.56,4.68 c -0.36,0.12 -0.72,0.12 -1.08,0.12 -2.28,0 -3.48,-1.08 -3.48,-3.48 l 0,-7.56 -3.84,0 0,14.52 3.6,0 0,-1.68 c 0.36,0.48 0.6,0.84 0.96,1.08 0.36,0.24 0.72,0.48 1.08,0.6 0.36,0.24 0.72,0.24 1.08,0.36 0.36,0 0.84,0 1.2,0 l 0.48,0 0,-3.96 z m 13.92,-11.28 c 0,-0.96 -0.12,-1.92 -0.48,-2.76 -0.36,-0.84 -0.84,-1.44 -1.44,-2.04 -0.6,-0.6 -1.32,-0.96 -2.04,-1.32 -0.84,-0.24 -1.68,-0.36 -2.64,-0.36 -2.16,0 -3.72,0.48 -4.8,1.56 -1.08,1.08 -1.68,2.52 -1.68,4.56 l 3.6,0 c 0,-0.96 0.24,-1.68 0.72,-2.16 0.48,-0.48 1.32,-0.72 2.28,-0.72 0.36,0 0.72,0.12 1.08,0.24 0.24,0.12 0.6,0.36 0.84,0.6 0.24,0.36 0.36,0.6 0.6,1.08 0.12,0.36 0.12,0.72 0.12,1.2 l 0,2.4 c -0.24,-0.6 -0.72,-1.2 -1.44,-1.56 -0.72,-0.36 -1.56,-0.48 -2.4,-0.48 -0.84,0 -1.44,0.12 -2.16,0.36 -0.6,0.24 -1.2,0.6 -1.68,1.08 -0.48,0.48 -0.84,0.96 -1.08,1.68 -0.24,0.6 -0.48,1.32 -0.48,2.16 l 0,9.36 3.84,0 0,-8.88 c 0,-1.8 0.84,-2.64 2.52,-2.64 0.84,0 1.56,0.24 2.16,0.72 0.48,0.48 0.72,1.2 0.72,1.92 l 0,8.88 3.84,0 0,-14.88 z m 5.52,3.96 9.72,0 0,-3.6 -13.8,0 0,19.56 4.08,0 0,-15.96 z m 17.76,8.04 c -2.28,0 -3.48,-1.44 -3.48,-4.32 0,-3 1.2,-4.44 3.48,-4.44 2.4,0 3.48,1.44 3.48,4.44 0,2.88 -1.08,4.32 -3.48,4.32 z m 0,3.24 c 1.2,0 2.16,-0.12 3.12,-0.48 0.96,-0.36 1.68,-0.84 2.28,-1.56 0.72,-0.72 1.2,-1.44 1.56,-2.4 0.36,-0.96 0.48,-2.04 0.48,-3.12 0,-1.2 -0.24,-2.28 -0.6,-3.12 -0.36,-0.96 -0.84,-1.8 -1.44,-2.52 -0.6,-0.6 -1.44,-1.08 -2.28,-1.44 -0.96,-0.36 -1.92,-0.6 -3.12,-0.6 -1.2,0 -2.16,0.24 -3.12,0.6 -0.96,0.36 -1.68,0.84 -2.28,1.56 -0.72,0.6 -1.2,1.44 -1.56,2.4 -0.36,0.96 -0.48,1.92 -0.48,3.12 0,1.08 0.24,2.16 0.6,3.12 0.36,0.96 0.84,1.68 1.44,2.4 0.6,0.6 1.44,1.2 2.28,1.56 0.96,0.36 2.04,0.48 3.12,0.48 z m 15.48,-3.24 c -2.16,0 -3.24,-1.44 -3.24,-4.44 0,-1.32 0.24,-2.4 0.84,-3.24 0.6,-0.72 1.44,-1.08 2.4,-1.08 0.48,0 0.84,0 1.32,0.24 0.36,0.24 0.72,0.48 1.08,0.84 0.24,0.36 0.48,0.84 0.6,1.32 0.24,0.48 0.24,1.08 0.24,1.68 0,3.12 -1.08,4.68 -3.24,4.68 z m 6.96,-11.64 -3.72,0 -0.12,1.8 c -0.84,-1.44 -2.16,-2.16 -3.96,-2.16 -1.08,0 -2.04,0.24 -2.76,0.6 -0.84,0.48 -1.44,0.96 -2.04,1.68 -0.48,0.72 -0.84,1.56 -1.08,2.52 -0.36,0.96 -0.48,1.92 -0.48,3 0,1.08 0.12,2.04 0.48,3 0.24,0.96 0.6,1.68 1.2,2.4 0.48,0.6 1.08,1.2 1.8,1.56 0.72,0.36 1.68,0.48 2.52,0.48 1.8,0 3.24,-0.72 4.32,-2.28 l 0,7.2 3.84,0 0,-19.8 z m 8.76,20.04 c -2.4,-3.96 -3.6,-8.16 -3.6,-12.72 0,-4.56 1.2,-8.88 3.6,-12.96 l -2.76,0 c -0.72,0.96 -1.32,1.92 -1.92,2.88 -0.6,0.96 -1.08,2.04 -1.44,3 -0.48,1.08 -0.84,2.16 -1.08,3.24 -0.24,1.08 -0.36,2.28 -0.36,3.6 0,4.68 1.56,9 4.8,12.96 l 2.76,0 z m 2.88,0 c 3.12,-4.44 4.8,-8.76 4.8,-12.96 0,-4.2 -1.68,-8.4 -4.92,-12.72 l -2.64,0 c 2.4,3.84 3.6,8.04 3.6,12.72 0,4.56 -1.2,8.88 -3.6,12.96 l 2.76,0" /><path
       id="path32"
       style="fill:#1f0208;fill-opacity:1;fill-rule:nonzero;stroke:none"
       d="m 70.08,369.84 -3.84,0 0,14.52 3.84,0 0,-14.52 z m 0,16.32 -3.84,0 0,3.48 3.84,0 0,-3.48 z m 5.04,-3.84 c 0.48,0.96 1.08,1.56 1.8,1.92 0.72,0.36 1.44,0.6 2.4,0.6 0.96,0 1.8,-0.24 2.4,-0.6 0.6,-0.36 1.2,-0.96 1.68,-1.8 0.72,1.56 2.04,2.4 3.96,2.4 0.72,0 1.32,-0.12 2.04,-0.48 0.6,-0.24 1.08,-0.6 1.56,-0.96 0.36,-0.48 0.72,-0.96 0.96,-1.56 0.24,-0.6 0.36,-1.2 0.36,-1.92 l 0,-10.08 -3.72,0 0,8.88 c 0,0.84 -0.24,1.56 -0.6,2.16 -0.48,0.48 -0.96,0.72 -1.68,0.72 -0.72,0 -1.32,-0.24 -1.8,-0.84 -0.48,-0.6 -0.6,-1.32 -0.6,-2.16 l 0,-8.76 -3.84,0 0,8.76 c 0,1.2 -0.24,1.92 -0.6,2.4 -0.36,0.36 -0.84,0.6 -1.68,0.6 -1.56,0 -2.4,-0.96 -2.4,-2.88 l 0,-8.88 -3.84,0 0,14.52 3.6,0 0,-2.04 z m 27.48,-5.28 c -0.36,-0.36 -0.96,-0.6 -1.92,-0.84 -1.32,-0.24 -2.28,-0.48 -2.76,-0.84 -0.48,-0.36 -0.6,-0.84 -0.6,-1.44 0,-1.08 0.48,-1.68 1.68,-1.68 0.48,0 0.96,0.12 1.44,0.24 0.48,0.12 0.84,0.36 1.2,0.6 0.36,0.24 0.6,0.6 0.72,1.08 0.24,0.36 0.36,0.84 0.36,1.44 0,0.12 0,0.36 0,0.72 0,0.24 0,0.48 -0.12,0.72 z m -2.28,7.8 c 2.04,0 3.6,-0.48 4.56,-1.56 1.08,-0.96 1.56,-2.4 1.56,-4.2 l 0,-9.24 -3.48,0 c -0.12,0.24 -0.12,0.36 -0.24,0.6 0,0.24 0,0.36 0,0.6 -0.48,-0.48 -1.08,-0.84 -1.8,-1.08 -0.72,-0.24 -1.68,-0.36 -2.64,-0.36 -1.44,0 -2.64,0.36 -3.48,1.08 -0.96,0.72 -1.32,1.68 -1.32,3 0,0.96 0.12,1.8 0.48,2.4 0.36,0.6 0.72,1.08 1.32,1.44 0.6,0.36 1.32,0.6 2.16,0.72 0.84,0.12 1.68,0.36 2.64,0.48 0.84,0.12 1.44,0.24 1.8,0.48 0.48,0.24 0.72,0.6 0.72,0.96 0,0.6 -0.24,0.96 -0.84,1.2 -0.48,0.36 -1.08,0.48 -1.68,0.48 -0.72,0 -1.2,-0.24 -1.68,-0.6 -0.48,-0.36 -0.72,-0.96 -0.84,-1.56 l -3.6,0 c 0.12,1.56 0.6,2.88 1.68,3.72 0.96,0.96 2.52,1.44 4.68,1.44 z m 14.64,-3.36 c -2.16,0 -3.24,-1.56 -3.24,-4.44 0,-1.32 0.24,-2.4 0.84,-3.12 0.6,-0.72 1.44,-1.08 2.4,-1.08 0.96,0 1.8,0.36 2.4,1.08 0.6,0.72 0.84,1.68 0.84,2.88 0,3.12 -1.08,4.68 -3.24,4.68 z m 6.96,-11.76 c 0,-1.08 -0.12,-2.04 -0.48,-2.88 -0.36,-0.84 -0.96,-1.56 -1.56,-2.16 -0.72,-0.48 -1.44,-0.96 -2.28,-1.2 -0.96,-0.36 -1.8,-0.48 -2.88,-0.48 -0.96,0 -1.92,0.12 -2.76,0.48 -0.84,0.24 -1.68,0.6 -2.28,1.2 -0.6,0.48 -1.08,1.08 -1.44,1.92 -0.36,0.72 -0.48,1.56 -0.48,2.52 l 3.48,0 c 0,-0.96 0.36,-1.56 0.96,-2.04 0.6,-0.48 1.32,-0.72 2.28,-0.72 0.96,0 1.92,0.24 2.64,0.84 0.72,0.6 0.96,1.32 0.96,2.28 l 0,2.4 c -0.24,-0.72 -0.72,-1.2 -1.44,-1.56 -0.72,-0.36 -1.56,-0.6 -2.52,-0.6 -1.2,0 -2.16,0.24 -3,0.72 -0.84,0.36 -1.44,0.96 -1.92,1.68 -0.6,0.6 -0.96,1.44 -1.2,2.28 -0.24,0.96 -0.24,1.92 -0.24,2.88 0,1.08 0.12,2.16 0.48,3 0.36,0.96 0.72,1.8 1.32,2.4 0.6,0.72 1.2,1.2 2.04,1.56 0.72,0.36 1.56,0.6 2.4,0.6 1.8,0 3.24,-0.72 4.08,-2.28 l 0,1.8 3.84,0 0,-14.64 z m 11.16,8.88 c -0.12,1.08 -0.36,1.8 -0.96,2.4 -0.6,0.48 -1.32,0.72 -2.04,0.72 -0.84,0 -1.44,-0.24 -2.04,-0.84 -0.48,-0.48 -0.84,-1.32 -0.96,-2.28 l 6,0 z m -6.12,-2.52 c 0.12,-1.08 0.36,-1.92 0.96,-2.52 0.6,-0.72 1.32,-1.08 2.28,-1.08 0.6,0 1.2,0.24 1.68,0.48 0.48,0.36 0.84,0.72 0.96,1.2 l 3.96,0 c -0.48,-1.44 -1.2,-2.64 -2.4,-3.48 -1.08,-0.84 -2.4,-1.2 -3.96,-1.2 -4.8,0 -7.32,2.64 -7.32,7.92 0,2.28 0.6,4.08 1.8,5.4 1.2,1.32 3,2.04 5.28,2.04 4.56,0 6.84,-2.88 6.84,-8.76 l -10.08,0 z m 19.8,9 -2.52,-7.8 5.04,0 -2.52,7.8 0,0 z m 9.36,-15.24 -4.44,0 -1.32,4.08 -7.2,0 -1.32,-4.08 -4.32,0 6.96,19.68 4.68,0 6.96,-19.68 z m 12.6,11.88 -7.92,0 0,-6 c 0,-0.96 0.12,-1.68 0.48,-2.16 0.36,-0.48 0.84,-0.72 1.68,-0.72 0.72,0 1.32,0.24 1.68,0.72 0.36,0.48 0.6,1.2 0.6,2.04 l 0,3.84 3.48,0 0,-4.2 c 0,-0.72 -0.12,-1.44 -0.24,-2.16 -0.24,-0.72 -0.6,-1.32 -1.08,-1.8 -0.48,-0.6 -1.08,-0.96 -1.8,-1.32 -0.72,-0.36 -1.68,-0.48 -2.64,-0.48 -1.08,0 -2.04,0.12 -2.76,0.48 -0.72,0.36 -1.32,0.72 -1.8,1.32 -0.48,0.48 -0.84,1.08 -1.08,1.8 -0.24,0.72 -0.36,1.44 -0.36,2.28 l 0,12.96 3.84,0 0,-3.96 7.92,0 0,-2.64 z m 8.76,-0.12 c -2.4,0 -3.6,-1.56 -3.6,-4.44 0,-3 1.2,-4.44 3.6,-4.44 2.28,0 3.48,1.44 3.48,4.44 0,2.88 -1.2,4.44 -3.48,4.44 z m 0,3.24 c 1.08,0 2.16,-0.24 3,-0.6 0.96,-0.36 1.68,-0.84 2.4,-1.56 0.6,-0.6 1.08,-1.44 1.44,-2.4 0.36,-0.96 0.48,-2.04 0.48,-3.12 0,-1.2 -0.12,-2.16 -0.48,-3.12 -0.36,-0.96 -0.84,-1.8 -1.56,-2.4 -0.6,-0.72 -1.32,-1.2 -2.28,-1.56 -0.96,-0.36 -1.92,-0.6 -3,-0.6 -1.2,0 -2.28,0.24 -3.24,0.6 -0.84,0.36 -1.68,0.84 -2.28,1.56 -0.6,0.6 -1.08,1.44 -1.44,2.4 -0.36,0.96 -0.6,2.04 -0.6,3.12 0,1.2 0.24,2.16 0.6,3.12 0.36,0.96 0.84,1.68 1.44,2.4 0.6,0.72 1.44,1.2 2.4,1.56 0.84,0.36 1.92,0.6 3.12,0.6 z m 12.12,-2.52 c 0.48,0.96 1.08,1.56 1.8,1.92 0.72,0.36 1.44,0.6 2.4,0.6 0.96,0 1.8,-0.24 2.4,-0.6 0.6,-0.36 1.2,-0.96 1.68,-1.8 0.72,1.56 2.04,2.4 3.96,2.4 0.72,0 1.32,-0.12 2.04,-0.48 0.6,-0.24 1.08,-0.6 1.56,-0.96 0.36,-0.48 0.72,-0.96 0.96,-1.56 0.24,-0.6 0.36,-1.2 0.36,-1.92 l 0,-10.08 -3.72,0 0,8.88 c 0,0.84 -0.24,1.56 -0.6,2.16 -0.48,0.48 -0.96,0.72 -1.68,0.72 -0.72,0 -1.32,-0.24 -1.8,-0.84 -0.48,-0.6 -0.6,-1.32 -0.6,-2.16 l 0,-8.76 -3.84,0 0,8.76 c 0,1.2 -0.24,1.92 -0.6,2.4 -0.36,0.36 -0.84,0.6 -1.68,0.6 -1.56,0 -2.4,-0.96 -2.4,-2.88 l 0,-8.88 -3.84,0 0,14.52 3.6,0 0,-2.04 z m 22.56,-12.48 -3.84,0 0,14.52 3.84,0 0,-14.52 z m 0,16.32 -3.84,0 0,3.48 3.84,0 0,-3.48 z m 10.68,-6.96 c -0.12,0.72 -0.48,1.32 -0.96,1.8 -0.48,0.36 -1.08,0.6 -1.8,0.6 -0.36,0 -0.84,-0.12 -1.2,-0.24 -0.36,-0.12 -0.6,-0.36 -0.96,-0.6 -0.24,-0.36 -0.48,-0.84 -0.6,-1.32 -0.12,-0.6 -0.24,-1.2 -0.24,-2.04 0,-1.56 0.36,-2.76 0.84,-3.48 0.6,-0.84 1.32,-1.2 2.04,-1.2 0.72,0 1.32,0.24 1.92,0.6 0.48,0.48 0.84,1.08 0.84,1.8 l 3.96,0 c -0.12,-0.84 -0.36,-1.56 -0.72,-2.28 -0.36,-0.72 -0.96,-1.32 -1.56,-1.8 -0.6,-0.48 -1.2,-0.84 -2.04,-1.08 -0.72,-0.36 -1.56,-0.48 -2.4,-0.48 -0.96,0 -1.92,0.24 -2.76,0.48 -0.72,0.36 -1.44,0.84 -2.04,1.56 -0.6,0.6 -1.08,1.44 -1.32,2.4 -0.36,0.96 -0.48,2.04 -0.48,3.36 0,1.32 0.12,2.4 0.48,3.36 0.36,0.96 0.72,1.8 1.32,2.4 0.6,0.6 1.32,0.96 2.16,1.32 0.84,0.24 1.8,0.48 2.76,0.48 1.92,0 3.48,-0.6 4.68,-1.56 1.08,-0.96 1.8,-2.28 1.92,-4.08 l -3.84,0 z m 13.32,5.88 -2.4,-7.8 4.92,0 -2.4,7.8 -0.12,0 z m 9.36,-15.24 -4.44,0 -1.2,4.08 -7.2,0 -1.44,-4.08 -4.32,0 6.96,19.68 4.8,0 6.84,-19.68 z m 7.8,11.64 c -2.16,0 -3.24,-1.44 -3.24,-4.44 0,-1.32 0.24,-2.4 0.84,-3.12 0.6,-0.84 1.32,-1.2 2.4,-1.2 0.48,0 0.84,0.12 1.32,0.24 0.36,0.24 0.72,0.48 0.96,0.84 0.36,0.36 0.6,0.84 0.72,1.32 0.12,0.48 0.24,1.08 0.24,1.68 0,3.12 -1.08,4.68 -3.24,4.68 z m 6.84,-11.64 -3.72,0 0,1.8 c -0.84,-1.44 -2.16,-2.16 -4.08,-2.16 -1.08,0 -1.92,0.24 -2.76,0.6 -0.72,0.48 -1.44,1.08 -1.92,1.68 -0.48,0.72 -0.96,1.56 -1.2,2.52 -0.24,0.96 -0.36,1.92 -0.36,3 0,1.08 0.12,2.16 0.36,3 0.36,0.96 0.72,1.8 1.2,2.4 0.6,0.72 1.2,1.2 1.92,1.56 0.72,0.36 1.56,0.6 2.52,0.6 1.8,0 3.24,-0.84 4.2,-2.28 l 0,7.08 3.84,0 0,-19.8 z m 8.4,11.64 c -2.16,0 -3.24,-1.44 -3.24,-4.44 0,-1.32 0.24,-2.4 0.84,-3.12 0.6,-0.84 1.44,-1.2 2.4,-1.2 0.48,0 0.96,0.12 1.32,0.24 0.36,0.24 0.72,0.48 1.08,0.84 0.24,0.36 0.48,0.84 0.6,1.32 0.24,0.48 0.24,1.08 0.24,1.68 0,3.12 -1.08,4.68 -3.24,4.68 z m 6.96,-11.64 -3.72,0 -0.12,1.8 c -0.84,-1.44 -2.16,-2.16 -3.96,-2.16 -1.08,0 -2.04,0.24 -2.76,0.6 -0.84,0.48 -1.44,1.08 -2.04,1.68 -0.48,0.72 -0.84,1.56 -1.08,2.52 -0.24,0.96 -0.48,1.92 -0.48,3 0,1.08 0.12,2.16 0.48,3 0.24,0.96 0.6,1.8 1.2,2.4 0.48,0.72 1.08,1.2 1.8,1.56 0.84,0.36 1.68,0.6 2.52,0.6 1.8,0 3.24,-0.84 4.32,-2.28 l 0,7.08 3.84,0 0,-19.8 z m 8.76,20.04 c -2.4,-3.96 -3.6,-8.16 -3.6,-12.72 0,-4.56 1.2,-8.88 3.6,-12.96 l -2.76,0 c -0.72,0.96 -1.32,2.04 -1.92,3 -0.6,0.96 -1.08,1.92 -1.44,3 -0.48,0.96 -0.84,2.04 -1.08,3.12 -0.24,1.08 -0.36,2.4 -0.36,3.72 0,4.56 1.56,8.88 4.8,12.84 l 2.76,0 z m 2.88,0 c 3.24,-4.44 4.8,-8.76 4.8,-12.96 0,-4.2 -1.68,-8.4 -4.92,-12.72 l -2.64,0 c 2.4,3.84 3.6,8.16 3.6,12.72 0,4.68 -1.2,9 -3.6,12.96 l 2.76,0" /><path
       id="path34"
       style="fill:#bd5100;fill-opacity:1;fill-rule:nonzero;stroke:none"
       d="m 139.56,339.36 c -2.16,0 -3.24,-1.44 -3.24,-4.44 0,-1.32 0.24,-2.28 0.84,-3 0.6,-0.84 1.44,-1.2 2.4,-1.2 0.96,0 1.68,0.36 2.28,1.08 0.6,0.72 0.96,1.68 0.96,3 0,3.12 -1.08,4.56 -3.24,4.56 z m 6.96,-11.64 c 0,-1.08 -0.24,-2.04 -0.6,-2.88 -0.36,-0.84 -0.84,-1.56 -1.56,-2.16 -0.6,-0.6 -1.32,-0.96 -2.28,-1.32 -0.84,-0.24 -1.8,-0.36 -2.76,-0.36 -1.08,0 -2.04,0.12 -2.88,0.36 -0.84,0.24 -1.56,0.72 -2.16,1.2 -0.6,0.6 -1.08,1.2 -1.44,1.92 -0.36,0.72 -0.6,1.68 -0.6,2.52 l 3.6,0 c 0,-0.84 0.36,-1.56 0.84,-2.04 0.6,-0.48 1.44,-0.72 2.4,-0.72 0.96,0 1.8,0.36 2.52,0.84 0.72,0.6 1.08,1.32 1.08,2.28 l 0,2.4 c -0.24,-0.6 -0.72,-1.2 -1.44,-1.56 -0.72,-0.36 -1.56,-0.48 -2.52,-0.48 -1.2,0 -2.16,0.24 -3,0.6 -0.84,0.48 -1.44,0.96 -2.04,1.68 -0.48,0.72 -0.84,1.56 -1.08,2.4 -0.24,0.96 -0.36,1.8 -0.36,2.76 0,1.2 0.24,2.16 0.48,3.12 0.36,0.96 0.84,1.68 1.44,2.4 0.6,0.6 1.2,1.2 2.04,1.56 0.72,0.36 1.56,0.48 2.4,0.48 1.8,0 3.12,-0.72 4.08,-2.16 l 0,1.8 3.84,0 0,-14.64 z m 5.4,0.12 -3.84,0 0,19.8 3.84,0 0,-19.8 z m 8.76,5.88 -7.68,0 0,3.6 7.68,0 0,-3.6 z m 16.8,10.32 -5.88,0 0,-16.2 -4.08,0 0,16.2 -5.88,0 0,3.36 15.84,0 0,-3.36 z m 10.44,-7.56 c 0,1.08 -0.36,1.92 -0.96,2.4 -0.6,0.48 -1.2,0.84 -1.92,0.84 -0.84,0 -1.56,-0.36 -2.04,-0.84 -0.6,-0.6 -0.84,-1.32 -0.96,-2.4 l 5.88,0 z m -6,-2.4 c 0,-1.08 0.36,-1.92 0.96,-2.64 0.6,-0.6 1.32,-0.96 2.28,-0.96 0.6,0 1.2,0.12 1.68,0.48 0.48,0.24 0.72,0.6 0.96,1.2 l 3.96,0 c -0.48,-1.56 -1.32,-2.64 -2.4,-3.48 -1.08,-0.84 -2.52,-1.2 -4.08,-1.2 -4.8,0 -7.2,2.64 -7.2,7.92 0,2.16 0.6,3.96 1.8,5.28 1.2,1.32 3,2.04 5.16,2.04 4.56,0 6.84,-2.88 6.84,-8.64 l -9.96,0 z m 19.8,3.84 c -0.24,1.32 -1.08,1.92 -2.64,1.92 -0.6,0 -1.08,-0.12 -1.56,-0.36 -0.48,-0.24 -0.72,-0.6 -0.72,-1.08 0,-0.6 0.84,-0.96 2.4,-1.32 2.28,-0.48 3.72,-0.84 4.44,-1.2 1.56,-0.72 2.28,-1.8 2.28,-3.36 0,-1.68 -0.6,-3 -1.8,-3.84 -1.2,-0.84 -2.76,-1.32 -4.68,-1.32 -0.96,0 -1.8,0.12 -2.64,0.36 -0.84,0.24 -1.56,0.6 -2.16,1.08 -0.6,0.48 -1.2,0.96 -1.56,1.56 -0.36,0.6 -0.48,1.32 -0.48,2.16 l 3.96,0 c 0,-0.72 0.24,-1.2 0.72,-1.68 0.6,-0.36 1.32,-0.6 2.16,-0.6 0.72,0 1.32,0.24 1.92,0.48 0.48,0.24 0.72,0.6 0.72,1.08 0,0.24 -0.24,0.48 -0.6,0.84 -0.36,0.24 -0.96,0.36 -1.68,0.6 -2.28,0.48 -3.72,0.96 -4.32,1.2 -1.56,0.72 -2.4,1.92 -2.4,3.48 0,0.6 0.12,1.2 0.36,1.8 0.24,0.6 0.72,1.2 1.2,1.56 0.48,0.48 1.2,0.84 1.92,1.2 0.72,0.24 1.68,0.36 2.76,0.36 0.84,0 1.68,-0.12 2.4,-0.36 0.72,-0.24 1.32,-0.6 1.92,-0.96 0.48,-0.48 0.96,-0.96 1.32,-1.56 0.36,-0.6 0.48,-1.32 0.48,-2.04 l -3.72,0 z m 13.8,0 c -0.24,1.32 -1.08,1.92 -2.64,1.92 -0.6,0 -1.2,-0.12 -1.56,-0.36 -0.48,-0.24 -0.72,-0.6 -0.72,-1.08 0,-0.6 0.72,-0.96 2.4,-1.32 2.28,-0.48 3.72,-0.84 4.32,-1.2 1.56,-0.72 2.4,-1.8 2.4,-3.36 0,-1.68 -0.6,-3 -1.8,-3.84 -1.2,-0.84 -2.76,-1.32 -4.68,-1.32 -0.96,0 -1.92,0.12 -2.64,0.36 -0.84,0.24 -1.68,0.6 -2.28,1.08 -0.6,0.48 -1.08,0.96 -1.44,1.56 -0.36,0.6 -0.48,1.32 -0.6,2.16 l 3.96,0 c 0,-0.72 0.24,-1.2 0.84,-1.68 0.48,-0.36 1.2,-0.6 2.16,-0.6 0.72,0 1.32,0.24 1.8,0.48 0.48,0.24 0.84,0.6 0.84,1.08 0,0.24 -0.24,0.48 -0.6,0.84 -0.36,0.24 -0.96,0.36 -1.8,0.6 -2.28,0.48 -3.72,0.96 -4.32,1.2 -1.56,0.72 -2.28,1.92 -2.28,3.48 0,0.6 0.12,1.2 0.36,1.8 0.24,0.6 0.6,1.2 1.2,1.56 0.48,0.48 1.08,0.84 1.92,1.2 0.72,0.24 1.68,0.36 2.76,0.36 0.84,0 1.56,-0.12 2.4,-0.36 0.72,-0.24 1.32,-0.6 1.92,-0.96 0.48,-0.48 0.96,-0.96 1.2,-1.56 0.36,-0.6 0.6,-1.32 0.6,-2.04 l -3.72,0 z m 9.12,-6.48 9.72,0 0,-3.6 -13.92,0 0,19.56 4.2,0 0,-15.96 z m 20.16,5.04 c -0.12,1.08 -0.36,1.92 -0.96,2.4 -0.6,0.48 -1.32,0.84 -2.04,0.84 -0.84,0 -1.44,-0.36 -2.04,-0.84 -0.48,-0.6 -0.84,-1.32 -0.96,-2.4 l 6,0 z m -6.12,-2.4 c 0.12,-1.08 0.36,-1.92 0.96,-2.64 0.6,-0.6 1.32,-0.96 2.28,-0.96 0.6,0 1.2,0.12 1.68,0.48 0.48,0.24 0.84,0.6 0.96,1.2 l 3.96,0 c -0.48,-1.56 -1.2,-2.64 -2.4,-3.48 -1.08,-0.84 -2.4,-1.2 -3.96,-1.2 -4.8,0 -7.32,2.64 -7.32,7.92 0,2.16 0.6,3.96 1.92,5.28 1.2,1.32 2.88,2.04 5.16,2.04 4.56,0 6.84,-2.88 6.84,-8.64 l -10.08,0 z m 19.68,-6.24 -3.96,0 -5.16,14.52 4.2,0 3.12,-9.6 3,9.6 4.08,0 -5.28,-14.52 z m 15.72,8.64 c 0,1.08 -0.36,1.92 -0.96,2.4 -0.6,0.48 -1.32,0.84 -2.04,0.84 -0.72,0 -1.44,-0.36 -2.04,-0.84 -0.48,-0.6 -0.84,-1.32 -0.96,-2.4 l 6,0 z m -6.12,-2.4 c 0.12,-1.08 0.48,-1.92 0.96,-2.64 0.6,-0.6 1.32,-0.96 2.28,-0.96 0.6,0 1.2,0.12 1.68,0.48 0.48,0.24 0.84,0.6 0.96,1.2 l 3.96,0 c -0.48,-1.56 -1.2,-2.64 -2.4,-3.48 -1.08,-0.84 -2.4,-1.2 -3.96,-1.2 -4.8,0 -7.2,2.64 -7.2,7.92 0,2.16 0.6,3.96 1.8,5.28 1.2,1.32 2.88,2.04 5.16,2.04 4.56,0 6.84,-2.88 6.84,-8.64 l -10.08,0 z m 15,-6.24 -3.72,0 0,19.8 3.72,0 0,-19.8 z m 5.28,9.48 c 0,-2.28 0.48,-3.96 1.44,-5.04 0.84,-1.08 2.16,-1.56 3.96,-1.56 0.72,0 1.44,0.12 2.04,0.36 0.6,0.24 1.2,0.6 1.68,1.2 0.48,0.48 0.84,1.2 1.2,2.04 0.24,0.84 0.36,1.92 0.36,3 0,2.28 -0.48,4.08 -1.32,5.28 -0.96,1.2 -2.28,1.8 -3.96,1.8 -1.8,0 -3.12,-0.6 -3.96,-1.8 -0.96,-1.2 -1.44,-2.88 -1.44,-5.28 z m 5.4,10.68 c 3,0 5.4,-0.84 6.96,-2.76 1.56,-1.8 2.4,-4.44 2.4,-7.92 0,-3.48 -0.84,-6 -2.4,-7.68 -1.56,-1.68 -3.84,-2.52 -6.96,-2.52 -3.12,0 -5.52,0.96 -7.08,2.64 -1.56,1.68 -2.4,4.32 -2.4,7.68 0,1.68 0.24,3.12 0.72,4.44 0.36,1.32 0.96,2.4 1.8,3.36 0.72,0.96 1.8,1.56 2.88,2.04 1.2,0.48 2.52,0.72 4.08,0.72 z m 23.64,-20.16 -3.72,0 0,2.04 c -0.96,-1.56 -2.4,-2.4 -4.44,-2.4 -0.72,0 -1.44,0.12 -2.04,0.36 -0.6,0.24 -1.08,0.6 -1.56,1.08 -0.36,0.48 -0.72,1.08 -0.96,1.68 -0.24,0.72 -0.36,1.44 -0.36,2.16 l 0,9.6 3.84,0 0,-9 c 0,-1.8 0.72,-2.64 2.4,-2.64 0.96,0 1.68,0.24 2.28,0.84 0.48,0.6 0.72,1.44 0.72,2.4 l 0,8.4 3.84,0 0,-14.52 z m 13.32,11.76 -8.04,0 0,-6 c 0,-0.84 0.12,-1.56 0.48,-2.04 0.36,-0.48 0.96,-0.84 1.68,-0.84 0.84,0 1.32,0.24 1.68,0.72 0.36,0.48 0.6,1.2 0.6,2.16 l 0,3.84 3.6,0 0,-4.2 c 0,-0.72 -0.12,-1.56 -0.36,-2.16 -0.24,-0.72 -0.6,-1.32 -1.08,-1.92 -0.48,-0.48 -1.08,-0.96 -1.8,-1.32 -0.72,-0.24 -1.68,-0.36 -2.64,-0.36 -1.08,0 -2.04,0.12 -2.76,0.36 -0.72,0.36 -1.32,0.84 -1.8,1.32 -0.48,0.48 -0.84,1.2 -1.08,1.92 -0.24,0.72 -0.36,1.44 -0.36,2.16 l 0,13.08 3.84,0 0,-3.96 8.04,0 0,-2.76 z m 11.04,-3.12 c 0,1.08 -0.36,1.92 -0.96,2.4 -0.6,0.48 -1.2,0.84 -2.04,0.84 -0.72,0 -1.44,-0.36 -1.92,-0.84 -0.6,-0.6 -0.96,-1.32 -0.96,-2.4 l 5.88,0 z m -6.12,-2.4 c 0.12,-1.08 0.48,-1.92 0.96,-2.64 0.6,-0.6 1.44,-0.96 2.4,-0.96 0.6,0 1.08,0.12 1.56,0.48 0.48,0.24 0.84,0.6 0.96,1.2 l 3.96,0 c -0.48,-1.56 -1.2,-2.64 -2.28,-3.48 -1.2,-0.84 -2.52,-1.2 -4.08,-1.2 -4.8,0 -7.2,2.64 -7.2,7.92 0,2.16 0.6,3.96 1.8,5.28 1.2,1.32 2.88,2.04 5.16,2.04 4.56,0 6.84,-2.88 6.84,-8.64 l -10.08,0 z m 19.68,4.68 c -0.36,0.12 -0.72,0.12 -1.08,0.12 -2.4,0 -3.6,-1.2 -3.6,-3.48 l 0,-7.56 -3.72,0 0,14.52 3.6,0 0,-1.8 c 0.24,0.48 0.6,0.96 0.96,1.2 0.36,0.24 0.72,0.48 1.08,0.6 0.36,0.12 0.72,0.24 1.08,0.24 0.36,0.12 0.72,0.12 1.08,0.12 l 0.6,0 0,-3.96" /><path
       id="path36"
       style="fill:#520318;fill-opacity:1;fill-rule:nonzero;stroke:none"
       d="m 472.08,359.88 -15.24,0 0,58.08 15.24,0 0,-58.08 z m 0,64.92 -15.24,0 0,14.28 15.24,0 0,-14.28 z m 20.4,-15.36 c 1.8,3.24 4.2,5.64 7.2,7.44 3,1.68 6.84,2.64 11.52,2.64 2.76,0 5.4,-0.48 7.68,-1.32 2.28,-0.84 4.32,-2.04 6,-3.72 1.68,-1.56 3.12,-3.6 4.08,-6 0.96,-2.4 1.44,-5.28 1.44,-8.4 l 0,-40.2 -15.36,0 0,35.16 c 0,4.44 -0.84,7.56 -2.28,9.12 -1.44,1.56 -4.08,2.28 -7.68,2.28 -8.04,0 -12,-4.44 -12,-13.32 l 0,-33.24 -15.24,0 0,58.08 14.64,0 0,-8.52" /><path
       id="path38"
       style="fill:#bd2f00;fill-opacity:1;fill-rule:nonzero;stroke:none"
       d="m 293.4,455.16 c -2.16,0 -3.24,-1.56 -3.24,-4.44 0,-1.32 0.24,-2.4 0.96,-3.12 0.6,-0.72 1.32,-1.2 2.28,-1.2 0.96,0 1.8,0.36 2.4,1.2 0.6,0.72 0.84,1.68 0.84,2.88 0,3.12 -1.08,4.68 -3.24,4.68 z m 6.96,-11.76 c 0,-1.08 -0.12,-2.04 -0.48,-2.88 -0.36,-0.84 -0.96,-1.56 -1.56,-2.16 -0.72,-0.6 -1.44,-0.96 -2.28,-1.2 -0.84,-0.36 -1.8,-0.48 -2.88,-0.48 -0.96,0 -1.92,0.12 -2.76,0.36 -0.84,0.36 -1.56,0.72 -2.28,1.32 -0.6,0.48 -1.08,1.08 -1.44,1.92 -0.36,0.72 -0.48,1.56 -0.48,2.52 l 3.48,0 c 0,-0.96 0.36,-1.56 0.96,-2.04 0.6,-0.48 1.32,-0.72 2.28,-0.72 0.96,0 1.92,0.24 2.64,0.84 0.72,0.48 0.96,1.32 0.96,2.28 l 0,2.4 c -0.24,-0.72 -0.72,-1.2 -1.44,-1.56 -0.72,-0.36 -1.56,-0.6 -2.52,-0.6 -1.2,0 -2.16,0.24 -3,0.72 -0.84,0.36 -1.44,0.96 -1.92,1.68 -0.48,0.6 -0.96,1.44 -1.08,2.28 -0.24,0.96 -0.36,1.92 -0.36,2.88 0,1.08 0.12,2.16 0.48,3 0.36,0.96 0.72,1.8 1.32,2.4 0.6,0.72 1.32,1.2 2.04,1.56 0.72,0.36 1.56,0.6 2.52,0.6 1.8,0 3.12,-0.84 3.96,-2.28 l 0,1.8 3.84,0 0,-14.64 z m 5.4,0.12 -3.84,0 0,19.8 3.84,0 0,-19.8 z m 8.76,5.88 -7.68,0 0,3.6 7.68,0 0,-3.6 z m 16.92,10.32 -6,0 0,-16.2 -4.08,0 0,16.2 -5.88,0 0,3.48 15.96,0 0,-3.48 z m 10.44,-7.44 c -0.12,1.08 -0.36,1.8 -0.96,2.4 -0.6,0.48 -1.32,0.72 -2.04,0.72 -0.84,0 -1.44,-0.24 -2.04,-0.84 -0.48,-0.48 -0.84,-1.32 -0.96,-2.28 l 6,0 z m -6.12,-2.52 c 0.12,-1.08 0.36,-1.92 0.96,-2.52 0.6,-0.72 1.32,-1.08 2.28,-1.08 0.6,0 1.2,0.24 1.68,0.48 0.48,0.36 0.84,0.72 0.96,1.2 l 3.96,0 c -0.48,-1.44 -1.2,-2.64 -2.4,-3.48 -1.08,-0.84 -2.4,-1.2 -3.96,-1.2 -4.8,0 -7.32,2.64 -7.32,7.92 0,2.28 0.6,4.08 1.8,5.4 1.2,1.32 3,2.04 5.28,2.04 4.56,0 6.72,-3 6.72,-8.76 l -9.96,0 z m 19.8,3.96 c -0.12,1.2 -1.08,1.92 -2.52,1.92 -0.6,0 -1.2,-0.12 -1.68,-0.48 -0.48,-0.24 -0.6,-0.6 -0.6,-0.96 0,-0.6 0.72,-1.08 2.28,-1.32 2.28,-0.6 3.84,-0.96 4.44,-1.32 1.56,-0.72 2.28,-1.8 2.28,-3.36 0,-1.68 -0.6,-2.88 -1.68,-3.72 -1.2,-0.96 -2.76,-1.32 -4.68,-1.32 -0.96,0 -1.92,0.12 -2.76,0.36 -0.84,0.24 -1.56,0.6 -2.16,0.96 -0.6,0.48 -1.08,0.96 -1.44,1.68 -0.36,0.6 -0.6,1.32 -0.6,2.04 l 3.96,0 c 0,-0.72 0.24,-1.2 0.84,-1.56 0.48,-0.36 1.2,-0.6 2.04,-0.6 0.72,0 1.44,0.12 1.92,0.36 0.48,0.36 0.72,0.72 0.72,1.2 0,0.24 -0.12,0.48 -0.48,0.72 -0.36,0.24 -0.96,0.48 -1.8,0.6 -2.28,0.6 -3.72,0.96 -4.32,1.32 -1.56,0.72 -2.28,1.8 -2.28,3.36 0,0.6 0.12,1.32 0.36,1.92 0.24,0.6 0.6,1.08 1.08,1.56 0.48,0.48 1.2,0.84 1.92,1.08 0.84,0.24 1.68,0.36 2.76,0.36 0.84,0 1.68,-0.12 2.4,-0.36 0.72,-0.24 1.44,-0.48 1.92,-0.96 0.6,-0.36 0.96,-0.96 1.32,-1.56 0.36,-0.6 0.48,-1.2 0.6,-1.92 l -3.84,0 z m 13.8,0 c -0.24,1.2 -1.08,1.92 -2.64,1.92 -0.6,0 -1.08,-0.12 -1.56,-0.48 -0.48,-0.24 -0.72,-0.6 -0.72,-0.96 0,-0.6 0.84,-1.08 2.4,-1.32 2.28,-0.6 3.72,-0.96 4.44,-1.32 1.56,-0.72 2.28,-1.8 2.28,-3.36 0,-1.68 -0.6,-2.88 -1.8,-3.72 -1.2,-0.96 -2.76,-1.32 -4.68,-1.32 -0.96,0 -1.8,0.12 -2.64,0.36 -0.84,0.24 -1.56,0.6 -2.16,0.96 -0.6,0.48 -1.2,0.96 -1.56,1.68 -0.36,0.6 -0.48,1.32 -0.48,2.04 l 3.96,0 c 0,-0.72 0.24,-1.2 0.72,-1.56 0.6,-0.36 1.32,-0.6 2.16,-0.6 0.72,0 1.32,0.12 1.92,0.36 0.48,0.36 0.72,0.72 0.72,1.2 0,0.24 -0.24,0.48 -0.6,0.72 -0.36,0.24 -0.96,0.48 -1.68,0.6 -2.28,0.6 -3.72,0.96 -4.32,1.32 -1.56,0.72 -2.4,1.8 -2.4,3.36 0,0.6 0.12,1.32 0.36,1.92 0.24,0.6 0.72,1.08 1.2,1.56 0.48,0.48 1.2,0.84 1.92,1.08 0.72,0.24 1.68,0.36 2.76,0.36 0.84,0 1.68,-0.12 2.4,-0.36 0.72,-0.24 1.32,-0.48 1.92,-0.96 0.48,-0.36 0.96,-0.96 1.32,-1.56 0.36,-0.6 0.48,-1.2 0.48,-1.92 l -3.72,0 z m 9.12,-6.6 9.72,0 0,-3.6 -13.8,0 0,19.68 4.08,0 0,-16.08 z m 20.16,5.16 c 0,1.08 -0.36,1.8 -0.96,2.4 -0.6,0.48 -1.2,0.72 -2.04,0.72 -0.72,0 -1.44,-0.24 -1.92,-0.84 -0.6,-0.48 -0.96,-1.32 -0.96,-2.28 l 5.88,0 z m -6,-2.52 c 0,-1.08 0.36,-1.92 0.96,-2.52 0.48,-0.72 1.32,-1.08 2.28,-1.08 0.6,0 1.08,0.24 1.56,0.48 0.48,0.36 0.84,0.72 0.96,1.2 l 3.96,0 c -0.48,-1.44 -1.2,-2.64 -2.28,-3.48 -1.2,-0.84 -2.52,-1.2 -4.08,-1.2 -4.8,0 -7.2,2.64 -7.2,7.92 0,2.28 0.6,4.08 1.8,5.4 1.2,1.32 2.88,2.04 5.16,2.04 4.56,0 6.84,-3 6.84,-8.76 l -9.96,0 z m 19.68,-6.24 -4.08,0 -5.16,14.52 4.32,0 3,-9.6 3.12,9.6 3.96,0 -5.16,-14.52 z m 15.6,8.76 c 0,1.08 -0.36,1.8 -0.96,2.4 -0.6,0.48 -1.2,0.72 -2.04,0.72 -0.72,0 -1.44,-0.24 -1.92,-0.84 -0.6,-0.48 -0.96,-1.32 -0.96,-2.28 l 5.88,0 z m -6,-2.52 c 0,-1.08 0.36,-1.92 0.96,-2.52 0.6,-0.72 1.32,-1.08 2.28,-1.08 0.6,0 1.2,0.24 1.68,0.48 0.48,0.36 0.72,0.72 0.96,1.2 l 3.84,0 c -0.36,-1.44 -1.2,-2.64 -2.28,-3.48 -1.08,-0.84 -2.52,-1.2 -4.08,-1.2 -4.8,0 -7.2,2.64 -7.2,7.92 0,2.28 0.6,4.08 1.8,5.4 1.2,1.32 3,2.04 5.16,2.04 4.56,0 6.84,-3 6.84,-8.76 l -9.96,0 z m 15,-6.24 -3.84,0 0,19.8 3.84,0 0,-19.8 z m 5.52,0 -4.08,0 0,19.68 4.08,0 0,-19.68 z m 5.04,12.48 c 0.48,0.72 1.08,1.32 1.8,1.8 0.72,0.48 1.68,0.72 2.88,0.72 0.72,0 1.32,-0.12 1.92,-0.36 0.6,-0.24 1.08,-0.48 1.56,-0.96 0.36,-0.36 0.72,-0.84 0.96,-1.44 0.24,-0.6 0.36,-1.32 0.36,-2.16 l 0,-10.08 -3.84,0 0,8.88 c 0,1.08 -0.12,1.8 -0.6,2.28 -0.36,0.36 -0.96,0.48 -1.92,0.48 -1.92,0 -3,-1.08 -3,-3.24 l 0,-8.4 -3.72,0 0,14.52 3.6,0 0,-2.04 z m 14.64,0 c 0.48,0.72 1.08,1.32 1.8,1.8 0.84,0.48 1.8,0.72 2.88,0.72 0.72,0 1.44,-0.12 1.92,-0.36 0.6,-0.24 1.2,-0.48 1.56,-0.96 0.48,-0.36 0.72,-0.84 0.96,-1.44 0.24,-0.6 0.36,-1.32 0.36,-2.16 l 0,-10.08 -3.84,0 0,8.88 c 0,1.08 -0.12,1.8 -0.48,2.28 -0.36,0.36 -1.08,0.48 -1.92,0.48 -2.04,0 -3,-1.08 -3,-3.24 l 0,-8.4 -3.84,0 0,14.52 3.6,0 0,-2.04 z m 20.64,-3.72 c 0,1.08 -0.36,1.8 -0.96,2.4 -0.6,0.48 -1.2,0.72 -2.04,0.72 -0.72,0 -1.44,-0.24 -2.04,-0.84 -0.48,-0.48 -0.84,-1.32 -0.96,-2.28 l 6,0 z m -6.12,-2.52 c 0.12,-1.08 0.48,-1.92 0.96,-2.52 0.6,-0.72 1.44,-1.08 2.28,-1.08 0.6,0 1.2,0.24 1.68,0.48 0.48,0.36 0.84,0.72 0.96,1.2 l 3.96,0 c -0.48,-1.44 -1.2,-2.64 -2.28,-3.48 -1.2,-0.84 -2.52,-1.2 -4.08,-1.2 -4.8,0 -7.2,2.64 -7.2,7.92 0,2.28 0.6,4.08 1.8,5.4 1.2,1.32 2.88,2.04 5.16,2.04 4.56,0 6.84,-3 6.84,-8.76 l -10.08,0 z m 19.68,4.8 c -0.36,0 -0.72,0 -1.08,0 -2.4,0 -3.6,-1.08 -3.6,-3.48 l 0,-7.56 -3.72,0 0,14.52 3.6,0 0,-1.68 c 0.24,0.48 0.6,0.84 0.96,1.08 0.36,0.36 0.72,0.48 1.08,0.72 0.36,0.12 0.72,0.24 1.08,0.24 0.36,0 0.72,0 1.08,0 l 0.6,0 0,-3.84" /><path
       id="path40"
       style="fill:#520303;fill-opacity:1;fill-rule:nonzero;stroke:none"
       d="m 369.24,483.72 c -2.16,0 -3.24,-1.56 -3.24,-4.44 0,-1.32 0.36,-2.4 0.96,-3.12 0.6,-0.72 1.44,-1.08 2.28,-1.08 0.96,0 1.8,0.36 2.4,1.08 0.6,0.72 0.96,1.68 0.96,2.88 0,3.12 -1.08,4.68 -3.36,4.68 z m 7.08,-11.76 c 0,-1.08 -0.24,-2.04 -0.6,-2.88 -0.36,-0.84 -0.84,-1.56 -1.56,-2.16 -0.6,-0.48 -1.44,-0.96 -2.28,-1.2 -0.84,-0.36 -1.8,-0.48 -2.88,-0.48 -0.96,0 -1.92,0.12 -2.76,0.48 -0.84,0.24 -1.56,0.6 -2.16,1.2 -0.72,0.48 -1.2,1.08 -1.56,1.92 -0.36,0.72 -0.48,1.56 -0.48,2.52 l 3.6,0 c 0,-0.96 0.24,-1.56 0.84,-2.04 0.6,-0.48 1.32,-0.72 2.28,-0.72 1.08,0 1.92,0.24 2.64,0.84 0.72,0.6 1.08,1.32 1.08,2.28 l 0,2.4 c -0.24,-0.72 -0.84,-1.2 -1.56,-1.56 -0.72,-0.36 -1.44,-0.6 -2.4,-0.6 -1.2,0 -2.28,0.24 -3,0.72 -0.84,0.36 -1.56,0.96 -2.04,1.68 -0.48,0.6 -0.84,1.44 -1.08,2.4 -0.24,0.84 -0.36,1.8 -0.36,2.76 0,1.08 0.12,2.16 0.48,3 0.36,0.96 0.84,1.8 1.32,2.4 0.6,0.72 1.32,1.2 2.04,1.56 0.84,0.36 1.68,0.6 2.52,0.6 1.8,0 3.12,-0.72 4.08,-2.28 l 0,1.8 3.84,0 0,-14.64 z m 5.28,0.12 -3.84,0 0,19.8 3.84,0 0,-19.8 z m 8.76,5.88 -7.56,0 0,3.6 7.56,0 0,-3.6 z m 11.4,-5.88 -3.84,0 -6.6,19.68 4.32,0 4.32,-13.8 4.2,13.8 4.32,0 -6.72,-19.68 z m 11.4,0 -3.84,0 0,14.52 3.84,0 0,-14.52 z m 0,16.32 -3.84,0 0,3.48 3.84,0 0,-3.48 z m 10.92,-7.56 c 0,1.08 -0.36,1.8 -0.96,2.4 -0.6,0.48 -1.2,0.72 -1.92,0.72 -0.84,0 -1.56,-0.24 -2.04,-0.84 -0.6,-0.48 -0.84,-1.32 -0.96,-2.28 l 5.88,0 z m -6,-2.52 c 0,-1.08 0.36,-1.92 0.96,-2.52 0.6,-0.72 1.32,-1.08 2.28,-1.08 0.6,0 1.2,0.24 1.68,0.48 0.48,0.36 0.72,0.72 0.96,1.2 l 3.84,0 c -0.36,-1.44 -1.2,-2.64 -2.28,-3.48 -1.08,-0.84 -2.52,-1.2 -4.08,-1.2 -4.8,0 -7.2,2.64 -7.2,7.92 0,2.28 0.6,4.08 1.8,5.4 1.2,1.32 3,2.04 5.16,2.04 4.56,0 6.84,-2.88 6.84,-8.76 l -9.96,0 z m 27,-6.24 -3.84,0 -2.28,8.52 -2.4,-8.52 -3.84,0 -4.2,14.52 4.08,0 2.4,-9.24 1.92,9.24 3.96,0 2.28,-9.24 2.16,9.24 3.96,0 -4.2,-14.52 z m 11.88,11.64 c -2.16,0 -3.24,-1.56 -3.24,-4.68 0,-1.2 0.36,-2.28 0.96,-3 0.6,-0.84 1.32,-1.2 2.28,-1.2 0.96,0 1.8,0.48 2.4,1.2 0.6,0.84 0.96,1.92 0.96,3.24 0,3 -1.2,4.44 -3.36,4.44 z m -3.12,2.88 0,-1.8 c 0.36,0.84 0.96,1.32 1.56,1.68 0.72,0.36 1.56,0.6 2.52,0.6 1.08,0 2.04,-0.24 2.76,-0.72 0.84,-0.36 1.44,-0.96 2.04,-1.68 0.48,-0.72 0.84,-1.56 1.08,-2.52 0.24,-0.96 0.48,-1.92 0.48,-2.88 0,-1.08 -0.24,-2.16 -0.48,-3 -0.24,-0.96 -0.6,-1.8 -1.08,-2.4 -0.6,-0.72 -1.2,-1.2 -1.92,-1.56 -0.72,-0.36 -1.56,-0.6 -2.52,-0.6 -0.96,0 -1.8,0.24 -2.52,0.48 -0.84,0.36 -1.44,0.96 -1.8,1.8 l 0,-8.76 -3.84,0 0,21.36 3.72,0 z m 18.72,-2.76 c -2.28,0 -3.48,-1.56 -3.48,-4.44 0,-3 1.2,-4.44 3.48,-4.44 2.4,0 3.48,1.44 3.48,4.44 0,2.88 -1.08,4.44 -3.48,4.44 z m 0,3.24 c 1.2,0 2.16,-0.24 3.12,-0.6 0.84,-0.36 1.68,-0.84 2.28,-1.56 0.6,-0.6 1.2,-1.44 1.44,-2.4 0.36,-0.96 0.6,-2.04 0.6,-3.12 0,-1.2 -0.24,-2.16 -0.6,-3.12 -0.36,-0.96 -0.84,-1.8 -1.44,-2.4 -0.6,-0.72 -1.44,-1.2 -2.28,-1.56 -0.96,-0.36 -2.04,-0.6 -3.12,-0.6 -1.2,0 -2.16,0.24 -3.12,0.6 -0.96,0.36 -1.68,0.84 -2.4,1.56 -0.6,0.6 -1.08,1.44 -1.44,2.4 -0.36,0.96 -0.48,2.04 -0.48,3.12 0,1.2 0.12,2.16 0.48,3.12 0.36,0.96 0.84,1.68 1.56,2.4 0.6,0.72 1.44,1.2 2.28,1.56 0.96,0.36 2.04,0.6 3.12,0.6 z m 17.04,-3.96 c -0.36,0 -0.72,0.12 -1.08,0.12 -2.4,0 -3.48,-1.2 -3.48,-3.6 l 0,-7.56 -3.84,0 0,14.52 3.6,0 0,-1.68 c 0.24,0.48 0.6,0.84 0.96,1.08 0.36,0.36 0.72,0.48 1.08,0.72 0.36,0.12 0.72,0.24 1.08,0.24 0.36,0 0.72,0 1.2,0 l 0.48,0 0,-3.84 z m 12.6,0.84 -7.92,0 0,-6 c 0,-0.96 0.12,-1.68 0.48,-2.16 0.36,-0.48 0.96,-0.72 1.68,-0.72 0.72,0 1.32,0.24 1.68,0.72 0.36,0.48 0.6,1.2 0.6,2.04 l 0,3.84 3.48,0 0,-4.2 c 0,-0.72 -0.12,-1.44 -0.24,-2.16 -0.24,-0.72 -0.6,-1.32 -1.08,-1.8 -0.48,-0.6 -1.08,-0.96 -1.8,-1.32 -0.72,-0.36 -1.68,-0.48 -2.64,-0.48 -1.08,0 -2.04,0.12 -2.76,0.48 -0.72,0.36 -1.32,0.72 -1.8,1.32 -0.48,0.48 -0.84,1.08 -1.08,1.8 -0.24,0.72 -0.36,1.44 -0.36,2.28 l 0,12.96 3.84,0 0,-3.96 7.92,0 0,-2.64 z m 5.64,-11.88 -4.2,0 0,19.68 4.2,0 0,-19.68 z m 5.04,12.48 c 0.48,0.72 0.96,1.44 1.8,1.8 0.72,0.48 1.68,0.72 2.88,0.72 0.72,0 1.32,-0.12 1.92,-0.36 0.6,-0.24 1.08,-0.48 1.44,-0.96 0.48,-0.36 0.84,-0.84 1.08,-1.44 0.24,-0.6 0.36,-1.32 0.36,-2.16 l 0,-10.08 -3.84,0 0,8.88 c 0,1.08 -0.24,1.8 -0.6,2.28 -0.36,0.36 -0.96,0.6 -1.92,0.6 -2.04,0 -3,-1.2 -3,-3.36 l 0,-8.4 -3.84,0 0,14.52 3.72,0 0,-2.04 z m 17.88,-0.84 c -2.16,0 -3.24,-1.44 -3.24,-4.44 0,-1.32 0.24,-2.4 0.84,-3.12 0.6,-0.84 1.32,-1.2 2.4,-1.2 0.48,0 0.84,0.12 1.32,0.24 0.36,0.24 0.72,0.48 0.96,0.84 0.36,0.36 0.6,0.84 0.72,1.32 0.12,0.48 0.24,1.08 0.24,1.68 0,3.12 -1.08,4.68 -3.24,4.68 z m 6.84,-11.64 -3.72,0 0,1.8 c -0.84,-1.44 -2.16,-2.16 -4.08,-2.16 -1.08,0 -1.92,0.24 -2.76,0.6 -0.72,0.48 -1.44,1.08 -1.92,1.68 -0.48,0.72 -0.96,1.56 -1.2,2.52 -0.24,0.96 -0.36,1.92 -0.36,3 0,1.08 0.12,2.16 0.36,3 0.36,0.96 0.72,1.8 1.2,2.4 0.6,0.72 1.2,1.2 1.92,1.56 0.72,0.36 1.56,0.6 2.52,0.6 1.8,0 3.24,-0.84 4.2,-2.28 l 0,7.08 3.84,0 0,-19.8 z m 11.16,8.76 c -0.12,1.08 -0.36,1.8 -0.96,2.4 -0.6,0.48 -1.32,0.72 -2.04,0.72 -0.84,0 -1.44,-0.24 -2.04,-0.84 -0.48,-0.48 -0.84,-1.32 -0.96,-2.28 l 6,0 z m -6.12,-2.52 c 0.12,-1.08 0.36,-1.92 0.96,-2.52 0.6,-0.72 1.32,-1.08 2.28,-1.08 0.6,0 1.2,0.24 1.68,0.48 0.48,0.36 0.84,0.72 0.96,1.2 l 3.96,0 c -0.48,-1.44 -1.2,-2.64 -2.4,-3.48 -1.08,-0.84 -2.4,-1.2 -3.96,-1.2 -4.8,0 -7.32,2.64 -7.32,7.92 0,2.28 0.6,4.08 1.8,5.4 1.2,1.32 3,2.04 5.28,2.04 4.56,0 6.72,-2.88 6.72,-8.76 l -9.96,0 z m 19.8,1.2 5.04,-7.44 -4.68,0 -2.52,4.44 -2.52,-4.44 -4.56,0 4.8,7.44 -4.68,7.08 4.68,0 2.4,-4.2 2.4,4.2 4.56,0 -4.92,-7.08" /><path
       id="path42"
       style="fill:#1f0202;fill-opacity:1;fill-rule:nonzero;stroke:none"
       d="m 115.44,310.92 c -2.16,0 -3.24,-1.56 -3.24,-4.68 0,-1.2 0.24,-2.28 0.84,-3 0.6,-0.84 1.44,-1.2 2.4,-1.2 0.96,0 1.68,0.36 2.28,1.2 0.6,0.84 0.96,1.92 0.96,3.24 0,3 -1.08,4.44 -3.24,4.44 z m -3.12,0.96 0,0 c 1.08,1.56 2.52,2.28 4.32,2.28 l 0,0 c 0.96,0 1.68,-0.12 2.52,-0.48 0.72,-0.36 1.32,-0.96 1.8,-1.56 0.48,-0.72 0.96,-1.44 1.2,-2.4 0.24,-0.96 0.36,-1.92 0.36,-3 0,-1.2 -0.12,-2.4 -0.36,-3.36 -0.36,-0.96 -0.84,-1.8 -1.32,-2.4 -0.6,-0.72 -1.2,-1.2 -2.04,-1.56 -0.72,-0.36 -1.56,-0.6 -2.52,-0.6 -1.8,0 -3.12,0.84 -3.96,2.28 l -0.12,-1.8 -3.72,0 0,19.8 3.84,0 0,-7.2 z m 15.36,-12.6 -3.84,0 0,14.52 3.84,0 0,-14.52 z m 0,16.2 -3.84,0 0,3.6 3.84,0 0,-3.6 z m 13.2,-4.44 -8.04,0 0,-6 c 0,-0.84 0.24,-1.56 0.6,-2.04 0.36,-0.48 0.84,-0.84 1.68,-0.84 0.72,0 1.32,0.36 1.68,0.84 0.36,0.48 0.48,1.08 0.48,2.04 l 0,3.84 3.6,0 0,-4.2 c 0,-0.72 -0.12,-1.56 -0.36,-2.16 -0.24,-0.72 -0.48,-1.32 -0.96,-1.92 -0.48,-0.48 -1.2,-0.96 -1.92,-1.2 -0.72,-0.36 -1.56,-0.48 -2.64,-0.48 -1.08,0 -1.92,0.12 -2.64,0.48 -0.72,0.24 -1.44,0.72 -1.92,1.2 -0.48,0.6 -0.72,1.2 -0.96,1.92 -0.24,0.72 -0.36,1.44 -0.36,2.16 l 0,13.08 3.72,0 0,-3.96 8.04,0 0,-2.76 z m 9.24,4.92 c -0.96,0 -1.68,-0.12 -1.92,-0.48 -0.36,-0.24 -0.48,-0.84 -0.48,-1.68 l 2.52,0 0,-2.76 -2.52,0 0,-11.76 -3.84,0 0,11.76 -2.04,0 0,2.76 2.04,0 c 0,3.48 2.04,5.28 6.24,5.28 l 0,-3.12 z m 4.68,-16.68 -3.84,0 0,14.52 3.84,0 0,-14.52 z m 0,16.2 -3.84,0 0,3.6 3.84,0 0,-3.6 z m 10.92,-7.56 c 0,1.08 -0.36,1.92 -0.96,2.4 -0.6,0.6 -1.2,0.84 -1.92,0.84 -0.84,0 -1.44,-0.36 -2.04,-0.84 -0.6,-0.6 -0.84,-1.32 -0.96,-2.4 l 5.88,0 z m -6,-2.4 c 0,-1.08 0.36,-1.92 0.96,-2.64 0.6,-0.6 1.32,-0.96 2.28,-0.96 0.6,0 1.2,0.12 1.68,0.48 0.48,0.24 0.72,0.72 0.96,1.2 l 3.96,0 c -0.48,-1.56 -1.32,-2.64 -2.4,-3.48 -1.08,-0.84 -2.52,-1.2 -3.96,-1.2 -4.92,0 -7.32,2.64 -7.32,7.92 0,2.28 0.6,3.96 1.8,5.4 1.2,1.32 3,1.92 5.16,1.92 4.56,0 6.84,-2.88 6.84,-8.64 l -9.96,0 z m 15,-6.24 -3.84,0 0,19.8 3.84,0 0,-19.8 z m 8.4,11.64 c -2.16,0 -3.24,-1.56 -3.24,-4.44 0,-1.32 0.24,-2.4 0.84,-3.24 0.6,-0.72 1.44,-1.2 2.4,-1.2 0.48,0 0.84,0.12 1.32,0.36 0.36,0.24 0.72,0.48 0.96,0.84 0.36,0.36 0.6,0.84 0.72,1.32 0.12,0.48 0.24,1.08 0.24,1.68 0,3.12 -1.08,4.68 -3.24,4.68 z m 6.84,-11.64 -3.72,0 0,1.8 c -0.84,-1.44 -2.16,-2.16 -3.96,-2.16 -1.08,0 -2.04,0.24 -2.88,0.6 -0.72,0.36 -1.44,0.96 -1.92,1.68 -0.48,0.72 -0.84,1.56 -1.2,2.52 -0.24,0.96 -0.36,1.92 -0.36,3 0,1.08 0.12,2.04 0.36,3 0.36,0.96 0.72,1.68 1.2,2.4 0.6,0.6 1.2,1.2 1.92,1.56 0.72,0.36 1.56,0.48 2.52,0.48 1.8,0 3.24,-0.72 4.2,-2.28 l 0,7.2 3.84,0 0,-19.8 z m 15.84,16.2 -10.44,0 0,-4.2 9.6,0 0,-3.48 -9.6,0 0,-5.04 10.92,0 0,-3.48 -14.88,0 0,19.56 14.4,0 0,-3.36 z m 9.96,-8.76 4.92,-7.44 -4.68,0 -2.52,4.32 -2.52,-4.32 -4.56,0 4.92,7.44 -4.8,7.08 4.68,0 2.4,-4.2 2.52,4.2 4.44,0 -4.8,-7.08 z m 17.52,4.32 -7.92,0 0,-6 c 0,-0.84 0.12,-1.56 0.48,-2.04 0.36,-0.48 0.96,-0.84 1.68,-0.84 0.72,0 1.32,0.36 1.68,0.84 0.36,0.48 0.6,1.08 0.6,2.04 l 0,3.84 3.48,0 0,-4.2 c 0,-0.72 0,-1.56 -0.24,-2.16 -0.24,-0.72 -0.6,-1.32 -1.08,-1.92 -0.48,-0.48 -1.08,-0.96 -1.8,-1.2 -0.72,-0.36 -1.68,-0.48 -2.64,-0.48 -1.08,0 -2.04,0.12 -2.76,0.48 -0.72,0.24 -1.32,0.72 -1.8,1.2 -0.48,0.6 -0.84,1.2 -1.08,1.92 -0.24,0.72 -0.36,1.44 -0.36,2.16 l 0,13.08 3.84,0 0,-3.96 7.92,0 0,-2.76 z m 9.96,-0.84 c -0.36,0.12 -0.72,0.12 -1.08,0.12 -2.28,0 -3.48,-1.2 -3.48,-3.48 l 0,-7.56 -3.84,0 0,14.52 3.6,0 0,-1.8 c 0.36,0.48 0.72,0.96 0.96,1.2 0.36,0.24 0.72,0.48 1.08,0.6 0.36,0.12 0.72,0.24 1.08,0.36 0.36,0 0.84,0 1.2,0 l 0.48,0 0,-3.96 z m 9.72,-3.84 c -0.36,-0.24 -1.08,-0.6 -2.04,-0.72 -1.32,-0.24 -2.16,-0.6 -2.64,-0.96 -0.48,-0.36 -0.72,-0.84 -0.72,-1.44 0,-1.08 0.6,-1.56 1.8,-1.56 0.48,0 0.96,0 1.32,0.12 0.48,0.12 0.96,0.36 1.2,0.72 0.36,0.24 0.6,0.6 0.84,0.96 0.24,0.48 0.36,0.96 0.36,1.56 0,0.12 0,0.36 0,0.6 0,0.36 -0.12,0.6 -0.12,0.72 z m -2.28,7.8 c 2.04,0 3.6,-0.48 4.56,-1.44 1.08,-0.96 1.56,-2.4 1.56,-4.32 l 0,-9.12 -3.6,0 c 0,0.12 0,0.36 -0.12,0.6 0,0.12 0,0.36 -0.12,0.6 -0.48,-0.48 -1.08,-0.84 -1.8,-1.08 -0.72,-0.24 -1.56,-0.36 -2.52,-0.36 -1.44,0 -2.64,0.36 -3.6,1.08 -0.84,0.72 -1.32,1.68 -1.32,3 0,0.96 0.24,1.8 0.6,2.4 0.24,0.6 0.72,0.96 1.32,1.32 0.6,0.36 1.32,0.6 2.16,0.84 0.84,0.12 1.68,0.24 2.64,0.36 0.72,0.12 1.32,0.36 1.8,0.6 0.48,0.24 0.6,0.48 0.6,0.96 0,0.48 -0.24,0.96 -0.72,1.2 -0.48,0.24 -1.08,0.48 -1.68,0.48 -0.72,0 -1.2,-0.24 -1.68,-0.6 -0.48,-0.36 -0.72,-0.96 -0.84,-1.56 l -3.72,0 c 0.12,1.56 0.72,2.76 1.68,3.72 0.96,0.96 2.52,1.32 4.8,1.32 z m 16.92,-5.52 c -0.12,0.72 -0.48,1.32 -0.96,1.68 -0.48,0.48 -1.08,0.72 -1.8,0.72 -0.36,0 -0.84,-0.12 -1.2,-0.24 -0.36,-0.12 -0.6,-0.36 -0.84,-0.72 -0.36,-0.36 -0.48,-0.72 -0.72,-1.32 -0.12,-0.48 -0.24,-1.2 -0.24,-1.92 0,-1.56 0.36,-2.76 0.84,-3.6 0.6,-0.72 1.32,-1.08 2.04,-1.08 0.72,0 1.32,0.12 1.92,0.6 0.48,0.36 0.84,0.96 0.84,1.8 l 3.96,0 c -0.12,-0.84 -0.36,-1.68 -0.72,-2.28 -0.36,-0.72 -0.96,-1.32 -1.44,-1.8 -0.6,-0.48 -1.32,-0.96 -2.04,-1.2 -0.84,-0.24 -1.68,-0.36 -2.52,-0.36 -0.96,0 -1.92,0.12 -2.64,0.48 -0.84,0.36 -1.56,0.84 -2.16,1.44 -0.6,0.72 -1.08,1.44 -1.32,2.52 -0.36,0.96 -0.48,2.04 -0.48,3.36 0,1.32 0.12,2.4 0.48,3.36 0.36,0.96 0.72,1.68 1.32,2.28 0.6,0.6 1.32,1.08 2.16,1.44 0.84,0.24 1.8,0.36 2.76,0.36 1.92,0 3.48,-0.48 4.68,-1.44 1.08,-0.96 1.8,-2.4 1.92,-4.08 l -3.84,0 z m 16.56,2.4 -8.04,0 0,-6 c 0,-0.84 0.24,-1.56 0.6,-2.04 0.36,-0.48 0.84,-0.84 1.68,-0.84 0.72,0 1.32,0.36 1.68,0.84 0.36,0.48 0.48,1.08 0.48,2.04 l 0,3.84 3.6,0 0,-4.2 c 0,-0.72 -0.12,-1.56 -0.36,-2.16 -0.24,-0.72 -0.6,-1.32 -1.08,-1.92 -0.48,-0.48 -1.08,-0.96 -1.8,-1.2 -0.72,-0.36 -1.56,-0.48 -2.64,-0.48 -1.08,0 -1.92,0.12 -2.64,0.48 -0.72,0.24 -1.44,0.72 -1.92,1.2 -0.48,0.6 -0.84,1.2 -0.96,1.92 -0.24,0.72 -0.36,1.44 -0.36,2.16 l 0,13.08 3.72,0 0,-3.96 8.04,0 0,-2.76 z m 8.76,8.28 c -2.4,-3.96 -3.6,-8.28 -3.6,-12.72 0,-4.56 1.2,-8.88 3.6,-12.96 l -2.76,0 c -0.6,0.96 -1.32,1.92 -1.8,2.88 -0.6,0.96 -1.08,2.04 -1.56,3 -0.48,1.08 -0.72,2.16 -1.08,3.24 -0.24,1.08 -0.36,2.28 -0.36,3.6 0,4.68 1.68,8.88 4.8,12.96 l 2.76,0 z m 2.88,0 c 3.24,-4.44 4.8,-8.76 4.8,-12.96 0,-4.2 -1.56,-8.52 -4.8,-12.72 l -2.76,0 c 2.4,3.84 3.6,8.04 3.6,12.72 0,4.56 -1.2,8.88 -3.6,12.96 l 2.76,0" /><path
       id="path44"
       style="fill:#520303;fill-opacity:1;fill-rule:nonzero;stroke:none"
       d="m 449.88,349.56 c -2.28,0 -3.36,-1.56 -3.36,-4.44 0,-1.32 0.36,-2.4 0.96,-3.12 0.6,-0.72 1.44,-1.2 2.4,-1.2 0.96,0 1.68,0.36 2.28,1.08 0.6,0.72 0.96,1.8 0.96,3 0,3.12 -1.08,4.68 -3.24,4.68 z m 6.96,-11.76 c 0,-1.08 -0.24,-2.04 -0.6,-2.88 -0.36,-0.84 -0.84,-1.56 -1.56,-2.16 -0.6,-0.6 -1.44,-0.96 -2.28,-1.32 -0.84,-0.24 -1.8,-0.36 -2.88,-0.36 -0.96,0 -1.92,0.12 -2.76,0.36 -0.84,0.36 -1.56,0.72 -2.16,1.2 -0.6,0.6 -1.2,1.2 -1.56,1.92 -0.36,0.84 -0.48,1.68 -0.48,2.64 l 3.6,0 c 0,-0.96 0.24,-1.68 0.84,-2.16 0.6,-0.48 1.32,-0.6 2.28,-0.6 1.08,0 1.92,0.24 2.64,0.84 0.72,0.48 1.08,1.32 1.08,2.28 l 0,2.28 c -0.24,-0.6 -0.84,-1.08 -1.56,-1.44 -0.72,-0.36 -1.44,-0.6 -2.4,-0.6 -1.2,0 -2.28,0.24 -3,0.6 -0.84,0.48 -1.56,1.08 -2.04,1.68 -0.48,0.72 -0.84,1.56 -1.08,2.4 -0.24,0.96 -0.36,1.92 -0.36,2.88 0,1.08 0.12,2.04 0.48,3 0.36,0.96 0.84,1.68 1.32,2.4 0.6,0.72 1.32,1.2 2.04,1.56 0.84,0.36 1.68,0.48 2.52,0.48 1.8,0 3.12,-0.72 4.08,-2.16 l 0,1.8 3.84,0 0,-14.64 z m 5.28,0.12 -3.84,0 0,19.8 3.84,0 0,-19.8 z m 8.76,5.88 -7.56,0 0,3.6 7.56,0 0,-3.6 z m 5.64,-5.88 -4.08,0 0,19.56 4.08,0 0,-19.56 z m 5.04,12.36 c 0.48,0.84 1.08,1.44 1.8,1.92 0.72,0.48 1.68,0.6 2.88,0.6 0.72,0 1.32,0 1.92,-0.24 0.6,-0.24 1.08,-0.6 1.56,-0.96 0.36,-0.36 0.72,-0.84 0.96,-1.56 0.24,-0.6 0.36,-1.2 0.36,-2.04 l 0,-10.08 -3.84,0 0,8.76 c 0,1.2 -0.12,1.92 -0.6,2.28 -0.36,0.48 -0.96,0.6 -1.92,0.6 -1.92,0 -3,-1.08 -3,-3.36 l 0,-8.28 -3.72,0 0,14.52 3.6,0 0,-2.16 z m 19.56,-12.36 -3.96,0 -5.28,14.52 4.32,0 3,-9.6 3.12,9.6 4.08,0 -5.28,-14.52 z m 13.2,11.64 c -2.28,0 -3.48,-1.44 -3.48,-4.32 0,-3 1.2,-4.44 3.48,-4.44 2.4,0 3.48,1.44 3.48,4.44 0,2.88 -1.08,4.32 -3.48,4.32 z m 0,3.24 c 1.2,0 2.16,-0.12 3.12,-0.48 0.96,-0.36 1.68,-0.84 2.28,-1.56 0.72,-0.72 1.2,-1.44 1.56,-2.4 0.36,-0.96 0.48,-2.04 0.48,-3.12 0,-1.2 -0.24,-2.28 -0.6,-3.12 -0.36,-0.96 -0.84,-1.8 -1.44,-2.52 -0.6,-0.6 -1.44,-1.08 -2.28,-1.44 -0.96,-0.36 -1.92,-0.6 -3.12,-0.6 -1.2,0 -2.16,0.24 -3.12,0.6 -0.96,0.36 -1.68,0.84 -2.28,1.56 -0.72,0.6 -1.2,1.44 -1.56,2.4 -0.36,0.96 -0.48,1.92 -0.48,3.12 0,1.08 0.24,2.16 0.48,3.12 0.36,0.96 0.96,1.68 1.56,2.4 0.6,0.6 1.44,1.2 2.28,1.56 0.96,0.36 2.04,0.48 3.12,0.48 z m 17.88,-5.52 c -0.12,0.72 -0.48,1.32 -0.96,1.8 -0.48,0.36 -1.08,0.6 -1.8,0.6 -0.36,0 -0.84,-0.12 -1.2,-0.24 -0.36,-0.12 -0.6,-0.36 -0.84,-0.72 -0.24,-0.36 -0.48,-0.72 -0.72,-1.32 -0.12,-0.48 -0.24,-1.2 -0.24,-1.92 0,-1.56 0.36,-2.76 0.84,-3.6 0.6,-0.72 1.32,-1.08 2.04,-1.08 0.72,0 1.32,0.24 1.92,0.6 0.48,0.36 0.84,0.96 0.96,1.8 l 3.84,0 c -0.12,-0.84 -0.36,-1.56 -0.72,-2.28 -0.36,-0.72 -0.84,-1.32 -1.44,-1.8 -0.6,-0.48 -1.32,-0.84 -2.04,-1.2 -0.84,-0.24 -1.68,-0.36 -2.52,-0.36 -0.96,0 -1.92,0.12 -2.64,0.48 -0.84,0.36 -1.56,0.84 -2.16,1.44 -0.6,0.72 -1.08,1.56 -1.32,2.52 -0.36,0.96 -0.48,2.04 -0.48,3.36 0,1.32 0.12,2.4 0.48,3.36 0.36,0.96 0.72,1.68 1.32,2.28 0.6,0.6 1.32,1.08 2.16,1.44 0.84,0.24 1.8,0.36 2.76,0.36 1.92,0 3.48,-0.48 4.68,-1.44 1.2,-0.96 1.8,-2.4 1.92,-4.08 l -3.84,0 z M 545.76,345 c -0.36,-0.24 -0.96,-0.48 -1.92,-0.72 -1.32,-0.24 -2.28,-0.6 -2.76,-0.96 -0.48,-0.36 -0.6,-0.72 -0.6,-1.44 0,-1.08 0.48,-1.56 1.68,-1.56 0.48,0 0.96,0 1.44,0.24 0.48,0.12 0.84,0.24 1.2,0.6 0.36,0.24 0.6,0.6 0.72,1.08 0.24,0.36 0.36,0.84 0.36,1.44 0,0.12 0,0.36 0,0.72 0,0.24 0,0.48 -0.12,0.6 z m -2.28,7.8 c 2.04,0 3.6,-0.48 4.56,-1.44 1.08,-0.96 1.56,-2.4 1.56,-4.2 l 0,-9.24 -3.48,0 c -0.12,0.24 -0.12,0.36 -0.24,0.6 0,0.12 0,0.36 0,0.6 -0.48,-0.48 -1.08,-0.84 -1.8,-1.08 -0.84,-0.24 -1.68,-0.36 -2.64,-0.36 -1.44,0 -2.64,0.36 -3.48,1.08 -0.96,0.72 -1.32,1.68 -1.32,3 0,0.96 0.12,1.8 0.48,2.4 0.36,0.6 0.72,1.08 1.32,1.32 0.6,0.36 1.32,0.6 2.16,0.84 0.84,0.12 1.68,0.24 2.64,0.36 0.72,0.12 1.44,0.36 1.8,0.6 0.48,0.24 0.72,0.48 0.72,0.96 0,0.6 -0.36,0.96 -0.84,1.2 -0.48,0.24 -1.08,0.48 -1.68,0.48 -0.72,0 -1.2,-0.24 -1.68,-0.6 -0.48,-0.36 -0.72,-0.96 -0.84,-1.56 l -3.6,0 c 0.12,1.56 0.6,2.88 1.56,3.72 0.96,0.96 2.64,1.32 4.8,1.32 z m 19.44,-3.12 -7.92,0 0,-5.88 c 0,-0.96 0.12,-1.68 0.48,-2.16 0.36,-0.48 0.84,-0.72 1.68,-0.72 0.72,0 1.32,0.24 1.68,0.72 0.36,0.48 0.48,1.2 0.48,2.04 l 0,3.84 3.6,0 0,-4.2 c 0,-0.72 -0.12,-1.44 -0.36,-2.16 -0.24,-0.72 -0.48,-1.32 -0.96,-1.92 -0.48,-0.48 -1.08,-0.96 -1.92,-1.2 -0.72,-0.36 -1.56,-0.48 -2.64,-0.48 -1.08,0 -1.92,0.12 -2.64,0.48 -0.72,0.24 -1.44,0.72 -1.8,1.2 -0.48,0.6 -0.84,1.2 -1.08,1.92 -0.24,0.72 -0.36,1.44 -0.36,2.16 l 0,13.08 3.84,0 0,-3.96 7.92,0 0,-2.76 z m 5.4,-11.76 -3.84,0 0,14.52 3.84,0 0,-14.52 z m 0,16.32 -3.84,0 0,3.48 3.84,0 0,-3.48 z m 8.52,-4.68 c -2.28,0 -3.48,-1.44 -3.48,-4.32 0,-3 1.2,-4.44 3.48,-4.44 2.4,0 3.48,1.44 3.48,4.44 0,2.88 -1.08,4.32 -3.48,4.32 z m 0,3.24 c 1.2,0 2.16,-0.12 3.12,-0.48 0.96,-0.36 1.68,-0.84 2.28,-1.56 0.6,-0.72 1.2,-1.44 1.44,-2.4 0.36,-0.96 0.6,-2.04 0.6,-3.12 0,-1.2 -0.24,-2.28 -0.6,-3.12 -0.36,-0.96 -0.84,-1.8 -1.44,-2.52 -0.6,-0.6 -1.44,-1.08 -2.28,-1.44 -0.96,-0.36 -2.04,-0.6 -3.12,-0.6 -1.2,0 -2.16,0.24 -3.12,0.6 -0.96,0.36 -1.68,0.84 -2.4,1.56 -0.6,0.6 -1.08,1.44 -1.44,2.4 -0.36,0.96 -0.48,1.92 -0.48,3.12 0,1.08 0.12,2.16 0.48,3.12 0.36,0.96 0.84,1.68 1.56,2.4 0.6,0.6 1.44,1.2 2.28,1.56 0.96,0.36 2.04,0.48 3.12,0.48 z m 12.24,-2.52 c 0.48,0.84 1.08,1.44 1.8,1.92 0.72,0.48 1.8,0.6 2.88,0.6 0.72,0 1.32,0 1.92,-0.24 0.6,-0.24 1.08,-0.6 1.56,-0.96 0.48,-0.36 0.72,-0.84 0.96,-1.56 0.24,-0.6 0.36,-1.2 0.36,-2.04 l 0,-10.08 -3.84,0 0,8.76 c 0,1.2 -0.12,1.92 -0.48,2.28 -0.36,0.48 -1.08,0.6 -1.92,0.6 -2.04,0 -3,-1.08 -3,-3.36 l 0,-8.28 -3.84,0 0,14.52 3.6,0 0,-2.16 z m 15.12,-12.36 -4.2,0 0,19.56 4.2,0 0,-19.56 z m 5.28,3.36 3.36,0 c 1.8,0 3.12,0.6 3.84,1.68 0.84,1.08 1.2,2.76 1.2,5.04 0,2.16 -0.36,3.72 -1.2,4.68 -0.84,0.96 -2.28,1.44 -4.2,1.44 l -3,0 0,-12.84 z m 3.6,16.2 c 1.32,0 2.52,-0.12 3.6,-0.6 1.08,-0.48 2.04,-1.08 2.88,-1.92 0.84,-0.84 1.44,-1.8 1.92,-3 0.36,-1.2 0.6,-2.52 0.6,-3.96 0,-1.56 -0.12,-2.88 -0.6,-4.08 -0.36,-1.32 -0.96,-2.28 -1.68,-3.24 -0.72,-0.84 -1.68,-1.56 -2.64,-2.04 -1.08,-0.48 -2.16,-0.72 -3.48,-0.72 l -8.28,0 0,19.56 7.68,0" /><path
       id="path46"
       style="fill:#950728;fill-opacity:1;fill-rule:nonzero;stroke:none"
       d="m 322.68,315.24 c -2.16,0 -3.24,-1.56 -3.24,-4.44 0,-1.32 0.36,-2.28 0.96,-3.12 0.6,-0.72 1.44,-1.08 2.28,-1.08 0.96,0 1.8,0.36 2.4,1.08 0.6,0.72 0.96,1.68 0.96,2.88 0,3.12 -1.08,4.68 -3.36,4.68 z m 7.08,-11.76 c 0,-1.08 -0.24,-2.04 -0.6,-2.88 -0.36,-0.84 -0.84,-1.56 -1.56,-2.16 -0.6,-0.48 -1.44,-0.96 -2.28,-1.2 -0.84,-0.36 -1.8,-0.48 -2.88,-0.48 -0.96,0 -1.92,0.12 -2.76,0.48 -0.84,0.24 -1.56,0.6 -2.16,1.2 -0.72,0.48 -1.2,1.08 -1.56,1.92 -0.36,0.72 -0.48,1.56 -0.48,2.52 l 3.6,0 c 0,-0.96 0.24,-1.56 0.84,-2.04 0.6,-0.48 1.32,-0.72 2.28,-0.72 1.08,0 1.92,0.24 2.64,0.84 0.72,0.6 1.08,1.32 1.08,2.28 l 0,2.4 c -0.24,-0.72 -0.84,-1.2 -1.56,-1.56 -0.72,-0.36 -1.44,-0.6 -2.4,-0.6 -1.2,0 -2.28,0.24 -3.12,0.72 -0.72,0.36 -1.44,0.96 -1.92,1.68 -0.48,0.6 -0.84,1.44 -1.08,2.4 -0.24,0.84 -0.36,1.8 -0.36,2.76 0,1.08 0.12,2.16 0.48,3 0.36,0.96 0.84,1.8 1.32,2.4 0.6,0.72 1.32,1.2 2.04,1.56 0.84,0.36 1.68,0.6 2.52,0.6 1.8,0 3.12,-0.72 4.08,-2.28 l 0,1.8 3.84,0 0,-14.64 z m 5.28,0.12 -3.84,0 0,19.92 3.84,0 0,-19.92 z m 8.76,5.88 -7.56,0 0,3.6 7.56,0 0,-3.6 z m 5.64,10.32 0,-5.76 3.84,0 c 0.96,0 1.8,0.36 2.4,0.84 0.6,0.6 0.96,1.32 0.96,2.16 0,0.72 -0.24,1.44 -0.84,1.92 -0.6,0.6 -1.44,0.84 -2.52,0.84 l -3.84,0 z m 4.92,3.48 c 0.84,0 1.68,-0.24 2.4,-0.48 0.72,-0.36 1.32,-0.84 1.8,-1.44 0.6,-0.6 0.96,-1.2 1.2,-1.92 0.36,-0.84 0.48,-1.68 0.48,-2.52 0,-0.96 -0.12,-1.68 -0.48,-2.52 -0.24,-0.72 -0.72,-1.32 -1.2,-1.92 -0.48,-0.48 -1.2,-0.96 -1.92,-1.32 -0.72,-0.24 -1.56,-0.36 -2.4,-0.36 l -4.8,0 0,-7.2 -4.08,0 0,19.68 9,0 z m 15,-8.64 c -0.36,0 -0.6,0.12 -0.96,0.12 -2.4,0 -3.6,-1.2 -3.6,-3.6 l 0,-7.56 -3.84,0 0,14.52 3.6,0 0,-1.68 c 0.36,0.48 0.72,0.84 1.08,1.08 0.36,0.36 0.6,0.48 0.96,0.72 0.36,0.12 0.84,0.24 1.2,0.24 0.36,0 0.72,0 1.08,0 l 0.48,0 0,-3.84 z m 4.8,-11.04 -3.84,0 0,14.52 3.84,0 0,-14.52 z m 0,16.32 -3.84,0 0,3.6 3.84,0 0,-3.6 z m 5.04,-3.84 c 0.48,0.96 1.08,1.56 1.68,1.92 0.72,0.36 1.56,0.6 2.52,0.6 0.96,0 1.8,-0.24 2.28,-0.6 0.6,-0.36 1.2,-0.96 1.8,-1.8 0.72,1.56 2.04,2.4 3.84,2.4 0.72,0 1.44,-0.12 2.04,-0.48 0.6,-0.24 1.2,-0.6 1.56,-0.96 0.48,-0.48 0.84,-0.96 1.08,-1.56 0.24,-0.6 0.36,-1.2 0.36,-1.92 l 0,-10.08 -3.84,0 0,8.88 c 0,0.84 -0.12,1.56 -0.6,2.16 -0.36,0.48 -0.96,0.72 -1.56,0.72 -0.72,0 -1.32,-0.24 -1.8,-0.84 -0.48,-0.6 -0.72,-1.32 -0.72,-2.16 l 0,-8.76 -3.84,0 0,8.76 c 0,1.2 -0.12,1.92 -0.48,2.4 -0.36,0.36 -0.96,0.6 -1.8,0.6 -1.56,0 -2.28,-0.96 -2.28,-2.88 l 0,-8.88 -3.84,0 0,14.52 3.6,0 0,-2.04 z m 22.44,-12.48 -3.84,0 0,14.52 3.84,0 0,-14.52 z m 0,16.32 -3.84,0 0,3.6 3.84,0 0,-3.6 z m 13.2,-4.44 -7.92,0 0,-6 c 0,-0.96 0.12,-1.68 0.48,-2.16 0.36,-0.48 0.96,-0.72 1.68,-0.72 0.72,0 1.32,0.24 1.68,0.72 0.36,0.48 0.6,1.2 0.6,2.04 l 0,3.84 3.48,0 0,-4.2 c 0,-0.72 0,-1.44 -0.24,-2.16 -0.24,-0.72 -0.6,-1.32 -1.08,-1.8 -0.48,-0.6 -1.08,-0.96 -1.8,-1.32 -0.72,-0.36 -1.68,-0.48 -2.64,-0.48 -1.08,0 -2.04,0.12 -2.76,0.48 -0.72,0.36 -1.32,0.72 -1.8,1.32 -0.48,0.48 -0.84,1.08 -1.08,1.8 -0.24,0.72 -0.36,1.44 -0.36,2.28 l 0,12.96 3.84,0 0,-3.96 7.92,0 0,-2.64 z m 5.4,-11.88 -3.84,0 0,14.52 3.84,0 0,-14.52 z m 0,16.32 -3.84,0 0,3.6 3.84,0 0,-3.6 z m 9.96,-16.32 -3.96,0 -5.28,14.52 4.32,0 3,-9.48 3.12,9.48 4.08,0 -5.28,-14.52 z m 15.6,8.76 c 0,1.08 -0.36,1.8 -0.84,2.4 -0.6,0.48 -1.32,0.72 -2.04,0.72 -0.84,0 -1.44,-0.24 -2.04,-0.84 -0.6,-0.48 -0.84,-1.32 -0.96,-2.28 l 5.88,0 z m -6,-2.52 c 0.12,-1.08 0.36,-1.92 0.96,-2.52 0.6,-0.72 1.32,-1.08 2.28,-1.08 0.6,0 1.2,0.24 1.68,0.48 0.48,0.36 0.84,0.72 0.96,1.2 l 3.96,0 c -0.48,-1.44 -1.32,-2.64 -2.4,-3.48 -1.08,-0.72 -2.4,-1.2 -3.96,-1.2 -4.92,0 -7.32,2.64 -7.32,7.92 0,2.28 0.6,4.08 1.8,5.4 1.2,1.32 3,2.04 5.16,2.04 4.56,0 6.84,-2.88 6.84,-8.76 l -9.96,0 z m 15.24,-6.24 -4.2,0 0,19.68 4.2,0 0,-19.68 z m 5.28,3.36 3.36,0 c 1.8,0 3.12,0.6 3.84,1.68 0.84,1.08 1.2,2.76 1.2,5.04 0,2.16 -0.36,3.72 -1.2,4.68 -0.84,0.96 -2.28,1.44 -4.2,1.44 l -3,0 0,-12.84 z m 3.6,16.32 c 1.32,0 2.52,-0.24 3.6,-0.72 1.08,-0.36 2.04,-1.08 2.88,-1.92 0.84,-0.84 1.44,-1.8 1.92,-3 0.36,-1.2 0.6,-2.52 0.6,-3.96 0,-1.56 -0.12,-2.88 -0.6,-4.08 -0.36,-1.2 -0.96,-2.28 -1.68,-3.12 -0.72,-0.96 -1.68,-1.56 -2.64,-2.04 -1.08,-0.48 -2.28,-0.84 -3.48,-0.84 l -8.28,0 0,19.68 7.68,0 z m 14.16,-19.68 -4.08,0 0,19.68 4.08,0 0,-19.68 z m 5.16,12.48 c 0.36,0.84 0.96,1.44 1.8,1.8 0.72,0.48 1.68,0.72 2.88,0.72 0.72,0 1.32,-0.12 1.92,-0.36 0.6,-0.24 1.08,-0.48 1.44,-0.96 0.48,-0.36 0.84,-0.84 1.08,-1.44 0.24,-0.6 0.36,-1.32 0.36,-2.16 l 0,-10.08 -3.84,0 0,8.88 c 0,1.08 -0.24,1.8 -0.6,2.28 -0.36,0.36 -0.96,0.6 -1.92,0.6 -2.04,0 -3,-1.2 -3,-3.36 l 0,-8.4 -3.84,0 0,14.52 3.72,0 0,-2.04" /><path
       id="path48"
       style="fill:#1f0202;fill-opacity:1;fill-rule:nonzero;stroke:none"
       d="m 52.2,395.64 -3.84,0 0,14.52 3.84,0 0,-14.52 z m 0,16.2 -3.84,0 0,3.6 3.84,0 0,-3.6 z M 57.24,408 c 0.48,0.96 1.08,1.56 1.8,1.92 0.72,0.36 1.56,0.6 2.4,0.6 0.96,0 1.8,-0.24 2.4,-0.6 0.6,-0.36 1.2,-0.84 1.68,-1.8 0.72,1.56 2.04,2.4 3.96,2.4 0.72,0 1.32,-0.12 2.04,-0.36 0.6,-0.24 1.08,-0.6 1.56,-1.08 0.36,-0.48 0.72,-0.96 0.96,-1.56 0.24,-0.6 0.36,-1.2 0.36,-1.8 l 0,-10.08 -3.72,0 0,8.76 c 0,0.84 -0.24,1.56 -0.6,2.16 -0.48,0.48 -0.96,0.84 -1.68,0.84 -0.72,0 -1.32,-0.36 -1.8,-0.96 -0.48,-0.6 -0.6,-1.32 -0.6,-2.16 l 0,-8.64 -3.84,0 0,8.64 c 0,1.2 -0.24,2.04 -0.6,2.4 -0.36,0.36 -0.84,0.6 -1.68,0.6 -1.56,0 -2.4,-0.96 -2.4,-2.88 l 0,-8.76 -3.84,0 0,14.52 3.6,0 0,-2.16 z m 27.48,-5.28 c -0.36,-0.36 -0.96,-0.6 -1.92,-0.84 -1.32,-0.24 -2.28,-0.48 -2.76,-0.84 -0.48,-0.36 -0.6,-0.84 -0.6,-1.44 0,-1.08 0.48,-1.68 1.68,-1.68 0.48,0 0.96,0.12 1.44,0.24 0.48,0.12 0.84,0.36 1.2,0.6 0.36,0.24 0.6,0.6 0.72,1.08 0.24,0.48 0.36,0.96 0.36,1.44 0,0.24 0,0.48 0,0.72 0,0.24 0,0.48 -0.12,0.72 z m -2.28,7.8 c 2.04,0 3.6,-0.48 4.56,-1.44 1.08,-0.96 1.56,-2.4 1.56,-4.32 l 0,-9.12 -3.48,0 c -0.12,0.12 -0.12,0.36 -0.12,0.48 -0.12,0.24 -0.12,0.48 -0.12,0.6 -0.48,-0.48 -1.08,-0.84 -1.8,-1.08 -0.72,-0.24 -1.68,-0.36 -2.64,-0.36 -1.44,0 -2.64,0.36 -3.48,1.08 -0.84,0.72 -1.32,1.8 -1.32,3 0,0.96 0.12,1.8 0.48,2.4 0.36,0.6 0.72,1.08 1.32,1.44 0.6,0.36 1.32,0.6 2.16,0.72 0.84,0.24 1.68,0.36 2.64,0.48 0.84,0.12 1.44,0.24 1.8,0.48 0.48,0.24 0.72,0.6 0.72,0.96 0,0.6 -0.24,0.96 -0.84,1.32 -0.48,0.24 -1.08,0.36 -1.68,0.36 -0.72,0 -1.2,-0.12 -1.68,-0.6 -0.48,-0.36 -0.72,-0.84 -0.84,-1.56 l -3.6,0 c 0.12,1.68 0.6,2.88 1.68,3.84 0.96,0.84 2.52,1.32 4.68,1.32 z m 14.64,-3.36 c -2.16,0 -3.24,-1.44 -3.24,-4.44 0,-1.32 0.24,-2.28 0.96,-3.12 0.6,-0.72 1.32,-1.08 2.28,-1.08 0.96,0 1.8,0.36 2.4,1.08 0.6,0.72 0.84,1.68 0.84,2.88 0,3.12 -1.08,4.68 -3.24,4.68 z m 6.96,-11.76 c 0,-1.08 -0.12,-2.04 -0.48,-2.88 -0.36,-0.84 -0.96,-1.56 -1.56,-2.04 -0.72,-0.6 -1.44,-1.08 -2.28,-1.32 -0.84,-0.24 -1.8,-0.48 -2.88,-0.48 -0.96,0 -1.92,0.24 -2.76,0.48 -0.84,0.24 -1.68,0.6 -2.28,1.2 -0.6,0.48 -1.08,1.2 -1.44,1.92 -0.36,0.72 -0.48,1.56 -0.48,2.52 l 3.48,0 c 0,-0.84 0.36,-1.56 0.96,-2.04 0.6,-0.48 1.32,-0.72 2.28,-0.72 0.96,0 1.92,0.24 2.64,0.84 0.72,0.6 0.96,1.32 0.96,2.28 l 0,2.4 c -0.24,-0.72 -0.72,-1.2 -1.44,-1.56 -0.72,-0.36 -1.56,-0.48 -2.52,-0.48 -1.2,0 -2.16,0.12 -3,0.6 -0.84,0.36 -1.44,0.96 -1.92,1.68 -0.6,0.72 -0.96,1.44 -1.2,2.4 -0.24,0.84 -0.24,1.8 -0.24,2.76 0,1.08 0.12,2.16 0.48,3.12 0.36,0.84 0.72,1.68 1.32,2.28 0.6,0.72 1.2,1.2 2.04,1.56 0.72,0.36 1.56,0.6 2.4,0.6 1.8,0 3.24,-0.72 4.08,-2.16 l 0,1.8 3.84,0 0,-14.76 z m 11.16,8.88 c -0.12,1.08 -0.36,1.92 -0.96,2.4 -0.6,0.48 -1.32,0.72 -2.04,0.72 -0.84,0 -1.44,-0.24 -2.04,-0.84 -0.48,-0.48 -0.84,-1.32 -0.96,-2.28 l 6,0 z m -6.12,-2.4 c 0.12,-1.08 0.36,-2.04 0.96,-2.64 0.6,-0.72 1.32,-0.96 2.28,-0.96 0.6,0 1.2,0.12 1.68,0.36 0.48,0.36 0.84,0.72 0.96,1.2 l 3.96,0 c -0.48,-1.44 -1.2,-2.64 -2.4,-3.36 -1.08,-0.84 -2.4,-1.32 -3.96,-1.32 -4.8,0 -7.32,2.64 -7.32,7.92 0,2.28 0.6,4.08 1.8,5.4 1.2,1.32 3,2.04 5.28,2.04 4.56,0 6.84,-2.88 6.84,-8.64 l -10.08,0 z m 22.2,7.56 c -0.12,0.96 -0.48,1.68 -1.2,2.16 -0.72,0.48 -1.68,0.72 -2.76,0.72 -0.96,0 -1.8,-0.24 -2.4,-0.6 -0.72,-0.48 -1.08,-0.96 -1.08,-1.68 0,-0.6 0.24,-1.08 0.72,-1.44 0.48,-0.36 1.32,-0.72 2.4,-0.96 0.84,-0.24 1.56,-0.48 2.28,-0.6 0.6,-0.12 1.2,-0.36 1.68,-0.48 0.48,-0.12 0.96,-0.24 1.32,-0.48 0.36,-0.12 0.72,-0.24 1.08,-0.36 0.72,-0.36 1.44,-0.96 1.8,-1.56 0.48,-0.72 0.72,-1.56 0.72,-2.64 0,-1.08 -0.24,-1.92 -0.6,-2.76 -0.36,-0.72 -0.96,-1.44 -1.68,-2.04 -0.6,-0.48 -1.44,-0.96 -2.28,-1.2 -0.84,-0.36 -1.8,-0.48 -2.88,-0.48 -5.64,0 -8.52,2.16 -8.64,6.6 l 3.84,0 c 0.12,-1.08 0.48,-1.8 1.32,-2.4 0.72,-0.6 1.68,-0.84 3,-0.84 0.48,0 0.96,0 1.44,0.12 0.48,0.12 0.84,0.36 1.2,0.48 0.36,0.24 0.72,0.6 0.96,0.84 0.24,0.36 0.24,0.6 0.24,0.96 0,1.2 -0.96,2.04 -3,2.52 -1.68,0.36 -3,0.72 -3.84,1.08 -0.84,0.24 -1.44,0.48 -1.92,0.6 -0.96,0.48 -1.68,1.08 -2.16,1.92 -0.48,0.72 -0.72,1.68 -0.72,2.76 0,0.84 0.12,1.68 0.48,2.4 0.36,0.72 0.84,1.44 1.44,1.92 0.6,0.6 1.32,0.96 2.16,1.32 0.96,0.36 2.04,0.48 3.12,0.48 1.08,0 2.16,-0.12 3,-0.48 0.96,-0.36 1.8,-0.72 2.52,-1.32 0.72,-0.48 1.2,-1.2 1.68,-1.92 0.36,-0.84 0.6,-1.68 0.72,-2.64 l -3.96,0 z m 17.28,-2.04 -8.04,0 0,-6 c 0,-0.96 0.24,-1.68 0.48,-2.16 0.36,-0.48 0.96,-0.72 1.68,-0.72 0.84,0 1.32,0.24 1.8,0.72 0.36,0.48 0.48,1.2 0.48,2.16 l 0,3.72 3.6,0 0,-4.08 c 0,-0.84 -0.12,-1.56 -0.36,-2.28 -0.24,-0.72 -0.6,-1.32 -1.08,-1.8 -0.48,-0.6 -1.08,-0.96 -1.8,-1.32 -0.72,-0.36 -1.68,-0.48 -2.64,-0.48 -1.08,0 -1.92,0.24 -2.76,0.48 -0.72,0.36 -1.32,0.72 -1.8,1.32 -0.48,0.48 -0.84,1.08 -1.08,1.8 -0.24,0.72 -0.24,1.44 -0.24,2.28 l 0,12.96 3.72,0 0,-3.84 8.04,0 0,-2.76 z m 8.64,-0.12 c -2.4,0 -3.48,-1.44 -3.48,-4.44 0,-2.88 1.08,-4.44 3.48,-4.44 2.28,0 3.48,1.56 3.48,4.44 0,3 -1.2,4.44 -3.48,4.44 z m 0,3.24 c 1.08,0 2.16,-0.24 3.12,-0.6 0.84,-0.36 1.68,-0.84 2.28,-1.56 0.6,-0.6 1.08,-1.44 1.44,-2.4 0.36,-0.96 0.48,-1.92 0.48,-3.12 0,-1.08 -0.12,-2.16 -0.48,-3.12 -0.36,-0.96 -0.84,-1.8 -1.44,-2.4 -0.6,-0.72 -1.44,-1.2 -2.4,-1.56 -0.84,-0.36 -1.92,-0.6 -3,-0.6 -1.2,0 -2.28,0.24 -3.12,0.6 -0.96,0.36 -1.68,0.96 -2.4,1.56 -0.6,0.72 -1.08,1.44 -1.44,2.4 -0.36,0.96 -0.48,2.04 -0.48,3.12 0,1.2 0.12,2.16 0.48,3.12 0.36,0.96 0.84,1.8 1.56,2.4 0.6,0.72 1.32,1.2 2.28,1.56 0.96,0.36 1.92,0.6 3.12,0.6 z m 17.04,-3.96 c -0.36,0.12 -0.72,0.12 -1.08,0.12 -2.4,0 -3.6,-1.2 -3.6,-3.48 l 0,-7.56 -3.72,0 0,14.52 3.6,0 0,-1.8 c 0.24,0.48 0.6,0.84 0.96,1.2 0.36,0.24 0.72,0.48 1.08,0.6 0.36,0.12 0.72,0.24 1.08,0.24 0.36,0 0.72,0.12 1.08,0.12 l 0.6,0 0,-3.96 z m 10.44,-2.28 c -0.12,1.08 -0.36,1.92 -0.96,2.4 -0.6,0.48 -1.32,0.72 -2.04,0.72 -0.84,0 -1.44,-0.24 -2.04,-0.84 -0.48,-0.48 -0.84,-1.32 -0.96,-2.28 l 6,0 z m -6.12,-2.4 c 0.12,-1.08 0.36,-2.04 0.96,-2.64 0.6,-0.72 1.32,-0.96 2.28,-0.96 0.6,0 1.2,0.12 1.68,0.36 0.48,0.36 0.84,0.72 0.96,1.2 l 3.96,0 c -0.48,-1.44 -1.2,-2.64 -2.4,-3.36 -1.08,-0.84 -2.4,-1.32 -3.96,-1.32 -4.8,0 -7.32,2.64 -7.32,7.92 0,2.28 0.6,4.08 1.92,5.4 1.2,1.32 2.88,2.04 5.16,2.04 4.56,0 6.84,-2.88 6.84,-8.64 l -10.08,0 z m 18.48,13.68 c -2.4,-3.96 -3.6,-8.16 -3.6,-12.72 0,-4.56 1.2,-8.88 3.6,-12.96 l -2.76,0 c -0.72,1.08 -1.32,2.04 -1.92,3 -0.6,0.96 -1.08,1.92 -1.44,3 -0.48,0.96 -0.84,2.04 -1.08,3.12 -0.24,1.2 -0.36,2.4 -0.36,3.72 0,4.56 1.56,8.88 4.8,12.84 l 2.76,0 z m 2.88,0 c 3.24,-4.44 4.8,-8.76 4.8,-12.84 0,-4.2 -1.68,-8.52 -4.8,-12.84 l -2.76,0 c 2.4,3.84 3.6,8.16 3.6,12.72 0,4.68 -1.2,9 -3.6,12.96 l 2.76,0" /><path
       id="path50"
       style="fill:#1f020a;fill-opacity:1;fill-rule:nonzero;stroke:none"
       d="m 443.4,293.4 -8.04,0 0,-6 c 0,-0.96 0.24,-1.68 0.6,-2.16 0.36,-0.48 0.84,-0.72 1.68,-0.72 0.72,0 1.32,0.24 1.68,0.72 0.36,0.48 0.48,1.2 0.48,2.16 l 0,3.72 3.6,0 0,-4.2 c 0,-0.72 -0.12,-1.44 -0.36,-2.16 -0.24,-0.72 -0.48,-1.32 -0.96,-1.8 -0.48,-0.6 -1.2,-0.96 -1.92,-1.32 -0.72,-0.36 -1.56,-0.48 -2.64,-0.48 -1.08,0 -1.92,0.12 -2.64,0.48 -0.72,0.36 -1.44,0.72 -1.92,1.32 -0.48,0.48 -0.72,1.08 -0.96,1.8 -0.24,0.72 -0.36,1.44 -0.36,2.28 l 0,12.96 3.72,0 0,-3.84 8.04,0 0,-2.76 z m 11.04,-3.12 c 0,1.08 -0.36,1.8 -0.84,2.4 -0.6,0.48 -1.32,0.72 -2.04,0.72 -0.84,0 -1.44,-0.24 -2.04,-0.84 -0.6,-0.48 -0.84,-1.32 -0.96,-2.28 l 5.88,0 z m -6,-2.4 c 0.12,-1.08 0.36,-2.04 0.96,-2.64 0.6,-0.72 1.32,-0.96 2.28,-0.96 0.6,0 1.2,0.12 1.68,0.36 0.48,0.36 0.84,0.72 0.96,1.2 l 3.96,0 c -0.48,-1.44 -1.32,-2.64 -2.4,-3.48 -1.08,-0.72 -2.4,-1.2 -3.96,-1.2 -4.92,0 -7.32,2.64 -7.32,7.92 0,2.28 0.6,4.08 1.8,5.4 1.2,1.32 3,2.04 5.28,2.04 4.56,0 6.72,-2.88 6.72,-8.64 l -9.96,0 z m 19.8,1.08 5.04,-7.32 -4.68,0 -2.64,4.32 -2.4,-4.32 -4.56,0 4.8,7.32 -4.68,7.2 4.56,0 2.52,-4.32 2.4,4.32 4.44,0 -4.8,-7.2 z m 17.64,4.44 -8.04,0 0,-6 c 0,-0.96 0.24,-1.68 0.6,-2.16 0.36,-0.48 0.84,-0.72 1.68,-0.72 0.72,0 1.32,0.24 1.68,0.72 0.36,0.48 0.48,1.2 0.48,2.16 l 0,3.72 3.6,0 0,-4.2 c 0,-0.72 -0.12,-1.44 -0.36,-2.16 -0.24,-0.72 -0.48,-1.32 -0.96,-1.8 -0.48,-0.6 -1.2,-0.96 -1.92,-1.32 -0.72,-0.36 -1.56,-0.48 -2.64,-0.48 -1.08,0 -1.92,0.12 -2.64,0.48 -0.72,0.36 -1.44,0.72 -1.92,1.32 -0.48,0.48 -0.72,1.08 -0.96,1.8 -0.24,0.72 -0.36,1.44 -0.36,2.28 l 0,12.96 3.72,0 0,-3.84 8.04,0 0,-2.76 z m 14.64,-11.76 -3.72,0 0,2.04 c -0.96,-1.68 -2.4,-2.52 -4.44,-2.52 -0.72,0 -1.44,0.12 -2.04,0.48 -0.6,0.24 -1.08,0.6 -1.56,1.08 -0.36,0.48 -0.72,0.96 -0.96,1.68 -0.24,0.6 -0.36,1.32 -0.36,2.16 l 0,9.6 3.84,0 0,-9 c 0,-1.8 0.72,-2.76 2.4,-2.76 0.96,0 1.68,0.36 2.28,0.96 0.48,0.6 0.72,1.44 0.72,2.4 l 0,8.4 3.84,0 0,-14.52 z m 9.84,10.92 c -0.36,0 -0.72,0.12 -0.96,0.12 -2.4,0 -3.6,-1.2 -3.6,-3.6 l 0,-7.44 -3.84,0 0,14.52 3.6,0 0,-1.8 c 0.36,0.48 0.72,0.84 1.08,1.2 0.36,0.24 0.6,0.48 0.96,0.6 0.36,0.12 0.72,0.24 1.2,0.24 0.36,0 0.72,0.12 1.08,0.12 l 0.48,0 0,-3.96 z m 10.44,-2.28 c 0,1.08 -0.36,1.8 -0.84,2.4 -0.6,0.48 -1.32,0.72 -2.04,0.72 -0.84,0 -1.44,-0.24 -2.04,-0.84 -0.6,-0.48 -0.84,-1.32 -0.96,-2.28 l 5.88,0 z m -6,-2.4 c 0.12,-1.08 0.36,-2.04 0.96,-2.64 0.6,-0.72 1.32,-0.96 2.28,-0.96 0.6,0 1.2,0.12 1.68,0.36 0.48,0.36 0.84,0.72 0.96,1.2 l 3.96,0 c -0.48,-1.44 -1.2,-2.64 -2.4,-3.48 -1.08,-0.72 -2.4,-1.2 -3.96,-1.2 -4.92,0 -7.32,2.64 -7.32,7.92 0,2.28 0.6,4.08 1.8,5.4 1.2,1.32 3,2.04 5.28,2.04 4.56,0 6.72,-2.88 6.72,-8.64 l -9.96,0 z m 22.08,7.44 c 0,0.96 -0.48,1.8 -1.08,2.28 -0.72,0.48 -1.68,0.72 -2.76,0.72 -0.96,0 -1.8,-0.24 -2.4,-0.6 -0.72,-0.48 -1.08,-0.96 -1.08,-1.68 0,-0.6 0.24,-1.08 0.72,-1.56 0.48,-0.36 1.2,-0.6 2.28,-0.84 0.96,-0.24 1.68,-0.48 2.28,-0.6 0.72,-0.24 1.32,-0.36 1.8,-0.48 0.48,-0.12 0.96,-0.36 1.32,-0.48 0.36,-0.12 0.72,-0.24 1.08,-0.48 0.72,-0.36 1.32,-0.84 1.8,-1.56 0.48,-0.6 0.6,-1.56 0.6,-2.64 0,-0.96 -0.12,-1.8 -0.48,-2.64 -0.48,-0.72 -0.96,-1.44 -1.68,-2.04 -0.6,-0.48 -1.44,-0.96 -2.28,-1.2 -0.96,-0.36 -1.92,-0.48 -2.88,-0.48 -5.64,0 -8.64,2.16 -8.76,6.6 l 3.96,0 c 0,-1.08 0.48,-1.8 1.2,-2.4 0.84,-0.6 1.8,-0.84 3,-0.84 0.48,0 1.08,0 1.56,0.12 0.48,0.12 0.84,0.36 1.2,0.48 0.36,0.24 0.72,0.48 0.96,0.84 0.12,0.36 0.24,0.6 0.24,0.96 0,1.2 -0.96,2.04 -3,2.52 -1.68,0.36 -3,0.72 -3.84,1.08 -0.84,0.24 -1.56,0.48 -1.92,0.6 -0.96,0.48 -1.68,1.08 -2.16,1.92 -0.48,0.72 -0.72,1.68 -0.72,2.76 0,0.84 0.12,1.68 0.48,2.4 0.36,0.72 0.72,1.44 1.32,1.92 0.6,0.6 1.44,0.96 2.28,1.32 0.96,0.36 1.92,0.48 3.12,0.48 1.08,0 2.16,-0.12 3,-0.48 0.96,-0.36 1.8,-0.72 2.52,-1.32 0.72,-0.48 1.2,-1.2 1.68,-1.92 0.36,-0.84 0.6,-1.68 0.6,-2.76 l -3.96,0 z m 9.36,-13.68 -3.84,0 0,14.52 3.84,0 0,-14.52 z m 0,16.2 -3.84,0 0,3.6 3.84,0 0,-3.6 z m 13.2,-4.8 -7.32,-8.28 7.56,0 0,-3.12 -12.48,0 0,2.88 7.44,8.52 -6.96,0 0,3.12 11.76,0 0,-3.12 z m 10.8,-2.76 c -0.12,1.08 -0.36,1.8 -0.96,2.4 -0.6,0.48 -1.32,0.72 -2.04,0.72 -0.72,0 -1.44,-0.24 -2.04,-0.84 -0.48,-0.48 -0.84,-1.32 -0.96,-2.28 l 6,0 z m -6.12,-2.4 c 0.12,-1.08 0.48,-2.04 0.96,-2.64 0.6,-0.72 1.32,-0.96 2.28,-0.96 0.6,0 1.2,0.12 1.68,0.36 0.48,0.36 0.84,0.72 0.96,1.2 l 3.96,0 c -0.48,-1.44 -1.2,-2.64 -2.4,-3.48 -1.08,-0.72 -2.4,-1.2 -3.96,-1.2 -4.8,0 -7.2,2.64 -7.2,7.92 0,2.28 0.6,4.08 1.8,5.4 1.2,1.32 2.88,2.04 5.16,2.04 4.56,0 6.84,-2.88 6.84,-8.64 l -10.08,0 z m 18.48,13.68 c -2.4,-3.96 -3.6,-8.16 -3.6,-12.72 0,-4.56 1.2,-8.88 3.6,-12.96 l -2.76,0 c -0.72,1.08 -1.32,2.04 -1.92,3 -0.6,0.96 -1.08,1.92 -1.44,3 -0.48,0.96 -0.84,2.04 -1.08,3.12 -0.24,1.2 -0.36,2.4 -0.36,3.72 0,4.56 1.56,8.88 4.8,12.84 l 2.76,0 z m 2.88,0 c 3.24,-4.44 4.8,-8.76 4.8,-12.96 0,-4.2 -1.56,-8.4 -4.8,-12.72 l -2.76,0 c 2.4,3.84 3.6,8.16 3.6,12.72 0,4.68 -1.2,9 -3.6,12.96 l 2.76,0" /><g
       id="g52"
       transform="matrix(0,-0.12,0.12,0,-90,702)"><g
         clip-path="url(#clipPath56)"
         id="g54"><path
           id="path60"
           style="fill:#950707;fill-opacity:1;fill-rule:nonzero;stroke:none"
           d="m 3068,632 0,-32 -121,0 0,32 121,0 z m -136,0 0,-32 -29,0 0,32 29,0 z m 32,42 c -8,4 -13,9 -16,15 -3,5 -5,12 -5,20 0,8 2,15 5,20 3,5 8,9 15,14 -13,6 -20,17 -20,32 0,6 2,12 4,17 2,5 5,10 8,13 4,4 8,7 13,9 5,2 10,3 16,3 l 84,0 0,-32 -74,0 c -7,0 -13,-1 -18,-5 -4,-3 -6,-8 -6,-13 0,-6 2,-11 7,-15 5,-4 11,-6 18,-6 l 73,0 0,-32 -73,0 c -10,0 -16,-1 -20,-4 -3,-3 -4,-8 -4,-15 0,-13 7,-19 23,-19 l 74,0 0,-32 -121,0 0,30 17,0 z m 44,229 c 3,-3 5,-9 7,-17 2,-11 4,-18 7,-22 3,-4 7,-6 12,-6 9,0 14,5 14,15 0,4 -1,8 -2,11 -1,4 -3,7 -5,10 -2,3 -5,5 -9,7 -3,2 -7,3 -12,3 -1,0 -3,0 -6,-1 -2,0 -4,0 -6,0 z m -65,-20 c 0,17 5,30 13,39 8,9 20,13 35,13 l 77,0 0,-30 c -2,0 -3,-1 -5,-1 -2,0 -3,-1 -5,-1 4,-4 7,-9 9,-15 2,-6 3,-13 3,-21 0,-12 -3,-22 -9,-30 -6,-7 -14,-11 -25,-11 -8,0 -15,2 -20,4 -5,3 -9,7 -12,12 -3,5 -4,11 -6,18 -1,7 -3,14 -4,22 -1,6 -2,11 -4,15 -2,4 -5,5 -8,5 -5,0 -8,-2 -10,-6 -3,-4 -4,-9 -4,-14 0,-6 2,-11 5,-14 3,-4 8,-6 13,-7 l 0,-31 c -13,1 -24,6 -31,14 -8,8 -12,21 -12,39 z m 28,123 c 0,-18 13,-28 37,-28 11,0 20,3 26,8 6,5 9,12 9,20 0,8 -3,14 -9,19 -6,5 -14,8 -24,8 -26,0 -39,-9 -39,-27 z m 98,58 c 9,0 17,-2 24,-5 7,-3 13,-7 18,-13 5,-5 8,-12 10,-19 3,-7 4,-15 4,-23 0,-9 -1,-17 -3,-24 -3,-7 -6,-13 -11,-18 -4,-5 -9,-9 -16,-12 -6,-3 -13,-5 -21,-5 l 0,30 c 8,0 13,2 17,7 4,5 6,12 6,20 0,8 -2,15 -7,21 -4,6 -11,9 -19,9 l -20,0 c 6,-2 10,-6 13,-12 3,-6 5,-13 5,-21 0,-10 -2,-18 -6,-25 -3,-7 -8,-13 -14,-17 -5,-4 -12,-7 -19,-9 -8,-2 -16,-3 -24,-3 -9,0 -18,2 -25,4 -8,3 -15,7 -20,12 -6,5 -10,10 -13,16 -3,7 -5,14 -5,21 0,15 7,26 19,34 l -15,0 0,32 122,0 z m -74,92 c -9,0 -15,-3 -20,-8 -4,-5 -6,-10 -6,-16 0,-7 2,-13 7,-17 4,-5 11,-7 19,-8 l 0,49 z m 21,-50 c 9,0 16,3 21,8 6,5 9,11 9,19 0,5 -2,10 -4,14 -3,4 -6,6 -10,8 l 0,33 c 12,-4 22,-11 29,-20 7,-9 10,-21 10,-34 0,-40 -22,-60 -66,-60 -19,0 -34,5 -45,15 -11,10 -17,25 -17,43 0,38 25,57 73,57 l 0,-83 z m 22,126 0,81 30,0 0,-115 -164,0 0,34 134,0 z m -67,148 c 0,-19 12,-29 36,-29 25,0 37,10 37,29 0,20 -12,29 -37,29 -24,0 -36,-9 -36,-29 z m -28,0 c 0,10 2,18 5,26 3,8 7,14 13,19 5,6 12,10 20,13 8,2 17,4 26,4 10,0 18,-2 26,-5 8,-3 15,-7 20,-12 6,-5 10,-12 13,-19 3,-8 5,-16 5,-26 0,-10 -2,-18 -5,-26 -3,-8 -7,-14 -13,-19 -5,-6 -12,-10 -20,-13 -8,-3 -16,-4 -26,-4 -9,0 -18,2 -26,4 -8,3 -14,7 -20,13 -6,5 -10,12 -13,19 -3,8 -5,17 -5,26 z m 65,145 c 3,-3 5,-8 7,-16 2,-11 4,-19 7,-23 3,-4 7,-6 12,-6 9,0 14,5 14,15 0,4 -1,8 -2,12 -1,4 -3,7 -5,10 -2,3 -5,5 -9,6 -3,2 -7,3 -12,3 -1,0 -3,0 -6,0 -2,0 -4,0 -6,-1 z m -65,-19 c 0,17 5,30 13,38 8,9 20,13 35,13 l 77,0 0,-30 c -2,0 -3,0 -5,-1 -2,0 -3,0 -5,0 4,-4 7,-9 9,-16 2,-6 3,-13 3,-21 0,-12 -3,-22 -9,-29 -6,-8 -14,-11 -25,-11 -8,0 -15,1 -20,4 -5,3 -9,6 -12,11 -3,5 -4,11 -6,18 -1,7 -3,14 -4,22 -1,6 -2,11 -4,15 -2,4 -5,6 -8,6 -5,0 -8,-3 -10,-7 -3,-4 -4,-9 -4,-14 0,-6 2,-10 5,-14 3,-4 8,-6 13,-7 l 0,-30 c -13,1 -24,5 -31,13 -8,8 -12,22 -12,40 z m 28,121 c 0,-18 12,-27 37,-27 11,0 20,2 26,7 7,5 10,12 10,20 0,4 -1,7 -2,11 -2,3 -4,6 -7,9 -3,2 -7,4 -11,5 -4,2 -9,2 -14,2 -26,0 -39,-9 -39,-27 z m 97,58 0,-31 -15,-1 c 12,-7 18,-18 18,-33 0,-9 -2,-17 -5,-23 -4,-7 -8,-12 -14,-17 -6,-4 -13,-7 -21,-9 -8,-2 -16,-4 -25,-4 -9,0 -18,1 -25,4 -8,2 -15,5 -20,10 -6,4 -10,9 -13,15 -3,6 -5,14 -5,21 0,15 7,27 20,36 l -60,0 0,32 165,0 z m -167,73 c 33,-20 68,-30 106,-30 38,0 74,10 108,30 l 0,-23 c -8,-6 -17,-11 -25,-16 -8,-5 -16,-9 -24,-12 -9,-4 -18,-7 -27,-9 -9,-2 -20,-3 -31,-3 -38,0 -74,13 -107,40 l 0,23 z m 0,24 c 37,27 73,40 108,40 35,0 70,-14 106,-41 l 0,-22 c -32,20 -68,30 -106,30 -39,0 -75,-10 -108,-30 l 0,23" /></g></g><path
       id="path62"
       style="fill:#bd6b00;fill-opacity:1;fill-rule:nonzero;stroke:none"
       d="m 180.36,502.08 -8.04,0 0,-6 c 0,-0.96 0.12,-1.56 0.48,-2.16 0.36,-0.48 0.96,-0.72 1.68,-0.72 0.84,0 1.32,0.24 1.68,0.72 0.36,0.48 0.6,1.2 0.6,2.16 l 0,3.72 3.6,0 0,-4.08 c 0,-0.84 -0.12,-1.56 -0.36,-2.28 -0.24,-0.72 -0.6,-1.32 -1.08,-1.8 -0.48,-0.48 -1.08,-0.96 -1.8,-1.32 -0.72,-0.24 -1.68,-0.48 -2.64,-0.48 -1.08,0 -2.04,0.24 -2.76,0.48 -0.72,0.36 -1.32,0.84 -1.8,1.32 -0.48,0.48 -0.84,1.2 -1.08,1.8 -0.24,0.72 -0.36,1.44 -0.36,2.28 l 0,12.96 3.84,0 0,-3.84 8.04,0 0,-2.76 z m 11.04,-3.12 c 0,1.08 -0.36,1.92 -0.96,2.4 -0.6,0.48 -1.2,0.84 -2.04,0.84 -0.72,0 -1.44,-0.36 -1.92,-0.84 -0.6,-0.6 -0.96,-1.44 -0.96,-2.4 l 5.88,0 z m -6,-2.4 c 0,-1.08 0.36,-1.92 0.96,-2.64 0.48,-0.6 1.32,-0.96 2.28,-0.96 0.6,0 1.08,0.12 1.56,0.48 0.48,0.24 0.84,0.6 0.96,1.08 l 3.96,0 c -0.48,-1.44 -1.2,-2.64 -2.28,-3.36 -1.2,-0.84 -2.52,-1.2 -4.08,-1.2 -4.8,0 -7.2,2.64 -7.2,7.8 0,2.28 0.6,4.08 1.8,5.4 1.2,1.32 2.88,2.04 5.16,2.04 4.56,0 6.84,-2.88 6.84,-8.64 l -9.96,0 z m 19.8,1.08 4.92,-7.32 -4.68,0 -2.52,4.32 -2.52,-4.32 -4.56,0 4.92,7.32 -4.8,7.2 4.68,0 2.4,-4.2 2.52,4.2 4.44,0 -4.8,-7.2 z m 15.36,1.32 c 0,1.08 -0.36,1.92 -0.96,2.4 -0.6,0.48 -1.2,0.84 -2.04,0.84 -0.72,0 -1.44,-0.36 -1.92,-0.84 -0.6,-0.6 -0.96,-1.44 -0.96,-2.4 l 5.88,0 z m -6,-2.4 c 0,-1.08 0.36,-1.92 0.96,-2.64 0.6,-0.6 1.32,-0.96 2.28,-0.96 0.6,0 1.08,0.12 1.68,0.48 0.48,0.24 0.72,0.6 0.84,1.08 l 3.96,0 c -0.36,-1.44 -1.2,-2.64 -2.28,-3.36 -1.2,-0.84 -2.52,-1.2 -4.08,-1.2 -4.8,0 -7.2,2.64 -7.2,7.8 0,2.28 0.6,4.08 1.8,5.4 1.2,1.32 2.88,2.04 5.16,2.04 4.56,0 6.84,-2.88 6.84,-8.64 l -9.96,0 z m 15,-6.24 -3.84,0 0,19.8 3.84,0 0,-19.8 z m 15.36,16.08 -9.84,0 0,-4.44 8.52,0 0,-3.36 -8.52,0 0,-8.28 -4.08,0 0,19.56 13.92,0 0,-3.48 z m 10.44,-7.44 c 0,1.08 -0.36,1.92 -0.96,2.4 -0.6,0.48 -1.2,0.84 -2.04,0.84 -0.72,0 -1.44,-0.36 -2.04,-0.84 -0.48,-0.6 -0.84,-1.44 -0.96,-2.4 l 6,0 z m -6.12,-2.4 c 0.12,-1.08 0.48,-1.92 0.96,-2.64 0.6,-0.6 1.44,-0.96 2.4,-0.96 0.6,0 1.08,0.12 1.56,0.48 0.48,0.24 0.84,0.6 0.96,1.08 l 3.96,0 c -0.48,-1.44 -1.2,-2.64 -2.28,-3.36 -1.2,-0.84 -2.52,-1.2 -4.08,-1.2 -4.8,0 -7.2,2.64 -7.2,7.8 0,2.28 0.6,4.08 1.8,5.4 1.2,1.32 2.88,2.04 5.16,2.04 4.56,0 6.84,-2.88 6.84,-8.64 l -10.08,0 z m 23.04,5.52 -8.04,0 0,-6 c 0,-0.96 0.24,-1.56 0.48,-2.16 0.36,-0.48 0.96,-0.72 1.68,-0.72 0.84,0 1.44,0.24 1.8,0.72 0.36,0.48 0.48,1.2 0.48,2.16 l 0,3.72 3.6,0 0,-4.08 c 0,-0.84 -0.12,-1.56 -0.36,-2.28 -0.24,-0.72 -0.6,-1.32 -1.08,-1.8 -0.48,-0.48 -1.08,-0.96 -1.8,-1.32 -0.72,-0.24 -1.68,-0.48 -2.64,-0.48 -1.08,0 -1.92,0.24 -2.76,0.48 -0.72,0.36 -1.32,0.84 -1.8,1.32 -0.48,0.48 -0.84,1.2 -1.08,1.8 -0.24,0.72 -0.24,1.44 -0.24,2.28 l 0,12.96 3.72,0 0,-3.84 8.04,0 0,-2.76 z m 10.68,-2.4 c -0.12,0.72 -0.36,1.32 -0.84,1.68 -0.48,0.48 -1.08,0.6 -1.8,0.6 -0.48,0 -0.84,0 -1.2,-0.12 -0.36,-0.12 -0.72,-0.36 -0.96,-0.72 -0.24,-0.36 -0.48,-0.72 -0.6,-1.32 -0.12,-0.48 -0.24,-1.2 -0.24,-2.04 0,-1.56 0.24,-2.76 0.84,-3.48 0.6,-0.72 1.2,-1.2 2.04,-1.2 0.72,0 1.32,0.24 1.92,0.72 0.48,0.36 0.72,0.96 0.84,1.8 l 3.84,0 c -0.12,-0.84 -0.36,-1.68 -0.72,-2.4 -0.36,-0.72 -0.84,-1.2 -1.44,-1.8 -0.6,-0.48 -1.2,-0.84 -2.04,-1.08 -0.72,-0.24 -1.56,-0.36 -2.4,-0.36 -0.96,0 -1.92,0.12 -2.76,0.48 -0.84,0.36 -1.44,0.84 -2.04,1.44 -0.6,0.6 -1.08,1.44 -1.44,2.4 -0.24,0.96 -0.48,2.16 -0.48,3.48 0,1.32 0.24,2.4 0.48,3.36 0.36,0.96 0.84,1.68 1.44,2.28 0.6,0.6 1.32,1.08 2.16,1.32 0.84,0.36 1.68,0.48 2.76,0.48 1.92,0 3.48,-0.48 4.68,-1.44 1.08,-1.08 1.8,-2.4 1.92,-4.08 l -3.96,0 z m 8.64,3.24 c 0.36,0.6 0.84,1.2 1.68,1.68 0.84,0.36 1.68,0.6 2.64,0.6 1.56,0 2.76,-0.36 3.6,-1.2 0.96,-0.84 1.44,-2.04 1.44,-3.48 l 0,-10.2 -3.84,0 0,9 c 0,1.08 -0.24,1.8 -0.6,2.16 -0.36,0.48 -0.96,0.72 -1.92,0.72 -0.96,0 -1.68,-0.36 -2.16,-1.08 -0.48,-0.72 -0.84,-1.56 -0.84,-2.52 l 0,-8.28 -3.72,0 0,19.8 3.72,0 0,-7.2 z m 18.24,7.32 c -2.4,-3.96 -3.72,-8.16 -3.72,-12.72 0,-4.56 1.2,-8.88 3.72,-12.96 l -2.88,0 c -0.6,1.08 -1.2,2.04 -1.8,3 -0.6,0.96 -1.08,1.92 -1.56,3 -0.36,0.96 -0.72,2.04 -0.96,3.24 -0.24,1.08 -0.48,2.28 -0.48,3.6 0,4.56 1.68,8.88 4.8,12.84 l 2.88,0 z m 2.88,0 c 3.12,-4.44 4.68,-8.64 4.68,-12.84 0,-4.2 -1.56,-8.52 -4.8,-12.84 l -2.76,0 c 2.4,3.96 3.6,8.16 3.6,12.72 0,4.68 -1.2,9 -3.6,12.96 l 2.88,0" /><path
       id="path64"
       style="fill:#950720;fill-opacity:1;fill-rule:nonzero;stroke:none"
       d="m 382.56,507.84 -7.92,0 0,-5.88 c 0,-0.96 0.12,-1.68 0.48,-2.16 0.36,-0.48 0.96,-0.72 1.68,-0.72 0.72,0 1.32,0.24 1.68,0.72 0.36,0.48 0.6,1.2 0.6,2.04 l 0,3.84 3.48,0 0,-4.2 c 0,-0.72 -0.12,-1.44 -0.24,-2.16 -0.24,-0.72 -0.6,-1.32 -1.08,-1.92 -0.48,-0.48 -1.08,-0.96 -1.8,-1.2 -0.72,-0.36 -1.68,-0.48 -2.64,-0.48 -1.08,0 -2.04,0.12 -2.76,0.48 -0.72,0.36 -1.32,0.72 -1.8,1.2 -0.48,0.6 -0.84,1.2 -1.08,1.92 -0.24,0.72 -0.36,1.44 -0.36,2.16 l 0,13.08 3.84,0 0,-3.96 7.92,0 0,-2.76 z m 11.16,-3.12 c -0.12,1.08 -0.36,1.92 -0.96,2.4 -0.6,0.6 -1.32,0.84 -2.04,0.84 -0.84,0 -1.44,-0.24 -2.04,-0.84 -0.48,-0.6 -0.84,-1.32 -0.96,-2.4 l 6,0 z m -6.12,-2.4 c 0.12,-1.08 0.36,-1.92 0.96,-2.52 0.6,-0.72 1.32,-1.08 2.28,-1.08 0.6,0 1.2,0.24 1.68,0.48 0.48,0.24 0.84,0.72 0.96,1.2 l 3.96,0 c -0.48,-1.56 -1.2,-2.64 -2.4,-3.48 -1.08,-0.84 -2.4,-1.2 -3.96,-1.2 -4.8,0 -7.32,2.64 -7.32,7.92 0,2.28 0.72,4.08 1.92,5.4 1.2,1.32 2.88,1.92 5.16,1.92 4.56,0 6.84,-2.88 6.84,-8.64 l -10.08,0 z m 19.92,1.2 4.92,-7.44 -4.68,0 -2.52,4.44 -2.52,-4.44 -4.56,0 4.8,7.44 -4.68,7.08 4.68,0 2.4,-4.2 2.52,4.2 4.44,0 -4.8,-7.08 z m 17.52,4.32 -7.92,0 0,-5.88 c 0,-0.96 0.12,-1.68 0.48,-2.16 0.36,-0.48 0.96,-0.72 1.68,-0.72 0.72,0 1.32,0.24 1.68,0.72 0.36,0.48 0.6,1.2 0.6,2.04 l 0,3.84 3.48,0 0,-4.2 c 0,-0.72 -0.12,-1.44 -0.24,-2.16 -0.24,-0.72 -0.6,-1.32 -1.08,-1.92 -0.48,-0.48 -1.08,-0.96 -1.8,-1.2 -0.72,-0.36 -1.68,-0.48 -2.64,-0.48 -1.08,0 -2.04,0.12 -2.76,0.48 -0.72,0.36 -1.32,0.72 -1.8,1.2 -0.48,0.6 -0.84,1.2 -1.08,1.92 -0.24,0.72 -0.36,1.44 -0.36,2.16 l 0,13.08 3.84,0 0,-3.96 7.92,0 0,-2.76 z m 14.64,-11.76 -3.6,0 0,2.04 c -0.96,-1.56 -2.52,-2.4 -4.56,-2.4 -0.72,0 -1.32,0.12 -1.92,0.36 -0.6,0.24 -1.2,0.6 -1.56,1.08 -0.48,0.48 -0.84,1.08 -1.08,1.68 -0.24,0.72 -0.36,1.44 -0.36,2.28 l 0,9.48 3.84,0 0,-9 c 0,-1.8 0.84,-2.64 2.4,-2.64 0.96,0 1.8,0.24 2.28,0.96 0.48,0.6 0.72,1.32 0.72,2.28 l 0,8.4 3.84,0 0,-14.52 z m 9.96,11.04 c -0.36,0 -0.72,0 -1.08,0 -2.4,0 -3.48,-1.08 -3.48,-3.48 l 0,-7.56 -3.84,0 0,14.52 3.6,0 0,-1.68 c 0.24,0.48 0.6,0.84 0.96,1.08 0.36,0.24 0.72,0.48 1.08,0.72 0.36,0.12 0.72,0.24 1.08,0.24 0.36,0 0.72,0 1.08,0 l 0.6,0 0,-3.84 z m 10.44,-2.4 c -0.12,1.08 -0.36,1.92 -0.96,2.4 -0.6,0.6 -1.32,0.84 -2.04,0.84 -0.72,0 -1.44,-0.24 -2.04,-0.84 -0.48,-0.6 -0.84,-1.32 -0.96,-2.4 l 6,0 z m -6.12,-2.4 c 0.12,-1.08 0.48,-1.92 0.96,-2.52 0.6,-0.72 1.32,-1.08 2.28,-1.08 0.6,0 1.2,0.24 1.68,0.48 0.48,0.24 0.84,0.72 0.96,1.2 l 3.96,0 c -0.48,-1.56 -1.2,-2.64 -2.4,-3.48 -1.08,-0.84 -2.4,-1.2 -3.96,-1.2 -4.8,0 -7.32,2.64 -7.32,7.92 0,2.28 0.72,4.08 1.92,5.4 1.2,1.32 2.88,1.92 5.16,1.92 4.56,0 6.84,-2.88 6.84,-8.64 l -10.08,0 z m 18.48,13.8 c -2.4,-3.96 -3.6,-8.16 -3.6,-12.72 0,-4.56 1.2,-8.88 3.6,-12.96 l -2.76,0 c -0.72,0.96 -1.32,2.04 -1.92,3 -0.6,0.96 -1.08,1.92 -1.44,2.88 -0.48,1.08 -0.84,2.16 -1.08,3.24 -0.24,1.08 -0.36,2.28 -0.36,3.6 0,4.68 1.56,9 4.8,12.96 l 2.76,0 z m 2.88,0 c 3.24,-4.44 4.8,-8.76 4.8,-12.96 0,-4.2 -1.68,-8.4 -4.8,-12.72 l -2.76,0 c 2.4,3.84 3.6,8.16 3.6,12.72 0,4.68 -1.2,8.88 -3.6,12.96 l 2.76,0" /><path
       id="path66"
       style="fill:#950707;fill-opacity:1;fill-rule:nonzero;stroke:none"
       d="m 540.84,390.72 c -2.16,0 -3.24,-1.56 -3.24,-4.44 0,-1.32 0.24,-2.28 0.96,-3.12 0.6,-0.72 1.32,-1.08 2.28,-1.08 0.96,0 1.8,0.36 2.4,1.08 0.6,0.72 0.84,1.68 0.84,2.88 0,3.12 -1.08,4.68 -3.24,4.68 z m 6.96,-11.76 c 0,-1.08 -0.12,-2.04 -0.48,-2.88 -0.36,-0.84 -0.96,-1.56 -1.56,-2.16 -0.72,-0.48 -1.44,-0.96 -2.28,-1.2 -0.84,-0.36 -1.8,-0.48 -2.88,-0.48 -0.96,0 -1.92,0.12 -2.76,0.48 -0.84,0.24 -1.56,0.6 -2.28,1.2 -0.6,0.48 -1.08,1.08 -1.44,1.92 -0.36,0.72 -0.48,1.56 -0.48,2.52 l 3.48,0 c 0,-0.96 0.36,-1.56 0.96,-2.04 0.6,-0.48 1.32,-0.72 2.28,-0.72 0.96,0 1.92,0.24 2.64,0.84 0.72,0.6 1.08,1.32 1.08,2.28 l 0,2.4 c -0.36,-0.72 -0.84,-1.2 -1.56,-1.56 -0.72,-0.36 -1.56,-0.6 -2.52,-0.6 -1.2,0 -2.16,0.24 -3,0.72 -0.84,0.36 -1.44,0.96 -1.92,1.68 -0.48,0.6 -0.96,1.44 -1.08,2.4 -0.24,0.84 -0.36,1.8 -0.36,2.76 0,1.08 0.12,2.16 0.48,3 0.36,0.96 0.72,1.8 1.32,2.4 0.6,0.72 1.32,1.2 2.04,1.56 0.72,0.36 1.56,0.6 2.52,0.6 1.8,0 3.12,-0.72 4.08,-2.28 l 0,1.8 3.72,0 0,-14.64 z m 5.4,0.12 -3.84,0 0,19.8 3.84,0 0,-19.8 z m 8.76,5.88 -7.68,0 0,3.6 7.68,0 0,-3.6 z m 5.64,-2.28 9.72,0 0,-3.6 -13.92,0 0,19.68 4.2,0 0,-16.08 z m 19.32,3.6 c -0.36,-0.36 -0.96,-0.6 -1.92,-0.84 -1.32,-0.24 -2.28,-0.48 -2.76,-0.84 -0.48,-0.36 -0.6,-0.84 -0.6,-1.44 0,-1.08 0.48,-1.68 1.68,-1.68 0.48,0 0.96,0.12 1.44,0.24 0.48,0.12 0.84,0.36 1.2,0.6 0.36,0.24 0.6,0.6 0.72,1.08 0.24,0.36 0.36,0.84 0.36,1.44 0,0.12 0,0.36 0,0.72 0,0.24 0,0.48 -0.12,0.72 z m -2.28,7.8 c 2.04,0 3.6,-0.48 4.56,-1.56 1.08,-0.96 1.56,-2.4 1.56,-4.2 l 0,-9.24 -3.48,0 c -0.12,0.24 -0.12,0.36 -0.12,0.6 -0.12,0.24 -0.12,0.36 -0.12,0.6 -0.48,-0.48 -1.08,-0.84 -1.8,-1.08 -0.72,-0.24 -1.68,-0.36 -2.64,-0.36 -1.44,0 -2.64,0.36 -3.48,1.08 -0.84,0.72 -1.32,1.68 -1.32,3 0,0.96 0.12,1.8 0.48,2.4 0.36,0.6 0.72,1.08 1.32,1.44 0.6,0.36 1.32,0.6 2.16,0.72 0.84,0.12 1.68,0.36 2.64,0.48 0.84,0.12 1.44,0.24 1.8,0.48 0.48,0.24 0.72,0.6 0.72,0.96 0,0.6 -0.24,0.96 -0.84,1.32 -0.48,0.24 -1.08,0.36 -1.68,0.36 -0.6,0 -1.2,-0.24 -1.68,-0.6 -0.48,-0.36 -0.72,-0.96 -0.84,-1.56 l -3.6,0 c 0.12,1.56 0.6,2.88 1.68,3.72 0.96,0.96 2.52,1.44 4.68,1.44 z m 20.76,-15.36 c 0,-0.96 -0.24,-1.92 -0.48,-2.76 -0.36,-0.72 -0.84,-1.44 -1.44,-2.04 -0.6,-0.48 -1.32,-0.96 -2.16,-1.2 -0.84,-0.36 -1.68,-0.48 -2.64,-0.48 -2.04,0 -3.72,0.6 -4.8,1.56 -1.08,1.08 -1.56,2.64 -1.56,4.56 l 3.6,0 c 0,-0.96 0.24,-1.56 0.72,-2.04 0.48,-0.48 1.32,-0.72 2.28,-0.72 0.36,0 0.72,0 0.96,0.24 0.36,0.12 0.6,0.36 0.84,0.6 0.24,0.24 0.48,0.6 0.6,0.96 0.12,0.36 0.24,0.84 0.24,1.32 l 0,2.28 c -0.24,-0.6 -0.72,-1.08 -1.44,-1.44 -0.72,-0.36 -1.56,-0.6 -2.52,-0.6 -0.72,0 -1.44,0.12 -2.04,0.36 -0.72,0.24 -1.2,0.6 -1.68,1.08 -0.48,0.48 -0.84,1.08 -1.2,1.68 -0.24,0.6 -0.36,1.32 -0.36,2.16 l 0,9.36 3.84,0 0,-8.76 c 0,-1.8 0.84,-2.76 2.4,-2.76 0.96,0 1.68,0.24 2.16,0.72 0.6,0.6 0.84,1.2 0.84,2.04 l 0,8.76 3.84,0 0,-14.88 z m 11.04,9.12 c 0,1.08 -0.36,1.8 -0.96,2.4 -0.6,0.48 -1.2,0.72 -1.92,0.72 -0.84,0 -1.56,-0.24 -2.04,-0.84 -0.6,-0.48 -0.84,-1.32 -0.96,-2.28 l 5.88,0 z m -6,-2.52 c 0,-1.08 0.36,-1.92 0.96,-2.52 0.6,-0.72 1.32,-1.08 2.28,-1.08 0.6,0 1.2,0.24 1.68,0.48 0.48,0.36 0.72,0.72 0.96,1.2 l 3.96,0 c -0.48,-1.44 -1.32,-2.64 -2.4,-3.48 -1.08,-0.72 -2.52,-1.2 -4.08,-1.2 -4.8,0 -7.2,2.64 -7.2,7.92 0,2.28 0.6,4.08 1.8,5.4 1.2,1.32 3,2.04 5.16,2.04 4.56,0 6.84,-2.88 6.84,-8.76 l -9.96,0 z m 19.56,4.8 c -0.36,0 -0.72,0.12 -1.08,0.12 -2.28,0 -3.48,-1.2 -3.48,-3.6 l 0,-7.56 -3.84,0 0,14.52 3.6,0 0,-1.68 c 0.36,0.48 0.6,0.84 0.96,1.08 0.36,0.36 0.72,0.48 1.08,0.72 0.36,0.12 0.72,0.24 1.08,0.24 0.36,0 0.84,0 1.2,0 l 0.48,0 0,-3.84" /><path
       id="path68"
       style="fill:#bd7f00;fill-opacity:1;fill-rule:nonzero;stroke:none"
       d="m 239.4,401.88 c -0.48,0 -0.6,-0.24 -0.6,-0.84 0,-0.24 0,-0.48 0.12,-0.72 0.12,-0.12 0.24,-0.12 0.48,-0.12 0.24,0 0.36,0 0.48,0.12 0.12,0.12 0.12,0.36 0.12,0.6 0,0.6 -0.12,0.96 -0.6,0.96 z m 1.44,-2.4 c 0,-0.24 -0.12,-0.36 -0.12,-0.48 -0.12,-0.24 -0.24,-0.36 -0.36,-0.48 -0.12,-0.12 -0.24,-0.24 -0.48,-0.24 -0.12,-0.12 -0.36,-0.12 -0.48,-0.12 -0.24,0 -0.48,0 -0.6,0.12 -0.12,0 -0.36,0.12 -0.48,0.24 -0.12,0.12 -0.24,0.24 -0.24,0.36 -0.12,0.12 -0.12,0.36 -0.12,0.48 l 0.72,0 c 0,-0.12 0,-0.24 0.12,-0.36 0.12,-0.12 0.36,-0.12 0.48,-0.12 0.24,0 0.36,0 0.48,0.12 0.12,0.12 0.24,0.24 0.24,0.48 l 0,0.48 c 0,-0.12 -0.12,-0.24 -0.24,-0.36 -0.12,0 -0.36,-0.12 -0.48,-0.12 -0.24,0 -0.48,0.12 -0.6,0.24 -0.24,0 -0.36,0.12 -0.48,0.24 -0.12,0.12 -0.12,0.36 -0.24,0.48 0,0.24 0,0.36 0,0.6 0,0.24 0,0.48 0.12,0.6 0,0.24 0.12,0.36 0.24,0.48 0.12,0.12 0.24,0.24 0.36,0.36 0.24,0 0.36,0.12 0.48,0.12 0.36,0 0.72,-0.24 0.84,-0.48 l 0,0.36 0.84,0 0,-3 z m 1.08,0.12 -0.84,0 0,3.96 0.84,0 0,-3.96 z m 1.68,1.08 -1.56,0 0,0.72 1.56,0 0,-0.72 z m 3,1.56 c -0.12,0.24 -0.24,0.36 -0.36,0.48 -0.12,0.12 -0.36,0.24 -0.6,0.24 -0.12,0 -0.24,-0.12 -0.36,-0.12 -0.12,-0.12 -0.24,-0.24 -0.36,-0.36 -0.12,-0.12 -0.12,-0.24 -0.12,-0.36 -0.12,-0.24 -0.12,-0.36 -0.12,-0.6 0,-0.24 0,-0.36 0.12,-0.6 0,-0.12 0.12,-0.24 0.12,-0.36 0.12,-0.12 0.24,-0.24 0.36,-0.36 0.12,0 0.24,0 0.36,0 0.24,0 0.48,0 0.6,0.12 0.12,0.12 0.24,0.36 0.36,0.6 l 0.72,0 c 0,-0.24 -0.12,-0.48 -0.12,-0.6 -0.12,-0.24 -0.24,-0.36 -0.36,-0.48 -0.12,-0.12 -0.36,-0.24 -0.48,-0.36 -0.24,0 -0.48,0 -0.72,0 -0.24,0 -0.48,0 -0.72,0.12 -0.24,0.12 -0.36,0.12 -0.48,0.36 -0.24,0.12 -0.36,0.36 -0.48,0.6 -0.12,0.24 -0.12,0.6 -0.12,0.96 0,0.36 0.12,0.6 0.12,0.84 0.12,0.24 0.24,0.48 0.36,0.72 0.24,0.12 0.36,0.24 0.6,0.36 0.24,0.12 0.48,0.12 0.72,0.12 0.24,0 0.48,0 0.72,-0.12 0.24,0 0.36,-0.12 0.48,-0.24 0.12,-0.12 0.24,-0.24 0.36,-0.48 0.12,-0.12 0.12,-0.36 0.12,-0.48 l -0.72,0 z m 1.68,-2.64 -0.72,0 0,3.96 0.72,0 0,-3.96 z m 1.08,0 -0.72,0 0,2.88 0.72,0 0,-2.88 z m 0,3.24 -0.72,0 0,0.72 0.72,0 0,-0.72 z m 1.68,-0.96 c -0.48,0 -0.72,-0.36 -0.72,-0.96 0,-0.24 0.12,-0.48 0.24,-0.6 0.12,-0.12 0.24,-0.24 0.48,-0.24 0.12,0 0.36,0.12 0.48,0.24 0.12,0.24 0.12,0.36 0.12,0.72 0,0.6 -0.24,0.84 -0.6,0.84 z m -0.72,0.6 0,-0.36 c 0.12,0.12 0.24,0.24 0.36,0.36 0.12,0 0.36,0.12 0.48,0.12 0.24,0 0.48,-0.12 0.6,-0.24 0.12,0 0.24,-0.12 0.36,-0.24 0.12,-0.12 0.24,-0.36 0.24,-0.6 0.12,-0.12 0.12,-0.36 0.12,-0.48 0,-0.24 0,-0.48 -0.12,-0.6 0,-0.24 -0.12,-0.36 -0.24,-0.48 -0.12,-0.12 -0.24,-0.24 -0.36,-0.36 -0.12,-0.12 -0.36,-0.12 -0.48,-0.12 -0.24,0 -0.36,0 -0.48,0.12 -0.24,0.12 -0.36,0.12 -0.36,0.36 l 0,-1.8 -0.84,0 0,4.32 0.72,0 z m 3.12,-2.28 0.72,0 c 0.36,0 0.6,0.12 0.72,0.36 0.24,0.24 0.24,0.6 0.24,0.96 0,0.48 0,0.84 -0.24,0.96 -0.12,0.24 -0.36,0.36 -0.84,0.36 l -0.6,0 0,-2.64 z m 0.72,3.24 c 0.24,0 0.48,0 0.72,-0.12 0.24,-0.12 0.48,-0.24 0.6,-0.36 0.12,-0.12 0.36,-0.36 0.36,-0.6 0.12,-0.24 0.12,-0.48 0.12,-0.84 0,-0.24 0,-0.48 -0.12,-0.72 0,-0.24 -0.12,-0.48 -0.36,-0.72 -0.12,-0.12 -0.24,-0.24 -0.48,-0.36 -0.24,-0.12 -0.48,-0.12 -0.72,-0.12 l -1.56,0 0,3.84 1.44,0 z m 2.88,-3.84 -0.84,0 0,2.88 0.84,0 0,-2.88 z m 0,3.24 -0.84,0 0,0.72 0.84,0 0,-0.72 z m 1.92,-1.2 c 0,0.24 -0.12,0.36 -0.48,0.36 -0.12,0 -0.24,0 -0.36,-0.12 0,0 -0.12,-0.12 -0.12,-0.24 0,-0.12 0.24,-0.12 0.48,-0.24 0.48,-0.12 0.84,-0.12 0.96,-0.24 0.24,-0.12 0.36,-0.36 0.36,-0.72 0,-0.24 -0.12,-0.48 -0.24,-0.72 -0.24,-0.12 -0.6,-0.24 -0.96,-0.24 -0.24,0 -0.36,0 -0.6,0.12 -0.12,0 -0.24,0.12 -0.36,0.12 -0.12,0.12 -0.24,0.24 -0.36,0.36 0,0.12 -0.12,0.24 -0.12,0.36 l 0.84,0 c 0,-0.12 0,-0.24 0.12,-0.24 0.12,-0.12 0.24,-0.12 0.48,-0.12 0.12,0 0.24,0 0.36,0 0.12,0.12 0.12,0.24 0.12,0.24 0,0.12 0,0.12 -0.12,0.24 -0.12,0 -0.12,0 -0.36,0.12 -0.48,0.12 -0.72,0.12 -0.84,0.24 -0.36,0.12 -0.48,0.36 -0.48,0.6 0,0.12 0,0.36 0.12,0.48 0,0.12 0.12,0.12 0.24,0.24 0.12,0.12 0.24,0.24 0.36,0.24 0.12,0 0.36,0.12 0.48,0.12 0.24,0 0.36,-0.12 0.48,-0.12 0.24,0 0.36,-0.12 0.48,-0.24 0.12,0 0.12,-0.12 0.24,-0.24 0,-0.12 0.12,-0.24 0.12,-0.36 l -0.84,0 z m 3.48,0.24 -1.68,0 0,-1.2 c 0,-0.12 0.12,-0.24 0.12,-0.36 0.12,-0.12 0.24,-0.12 0.36,-0.12 0.12,0 0.24,0 0.36,0.12 0,0.12 0.12,0.24 0.12,0.36 l 0,0.84 0.72,0 0,-0.84 c 0,-0.12 -0.12,-0.36 -0.12,-0.48 0,-0.12 -0.12,-0.24 -0.24,-0.36 -0.12,-0.12 -0.12,-0.24 -0.36,-0.24 -0.12,-0.12 -0.24,-0.12 -0.48,-0.12 -0.24,0 -0.36,0 -0.6,0.12 -0.12,0 -0.24,0.12 -0.36,0.24 -0.12,0.12 -0.12,0.24 -0.12,0.36 -0.12,0.12 -0.12,0.24 -0.12,0.48 l 0,2.52 0.72,0 0,-0.72 1.68,0 0,-0.6 z m 2.04,-0.84 c -0.12,-0.12 -0.24,-0.12 -0.36,-0.24 -0.36,0 -0.48,-0.12 -0.6,-0.12 -0.12,-0.12 -0.12,-0.24 -0.12,-0.36 0,-0.24 0.12,-0.24 0.36,-0.24 0.12,0 0.12,0 0.24,0 0.12,0 0.24,0.12 0.24,0.12 0.12,0 0.12,0.12 0.12,0.24 0.12,0.12 0.12,0.12 0.12,0.24 l 0,0.12 c 0,0.12 0,0.12 0,0.24 z M 264,402.6 c 0.36,0 0.72,-0.12 0.96,-0.36 0.12,-0.24 0.24,-0.48 0.24,-0.84 l 0,-1.8 -0.72,0 c 0,0 0,0 0,0.12 0,0 0,0 0,0.12 -0.12,-0.12 -0.24,-0.24 -0.36,-0.24 -0.12,-0.12 -0.36,-0.12 -0.48,-0.12 -0.36,0 -0.6,0.12 -0.72,0.24 -0.24,0.12 -0.24,0.36 -0.24,0.6 0,0.24 0,0.36 0,0.48 0.12,0.12 0.24,0.24 0.36,0.24 0.12,0.12 0.24,0.12 0.36,0.24 0.12,0 0.36,0 0.6,0 0.12,0 0.24,0.12 0.36,0.12 0,0.12 0.12,0.12 0.12,0.24 0,0.12 -0.12,0.12 -0.24,0.24 -0.12,0 -0.12,0.12 -0.24,0.12 -0.12,0 -0.24,-0.12 -0.36,-0.12 -0.12,-0.12 -0.12,-0.24 -0.24,-0.36 l -0.72,0 c 0,0.36 0.12,0.6 0.36,0.72 0.24,0.24 0.48,0.36 0.96,0.36 z m 2.28,-0.6 c 0.12,0.24 0.24,0.36 0.36,0.36 0.12,0.12 0.36,0.24 0.6,0.24 0.12,0 0.24,-0.12 0.36,-0.12 0.12,0 0.24,-0.12 0.24,-0.24 0.12,0 0.24,-0.12 0.24,-0.24 0,-0.12 0.12,-0.24 0.12,-0.48 l 0,-1.92 -0.84,0 0,1.68 c 0,0.24 0,0.36 -0.12,0.48 0,0.12 -0.12,0.12 -0.36,0.12 -0.36,0 -0.6,-0.24 -0.6,-0.6 l 0,-1.68 -0.72,0 0,2.88 0.72,0 0,-0.48 z m 4.08,-0.6 c 0,0.12 -0.12,0.24 -0.24,0.36 -0.12,0.12 -0.24,0.12 -0.36,0.12 -0.12,0 -0.12,0 -0.24,0 l -0.12,-0.12 c -0.12,-0.12 -0.12,-0.24 -0.12,-0.24 -0.12,-0.12 -0.12,-0.24 -0.12,-0.48 0,-0.36 0.12,-0.48 0.24,-0.72 0.12,-0.12 0.24,-0.24 0.36,-0.24 0.12,0 0.24,0.12 0.36,0.12 0.12,0.12 0.12,0.24 0.24,0.36 l 0.72,0 c 0,-0.12 -0.12,-0.24 -0.12,-0.36 -0.12,-0.12 -0.24,-0.36 -0.36,-0.36 -0.12,-0.12 -0.24,-0.24 -0.36,-0.24 -0.12,-0.12 -0.36,-0.12 -0.48,-0.12 -0.24,0 -0.36,0 -0.6,0.12 -0.12,0 -0.24,0.12 -0.36,0.24 -0.12,0.12 -0.24,0.36 -0.24,0.48 -0.12,0.24 -0.12,0.48 -0.12,0.72 0,0.24 0,0.48 0.12,0.72 0,0.12 0.12,0.36 0.24,0.48 0.12,0.12 0.24,0.12 0.36,0.24 0.24,0 0.36,0.12 0.6,0.12 0.36,0 0.72,-0.12 0.96,-0.36 0.24,-0.24 0.36,-0.48 0.36,-0.84 l -0.72,0 z m 2.88,-0.12 c 0,0.24 -0.12,0.36 -0.24,0.48 -0.12,0.12 -0.24,0.12 -0.36,0.12 -0.24,0 -0.36,0 -0.48,-0.12 -0.12,-0.12 -0.12,-0.24 -0.12,-0.48 l 1.2,0 z m -1.32,-0.48 c 0,-0.24 0.12,-0.36 0.24,-0.48 0.12,-0.12 0.24,-0.24 0.48,-0.24 0.12,0 0.24,0 0.36,0.12 0.12,0 0.12,0.12 0.12,0.24 l 0.84,0 c -0.12,-0.36 -0.24,-0.6 -0.48,-0.72 -0.24,-0.12 -0.48,-0.24 -0.84,-0.24 -0.96,0 -1.44,0.48 -1.44,1.56 0,0.48 0.12,0.84 0.36,1.08 0.24,0.24 0.6,0.48 1.08,0.48 0.84,0 1.32,-0.6 1.32,-1.8 l -2.04,0 z m 3.6,2.16 -0.6,0 0,-3.96 0.6,0 0,-0.48 -1.32,0 0,5.04 1.32,0 0,-0.6 z m 1.44,-4.44 -1.32,0 0,0.48 0.72,0 0,3.96 -0.72,0 0,0.6 1.32,0 0,-5.04" /></g></svg>