<?xml version="1.0" encoding="UTF-8" standalone="no"?>
<!DOCTYPE svg PUBLIC "-//W3C//DTD SVG 1.1//EN"
 "http://www.w3.org/Graphics/SVG/1.1/DTD/svg11.dtd">
<!-- Generated by graphviz version 2.26.0 (20091210.2329)
 -->
<!-- Title: Pipeline3 Pages: 1 -->
<svg width="130pt" height="548pt"
 viewBox="0.00 0.00 130.01 548.00" xmlns="http://www.w3.org/2000/svg" xmlns:xlink="http://www.w3.org/1999/xlink">
<g id="graph1" class="graph" transform="scale(1 1) rotate(0) translate(4 544)">
<title>Pipeline3</title>
<polygon fill="white" stroke="white" points="-4,5 -4,-544 127.006,-544 127.006,5 -4,5"/>
<!-- VS -->
<g id="node1" class="node"><title>VS</title>
<polygon fill="#bcd5b0" stroke="#bcd5b0" points="82.0065,-540 52.0065,-540 40.0065,-528 40.0065,-516 52.0065,-504 82.0065,-504 94.0065,-516 94.0065,-528 82.0065,-540"/>
<path fill="#bcd5b0" stroke="#bcd5b0" d="M52.0065,-540C46.0065,-540 40.0065,-534 40.0065,-528"/>
<path fill="#bcd5b0" stroke="#bcd5b0" d="M40.0065,-516C40.0065,-510 46.0065,-504 52.0065,-504"/>
<path fill="#bcd5b0" stroke="#bcd5b0" d="M82.0065,-504C88.0065,-504 94.0065,-510 94.0065,-516"/>
<path fill="#bcd5b0" stroke="#bcd5b0" d="M94.0065,-528C94.0065,-534 88.0065,-540 82.0065,-540"/>
<polyline fill="none" stroke="black" points="82.0065,-540 52.0065,-540 "/>
<path fill="none" stroke="black" d="M52.0065,-540C46.0065,-540 40.0065,-534 40.0065,-528"/>
<polyline fill="none" stroke="black" points="40.0065,-528 40.0065,-516 "/>
<path fill="none" stroke="black" d="M40.0065,-516C40.0065,-510 46.0065,-504 52.0065,-504"/>
<polyline fill="none" stroke="black" points="52.0065,-504 82.0065,-504 "/>
<path fill="none" stroke="black" d="M82.0065,-504C88.0065,-504 94.0065,-510 94.0065,-516"/>
<polyline fill="none" stroke="black" points="94.0065,-516 94.0065,-528 "/>
<path fill="none" stroke="black" d="M94.0065,-528C94.0065,-534 88.0065,-540 82.0065,-540"/>
<text text-anchor="middle" x="67.0065" y="-518.9" font-family="Helvetica,sans-Serif" font-size="14.00" fill="#000000">VS</text>
</g>
<!-- TCS -->
<g id="node4" class="node"><title>TCS</title>
<polygon fill="#bcd5b0" stroke="#bcd5b0" points="110.006,-468 80.0065,-468 68.0065,-456 68.0065,-444 80.0065,-432 110.006,-432 122.006,-444 122.006,-456 110.006,-468"/>
<path fill="#bcd5b0" stroke="#bcd5b0" d="M80.0065,-468C74.0065,-468 68.0065,-462 68.0065,-456"/>
<path fill="#bcd5b0" stroke="#bcd5b0" d="M68.0065,-444C68.0065,-438 74.0065,-432 80.0065,-432"/>
<path fill="#bcd5b0" stroke="#bcd5b0" d="M110.006,-432C116.006,-432 122.006,-438 122.006,-444"/>
<path fill="#bcd5b0" stroke="#bcd5b0" d="M122.006,-456C122.006,-462 116.006,-468 110.006,-468"/>
<polyline fill="none" stroke="black" points="110.006,-468 80.0065,-468 "/>
<path fill="none" stroke="black" d="M80.0065,-468C74.0065,-468 68.0065,-462 68.0065,-456"/>
<polyline fill="none" stroke="black" points="68.0065,-456 68.0065,-444 "/>
<path fill="none" stroke="black" d="M68.0065,-444C68.0065,-438 74.0065,-432 80.0065,-432"/>
<polyline fill="none" stroke="black" points="80.0065,-432 110.006,-432 "/>
<path fill="none" stroke="black" d="M110.006,-432C116.006,-432 122.006,-438 122.006,-444"/>
<polyline fill="none" stroke="black" points="122.006,-444 122.006,-456 "/>
<path fill="none" stroke="black" d="M122.006,-456C122.006,-462 116.006,-468 110.006,-468"/>
<text text-anchor="middle" x="95.0065" y="-446.9" font-family="Helvetica,sans-Serif" font-size="14.00" fill="#000000">TCS</text>
</g>
<!-- VS&#45;&gt;TCS -->
<g id="edge2" class="edge"><title>VS&#45;&gt;TCS</title>
<path fill="none" stroke="#000000" d="M74.0721,-503.831C77.1325,-495.962 80.7844,-486.571 84.1747,-477.853"/>
<polygon fill="#000000" stroke="#000000" points="87.4833,-479.002 87.8458,-468.413 80.9592,-476.465 87.4833,-479.002"/>
</g>
<!-- FS -->
<g id="node2" class="node"><title>FS</title>
<polygon fill="#bcd5b0" stroke="#bcd5b0" points="96.0065,-108 66.0065,-108 54.0065,-96 54.0065,-84 66.0065,-72 96.0065,-72 108.006,-84 108.006,-96 96.0065,-108"/>
<path fill="#bcd5b0" stroke="#bcd5b0" d="M66.0065,-108C60.0065,-108 54.0065,-102 54.0065,-96"/>
<path fill="#bcd5b0" stroke="#bcd5b0" d="M54.0065,-84C54.0065,-78 60.0065,-72 66.0065,-72"/>
<path fill="#bcd5b0" stroke="#bcd5b0" d="M96.0065,-72C102.006,-72 108.006,-78 108.006,-84"/>
<path fill="#bcd5b0" stroke="#bcd5b0" d="M108.006,-96C108.006,-102 102.006,-108 96.0065,-108"/>
<polyline fill="none" stroke="black" points="96.0065,-108 66.0065,-108 "/>
<path fill="none" stroke="black" d="M66.0065,-108C60.0065,-108 54.0065,-102 54.0065,-96"/>
<polyline fill="none" stroke="black" points="54.0065,-96 54.0065,-84 "/>
<path fill="none" stroke="black" d="M54.0065,-84C54.0065,-78 60.0065,-72 66.0065,-72"/>
<polyline fill="none" stroke="black" points="66.0065,-72 96.0065,-72 "/>
<path fill="none" stroke="black" d="M96.0065,-72C102.006,-72 108.006,-78 108.006,-84"/>
<polyline fill="none" stroke="black" points="108.006,-84 108.006,-96 "/>
<path fill="none" stroke="black" d="M108.006,-96C108.006,-102 102.006,-108 96.0065,-108"/>
<text text-anchor="middle" x="81.0065" y="-86.9" font-family="Helvetica,sans-Serif" font-size="14.00" fill="#000000">FS</text>
</g>
<!-- Blend -->
<g id="node7" class="node"><title>Blend</title>
<polygon fill="#dc8888" stroke="black" points="108.006,-36 54.0065,-36 54.0065,-1.77636e-14 108.006,-3.55271e-15 108.006,-36"/>
<text text-anchor="middle" x="81.0065" y="-14.9" font-family="Helvetica,sans-Serif" font-size="14.00" fill="#000000">Blend</text>
</g>
<!-- FS&#45;&gt;Blend -->
<g id="edge14" class="edge"><title>FS&#45;&gt;Blend</title>
<path fill="none" stroke="#000000" d="M81.0065,-71.8314C81.0065,-64.131 81.0065,-54.9743 81.0065,-46.4166"/>
<polygon fill="#000000" stroke="#000000" points="84.5066,-46.4132 81.0065,-36.4133 77.5066,-46.4133 84.5066,-46.4132"/>
</g>
<!-- GS -->
<g id="node3" class="node"><title>GS</title>
<polygon fill="#bcd5b0" stroke="#bcd5b0" points="96.0065,-252 66.0065,-252 54.0065,-240 54.0065,-228 66.0065,-216 96.0065,-216 108.006,-228 108.006,-240 96.0065,-252"/>
<path fill="#bcd5b0" stroke="#bcd5b0" d="M66.0065,-252C60.0065,-252 54.0065,-246 54.0065,-240"/>
<path fill="#bcd5b0" stroke="#bcd5b0" d="M54.0065,-228C54.0065,-222 60.0065,-216 66.0065,-216"/>
<path fill="#bcd5b0" stroke="#bcd5b0" d="M96.0065,-216C102.006,-216 108.006,-222 108.006,-228"/>
<path fill="#bcd5b0" stroke="#bcd5b0" d="M108.006,-240C108.006,-246 102.006,-252 96.0065,-252"/>
<polyline fill="none" stroke="black" points="96.0065,-252 66.0065,-252 "/>
<path fill="none" stroke="black" d="M66.0065,-252C60.0065,-252 54.0065,-246 54.0065,-240"/>
<polyline fill="none" stroke="black" points="54.0065,-240 54.0065,-228 "/>
<path fill="none" stroke="black" d="M54.0065,-228C54.0065,-222 60.0065,-216 66.0065,-216"/>
<polyline fill="none" stroke="black" points="66.0065,-216 96.0065,-216 "/>
<path fill="none" stroke="black" d="M96.0065,-216C102.006,-216 108.006,-222 108.006,-228"/>
<polyline fill="none" stroke="black" points="108.006,-228 108.006,-240 "/>
<path fill="none" stroke="black" d="M108.006,-240C108.006,-246 102.006,-252 96.0065,-252"/>
<text text-anchor="middle" x="81.0065" y="-230.9" font-family="Helvetica,sans-Serif" font-size="14.00" fill="#000000">GS</text>
</g>
<!-- GS&#45;&gt;VS -->
<g id="edge16" class="edge"><title>GS:w&#45;&gt;VS</title>
<path fill="none" stroke="#505050" stroke-width="2.5" d="M54.0065,-234C-49.8262,-234 23.1748,-423.842 54.0511,-494.726"/>
<polygon fill="#505050" stroke="#505050" points="50.8638,-496.173 58.1055,-503.906 57.2672,-493.345 50.8638,-496.173"/>
</g>
<!-- Rast -->
<g id="node6" class="node"><title>Rast</title>
<polygon fill="#dc8888" stroke="black" points="108.006,-180 54.0065,-180 54.0065,-144 108.006,-144 108.006,-180"/>
<text text-anchor="middle" x="81.0065" y="-158.9" font-family="Helvetica,sans-Serif" font-size="14.00" fill="#000000">Rast</text>
</g>
<!-- GS&#45;&gt;Rast -->
<g id="edge10" class="edge"><title>GS&#45;&gt;Rast</title>
<path fill="none" stroke="#000000" d="M81.0065,-215.831C81.0065,-208.131 81.0065,-198.974 81.0065,-190.417"/>
<polygon fill="#000000" stroke="#000000" points="84.5066,-190.413 81.0065,-180.413 77.5066,-190.413 84.5066,-190.413"/>
</g>
<!-- Tess -->
<g id="node8" class="node"><title>Tess</title>
<polygon fill="#dc8888" stroke="black" points="122.006,-396 68.0065,-396 68.0065,-360 122.006,-360 122.006,-396"/>
<text text-anchor="middle" x="95.0065" y="-374.9" font-family="Helvetica,sans-Serif" font-size="14.00" fill="#000000">Tess</text>
</g>
<!-- TCS&#45;&gt;Tess -->
<g id="edge4" class="edge"><title>TCS&#45;&gt;Tess</title>
<path fill="none" stroke="#000000" d="M95.0065,-431.831C95.0065,-424.131 95.0065,-414.974 95.0065,-406.417"/>
<polygon fill="#000000" stroke="#000000" points="98.5066,-406.413 95.0065,-396.413 91.5066,-406.413 98.5066,-406.413"/>
</g>
<!-- TES -->
<g id="node5" class="node"><title>TES</title>
<polygon fill="#bcd5b0" stroke="#bcd5b0" points="110.006,-324 80.0065,-324 68.0065,-312 68.0065,-300 80.0065,-288 110.006,-288 122.006,-300 122.006,-312 110.006,-324"/>
<path fill="#bcd5b0" stroke="#bcd5b0" d="M80.0065,-324C74.0065,-324 68.0065,-318 68.0065,-312"/>
<path fill="#bcd5b0" stroke="#bcd5b0" d="M68.0065,-300C68.0065,-294 74.0065,-288 80.0065,-288"/>
<path fill="#bcd5b0" stroke="#bcd5b0" d="M110.006,-288C116.006,-288 122.006,-294 122.006,-300"/>
<path fill="#bcd5b0" stroke="#bcd5b0" d="M122.006,-312C122.006,-318 116.006,-324 110.006,-324"/>
<polyline fill="none" stroke="black" points="110.006,-324 80.0065,-324 "/>
<path fill="none" stroke="black" d="M80.0065,-324C74.0065,-324 68.0065,-318 68.0065,-312"/>
<polyline fill="none" stroke="black" points="68.0065,-312 68.0065,-300 "/>
<path fill="none" stroke="black" d="M68.0065,-300C68.0065,-294 74.0065,-288 80.0065,-288"/>
<polyline fill="none" stroke="black" points="80.0065,-288 110.006,-288 "/>
<path fill="none" stroke="black" d="M110.006,-288C116.006,-288 122.006,-294 122.006,-300"/>
<polyline fill="none" stroke="black" points="122.006,-300 122.006,-312 "/>
<path fill="none" stroke="black" d="M122.006,-312C122.006,-318 116.006,-324 110.006,-324"/>
<text text-anchor="middle" x="95.0065" y="-302.9" font-family="Helvetica,sans-Serif" font-size="14.00" fill="#000000">TES</text>
</g>
<!-- TES&#45;&gt;GS -->
<g id="edge8" class="edge"><title>TES&#45;&gt;GS</title>
<path fill="none" stroke="#000000" d="M91.4737,-287.831C89.9764,-280.131 88.196,-270.974 86.532,-262.417"/>
<polygon fill="#000000" stroke="#000000" points="89.9313,-261.561 84.5869,-252.413 83.06,-262.897 89.9313,-261.561"/>
</g>
<!-- Rast&#45;&gt;FS -->
<g id="edge12" class="edge"><title>Rast&#45;&gt;FS</title>
<path fill="none" stroke="#000000" d="M81.0065,-143.831C81.0065,-136.131 81.0065,-126.974 81.0065,-118.417"/>
<polygon fill="#000000" stroke="#000000" points="84.5066,-118.413 81.0065,-108.413 77.5066,-118.413 84.5066,-118.413"/>
</g>
<!-- Tess&#45;&gt;TES -->
<g id="edge6" class="edge"><title>Tess&#45;&gt;TES</title>
<path fill="none" stroke="#000000" d="M95.0065,-359.831C95.0065,-352.131 95.0065,-342.974 95.0065,-334.417"/>
<polygon fill="#000000" stroke="#000000" points="98.5066,-334.413 95.0065,-324.413 91.5066,-334.413 98.5066,-334.413"/>
</g>
</g>
</svg>
