<?xml version="1.0" encoding="UTF-8" standalone="no"?>
<!DOCTYPE svg PUBLIC "-//W3C//DTD SVG 1.1//EN"
 "http://www.w3.org/Graphics/SVG/1.1/DTD/svg11.dtd">
<!-- Generated by graphviz version 2.26.0 (20091210.2329)
 -->
<!-- Title: Pipeline6 Pages: 1 -->
<svg width="134pt" height="548pt"
 viewBox="0.00 0.00 134.00 548.00" xmlns="http://www.w3.org/2000/svg" xmlns:xlink="http://www.w3.org/1999/xlink">
<g id="graph1" class="graph" transform="scale(1 1) rotate(0) translate(4 544)">
<title>Pipeline6</title>
<polygon fill="white" stroke="white" points="-4,5 -4,-544 131,-544 131,5 -4,5"/>
<!-- VS -->
<g id="node1" class="node"><title>VS</title>
<polygon fill="#bcd5b0" stroke="#bcd5b0" points="91,-540 61,-540 49,-528 49,-516 61,-504 91,-504 103,-516 103,-528 91,-540"/>
<path fill="#bcd5b0" stroke="#bcd5b0" d="M61,-540C55,-540 49,-534 49,-528"/>
<path fill="#bcd5b0" stroke="#bcd5b0" d="M49,-516C49,-510 55,-504 61,-504"/>
<path fill="#bcd5b0" stroke="#bcd5b0" d="M91,-504C97,-504 103,-510 103,-516"/>
<path fill="#bcd5b0" stroke="#bcd5b0" d="M103,-528C103,-534 97,-540 91,-540"/>
<polyline fill="none" stroke="black" points="91,-540 61,-540 "/>
<path fill="none" stroke="black" d="M61,-540C55,-540 49,-534 49,-528"/>
<polyline fill="none" stroke="black" points="49,-528 49,-516 "/>
<path fill="none" stroke="black" d="M49,-516C49,-510 55,-504 61,-504"/>
<polyline fill="none" stroke="black" points="61,-504 91,-504 "/>
<path fill="none" stroke="black" d="M91,-504C97,-504 103,-510 103,-516"/>
<polyline fill="none" stroke="black" points="103,-516 103,-528 "/>
<path fill="none" stroke="black" d="M103,-528C103,-534 97,-540 91,-540"/>
<text text-anchor="middle" x="76" y="-518.9" font-family="Helvetica,sans-Serif" font-size="14.00" fill="#000000">VS</text>
</g>
<!-- TCS -->
<g id="node4" class="node"><title>TCS</title>
<polygon fill="#bcd5b0" stroke="#bcd5b0" points="91,-468 61,-468 49,-456 49,-444 61,-432 91,-432 103,-444 103,-456 91,-468"/>
<path fill="#bcd5b0" stroke="#bcd5b0" d="M61,-468C55,-468 49,-462 49,-456"/>
<path fill="#bcd5b0" stroke="#bcd5b0" d="M49,-444C49,-438 55,-432 61,-432"/>
<path fill="#bcd5b0" stroke="#bcd5b0" d="M91,-432C97,-432 103,-438 103,-444"/>
<path fill="#bcd5b0" stroke="#bcd5b0" d="M103,-456C103,-462 97,-468 91,-468"/>
<polyline fill="none" stroke="black" points="91,-468 61,-468 "/>
<path fill="none" stroke="black" d="M61,-468C55,-468 49,-462 49,-456"/>
<polyline fill="none" stroke="black" points="49,-456 49,-444 "/>
<path fill="none" stroke="black" d="M49,-444C49,-438 55,-432 61,-432"/>
<polyline fill="none" stroke="black" points="61,-432 91,-432 "/>
<path fill="none" stroke="black" d="M91,-432C97,-432 103,-438 103,-444"/>
<polyline fill="none" stroke="black" points="103,-444 103,-456 "/>
<path fill="none" stroke="black" d="M103,-456C103,-462 97,-468 91,-468"/>
<text text-anchor="middle" x="76" y="-446.9" font-family="Helvetica,sans-Serif" font-size="14.00" fill="#000000">TCS</text>
</g>
<!-- VS&#45;&gt;TCS -->
<g id="edge2" class="edge"><title>VS&#45;&gt;TCS</title>
<path fill="none" stroke="#000000" d="M76,-503.831C76,-496.131 76,-486.974 76,-478.417"/>
<polygon fill="#000000" stroke="#000000" points="79.5001,-478.413 76,-468.413 72.5001,-478.413 79.5001,-478.413"/>
</g>
<!-- FS -->
<g id="node2" class="node"><title>FS</title>
<polygon fill="#bcd5b0" stroke="#bcd5b0" points="114,-108 84,-108 72,-96 72,-84 84,-72 114,-72 126,-84 126,-96 114,-108"/>
<path fill="#bcd5b0" stroke="#bcd5b0" d="M84,-108C78,-108 72,-102 72,-96"/>
<path fill="#bcd5b0" stroke="#bcd5b0" d="M72,-84C72,-78 78,-72 84,-72"/>
<path fill="#bcd5b0" stroke="#bcd5b0" d="M114,-72C120,-72 126,-78 126,-84"/>
<path fill="#bcd5b0" stroke="#bcd5b0" d="M126,-96C126,-102 120,-108 114,-108"/>
<polyline fill="none" stroke="black" points="114,-108 84,-108 "/>
<path fill="none" stroke="black" d="M84,-108C78,-108 72,-102 72,-96"/>
<polyline fill="none" stroke="black" points="72,-96 72,-84 "/>
<path fill="none" stroke="black" d="M72,-84C72,-78 78,-72 84,-72"/>
<polyline fill="none" stroke="black" points="84,-72 114,-72 "/>
<path fill="none" stroke="black" d="M114,-72C120,-72 126,-78 126,-84"/>
<polyline fill="none" stroke="black" points="126,-84 126,-96 "/>
<path fill="none" stroke="black" d="M126,-96C126,-102 120,-108 114,-108"/>
<text text-anchor="middle" x="99" y="-86.9" font-family="Helvetica,sans-Serif" font-size="14.00" fill="#000000">FS</text>
</g>
<!-- Blend -->
<g id="node7" class="node"><title>Blend</title>
<polygon fill="#dc8888" stroke="black" points="126,-36 72,-36 72,-1.77636e-14 126,-3.55271e-15 126,-36"/>
<text text-anchor="middle" x="99" y="-14.9" font-family="Helvetica,sans-Serif" font-size="14.00" fill="#000000">Blend</text>
</g>
<!-- FS&#45;&gt;Blend -->
<g id="edge14" class="edge"><title>FS&#45;&gt;Blend</title>
<path fill="none" stroke="#000000" d="M99,-71.8314C99,-64.131 99,-54.9743 99,-46.4166"/>
<polygon fill="#000000" stroke="#000000" points="102.5,-46.4132 99,-36.4133 95.5001,-46.4133 102.5,-46.4132"/>
</g>
<!-- GS -->
<g id="node3" class="node"><title>GS</title>
<polygon fill="#bcd5b0" stroke="#bcd5b0" points="91,-252 61,-252 49,-240 49,-228 61,-216 91,-216 103,-228 103,-240 91,-252"/>
<path fill="#bcd5b0" stroke="#bcd5b0" d="M61,-252C55,-252 49,-246 49,-240"/>
<path fill="#bcd5b0" stroke="#bcd5b0" d="M49,-228C49,-222 55,-216 61,-216"/>
<path fill="#bcd5b0" stroke="#bcd5b0" d="M91,-216C97,-216 103,-222 103,-228"/>
<path fill="#bcd5b0" stroke="#bcd5b0" d="M103,-240C103,-246 97,-252 91,-252"/>
<polyline fill="none" stroke="black" points="91,-252 61,-252 "/>
<path fill="none" stroke="black" d="M61,-252C55,-252 49,-246 49,-240"/>
<polyline fill="none" stroke="black" points="49,-240 49,-228 "/>
<path fill="none" stroke="black" d="M49,-228C49,-222 55,-216 61,-216"/>
<polyline fill="none" stroke="black" points="61,-216 91,-216 "/>
<path fill="none" stroke="black" d="M91,-216C97,-216 103,-222 103,-228"/>
<polyline fill="none" stroke="black" points="103,-228 103,-240 "/>
<path fill="none" stroke="black" d="M103,-240C103,-246 97,-252 91,-252"/>
<text text-anchor="middle" x="76" y="-230.9" font-family="Helvetica,sans-Serif" font-size="14.00" fill="#000000">GS</text>
</g>
<!-- Rast -->
<g id="node6" class="node"><title>Rast</title>
<polygon fill="#dc8888" stroke="black" points="126,-180 72,-180 72,-144 126,-144 126,-180"/>
<text text-anchor="middle" x="99" y="-158.9" font-family="Helvetica,sans-Serif" font-size="14.00" fill="#000000">Rast</text>
</g>
<!-- GS&#45;&gt;Rast -->
<g id="edge10" class="edge"><title>GS&#45;&gt;Rast</title>
<path fill="none" stroke="#000000" d="M81.8039,-215.831C84.2908,-208.046 87.2531,-198.773 90.0125,-190.135"/>
<polygon fill="#000000" stroke="#000000" points="93.409,-191.004 93.118,-180.413 86.7409,-188.874 93.409,-191.004"/>
</g>
<!-- CPU -->
<g id="node9" class="node"><title>CPU</title>
<polygon fill="#8888dc" stroke="black" points="54,-180 2.13163e-14,-180 0,-144 54,-144 54,-180"/>
<text text-anchor="middle" x="27" y="-158.9" font-family="Helvetica,sans-Serif" font-size="14.00" fill="#000000">CPU</text>
</g>
<!-- GS&#45;&gt;CPU -->
<g id="edge16" class="edge"><title>GS:w&#45;&gt;CPU</title>
<path fill="none" stroke="#505050" stroke-width="2.5" d="M48,-234C28.9285,-234 24.806,-210.431 24.7695,-190.263"/>
<polygon fill="#505050" stroke="#505050" points="28.2708,-190.267 25.0654,-180.169 21.2738,-190.062 28.2708,-190.267"/>
</g>
<!-- Tess -->
<g id="node8" class="node"><title>Tess</title>
<polygon fill="#dc8888" stroke="black" points="103,-396 49,-396 49,-360 103,-360 103,-396"/>
<text text-anchor="middle" x="76" y="-374.9" font-family="Helvetica,sans-Serif" font-size="14.00" fill="#000000">Tess</text>
</g>
<!-- TCS&#45;&gt;Tess -->
<g id="edge4" class="edge"><title>TCS&#45;&gt;Tess</title>
<path fill="none" stroke="#000000" d="M76,-431.831C76,-424.131 76,-414.974 76,-406.417"/>
<polygon fill="#000000" stroke="#000000" points="79.5001,-406.413 76,-396.413 72.5001,-406.413 79.5001,-406.413"/>
</g>
<!-- TES -->
<g id="node5" class="node"><title>TES</title>
<polygon fill="#bcd5b0" stroke="#bcd5b0" points="91,-324 61,-324 49,-312 49,-300 61,-288 91,-288 103,-300 103,-312 91,-324"/>
<path fill="#bcd5b0" stroke="#bcd5b0" d="M61,-324C55,-324 49,-318 49,-312"/>
<path fill="#bcd5b0" stroke="#bcd5b0" d="M49,-300C49,-294 55,-288 61,-288"/>
<path fill="#bcd5b0" stroke="#bcd5b0" d="M91,-288C97,-288 103,-294 103,-300"/>
<path fill="#bcd5b0" stroke="#bcd5b0" d="M103,-312C103,-318 97,-324 91,-324"/>
<polyline fill="none" stroke="black" points="91,-324 61,-324 "/>
<path fill="none" stroke="black" d="M61,-324C55,-324 49,-318 49,-312"/>
<polyline fill="none" stroke="black" points="49,-312 49,-300 "/>
<path fill="none" stroke="black" d="M49,-300C49,-294 55,-288 61,-288"/>
<polyline fill="none" stroke="black" points="61,-288 91,-288 "/>
<path fill="none" stroke="black" d="M91,-288C97,-288 103,-294 103,-300"/>
<polyline fill="none" stroke="black" points="103,-300 103,-312 "/>
<path fill="none" stroke="black" d="M103,-312C103,-318 97,-324 91,-324"/>
<text text-anchor="middle" x="76" y="-302.9" font-family="Helvetica,sans-Serif" font-size="14.00" fill="#000000">TES</text>
</g>
<!-- TES&#45;&gt;GS -->
<g id="edge8" class="edge"><title>TES&#45;&gt;GS</title>
<path fill="none" stroke="#000000" d="M76,-287.831C76,-280.131 76,-270.974 76,-262.417"/>
<polygon fill="#000000" stroke="#000000" points="79.5001,-262.413 76,-252.413 72.5001,-262.413 79.5001,-262.413"/>
</g>
<!-- Rast&#45;&gt;FS -->
<g id="edge12" class="edge"><title>Rast&#45;&gt;FS</title>
<path fill="none" stroke="#000000" d="M99,-143.831C99,-136.131 99,-126.974 99,-118.417"/>
<polygon fill="#000000" stroke="#000000" points="102.5,-118.413 99,-108.413 95.5001,-118.413 102.5,-118.413"/>
</g>
<!-- Tess&#45;&gt;TES -->
<g id="edge6" class="edge"><title>Tess&#45;&gt;TES</title>
<path fill="none" stroke="#000000" d="M76,-359.831C76,-352.131 76,-342.974 76,-334.417"/>
<polygon fill="#000000" stroke="#000000" points="79.5001,-334.413 76,-324.413 72.5001,-334.413 79.5001,-334.413"/>
</g>
</g>
</svg>
