<?xml version="1.0" encoding="UTF-8" standalone="no"?>
<!DOCTYPE svg PUBLIC "-//W3C//DTD SVG 1.1//EN"
 "http://www.w3.org/Graphics/SVG/1.1/DTD/svg11.dtd">
<!-- Generated by graphviz version 2.26.0 (20091210.2329)
 -->
<!-- Title: Pipeline4 Pages: 1 -->
<svg width="75pt" height="332pt"
 viewBox="0.00 0.00 75.00 332.00" xmlns="http://www.w3.org/2000/svg" xmlns:xlink="http://www.w3.org/1999/xlink">
<g id="graph1" class="graph" transform="scale(1 1) rotate(0) translate(4 328)">
<title>Pipeline4</title>
<polygon fill="white" stroke="white" points="-4,5 -4,-328 72,-328 72,5 -4,5"/>
<!-- VS -->
<g id="node1" class="node"><title>VS</title>
<polygon fill="#bcd5b0" stroke="#bcd5b0" points="42,-324 12,-324 1.42109e-14,-312 7.10543e-15,-300 12,-288 42,-288 54,-300 54,-312 42,-324"/>
<path fill="#bcd5b0" stroke="#bcd5b0" d="M12,-324C6,-324 1.77636e-14,-318 1.42109e-14,-312"/>
<path fill="#bcd5b0" stroke="#bcd5b0" d="M7.10543e-15,-300C3.55271e-15,-294 6,-288 12,-288"/>
<path fill="#bcd5b0" stroke="#bcd5b0" d="M42,-288C48,-288 54,-294 54,-300"/>
<path fill="#bcd5b0" stroke="#bcd5b0" d="M54,-312C54,-318 48,-324 42,-324"/>
<polyline fill="none" stroke="black" points="42,-324 12,-324 "/>
<path fill="none" stroke="black" d="M12,-324C6,-324 1.77636e-14,-318 1.42109e-14,-312"/>
<polyline fill="none" stroke="black" points="1.42109e-14,-312 7.10543e-15,-300 "/>
<path fill="none" stroke="black" d="M7.10543e-15,-300C3.55271e-15,-294 6,-288 12,-288"/>
<polyline fill="none" stroke="black" points="12,-288 42,-288 "/>
<path fill="none" stroke="black" d="M42,-288C48,-288 54,-294 54,-300"/>
<polyline fill="none" stroke="black" points="54,-300 54,-312 "/>
<path fill="none" stroke="black" d="M54,-312C54,-318 48,-324 42,-324"/>
<text text-anchor="middle" x="27" y="-302.9" font-family="Helvetica,sans-Serif" font-size="14.00" fill="#000000">VS</text>
</g>
<!-- GS -->
<g id="node3" class="node"><title>GS</title>
<polygon fill="#bcd5b0" stroke="#bcd5b0" points="55,-252 25,-252 13,-240 13,-228 25,-216 55,-216 67,-228 67,-240 55,-252"/>
<path fill="#bcd5b0" stroke="#bcd5b0" d="M25,-252C19,-252 13,-246 13,-240"/>
<path fill="#bcd5b0" stroke="#bcd5b0" d="M13,-228C13,-222 19,-216 25,-216"/>
<path fill="#bcd5b0" stroke="#bcd5b0" d="M55,-216C61,-216 67,-222 67,-228"/>
<path fill="#bcd5b0" stroke="#bcd5b0" d="M67,-240C67,-246 61,-252 55,-252"/>
<polyline fill="none" stroke="black" points="55,-252 25,-252 "/>
<path fill="none" stroke="black" d="M25,-252C19,-252 13,-246 13,-240"/>
<polyline fill="none" stroke="black" points="13,-240 13,-228 "/>
<path fill="none" stroke="black" d="M13,-228C13,-222 19,-216 25,-216"/>
<polyline fill="none" stroke="black" points="25,-216 55,-216 "/>
<path fill="none" stroke="black" d="M55,-216C61,-216 67,-222 67,-228"/>
<polyline fill="none" stroke="black" points="67,-228 67,-240 "/>
<path fill="none" stroke="black" d="M67,-240C67,-246 61,-252 55,-252"/>
<text text-anchor="middle" x="40" y="-230.9" font-family="Helvetica,sans-Serif" font-size="14.00" fill="#000000">GS</text>
</g>
<!-- VS&#45;&gt;GS -->
<g id="edge2" class="edge"><title>VS&#45;&gt;GS</title>
<path fill="none" stroke="#000000" d="M30.2804,-287.831C31.6708,-280.131 33.3241,-270.974 34.8692,-262.417"/>
<polygon fill="#000000" stroke="#000000" points="38.3428,-262.876 36.6754,-252.413 31.4542,-261.632 38.3428,-262.876"/>
</g>
<!-- FS -->
<g id="node2" class="node"><title>FS</title>
<polygon fill="#bcd5b0" stroke="#bcd5b0" points="55,-108 25,-108 13,-96 13,-84 25,-72 55,-72 67,-84 67,-96 55,-108"/>
<path fill="#bcd5b0" stroke="#bcd5b0" d="M25,-108C19,-108 13,-102 13,-96"/>
<path fill="#bcd5b0" stroke="#bcd5b0" d="M13,-84C13,-78 19,-72 25,-72"/>
<path fill="#bcd5b0" stroke="#bcd5b0" d="M55,-72C61,-72 67,-78 67,-84"/>
<path fill="#bcd5b0" stroke="#bcd5b0" d="M67,-96C67,-102 61,-108 55,-108"/>
<polyline fill="none" stroke="black" points="55,-108 25,-108 "/>
<path fill="none" stroke="black" d="M25,-108C19,-108 13,-102 13,-96"/>
<polyline fill="none" stroke="black" points="13,-96 13,-84 "/>
<path fill="none" stroke="black" d="M13,-84C13,-78 19,-72 25,-72"/>
<polyline fill="none" stroke="black" points="25,-72 55,-72 "/>
<path fill="none" stroke="black" d="M55,-72C61,-72 67,-78 67,-84"/>
<polyline fill="none" stroke="black" points="67,-84 67,-96 "/>
<path fill="none" stroke="black" d="M67,-96C67,-102 61,-108 55,-108"/>
<text text-anchor="middle" x="40" y="-86.9" font-family="Helvetica,sans-Serif" font-size="14.00" fill="#000000">FS</text>
</g>
<!-- Blend -->
<g id="node5" class="node"><title>Blend</title>
<polygon fill="#dc8888" stroke="black" points="67,-36 13,-36 13,-1.77636e-14 67,-3.55271e-15 67,-36"/>
<text text-anchor="middle" x="40" y="-14.9" font-family="Helvetica,sans-Serif" font-size="14.00" fill="#000000">Blend</text>
</g>
<!-- FS&#45;&gt;Blend -->
<g id="edge8" class="edge"><title>FS&#45;&gt;Blend</title>
<path fill="none" stroke="#000000" d="M40,-71.8314C40,-64.131 40,-54.9743 40,-46.4166"/>
<polygon fill="#000000" stroke="#000000" points="43.5001,-46.4132 40,-36.4133 36.5001,-46.4133 43.5001,-46.4132"/>
</g>
<!-- GS&#45;&gt;VS -->
<g id="edge10" class="edge"><title>GS:w&#45;&gt;VS</title>
<path fill="none" stroke="#505050" stroke-width="2.5" d="M13,-234C-5.82339,-234 1.91865,-258.445 11.5317,-278.647"/>
<polygon fill="#505050" stroke="#505050" points="8.52147,-280.452 16.1416,-287.813 14.775,-277.307 8.52147,-280.452"/>
</g>
<!-- Rast -->
<g id="node4" class="node"><title>Rast</title>
<polygon fill="#dc8888" stroke="black" points="67,-180 13,-180 13,-144 67,-144 67,-180"/>
<text text-anchor="middle" x="40" y="-158.9" font-family="Helvetica,sans-Serif" font-size="14.00" fill="#000000">Rast</text>
</g>
<!-- GS&#45;&gt;Rast -->
<g id="edge4" class="edge"><title>GS&#45;&gt;Rast</title>
<path fill="none" stroke="#000000" d="M40,-215.831C40,-208.131 40,-198.974 40,-190.417"/>
<polygon fill="#000000" stroke="#000000" points="43.5001,-190.413 40,-180.413 36.5001,-190.413 43.5001,-190.413"/>
</g>
<!-- Rast&#45;&gt;FS -->
<g id="edge6" class="edge"><title>Rast&#45;&gt;FS</title>
<path fill="none" stroke="#000000" d="M40,-143.831C40,-136.131 40,-126.974 40,-118.417"/>
<polygon fill="#000000" stroke="#000000" points="43.5001,-118.413 40,-108.413 36.5001,-118.413 43.5001,-118.413"/>
</g>
</g>
</svg>
