<?xml version="1.0" encoding="UTF-8" standalone="no"?>
<!-- Created with Inkscape (http://www.inkscape.org/) -->

<svg
   xmlns:svg="http://www.w3.org/2000/svg"
   xmlns="http://www.w3.org/2000/svg"
   xmlns:xlink="http://www.w3.org/1999/xlink"
   version="1.1"
   width="100%"
   height="100%"
   viewBox="0 0 526.47097 132.35483"
   id="svg2"
   xml:space="preserve"><defs
   id="defs6"><clipPath
     id="clipPath26"><path
       d="m 451.5029,336.2221 c -0.3869,0.0783 -0.8121,0.1602 -1.2809,0.2447 -5.455,0.9836 -4.8649,1.9496 -6.8321,2.4862 -1.9675,0.5364 -2.1283,-0.4294 -4.2747,0.6438 -2.1461,1.0732 -4.602,1.3459 -6.9216,1.5023 -6.2399,0.4218 -19.6237,-1.6962 -29.8519,-6.9684 0.5502,-0.3398 1.1174,-0.6627 1.73,-0.9799 1.2033,-0.6233 2.4446,-1.1852 3.6892,-1.7195 1.91,-0.8198 3.8492,-1.58 5.7929,-2.3156 3.8866,-1.4712 8.4938,-3.841 10.8185,-7.4543 0.7279,-1.1316 1.4904,-2.9494 1.3047,-4.3429 l -0.1587,-1.1926 -1.1928,0.1565 c -2.5438,0.3339 -5.1069,0.6177 -7.6411,1.0128 -1.9834,0.3093 -3.9458,0.7033 -5.8425,1.3737 -2.1858,0.7724 -4.1289,1.8655 -6.0179,3.2009 -2.5787,1.8229 -5.0046,4.007 -7.3109,6.1594 -0.3296,0.3075 -0.7117,0.5989 -1.0698,0.8728 -0.3183,0.2434 -0.6397,0.4838 -0.9635,0.7208 -0.6859,-0.5868 -1.3311,-1.1974 -1.9275,-1.8329 1.5656,-1.8329 3.1317,-3.666 4.6902,-5.5051 3.0985,-3.6567 6.1988,-7.3389 9.1576,-11.1102 0.4382,-0.5587 0.8765,-1.1205 1.3082,-1.6877 3.7811,-0.1114 8.041,0.1627 12.7185,1.0465 0,0 0.3577,0.1786 1.1625,-0.1788 0.451,-0.2004 4.5691,1.3473 5.9023,1.4306 0.3208,0.0202 0.6474,0.1355 0.9722,0.3073 -0.7755,1.7314 -1.2412,3.634 -0.6961,5.3892 0.6145,1.9795 2.3028,3.1737 4.1439,3.9212 2.7675,1.1234 6.3065,1.4681 9.2662,1.6092 l 0.0564,0.003 0.0567,-0.003 c 0.7512,-0.0348 1.4442,-0.3067 1.9414,-0.8858 0.4465,-0.5196 0.6424,-1.1786 0.6826,-1.8805 0.205,0.3166 0.3648,0.5808 0.478,0.7503 0.1451,0.2177 0.3988,0.375 0.7038,0.4686 0.4252,5.5633 1.8105,11.4055 5.4062,14.7574 z m -17.5668,-21.3463 c 0.7534,0.2529 1.7033,0.546 2.6886,0.8303 -0.968,0.1517 -1.9372,0.3183 -2.9007,0.4255 -0.1043,0.0116 -0.3756,0.0303 -0.5227,-0.003 -0.002,-0.0374 0,-0.0825 0.004,-0.1253 l 0.7305,-1.1274 z m -43.509,8.4572 c -0.5502,-1.1364 -0.9564,-2.3326 -1.1937,-3.5889 0,0 -2.4143,0.4473 -2.9508,-0.8941 -0.5366,-1.3413 -0.9837,-2.8618 2.0568,-2.5934 0,0 0.5366,0.447 0.9836,-1.0732 0.2699,-0.9179 4.8444,-3.7579 12.6967,-5.0581 -2.8508,3.3947 -5.8091,6.7192 -8.7506,10.0241 -0.9456,1.0624 -1.8933,2.1232 -2.842,3.1836"
       id="path28" /></clipPath><linearGradient
     x1="0.23"
     y1="0"
     x2="0.76999998"
     y2="0"
     id="linearGradient32"
     gradientUnits="userSpaceOnUse"
     gradientTransform="matrix(92.48521,7.72692,-3.30852,39.60036,361.6994,301.9609)"
     spreadMethod="pad"><stop
       id="stop34"
       style="stop-color:#649b23;stop-opacity:1"
       offset="0" /><stop
       id="stop36"
       style="stop-color:#77b229;stop-opacity:1"
       offset="0.80000001" /><stop
       id="stop38"
       style="stop-color:#8dcd2f;stop-opacity:1"
       offset="1" /></linearGradient><clipPath
     id="clipPath68"><path
       d="m 456.9369,327.1663 c 1.8978,0 3.4371,-1.5392 3.4371,-3.437 0,-1.8981 -1.5393,-3.437 -3.4371,-3.437 -1.898,0 -3.437,1.5389 -3.437,3.437 0,1.8978 1.539,3.437 3.437,3.437"
       id="path70" /></clipPath><radialGradient
     cx="0"
     cy="0"
     r="0.74000001"
     fx="0"
     fy="0"
     id="radialGradient74"
     gradientUnits="userSpaceOnUse"
     gradientTransform="matrix(6.87402,0,0,6.87402,458.3115,324.6917)"
     spreadMethod="pad"><stop
       id="stop76"
       style="stop-color:#99d420;stop-opacity:1"
       offset="0" /><stop
       id="stop78"
       style="stop-color:#4fa83f;stop-opacity:1"
       offset="1" /></radialGradient><linearGradient
     x1="0.23"
     y1="0"
     x2="0.76999998"
     y2="0"
     id="linearGradient32-680"
     gradientUnits="userSpaceOnUse"
     gradientTransform="matrix(92.48521,7.72692,-3.30852,39.60036,361.6994,301.9609)"
     spreadMethod="pad"><stop
       id="stop3707"
       style="stop-color:#5a8c20;stop-opacity:1"
       offset="0" /><stop
       id="stop3709"
       style="stop-color:#6ba025;stop-opacity:1"
       offset="0.80000001" /><stop
       id="stop3711"
       style="stop-color:#7fb92a;stop-opacity:1"
       offset="1" /></linearGradient><radialGradient
     cx="0"
     cy="0"
     r="0.74000001"
     fx="0"
     fy="0"
     id="radialGradient74-668"
     gradientUnits="userSpaceOnUse"
     gradientTransform="matrix(6.87402,0,0,6.87402,458.3115,324.6917)"
     spreadMethod="pad"><stop
       id="stop3714"
       style="stop-color:#8abf1d;stop-opacity:1"
       offset="0" /><stop
       id="stop3716"
       style="stop-color:#479739;stop-opacity:1"
       offset="1" /></radialGradient><clipPath
     id="clipPath26-3"><path
       d="m 451.5029,336.2221 c -0.3869,0.0783 -0.8121,0.1602 -1.2809,0.2447 -5.455,0.9836 -4.8649,1.9496 -6.8321,2.4862 -1.9675,0.5364 -2.1283,-0.4294 -4.2747,0.6438 -2.1461,1.0732 -4.602,1.3459 -6.9216,1.5023 -6.2399,0.4218 -19.6237,-1.6962 -29.8519,-6.9684 0.5502,-0.3398 1.1174,-0.6627 1.73,-0.9799 1.2033,-0.6233 2.4446,-1.1852 3.6892,-1.7195 1.91,-0.8198 3.8492,-1.58 5.7929,-2.3156 3.8866,-1.4712 8.4938,-3.841 10.8185,-7.4543 0.7279,-1.1316 1.4904,-2.9494 1.3047,-4.3429 l -0.1587,-1.1926 -1.1928,0.1565 c -2.5438,0.3339 -5.1069,0.6177 -7.6411,1.0128 -1.9834,0.3093 -3.9458,0.7033 -5.8425,1.3737 -2.1858,0.7724 -4.1289,1.8655 -6.0179,3.2009 -2.5787,1.8229 -5.0046,4.007 -7.3109,6.1594 -0.3296,0.3075 -0.7117,0.5989 -1.0698,0.8728 -0.3183,0.2434 -0.6397,0.4838 -0.9635,0.7208 -0.6859,-0.5868 -1.3311,-1.1974 -1.9275,-1.8329 1.5656,-1.8329 3.1317,-3.666 4.6902,-5.5051 3.0985,-3.6567 6.1988,-7.3389 9.1576,-11.1102 0.4382,-0.5587 0.8765,-1.1205 1.3082,-1.6877 3.7811,-0.1114 8.041,0.1627 12.7185,1.0465 0,0 0.3577,0.1786 1.1625,-0.1788 0.451,-0.2004 4.5691,1.3473 5.9023,1.4306 0.3208,0.0202 0.6474,0.1355 0.9722,0.3073 -0.7755,1.7314 -1.2412,3.634 -0.6961,5.3892 0.6145,1.9795 2.3028,3.1737 4.1439,3.9212 2.7675,1.1234 6.3065,1.4681 9.2662,1.6092 l 0.0564,0.003 0.0567,-0.003 c 0.7512,-0.0348 1.4442,-0.3067 1.9414,-0.8858 0.4465,-0.5196 0.6424,-1.1786 0.6826,-1.8805 0.205,0.3166 0.3648,0.5808 0.478,0.7503 0.1451,0.2177 0.3988,0.375 0.7038,0.4686 0.4252,5.5633 1.8105,11.4055 5.4062,14.7574 z m -17.5668,-21.3463 c 0.7534,0.2529 1.7033,0.546 2.6886,0.8303 -0.968,0.1517 -1.9372,0.3183 -2.9007,0.4255 -0.1043,0.0116 -0.3756,0.0303 -0.5227,-0.003 -0.002,-0.0374 0,-0.0825 0.004,-0.1253 l 0.7305,-1.1274 z m -43.509,8.4572 c -0.5502,-1.1364 -0.9564,-2.3326 -1.1937,-3.5889 0,0 -2.4143,0.4473 -2.9508,-0.8941 -0.5366,-1.3413 -0.9837,-2.8618 2.0568,-2.5934 0,0 0.5366,0.447 0.9836,-1.0732 0.2699,-0.9179 4.8444,-3.7579 12.6967,-5.0581 -2.8508,3.3947 -5.8091,6.7192 -8.7506,10.0241 -0.9456,1.0624 -1.8933,2.1232 -2.842,3.1836"
       id="path28-7" /></clipPath><linearGradient
     x1="0.23"
     y1="0"
     x2="0.76999998"
     y2="0"
     id="linearGradient32-680-6"
     gradientUnits="userSpaceOnUse"
     gradientTransform="matrix(92.48521,7.72692,-3.30852,39.60036,361.6994,301.9609)"
     spreadMethod="pad"><stop
       id="stop3707-9"
       style="stop-color:#5a8c20;stop-opacity:1"
       offset="0" /><stop
       id="stop3709-0"
       style="stop-color:#6ba025;stop-opacity:1"
       offset="0.80000001" /><stop
       id="stop3711-8"
       style="stop-color:#7fb92a;stop-opacity:1"
       offset="1" /></linearGradient><clipPath
     id="clipPath68-2"><path
       d="m 456.9369,327.1663 c 1.8978,0 3.4371,-1.5392 3.4371,-3.437 0,-1.8981 -1.5393,-3.437 -3.4371,-3.437 -1.898,0 -3.437,1.5389 -3.437,3.437 0,1.8978 1.539,3.437 3.437,3.437"
       id="path70-4" /></clipPath><radialGradient
     cx="0"
     cy="0"
     r="0.74000001"
     fx="0"
     fy="0"
     id="radialGradient74-668-4"
     gradientUnits="userSpaceOnUse"
     gradientTransform="matrix(6.87402,0,0,6.87402,458.3115,324.6917)"
     spreadMethod="pad"><stop
       id="stop3714-6"
       style="stop-color:#8abf1d;stop-opacity:1"
       offset="0" /><stop
       id="stop3716-6"
       style="stop-color:#479739;stop-opacity:1"
       offset="1" /></radialGradient></defs>


<a xlink:href="http://github.prideout.net/" target="_parent">

<rect
   class="clickable"
   width="523.71973"
   height="122.27886"
   rx="20.352209"
   ry="37.413818"
   x="1.3756187"
   y="8.7003489"
   id="Selector"
   style="fill:#ffd42a;stroke:#000000;stroke-width:2.75124598;fill-opacity:0; stroke-opacity:0"
>
   <!--set attributeName="fill-opacity" to="0.5" begin="hoverrect.mouseover" end="hoverrect.mouseout"/-->
</rect>

<g
   transform="translate(7.1275709,11.111161)"
   id="layer1"
   style="display:inline"><g
       transform="matrix(1.25,0,0,-1.25,-256.5255,454.69226)"
       id="g12"><path
   d="m 225.1091,300.6527 30.7953,0 c -0.3384,-7.7686 -2.8578,-14.0561 -7.5588,-18.8736 -4.6894,-4.8178 -10.6385,-7.2323 -17.8356,-7.2323 -3.733,0 -7.1856,0.7234 -10.3351,2.158 -3.1612,1.4349 -5.9843,3.5578 -8.4921,6.3924 -2.1231,2.3445 -3.7329,5.0159 -4.8177,8.0138 -1.0965,2.9863 -1.6447,6.194 -1.6447,9.6117 0,3.4881 0.665,6.789 1.9831,9.9153 1.3181,3.1261 3.2545,5.9375 5.8091,8.4453 2.4145,2.4148 5.1091,4.2228 8.0954,5.4125 2.9863,1.2016 6.2992,1.7966 9.9502,1.7966 5.0392,0 9.4484,-1.1784 13.2395,-3.5345 3.7913,-2.3565 6.6609,-5.7158 8.5972,-10.067 l -8.8886,0 c -1.6449,2.1231 -3.6045,3.7097 -5.8793,4.7826 -2.2746,1.0732 -4.8175,1.6098 -7.617,1.6098 -2.3448,0 -4.5726,-0.443 -6.6957,-1.3297 -2.1229,-0.8864 -4.0011,-2.1813 -5.6342,-3.8611 -1.7147,-1.7614 -3.0444,-3.8027 -4.0011,-6.124 -0.9564,-2.3213 -1.4346,-4.6893 -1.4346,-7.1158 0,-2.5894 0.4314,-5.0507 1.2946,-7.3604 0.875,-2.3097 2.1115,-4.316 3.7329,-5.9959 1.7031,-1.7847 3.6743,-3.1612 5.9023,-4.1408 2.2397,-0.9799 4.5145,-1.4698 6.8358,-1.4698 3.791,0 7.1271,1.0032 10.0202,3.0212 2.8927,2.018 5.2724,4.9927 7.1387,8.9354 l -22.5598,0 0,7.0103 z m 43.9532,-25.1144 -6.7654,0 0,37.5959 6.3572,0 0,-4.3392 c 1.12,1.6562 2.4029,2.8927 3.8495,3.6978 1.4465,0.8047 3.1263,1.2248 5.0391,1.2481 l 0,-7.0691 c -3.0328,-0.2333 -5.2024,-1.1197 -6.5089,-2.6827 -1.3181,-1.5633 -1.9715,-4.0711 -1.9715,-7.5356 l 0,-20.9152 z m 18.489,19.0372 c 0,-3.8029 1.2597,-6.9874 3.7794,-9.5652 2.5078,-2.5781 5.5874,-3.8611 9.2387,-3.8611 3.3245,0 6.2524,1.2946 8.7953,3.8727 2.5311,2.5895 3.8027,5.6109 3.8027,9.0754 0,3.6859 -1.2597,6.8471 -3.7678,9.4833 -2.5197,2.6246 -5.5057,3.9427 -8.9702,3.9427 -3.5578,0 -6.5909,-1.2481 -9.0987,-3.7559 -2.5197,-2.5081 -3.7794,-5.5757 -3.7794,-9.1919 z m 25.2776,-19.0372 0,4.6194 c -1.7263,-1.7963 -3.6626,-3.1612 -5.7855,-4.0828 -2.1347,-0.9215 -4.4095,-1.3881 -6.8241,-1.3881 -5.6458,0 -10.3351,1.8896 -14.0794,5.6574 -3.7329,3.7678 -5.5993,8.492 -5.5993,14.1613 0,2.6479 0.4666,5.1559 1.3998,7.5237 0.9331,2.3681 2.2632,4.4561 4.0011,6.2524 1.8898,1.9831 3.9543,3.4413 6.194,4.3861 2.2512,0.9447 4.8061,1.4232 7.6756,1.4232 2.5778,0 4.9459,-0.4549 7.1039,-1.3649 2.1697,-0.9099 4.1412,-2.298 5.9139,-4.1411 l 0,4.5493 6.8358,0 0,-37.5959 -6.8358,0 z m 12.0966,12.1666 6.3576,0 c 0,-1.9831 0.5482,-3.6161 1.6562,-4.8994 1.1081,-1.2949 2.4846,-1.9363 4.1528,-1.9363 1.5746,0 2.8695,0.4898 3.8843,1.4581 1.0148,0.9683 1.5165,2.1929 1.5165,3.6978 0,1.3297 -0.3617,2.4378 -1.0732,3.3477 -0.7231,0.9216 -1.8779,1.6915 -3.4761,2.3332 -0.5366,0.2214 -1.3181,0.5247 -2.3213,0.8864 -2.6597,1.0032 -4.3628,1.7963 -5.0859,2.3913 -1.3416,1.0732 -2.3329,2.2864 -2.9747,3.6394 -0.6414,1.3533 -0.9564,2.9163 -0.9564,4.701 0,3.0447 1.0616,5.6458 3.1961,7.7922 2.1231,2.1347 4.7361,3.2079 7.8038,3.2079 3.2196,0 5.7625,-0.9451 7.6524,-2.823 1.9012,-1.878 2.9279,-4.5142 3.1144,-7.9087 l -6.4973,0 c -0.1168,1.3882 -0.5717,2.473 -1.3649,3.2429 -0.7931,0.7815 -1.8663,1.1664 -3.2077,1.1664 -1.2132,0 -2.2164,-0.4201 -3.0214,-1.2481 -0.8048,-0.8283 -1.213,-1.8666 -1.213,-3.0914 0,-2.0997 1.8196,-3.8143 5.459,-5.1557 1.0267,-0.3966 1.8315,-0.6999 2.4265,-0.9332 2.8695,-1.1548 4.9226,-2.6013 6.1356,-4.3395 1.2248,-1.7263 1.8314,-4.036 1.8314,-6.9287 0,-3.3713 -1.1432,-6.1827 -3.4177,-8.4104 -2.2748,-2.2281 -5.1559,-3.348 -8.6088,-3.348 -3.4878,0 -6.3108,1.1781 -8.4453,3.5229 -2.1464,2.3445 -3.3128,5.5525 -3.5229,9.6352 z m 27.2376,0 6.3575,0 c 0,-1.9831 0.5482,-3.6161 1.6563,-4.8994 1.108,-1.2949 2.4845,-1.9363 4.1527,-1.9363 1.5747,0 2.8695,0.4898 3.8844,1.4581 1.0148,0.9683 1.5165,2.1929 1.5165,3.6978 0,1.3297 -0.3617,2.4378 -1.0732,3.3477 -0.7231,0.9216 -1.878,1.6915 -3.4761,2.3332 -0.5366,0.2214 -1.3181,0.5247 -2.3213,0.8864 -2.6598,1.0032 -4.3628,1.7963 -5.0859,2.3913 -1.3417,1.0732 -2.333,2.2864 -2.9747,3.6394 -0.6415,1.3533 -0.9564,2.9163 -0.9564,4.701 0,3.0447 1.0615,5.6458 3.196,7.7922 2.1232,2.1347 4.7362,3.2079 7.8038,3.2079 3.2196,0 5.7626,-0.9451 7.6524,-2.823 1.9012,-1.878 2.9279,-4.5142 3.1144,-7.9087 l -6.4972,0 c -0.1168,1.3882 -0.5718,2.473 -1.3649,3.2429 -0.7932,0.7815 -1.8664,1.1664 -3.2077,1.1664 -1.2132,0 -2.2164,-0.4201 -3.0215,-1.2481 -0.8047,-0.8283 -1.2129,-1.8666 -1.2129,-3.0914 0,-2.0997 1.8196,-3.8143 5.459,-5.1557 1.0267,-0.3966 1.8314,-0.6999 2.4264,-0.9332 2.8695,-1.1548 4.9227,-2.6013 6.1356,-4.3395 1.2248,-1.7263 1.8315,-4.036 1.8315,-6.9287 0,-3.3713 -1.1432,-6.1827 -3.4178,-8.4104 -2.2748,-2.2281 -5.1559,-3.348 -8.6088,-3.348 -3.4877,0 -6.3108,1.1781 -8.4452,3.5229 -2.1464,2.3445 -3.3129,5.5525 -3.5229,9.6352 z m 36.6046,-12.1666 -6.7657,0 0,49.7625 6.6625,0 0.1032,-0.1154 0,-16.332 c 1.0964,1.6214 2.5078,2.8343 4.2576,3.651 1.6883,0.8047 3.6519,1.2129 5.9015,1.2353 1.7047,-1.9621 3.3885,-3.9421 5.0255,-5.9499 1.2127,-1.4876 2.4375,-3.0217 3.5218,-4.6063 0.2752,-0.402 1.1874,-1.7691 1.2787,-2.2774 -0.0417,-0.1678 -0.2719,-0.4932 -0.3637,-0.6159 -0.2222,-0.2971 -0.4708,-0.5721 -0.7098,-0.8555 -0.1202,-0.1426 -0.2409,-0.29 -0.3416,-0.447 -0.2871,-0.4479 -0.36,-0.9959 -0.0657,-1.4704 0.4878,-0.7869 1.3311,-0.6531 2.0471,-0.394 0.6676,0.2421 1.34,0.5539 1.9857,0.8496 1.7189,0.7863 1.7961,4.1201 1.2141,5.6551 -0.3971,1.0465 -1.1951,2.2218 -1.8309,3.1422 -1.0386,1.504 -2.16,2.9667 -3.2879,4.4044 l -0.4657,0.5899 c 1.0479,-0.6426 1.9882,-1.4417 2.8182,-2.3981 2.5313,-2.916 3.7913,-7.0103 3.7913,-12.2714 l 0,-21.5567 -6.7657,0 0,19.3754 c 0,4.1644 -0.7115,7.2672 -2.1232,9.2852 -1.4113,2.0299 -3.5694,3.0447 -6.4856,3.0447 -1.7847,0 -3.3478,-0.4082 -4.7243,-1.2249 -1.3648,-0.8283 -2.4613,-2.0064 -3.2777,-3.5578 -0.5017,-0.9331 -0.8634,-2.0763 -1.0732,-3.4177 -0.2216,-1.3416 -0.3265,-3.488 -0.3265,-6.4275 l 0,-17.0774 z m 37.5956,18.8272 c 0,-3.7562 1.19,-6.8939 3.5697,-9.402 2.3794,-2.5078 5.3424,-3.7562 8.9002,-3.7562 3.4877,0 6.404,1.26 8.7602,3.7795 2.3564,2.5197 3.5345,5.6693 3.5345,9.4487 0,3.8027 -1.1781,6.9522 -3.5345,9.4368 -2.3562,2.4846 -5.2957,3.7211 -8.8302,3.7211 l -0.1072,-9e-4 -4.0779,6.2929 c 1.2688,0.2923 2.5631,0.4388 3.8818,0.4388 2.7295,0 5.2608,-0.4901 7.5937,-1.4697 l 0.0145,-0.006 c 0.157,-2.6277 0.5088,-5.8518 3.4605,-6.8272 1.1409,-0.377 2.2238,-0.231 3.2151,0.2097 0.6168,-0.2483 1.2183,-0.3322 1.7954,-0.2846 0.845,-1.1973 1.552,-2.4718 2.1181,-3.8233 0.9915,-2.3681 1.4814,-4.8178 1.4814,-7.3491 0,-2.5662 -0.4666,-5.074 -1.3882,-7.5121 -0.9215,-2.4381 -2.2164,-4.5726 -3.8727,-6.3924 -1.9131,-2.0997 -4.0595,-3.6862 -6.4391,-4.771 -2.3795,-1.0848 -4.9224,-1.6214 -7.6054,-1.6214 -2.753,0 -5.296,0.4901 -7.6173,1.4813 -2.3329,0.9916 -4.4093,2.4614 -6.264,4.3977 -1.7498,1.8431 -3.1263,3.9895 -4.1176,6.4392 -0.9915,2.4497 -1.4816,4.9459 -1.4816,7.5005 0,2.6713 0.4549,5.1559 1.3532,7.4656 0.8983,2.3213 2.2281,4.3976 3.9779,6.2407 1.4751,1.5846 3.0991,2.8843 4.8673,3.8943 0.3966,-0.8544 0.8646,-1.6626 1.3159,-2.3868 0.6882,-1.1047 1.4454,-2.1872 2.2377,-3.2519 -1.1501,-0.6072 -2.2065,-1.4213 -3.1717,-2.4435 -2.3797,-2.5194 -3.5697,-5.669 -3.5697,-9.4484 z m 43.9535,0.21 c 0,-3.7213 1.2364,-6.8822 3.7329,-9.5068 2.4962,-2.6249 5.4709,-3.9311 8.9351,-3.9311 3.5345,0 6.5557,1.2597 9.087,3.7794 2.5313,2.5195 3.7911,5.5758 3.7911,9.1684 0,3.8146 -1.2481,6.999 -3.7559,9.5769 -2.5081,2.5781 -5.5642,3.861 -9.1922,3.861 -3.3245,0 -6.2524,-1.2945 -8.7951,-3.8843 -2.5429,-2.5778 -3.8029,-5.6109 -3.8029,-9.0635 z m 0.1984,-14.4995 0,-16.7043 -6.7658,0 0,49.7625 6.8358,0 0,-4.6193 c 1.7263,1.7731 3.6626,3.1263 5.7974,4.0479 2.1229,0.9215 4.3977,1.3881 6.8122,1.3881 5.6693,0 10.3703,-1.8782 14.1146,-5.6341 3.7326,-3.7679 5.5993,-8.4805 5.5993,-14.1497 0,-2.6246 -0.4666,-5.1208 -1.4001,-7.4889 -0.9331,-2.3678 -2.2745,-4.4793 -4.0359,-6.3224 -1.8896,-1.9828 -3.9544,-3.441 -6.194,-4.3858 -2.2513,-0.945 -4.8059,-1.4232 -7.6757,-1.4232 -2.5546,0 -4.9107,0.4666 -7.092,1.3881 -2.1699,0.9215 -4.1763,2.298 -5.9958,4.1411 z m 44.8747,14.4995 c 0,-3.7213 1.2365,-6.8822 3.7329,-9.5068 2.4962,-2.6249 5.4709,-3.9311 8.9351,-3.9311 3.5345,0 6.5557,1.2597 9.087,3.7794 2.5314,2.5195 3.7911,5.5758 3.7911,9.1684 0,3.8146 -1.2481,6.999 -3.7559,9.5769 -2.5081,2.5781 -5.5641,3.861 -9.1922,3.861 -3.3245,0 -6.2524,-1.2945 -8.795,-3.8843 -2.543,-2.5778 -3.803,-5.6109 -3.803,-9.0635 z m 0.1984,-14.4995 0,-16.7043 -6.7657,0 0,49.7625 6.8357,0 0,-4.6193 c 1.7263,1.7731 3.6627,3.1263 5.7974,4.0479 2.1229,0.9215 4.3977,1.3881 6.8123,1.3881 5.6693,0 10.3702,-1.8782 14.1145,-5.6341 3.7327,-3.7679 5.5993,-8.4805 5.5993,-14.1497 0,-2.6246 -0.4666,-5.1208 -1.4,-7.4889 -0.9332,-2.3678 -2.2746,-4.4793 -4.036,-6.3224 -1.8896,-1.9828 -3.9543,-3.441 -6.194,-4.3858 -2.2513,-0.945 -4.8058,-1.4232 -7.6756,-1.4232 -2.5546,0 -4.9108,0.4666 -7.092,1.3881 -2.17,0.9215 -4.1763,2.298 -5.9959,4.1411 z m 67.7614,17.8356 c -0.8399,3.1028 -2.2981,5.5058 -4.3745,7.1972 -2.0763,1.703 -4.5493,2.5546 -7.442,2.5546 -2.9631,0 -5.5293,-0.8748 -7.7106,-2.613 -2.1696,-1.7495 -3.6745,-4.1292 -4.4909,-7.1388 l 24.018,0 z m -24.228,-6.0775 c 0.5714,-3.1376 1.9947,-5.6925 4.2576,-7.6405 2.2629,-1.9479 4.9575,-2.9162 8.0838,-2.9162 2.2281,0 4.2577,0.5366 6.1008,1.6097 1.8314,1.0616 3.2893,2.5782 4.386,4.5378 l 7.617,0 c -1.7263,-4.1644 -4.1525,-7.3605 -7.2556,-9.5653 -3.1144,-2.2045 -6.7305,-3.3128 -10.8482,-3.3128 -2.7878,0 -5.3192,0.4898 -7.6288,1.4697 -2.2981,0.98 -4.3745,2.4497 -6.2524,4.4093 -1.7498,1.8431 -3.1263,3.9895 -4.1176,6.4392 -0.9916,2.4497 -1.4817,4.9459 -1.4817,7.5005 0,2.6478 0.455,5.1208 1.3533,7.4188 0.8983,2.2981 2.228,4.3977 3.9775,6.2875 1.8667,2.0529 3.9779,3.5927 6.3224,4.631 2.3449,1.0381 4.9111,1.5514 7.6873,1.5514 3.3012,0 6.3692,-0.7699 9.2152,-2.3097 2.8346,-1.5397 5.1675,-3.6861 7.0222,-6.4391 1.0849,-1.7147 1.9015,-3.5811 2.4265,-5.6226 0.525,-2.0412 0.7815,-4.3741 0.7815,-6.9871 l 0,-1.0616 -31.6468,0 z m 44.3613,-16.2958 -6.7654,0 0,37.5959 6.3572,0 0,-4.3392 c 1.12,1.6562 2.403,2.8927 3.8495,3.6978 1.4465,0.8047 3.1263,1.2248 5.0391,1.2481 l 0,-7.0691 c -3.0328,-0.2333 -5.2024,-1.1197 -6.5089,-2.6827 -1.3181,-1.5633 -1.9715,-4.0711 -1.9715,-7.5356 l 0,-20.9152 z"
   id="path14"
   style="fill:#56851e;fill-opacity:1;fill-rule:evenodd;stroke:none" /><path
   d="m 467.1204,326.1861 c 16.3015,5.0921 27.7793,13.7177 48.3792,13.5881 0,0 -4.9346,0.4272 -16.9177,-3.3287 -11.9829,-3.7559 -29.4211,-11.4466 -31.5672,-13.0561 l -0.0658,-0.047 c 0.1502,0.9368 0.2109,1.8856 0.1715,2.8437"
   id="path16"
   style="fill:#649b23;fill-opacity:1;fill-rule:evenodd;stroke:none" /><path
   d="m 466.0957,320.1843 c 6.6614,-1.6634 6.626,-6.3216 5.2308,-16.0897 -0.4471,-3.1298 -1.8315,-5.7155 -2.7689,-6.7887 -0.9372,-1.073 1.7455,-1.0962 1.7455,-1.0962 0,0 -2.5937,-0.7713 -2.7833,0.2123 -0.0859,0.4453 1.9111,4.5207 2.38,8.7934 0.5655,5.1565 0.4456,10.6509 -0.1471,11.0418 -0.5471,0.3608 -3.1794,0.0102 -5.8085,-0.1525 0.8847,1.3039 1.6146,2.6691 2.1515,4.0796"
   id="path18"
   style="fill:#5a8c20;fill-opacity:1;fill-rule:evenodd;stroke:none" /><path
   d="m 410.4879,337.7353 c -0.2104,0.771 -6.1362,17.2173 0.0717,14.8892 1.4315,-0.5368 4.3393,-4.926 6.8431,-7.1614 2.5039,-2.2357 5.8127,-6.4925 5.8127,-6.4925 l -6.0808,-1.4306 c 0,0 -3.1301,5.419 -5.0976,6.224 -1.9672,0.8048 1.5205,-4.9723 0.7155,-6.5818 -0.8048,-1.6098 -2.6827,-2.0568 -3.3086,-1.5202 -0.6262,0.5366 1.044,2.0733 1.044,2.0733"
   id="path20"
   style="fill:#5a8c20;fill-opacity:1;fill-rule:evenodd;stroke:none" /><g
   id="g22"><g
     clip-path="url(#clipPath26-3)"
     id="g24"><g
       id="g30"><path
         d="m 451.5029,336.2221 c -0.3869,0.0783 -0.8121,0.1602 -1.2809,0.2447 -5.455,0.9836 -4.8649,1.9496 -6.8321,2.4862 -1.9675,0.5364 -2.1283,-0.4294 -4.2747,0.6438 -2.1461,1.0732 -4.602,1.3459 -6.9216,1.5023 -6.2399,0.4218 -19.6237,-1.6962 -29.8519,-6.9684 0.5502,-0.3398 1.1174,-0.6627 1.73,-0.9799 1.2033,-0.6233 2.4446,-1.1852 3.6892,-1.7195 1.91,-0.8198 3.8492,-1.58 5.7929,-2.3156 3.8866,-1.4712 8.4938,-3.841 10.8185,-7.4543 0.7279,-1.1316 1.4904,-2.9494 1.3047,-4.3429 l -0.1587,-1.1926 -1.1928,0.1565 c -2.5438,0.3339 -5.1069,0.6177 -7.6411,1.0128 -1.9834,0.3093 -3.9458,0.7033 -5.8425,1.3737 -2.1858,0.7724 -4.1289,1.8655 -6.0179,3.2009 -2.5787,1.8229 -5.0046,4.007 -7.3109,6.1594 -0.3296,0.3075 -0.7117,0.5989 -1.0698,0.8728 -0.3183,0.2434 -0.6397,0.4838 -0.9635,0.7208 -0.6859,-0.5868 -1.3311,-1.1974 -1.9275,-1.8329 1.5656,-1.8329 3.1317,-3.666 4.6902,-5.5051 3.0985,-3.6567 6.1988,-7.3389 9.1576,-11.1102 0.4382,-0.5587 0.8765,-1.1205 1.3082,-1.6877 3.7811,-0.1114 8.041,0.1627 12.7185,1.0465 0,0 0.3577,0.1786 1.1625,-0.1788 0.451,-0.2004 4.5691,1.3473 5.9023,1.4306 0.3208,0.0202 0.6474,0.1355 0.9722,0.3073 -0.7755,1.7314 -1.2412,3.634 -0.6961,5.3892 0.6145,1.9795 2.3028,3.1737 4.1439,3.9212 2.7675,1.1234 6.3065,1.4681 9.2662,1.6092 l 0.0564,0.003 0.0567,-0.003 c 0.7512,-0.0348 1.4442,-0.3067 1.9414,-0.8858 0.4465,-0.5196 0.6424,-1.1786 0.6826,-1.8805 0.205,0.3166 0.3648,0.5808 0.478,0.7503 0.1451,0.2177 0.3988,0.375 0.7038,0.4686 0.4252,5.5633 1.8105,11.4055 5.4062,14.7574 z m -17.5668,-21.3463 c 0.7534,0.2529 1.7033,0.546 2.6886,0.8303 -0.968,0.1517 -1.9372,0.3183 -2.9007,0.4255 -0.1043,0.0116 -0.3756,0.0303 -0.5227,-0.003 -0.002,-0.0374 0,-0.0825 0.004,-0.1253 l 0.7305,-1.1274 z m -43.509,8.4572 c -0.5502,-1.1364 -0.9564,-2.3326 -1.1937,-3.5889 0,0 -2.4143,0.4473 -2.9508,-0.8941 -0.5366,-1.3413 -0.9837,-2.8618 2.0568,-2.5934 0,0 0.5366,0.447 0.9836,-1.0732 0.2699,-0.9179 4.8444,-3.7579 12.6967,-5.0581 -2.8508,3.3947 -5.8091,6.7192 -8.7506,10.0241 -0.9456,1.0624 -1.8933,2.1232 -2.842,3.1836"
         id="path40"
         style="fill:url(#linearGradient32-680-6);fill-rule:evenodd;stroke:none" /></g></g></g><path
   d="m 446.6917,326.0614 c -2.378,0.1593 -6.2643,2.6506 -7.5586,3.6986 -1.878,1.5202 -2.4145,8.8532 0,9.2106 0,0 1.5012,-0.6018 2.5308,-0.3104 1.0295,0.2914 2.0367,-0.2242 3.4466,-1.0987 1.41,-0.8742 4.7225,-1.345 5.6849,-1.5021 l 0.4601,-0.0754 c -2.4509,-2.4318 -3.8288,-6.0582 -4.5638,-9.9226"
   id="path42"
   style="fill:#5a8c20;fill-opacity:1;fill-rule:evenodd;stroke:none" /><path
   d="m 438.1138,339.3283 c -0.1789,-0.5366 -3.6406,-4.6859 -2.6567,-7.8156 0.9842,-3.1301 3.1845,-1.8153 3.1845,-1.8153 0,0 -3.2553,3.2371 -0.5278,9.6309"
   id="path44"
   style="fill:#5a8c20;fill-opacity:1;fill-rule:evenodd;stroke:none" /><path
   d="m 433.6781,340.3123 c 0,0 -3.7559,-3.9348 -2.6827,-5.9916 1.0732,-2.0569 1.6991,-0.8944 2.1461,-1.878 0.4473,-0.9836 0.4921,-1.2968 1.6546,-1.2968 1.1625,0 -2.5041,1.1627 3.0852,8.4061 0,0 -3.2675,1.3728 -4.2032,0.7603"
   id="path46"
   style="fill:#5a8c20;fill-opacity:1;fill-rule:evenodd;stroke:none" /><path
   d="m 428.2231,340.0438 c 0,0 -4.6494,-5.58 -4.2029,-15.3813 8.8356,4.6882 3.4055,10.0502 8.585,15.5602 0,0 -2.3559,0.3435 -4.3821,-0.1789 z m -5.5443,-0.8047 c -0.2681,-0.4474 -3.8452,-2.0569 -3.2193,-10.9996 0,0 2.6379,-1.4306 3.4875,-2.4143 0.8495,-0.9839 -0.8048,9.1214 4.2032,13.9505 0,0 -2.1464,0.3129 -4.4714,-0.5366 z m -5.8127,-0.6259 c 0,0 -2.325,-3.0408 -2.0568,-7.7803 0,0 3.3089,-1.3413 4.1584,-2.4145 0,0 -1.1625,7.7802 3.2641,10.9547 0,0 -2.683,-0.0893 -5.3657,-0.7599 z m -1.1625,-0.3578 c 0,0 -7.2436,-1.6991 -10.1052,-3.4877 -2.8616,-1.7884 4.8291,-0.1789 8.6743,-3.6663 0,0 -0.7152,3.1297 1.4309,7.154"
   id="path48"
   style="fill:#5a8c20;fill-opacity:1;fill-rule:evenodd;stroke:none" /><path
   d="m 433.7677,330.3859 c 0,0 -2.5041,-4.5607 -4.0244,-5.9916 -1.5202,-1.4309 3.3982,0.9836 4.561,4.6947 0,0 0.6004,2.6881 -0.5366,1.2969"
   id="path50"
   style="fill:#5a8c20;fill-opacity:1;fill-rule:evenodd;stroke:none" /><path
   d="m 438.3283,328.4184 c 0,-0.3575 -1.1809,-4.4981 -1.4754,-5.0525 -0.2211,-0.4159 1.4397,1.8961 3.3302,1.8649 0.6304,-0.0102 0.8092,-1.7127 1.5882,-1.9542 1.2966,-0.4025 0.76,3.1297 1.7439,3.1297 0.9836,0 -3.0407,1.7887 -3.9796,2.5042 -0.9391,0.7151 -1.2073,-0.4921 -1.2073,-0.4921"
   id="path52"
   style="fill:#5a8c20;fill-opacity:1;fill-rule:evenodd;stroke:none" /><path
   d="m 424.4822,317.4778 c 0,0 0.7884,5.9139 -11.3553,10.5105 -12.1436,4.5967 -12.198,5.7958 -15.5959,8.0314 -2.3445,1.5424 -23.0338,17.1066 -19.8527,4.3818 0.8047,-3.2193 32.4204,-35.4846 32.2826,-39.5263 -0.2188,-6.4252 2.2578,0.1455 1.4309,2.3253 -2.2804,6.0129 -32.6891,38.9078 -28.794,36.5562 2.3698,-1.4307 13.7259,-8.9686 15.7379,-10.8462 10.9177,-10.19 13.3699,-9.7566 26.1465,-11.4327"
   id="path54"
   style="fill:#5a8c20;fill-opacity:1;fill-rule:evenodd;stroke:none" /><path
   d="m 442.2351,321.808 c -24.7904,-1.1809 -6.3054,-15.2326 1.0737,-27.0224 l -1.6821,-2.0044 4.0082,1.8249 -13.5663,20.935 c 0,0 -0.6262,2.0569 1.7884,1.7887 2.4145,-0.2684 8.6743,-1.6991 9.3004,0 0.6259,1.6991 1.1625,4.3818 -0.9223,4.4782"
   id="path56"
   style="fill:#5a8c20;fill-opacity:1;fill-rule:evenodd;stroke:none" /><path
   d="m 466.0087,331.1186 c 10.6687,12.6216 27.5677,23.6739 34.8284,30.2086 7.3324,6.5993 -0.9303,-2.1104 -3.7919,-4.3461 -2.8616,-2.2357 -10.6058,-9.068 -14.004,-12.0189 -2.8956,-2.5143 -12.2837,-12.1703 -16.3253,-15.9678 -0.1763,0.7066 -0.4113,1.4153 -0.7072,2.1242"
   id="path58"
   style="fill:#5a8c20;fill-opacity:1;fill-rule:evenodd;stroke:none" /><path
   d="m 435.9835,327.7879 c 0,0 -1.2892,-2.3476 -2.0715,-3.0843 -0.7827,-0.7365 1.7492,0.5065 2.3476,2.4168 0,0 0.3093,1.3836 -0.2761,0.6675"
   id="path60"
   style="fill:#5a8c20;fill-opacity:1;fill-rule:evenodd;stroke:none" /><path
   d="m 455.4981,334.5888 c 0,0 3.6218,1.118 6.3045,-3.2641 3.4702,-5.8444 1.1568,-11.8511 -3.9795,-16.7672 0,0 -1.1625,-2.5038 -2.5487,-4.1584 -1.3858,-1.6543 -1.5202,-0.2682 -1.7884,0.4473 -0.2684,0.7152 0.313,0.7152 -1.3413,-0.6707 -1.6543,-1.3861 -2.1909,-0.8495 -2.4146,2.9509 -0.3384,5.7546 -0.3115,18.3605 5.768,21.4622"
   id="path62"
   style="fill:#5a8c20;fill-opacity:1;fill-rule:evenodd;stroke:none" /><g
   id="g64"><g
     clip-path="url(#clipPath68-2)"
     id="g66"><g
       id="g72">

<!-- Eye -->
<!--set attributeName="fill-opacity" to="0.5" begin="hoverrect.mouseover" end="hoverrect.mouseout"/-->
<path
         d="m 456.9369,327.1663 c 1.8978,0 3.4371,-1.5392 3.4371,-3.437 0,-1.8981 -1.5393,-3.437 -3.4371,-3.437 -1.898,0 -3.437,1.5389 -3.437,3.437 0,1.8978 1.539,3.437 3.437,3.437"
         id="path80"
         style="fill:url(#radialGradient74-668-4);fill-rule:evenodd;stroke:none">
<set attributeName="stroke" to="#000" begin="hoverrect.mouseover" end="hoverrect.mouseout"/>
</path>

</g></g></g><text
   transform="matrix(1,0,0,-1,216.1888,259.9047)"
   id="text82"
   style="line-height:125%;display:none"><tspan
     x="0 13.7894 19.9312 31.4807 43.030201 53.559502 58.721699 69.9319 75.470093 82.072701 91.593697 97.735802 108.946 120.4269 126.5687 138.1185 153.9579 169.7973 174.9592 185.4882 194.38632 200.9861 208.78191 213.94411 225.4939"
     y="0"
     id="tspan84"
     style="font-size:16px;font-style:normal;font-variant:normal;font-weight:normal;font-stretch:normal;text-align:start;line-height:125%;writing-mode:lr-tb;text-anchor:start;fill:#508738;fill-opacity:1;fill-rule:nonzero;stroke:none;font-family:AvantGarde Bk BT;-inkscape-font-specification:AvantGarde Bk BT">Graphics Programming Tips</tspan></text>

<g
   transform="matrix(1,0,0,-1,259.0053,319.1615)"
   id="text86"
   style="line-height:125%"><path
     d="m 5.4687499,0 -2.3078125,0 0,-13.78125 -2.9859374,0 0,-2.14375 8.2687499,0 0,2.14375 -2.975,0 0,13.78125"
     id="path3818"
     style="font-size:22.39999962px;font-style:normal;font-variant:normal;font-weight:normal;font-stretch:normal;text-align:start;writing-mode:lr-tb;text-anchor:start;fill:#508738;fill-opacity:1;fill-rule:nonzero;stroke:none;font-family:AvantGarde Md BT;-inkscape-font-specification:AvantGarde Md BT" /><path
     d="m 13.339456,0 -2.165624,0 0,-15.925 2.165624,0 0,5.260938 c 0.349997,-0.517697 0.80208,-0.907801 1.35625,-1.170313 0.561453,-0.262488 1.214057,-0.393738 1.957813,-0.39375 1.458325,1.2e-5 2.592178,0.466679 3.401562,1.4 0.809364,0.9333434 1.214051,2.2421962 1.214063,3.9265626 l 0,6.9015624 -2.165625,0 0,-6.2015624 c -9e-6,-1.3343674 -0.226051,-2.3260331 -0.678125,-2.9749999 C 17.973303,-9.8255108 17.280595,-10.14999 16.347269,-10.15 c -0.568756,10e-6 -1.07188,0.13126 -1.509375,0.3937502 -0.437505,0.2625095 -0.787504,0.6416757 -1.05,1.1374999 -0.16042,0.2989667 -0.277087,0.6635497 -0.35,1.09375 -0.06563,0.4302154 -0.09844,1.1156314 -0.09844,2.05625 l 0,5.4687499"
     id="path3820"
     style="font-size:22.39999962px;font-style:normal;font-variant:normal;font-weight:normal;font-stretch:normal;text-align:start;writing-mode:lr-tb;text-anchor:start;fill:#508738;fill-opacity:1;fill-rule:nonzero;stroke:none;font-family:AvantGarde Md BT;-inkscape-font-specification:AvantGarde Md BT" /><path
     d="m 35.094122,-7.1640624 c -0.269802,-0.9916585 -0.736468,-1.7572827 -1.4,-2.2968749 -0.66355,-0.5468647 -1.458341,-0.8203027 -2.384375,-0.8203127 -0.947922,10e-6 -1.77188,0.280739 -2.471875,0.8421877 -0.692712,0.5541755 -1.170315,1.3125081 -1.432812,2.2749999 l 7.689062,0 m -7.754687,1.946875 c 0.182288,1.0062542 0.634371,1.82292 1.35625,2.4499999 0.729161,0.6197939 1.593223,0.9296894 2.592187,0.9296875 0.714576,1.9e-6 1.363534,-0.1713521 1.946875,-0.5140625 0.590616,-0.3427056 1.060928,-0.8276009 1.410938,-1.4546874 l 2.439062,0 c -0.554179,1.3343774 -1.33074,2.3552097 -2.329687,3.06249991 -0.991676,0.70729169 -2.147404,1.06093717 -3.467188,1.06093748 -0.889589,-3.1e-7 -1.702609,-0.15677099 -2.439062,-0.47031249 -0.736462,-0.31354119 -1.403649,-0.78385321 -2.001563,-1.4109375 -0.56146,-0.5906228 -1.002605,-1.2760388 -1.323437,-2.0562499 -0.313543,-0.7874956 -0.470313,-1.5895781 -0.470313,-2.40625 0,-0.8458264 0.142187,-1.6369715 0.426563,-2.3734375 0.291665,-0.7364491 0.718227,-1.4072818 1.279687,-2.0125001 0.597914,-0.656239 1.272393,-1.148426 2.023438,-1.476562 0.751036,-0.335405 1.571348,-0.503113 2.460937,-0.503125 1.057284,1.2e-5 2.038012,0.247929 2.942188,0.74375 0.911447,0.488553 1.662488,1.173968 2.253125,2.0562497 0.349987,0.546884 0.608841,1.1484459 0.776562,1.8046874 0.167695,0.6489655 0.25155,1.3927147 0.251563,2.23125 l 0,0.3390625 -10.128125,0"
     id="path3822"
     style="font-size:22.39999962px;font-style:normal;font-variant:normal;font-weight:normal;font-stretch:normal;text-align:start;writing-mode:lr-tb;text-anchor:start;fill:#508738;fill-opacity:1;fill-rule:nonzero;stroke:none;font-family:AvantGarde Md BT;-inkscape-font-specification:AvantGarde Md BT" /><path
     d="m 56.400799,0 -7.525,0 0,-15.925 2.307812,0 0,13.7265625 5.217188,0 0,2.1984375"
     id="path3824"
     style="font-size:22.39999962px;font-style:normal;font-variant:normal;font-weight:normal;font-stretch:normal;text-align:start;writing-mode:lr-tb;text-anchor:start;fill:#508738;fill-opacity:1;fill-rule:nonzero;stroke:none;font-family:AvantGarde Md BT;-inkscape-font-specification:AvantGarde Md BT" /><path
     d="m 61.706129,-13.442187 -2.14375,0 0,-2.482813 2.14375,0 0,2.482813 M 59.562379,0 l 0,-12.03125 2.14375,0 0,12.03125 -2.14375,0"
     id="path3826"
     style="font-size:22.39999962px;font-style:normal;font-variant:normal;font-weight:normal;font-stretch:normal;text-align:start;writing-mode:lr-tb;text-anchor:start;fill:#508738;fill-opacity:1;fill-rule:nonzero;stroke:none;font-family:AvantGarde Md BT;-inkscape-font-specification:AvantGarde Md BT" /><path
     d="m 65.731818,0 0,-10.0625 -1.695312,0 0,-1.96875 1.695312,0 0,-3.89375 2.154688,0 0,3.89375 1.70625,0 0,1.96875 -1.70625,0 0,10.0625 -2.154688,0"
     id="path3828"
     style="font-size:22.39999962px;font-style:normal;font-variant:normal;font-weight:normal;font-stretch:normal;text-align:start;writing-mode:lr-tb;text-anchor:start;fill:#508738;fill-opacity:1;fill-rule:nonzero;stroke:none;font-family:AvantGarde Md BT;-inkscape-font-specification:AvantGarde Md BT" /><path
     d="m 72.81747,0 0,-10.0625 -1.695313,0 0,-1.96875 1.695313,0 0,-3.89375 2.154687,0 0,3.89375 1.70625,0 0,1.96875 -1.70625,0 0,10.0625 -2.154687,0"
     id="path3830"
     style="font-size:22.39999962px;font-style:normal;font-variant:normal;font-weight:normal;font-stretch:normal;text-align:start;writing-mode:lr-tb;text-anchor:start;fill:#508738;fill-opacity:1;fill-rule:nonzero;stroke:none;font-family:AvantGarde Md BT;-inkscape-font-specification:AvantGarde Md BT" /><path
     d="m 79.170305,0 0,-15.925 2.14375,0 0,15.925 -2.14375,0"
     id="path3832"
     style="font-size:22.39999962px;font-style:normal;font-variant:normal;font-weight:normal;font-stretch:normal;text-align:start;writing-mode:lr-tb;text-anchor:start;fill:#508738;fill-opacity:1;fill-rule:nonzero;stroke:none;font-family:AvantGarde Md BT;-inkscape-font-specification:AvantGarde Md BT" /><path
     d="m 93.969435,-7.1640624 c -0.269802,-0.9916585 -0.736468,-1.7572827 -1.4,-2.2968749 -0.66355,-0.5468647 -1.458341,-0.8203027 -2.384375,-0.8203127 -0.947923,10e-6 -1.77188,0.280739 -2.471875,0.8421877 -0.692712,0.5541755 -1.170316,1.3125081 -1.432812,2.2749999 l 7.689062,0 m -7.754687,1.946875 c 0.182288,1.0062542 0.634371,1.82292 1.35625,2.4499999 0.729161,0.6197939 1.593223,0.9296894 2.592187,0.9296875 0.714576,1.9e-6 1.363533,-0.1713521 1.946875,-0.5140625 0.590616,-0.3427056 1.060928,-0.8276009 1.410937,-1.4546874 l 2.439063,0 c -0.554179,1.3343774 -1.330741,2.3552097 -2.329688,3.06249991 C 92.638696,-0.0364583 91.482968,0.31718718 90.163185,0.31718749 89.273596,0.31718718 88.460576,0.1604165 87.724123,-0.153125 86.987661,-0.46666619 86.320474,-0.93697821 85.72256,-1.5640625 85.1611,-2.1546853 84.719955,-2.8401013 84.399123,-3.6203124 84.08558,-4.407808 83.92881,-5.2098905 83.92881,-6.0265624 c 0,-0.8458264 0.142187,-1.6369715 0.426563,-2.3734375 0.291665,-0.7364491 0.718227,-1.4072818 1.279687,-2.0125001 0.597914,-0.656239 1.272392,-1.148426 2.023438,-1.476562 0.751036,-0.335405 1.571348,-0.503113 2.460937,-0.503125 1.057284,1.2e-5 2.038012,0.247929 2.942187,0.74375 0.911448,0.488553 1.662489,1.173968 2.253125,2.0562497 0.349988,0.546884 0.608842,1.1484459 0.776563,1.8046874 0.167695,0.6489655 0.251549,1.3927147 0.251562,2.23125 l 0,0.3390625 -10.128124,0"
     id="path3834"
     style="font-size:22.39999962px;font-style:normal;font-variant:normal;font-weight:normal;font-stretch:normal;text-align:start;writing-mode:lr-tb;text-anchor:start;fill:#508738;fill-opacity:1;fill-rule:nonzero;stroke:none;font-family:AvantGarde Md BT;-inkscape-font-specification:AvantGarde Md BT" /></g></g></g><g
   transform="translate(7.1275709,11.111161)"
   id="layer2"
   style="display:inline" />

<g style="fill-opacity:0; stroke-opacity:0">
<rect
   id="hoverrect"
   width="523.71973"
   height="122.27886"
   rx="20.352209"
   ry="37.413818"
   x="1.3756187"
   y="8.7003489"
>
</rect>
</g>

</a>

</svg>
