<?xml version="1.0" encoding="UTF-8" standalone="no"?>
<!-- Created with Inkscape (http://www.inkscape.org/) -->

<svg
   xmlns:dc="http://purl.org/dc/elements/1.1/"
   xmlns:cc="http://creativecommons.org/ns#"
   xmlns:rdf="http://www.w3.org/1999/02/22-rdf-syntax-ns#"
   xmlns:svg="http://www.w3.org/2000/svg"
   xmlns="http://www.w3.org/2000/svg"
   xmlns:sodipodi="http://sodipodi.sourceforge.net/DTD/sodipodi-0.dtd"
   xmlns:inkscape="http://www.inkscape.org/namespaces/inkscape"
   width="16"
   height="12"
   id="svg2"
   version="1.1"
   inkscape:version="0.48.4 r9939"
   sodipodi:docname="MFFloat.svg">
  <defs
     id="defs4">
    <linearGradient
       id="linearGradient4107">
      <stop
         style="stop-color:#000000;stop-opacity:1;"
         offset="0"
         id="stop4109" />
      <stop
         style="stop-color:#c8c8c8;stop-opacity:1;"
         offset="1"
         id="stop4111" />
    </linearGradient>
  </defs>
  <sodipodi:namedview
     id="base"
     pagecolor="#ffffff"
     bordercolor="#666666"
     borderopacity="1.0"
     inkscape:pageopacity="0.0"
     inkscape:pageshadow="2"
     inkscape:zoom="22.627417"
     inkscape:cx="-0.55847782"
     inkscape:cy="1.2831254"
     inkscape:document-units="px"
     inkscape:current-layer="layer3"
     showgrid="true"
     inkscape:snap-page="true"
     showguides="true"
     inkscape:guide-bbox="true"
     inkscape:window-width="1861"
     inkscape:window-height="1056"
     inkscape:window-x="59"
     inkscape:window-y="24"
     inkscape:window-maximized="1"
     inkscape:snap-bbox="true"
     showborder="false">
    <inkscape:grid
       type="xygrid"
       id="grid3066"
       empspacing="2"
       visible="true"
       enabled="true"
       snapvisiblegridlinesonly="true"
       spacingy="0.5px"
       spacingx="0.5px" />
    <sodipodi:guide
       orientation="1,0"
       position="6,6"
       id="guide3068" />
    <sodipodi:guide
       orientation="0,1"
       position="6,6"
       id="guide3070" />
    <sodipodi:guide
       orientation="1,0"
       position="11,-1"
       id="guide4103" />
    <sodipodi:guide
       orientation="0,1"
       position="11,11"
       id="guide4115" />
    <sodipodi:guide
       orientation="0,1"
       position="11,1"
       id="guide4117" />
    <sodipodi:guide
       orientation="1,0"
       position="1,1"
       id="guide4119" />
  </sodipodi:namedview>
  <metadata
     id="metadata7">
    <rdf:RDF>
      <cc:Work
         rdf:about="">
        <dc:format>image/svg+xml</dc:format>
        <dc:type
           rdf:resource="http://purl.org/dc/dcmitype/StillImage" />
        <dc:title />
      </cc:Work>
    </rdf:RDF>
  </metadata>
  <g
     inkscape:groupmode="layer"
     id="layer2"
     inkscape:label="Field"
     style="display:none"
     sodipodi:insensitive="true">
    <path
       style="font-size:13px;font-style:normal;font-variant:normal;font-weight:normal;font-stretch:normal;text-align:start;line-height:129.99999523%;letter-spacing:0px;word-spacing:0px;writing-mode:lr-tb;text-anchor:start;fill:#000000;fill-opacity:1;stroke:none;font-family:Ubuntu Condensed;-inkscape-font-specification:'Ubuntu Condensed,'"
       inkscape:connector-curvature="0"
       id="path4299"
       d="m 6.1479512,9.336028 c -2.5e-6,0.215917 -0.079798,0.408364 -0.2393854,0.577341 -0.1502046,0.168978 -0.3520391,0.253467 -0.6055041,0.253467 -0.2534682,0 -0.4553027,-0.08449 -0.6055041,-0.253467 C 4.5473541,9.744392 4.472253,9.551945 4.4722538,9.336028 4.472253,9.110726 4.5473548,8.9135847 4.6975576,8.7446057 4.847759,8.5756292 5.0495935,8.4911404 5.3030617,8.4911389 c 0.253465,1.5e-6 0.4552995,0.08449 0.6055041,0.2534668 0.1595878,0.168979 0.2393829,0.3661203 0.2393854,0.5914223" />
    <path
       sodipodi:nodetypes="ccccccsccccccsccszccccccc"
       d="M 0.5,3.7294109 C 0.99929384,3.2301252 1.5461019,3.0156337 2.2654264,3.0156249 2.950896,3.0156337 3.1669843,3.2132047 3.5308806,3.5770891 3.894769,3.932527 3.9165591,4.3504353 3.9165637,5.1120636 3.9165591,5.4675006 3.8729457,5.6731924 3.7544736,5.9947659 3.6359928,6.3163511 3.534772,6.4185301 3.357061,6.7231796 3.1793421,7.019376 3.2581395,6.9405674 3.0465774,7.236755 2.8350088,7.5329504 2.9678434,7.3141674 2.773206,7.627281 2.5785632,7.9319383 2.5264984,7.9488301 2.3826361,8.2873325 2.2387695,8.6173767 2.2045996,8.6290564 2.1707511,9.009873 l 1.7672778,-0.00986 0,0.990127 L 1.002909,10 l 0,-0.241185 C 1.0029082,9.19182 1.011689,9.032045 1.1386305,8.5919869 1.2740315,8.1519331 1.3176336,8.0588776 1.5038126,7.7034446 1.6984513,7.3480173 1.5740791,7.5414134 1.8025717,7.236755 2.0310604,6.9321044 1.9880306,6.9951773 2.1511371,6.7231796 2.3142435,6.4511819 2.4206267,6.4078205 2.6022567,6.1109726 2.7376553,5.7978621 3.0006686,5.4941884 3.0006721,5.1218264 3.0006686,4.6733146 2.9586863,4.4611101 2.7809744,4.2664623 2.6266938,4.0946172 2.4265277,3.9891595 2.0984438,3.9500892 1.7749009,3.950097 1.6868527,4.00975 1.4837517,4.1112917 1.2891098,4.2043871 1.193934,4.3260337 1.0331453,4.4783531 L 0.5,3.7294109"
       id="path4327"
       inkscape:connector-curvature="0"
       style="font-size:13px;font-style:normal;font-variant:normal;font-weight:normal;font-stretch:normal;text-align:start;line-height:129.99999523%;letter-spacing:0px;word-spacing:0px;writing-mode:lr-tb;text-anchor:start;fill:#000000;fill-opacity:1;stroke:none;font-family:Ubuntu Condensed;-inkscape-font-specification:'Ubuntu Condensed,'" />
    <path
       sodipodi:nodetypes="zzzzzzzzzzzzzzzzzzzzzzzzzzzzzzzzcz"
       inkscape:connector-curvature="0"
       id="path4301-5"
       d="M 7.0338885,5.5020647 C 7.1309457,4.9746228 7.2573676,4.5067191 7.4209667,4.1124378 7.5845657,3.7181565 7.7849718,3.441222 8.0344634,3.2675482 8.2839551,3.0938746 8.5822013,3 8.9380289,3 c 0.3558277,0 0.6710566,0.093863 0.9246554,0.2675482 0.2535987,0.1736857 0.4621677,0.4506083 0.6257667,0.8448896 0.163599,0.3942813 0.258772,0.9168725 0.324578,1.3896269 0.06581,0.4727543 0.125,0.5403949 0.125,1.4979353 0,0.9575404 -0.04747,0.95117 -0.113277,1.2989245 -0.06582,0.3477544 -0.220627,0.5260753 -0.345164,0.7797305 -0.124536,0.253657 -0.41123,0.49388 -0.6648287,0.667564 C 9.5611605,9.919904 9.2938566,10 8.9380289,10 8.5822013,10 8.2360786,9.91993 7.9865384,9.746219 7.7369932,9.572513 7.5600732,9.43778 7.4042866,9.082561 7.2485002,8.7273434 7.1543829,8.5880852 7.0495134,8.1622056 6.9446439,7.7363261 6.9614664,7.6431656 6.938029,7 6.9145914,6.3568344 6.9368312,6.0295066 7.0338885,5.5020647 z m 2.8404911,0.381271 C 9.8416614,5.3670148 9.8156587,5.1414814 9.7461204,4.8316644 9.6765821,4.5218476 9.6532014,4.4418867 9.5386819,4.3104595 9.4241622,4.1790323 9.1016278,4 8.9380289,4 8.7744301,4 8.5008806,4.1477823 8.3863613,4.2792093 8.2718421,4.4106364 8.2205625,4.5218476 8.1510277,4.8316644 8.081493,5.1414814 8.0052585,5.3670148 7.9725383,5.8833357 7.9398184,6.3996565 7.9380279,6.2302125 7.9380288,7 c 3e-7,0.7697874 -0.017742,0.3758454 0.00717,0.6148226 0.024907,0.2389771 0.092274,0.5483833 0.1930593,0.807419 0.1007855,0.2590355 0.1520642,0.2960278 0.2665836,0.427455 0.1145192,0.1314272 0.3695882,0.1503029 0.5331871,0.1503029 0.1635989,0 0.3835199,-0.01107 0.4980397,-0.1424903 C 9.5505838,8.7260841 9.6794351,8.5797147 9.7450654,8.4027103 9.8106958,8.2257059 9.8584357,8.1881957 9.8755289,8.0078125 9.8926222,7.827429 9.9453139,7.8390725 9.9380289,7 9.9307406,6.1609372 9.907098,6.3996565 9.8743796,5.8833357 z"
       style="font-size:13px;font-style:normal;font-variant:normal;font-weight:normal;font-stretch:normal;text-align:start;line-height:129.99999523%;letter-spacing:0px;word-spacing:0px;writing-mode:lr-tb;text-anchor:start;fill:#000000;fill-opacity:1;stroke:none;display:inline;font-family:Ubuntu Condensed;-inkscape-font-specification:'Ubuntu Condensed,'" />
  </g>
  <g
     inkscape:groupmode="layer"
     id="layer5"
     inkscape:label="Float"
     style="display:inline"
     sodipodi:insensitive="true">
    <path
       d="M 1.0820983,4.9815659 C 1.2604628,4.8783096 1.4266571,4.7801479 1.6191175,4.6299348 1.8115779,4.4797218 2.0129184,4.3132478 2.1913,4.1395604 2.3696817,3.965873 2.52489,3.7764446 2.6763397,3.5654012 2.8277894,3.3543577 2.8967327,3.178375 3,3 L 4,3.016223 4,10 3,10 3,4.9313056 C 2.8404072,5.1002914 2.5140512,5.3027196 2.3028174,5.4529303 2.0915835,5.603141 1.8096404,5.7231982 1.5749506,5.8546182 L 1.0820983,4.9815659"
       id="path4297"
       inkscape:connector-curvature="0"
       sodipodi:nodetypes="czzzccccczcc"
       style="font-size:13px;font-style:normal;font-variant:normal;font-weight:normal;font-stretch:normal;text-align:start;line-height:129.99999523%;letter-spacing:0px;word-spacing:0px;writing-mode:lr-tb;text-anchor:start;fill:#000000;fill-opacity:1;stroke:none;display:inline;font-family:Ubuntu Condensed;-inkscape-font-specification:'Ubuntu Condensed,'" />
    <path
       style="font-size:13px;font-style:normal;font-variant:normal;font-weight:normal;font-stretch:normal;text-align:start;line-height:129.99999523%;letter-spacing:0px;word-spacing:0px;writing-mode:lr-tb;text-anchor:start;fill:#000000;fill-opacity:1;stroke:none;display:inline;font-family:Ubuntu Condensed;-inkscape-font-specification:'Ubuntu Condensed,'"
       inkscape:connector-curvature="0"
       id="path4299-4"
       d="m 6.1479512,9.336028 c -2.5e-6,0.215917 -0.079798,0.408364 -0.2393854,0.577341 -0.1502046,0.168978 -0.3520391,0.253467 -0.6055041,0.253467 -0.2534682,0 -0.4553027,-0.08449 -0.6055041,-0.253467 C 4.5473541,9.744392 4.472253,9.551945 4.4722538,9.336028 4.472253,9.110726 4.5473548,8.9135847 4.6975576,8.7446057 4.847759,8.5756292 5.0495935,8.4911404 5.3030617,8.4911389 c 0.253465,1.5e-6 0.4552995,0.08449 0.6055041,0.2534668 0.1595878,0.168979 0.2393829,0.3661203 0.2393854,0.5914223" />
    <path
       sodipodi:nodetypes="zzzzzzzzzzzzzzzzzzzzzzzzzzzzzzzzcz"
       inkscape:connector-curvature="0"
       id="path4301-5-0"
       d="M 7.0338885,5.5020647 C 7.1309457,4.9746228 7.2573676,4.5067191 7.4209667,4.1124378 7.5845657,3.7181565 7.7849718,3.441222 8.0344634,3.2675482 8.2839551,3.0938746 8.5822013,3 8.9380289,3 c 0.3558277,0 0.6710566,0.093863 0.9246554,0.2675482 0.2535987,0.1736857 0.4621677,0.4506083 0.6257667,0.8448896 0.163599,0.3942813 0.258772,0.9168725 0.324578,1.3896269 0.06581,0.4727543 0.125,0.5403949 0.125,1.4979353 0,0.9575404 -0.04747,0.95117 -0.113277,1.2989245 -0.06582,0.3477544 -0.220627,0.5260753 -0.345164,0.7797305 -0.124536,0.253657 -0.41123,0.49388 -0.6648287,0.667564 C 9.5611605,9.919904 9.2938566,10 8.9380289,10 8.5822013,10 8.2360786,9.91993 7.9865384,9.746219 7.7369932,9.572513 7.5600732,9.43778 7.4042866,9.082561 7.2485002,8.7273434 7.1543829,8.5880852 7.0495134,8.1622056 6.9446439,7.7363261 6.9614664,7.6431656 6.938029,7 6.9145914,6.3568344 6.9368312,6.0295066 7.0338885,5.5020647 z m 2.8404911,0.381271 C 9.8416614,5.3670148 9.8156587,5.1414814 9.7461204,4.8316644 9.6765821,4.5218476 9.6532014,4.4418867 9.5386819,4.3104595 9.4241622,4.1790323 9.1016278,4 8.9380289,4 8.7744301,4 8.5008806,4.1477823 8.3863613,4.2792093 8.2718421,4.4106364 8.2205625,4.5218476 8.1510277,4.8316644 8.081493,5.1414814 8.0052585,5.3670148 7.9725383,5.8833357 7.9398184,6.3996565 7.9380279,6.2302125 7.9380288,7 c 3e-7,0.7697874 -0.017742,0.3758454 0.00717,0.6148226 0.024907,0.2389771 0.092274,0.5483833 0.1930593,0.807419 0.1007855,0.2590355 0.1520642,0.2960278 0.2665836,0.427455 0.1145192,0.1314272 0.3695882,0.1503029 0.5331871,0.1503029 0.1635989,0 0.3835199,-0.01107 0.4980397,-0.1424903 C 9.5505838,8.7260841 9.6794351,8.5797147 9.7450654,8.4027103 9.8106958,8.2257059 9.8584357,8.1881957 9.8755289,8.0078125 9.8926222,7.827429 9.9453139,7.8390725 9.9380289,7 9.9307406,6.1609372 9.907098,6.3996565 9.8743796,5.8833357 z"
       style="font-size:13px;font-style:normal;font-variant:normal;font-weight:normal;font-stretch:normal;text-align:start;line-height:129.99999523%;letter-spacing:0px;word-spacing:0px;writing-mode:lr-tb;text-anchor:start;fill:#000000;fill-opacity:1;stroke:none;display:inline;font-family:Ubuntu Condensed;-inkscape-font-specification:'Ubuntu Condensed,'" />
  </g>
  <g
     inkscape:groupmode="layer"
     id="layer3"
     inkscape:label="Array"
     style="display:inline">
    <path
       style="fill:none;stroke:#000000;stroke-width:1px;stroke-linecap:butt;stroke-linejoin:miter;stroke-opacity:1;display:inline"
       d="m 13,8.5 3,0"
       id="path3862"
       inkscape:connector-curvature="0"
       sodipodi:nodetypes="cc" />
    <path
       style="fill:none;stroke:#000000;stroke-width:1px;stroke-linecap:butt;stroke-linejoin:miter;stroke-opacity:1;display:inline"
       d="m 13,10.5 3,0"
       id="path3864"
       inkscape:connector-curvature="0"
       sodipodi:nodetypes="cc" />
    <path
       sodipodi:nodetypes="cc"
       inkscape:connector-curvature="0"
       id="path3000"
       d="m 13,6.5 3,0"
       style="fill:none;stroke:#000000;stroke-width:1px;stroke-linecap:butt;stroke-linejoin:miter;stroke-opacity:1;display:inline" />
  </g>
</svg>
