<?xml version="1.0" encoding="UTF-8" standalone="no"?>
<!-- Created with Inkscape (http://www.inkscape.org/) -->

<svg
   xmlns:dc="http://purl.org/dc/elements/1.1/"
   xmlns:cc="http://creativecommons.org/ns#"
   xmlns:rdf="http://www.w3.org/1999/02/22-rdf-syntax-ns#"
   xmlns:svg="http://www.w3.org/2000/svg"
   xmlns="http://www.w3.org/2000/svg"
   xmlns:sodipodi="http://sodipodi.sourceforge.net/DTD/sodipodi-0.dtd"
   xmlns:inkscape="http://www.inkscape.org/namespaces/inkscape"
   width="16"
   height="12"
   id="svg2"
   version="1.1"
   inkscape:version="0.48.4 r9939"
   sodipodi:docname="SFVec4d.svg">
  <defs
     id="defs4">
    <linearGradient
       id="linearGradient4389">
      <stop
         style="stop-color:#c8c8c8;stop-opacity:1;"
         offset="0"
         id="stop4391" />
      <stop
         style="stop-color:#000000;stop-opacity:1;"
         offset="1"
         id="stop4393" />
    </linearGradient>
    <linearGradient
       id="linearGradient4107">
      <stop
         style="stop-color:#000000;stop-opacity:1;"
         offset="0"
         id="stop4109" />
      <stop
         style="stop-color:#c8c8c8;stop-opacity:1;"
         offset="1"
         id="stop4111" />
    </linearGradient>
  </defs>
  <sodipodi:namedview
     id="base"
     pagecolor="#ffffff"
     bordercolor="#666666"
     borderopacity="1.0"
     inkscape:pageopacity="0.0"
     inkscape:pageshadow="2"
     inkscape:zoom="32"
     inkscape:cx="4.3561255"
     inkscape:cy="-1.126671"
     inkscape:document-units="px"
     inkscape:current-layer="text4292"
     showgrid="false"
     inkscape:snap-page="true"
     showguides="false"
     inkscape:guide-bbox="true"
     inkscape:window-width="1861"
     inkscape:window-height="1056"
     inkscape:window-x="59"
     inkscape:window-y="24"
     inkscape:window-maximized="1"
     inkscape:snap-bbox="true"
     showborder="false">
    <inkscape:grid
       type="xygrid"
       id="grid3066"
       empspacing="2"
       visible="true"
       enabled="true"
       snapvisiblegridlinesonly="true"
       spacingy="0.5px"
       spacingx="0.5px" />
    <sodipodi:guide
       orientation="1,0"
       position="6,6"
       id="guide3068" />
    <sodipodi:guide
       orientation="0,1"
       position="6,6"
       id="guide3070" />
    <sodipodi:guide
       orientation="1,0"
       position="11,-1"
       id="guide4103" />
    <sodipodi:guide
       orientation="0,1"
       position="11,11"
       id="guide4115" />
    <sodipodi:guide
       orientation="0,1"
       position="11,1"
       id="guide4117" />
    <sodipodi:guide
       orientation="1,0"
       position="1,1"
       id="guide4119" />
  </sodipodi:namedview>
  <metadata
     id="metadata7">
    <rdf:RDF>
      <cc:Work
         rdf:about="">
        <dc:format>image/svg+xml</dc:format>
        <dc:type
           rdf:resource="http://purl.org/dc/dcmitype/StillImage" />
        <dc:title />
      </cc:Work>
    </rdf:RDF>
  </metadata>
  <g
     inkscape:groupmode="layer"
     id="layer2"
     inkscape:label="Field"
     style="display:inline">
    <g
       style="font-size:13px;font-style:normal;font-variant:normal;font-weight:normal;font-stretch:normal;text-align:start;line-height:129.99999523%;letter-spacing:0px;word-spacing:0px;writing-mode:lr-tb;text-anchor:start;fill:#000000;fill-opacity:1;stroke:none;font-family:Ubuntu Condensed;-inkscape-font-specification:'Ubuntu Condensed,'"
       id="text4292"
       transform="matrix(1.0831916,0,0,1.0831916,0.04908308,-0.9313307)">
      <path
         style="line-height:129.99999523%;fill:#000000;font-family:Ubuntu Condensed;-inkscape-font-specification:'Ubuntu Condensed,'"
         inkscape:connector-curvature="0"
         id="path5153"
         d="m 3.785192,7.5929909 c 0.144512,0.2543954 0.2932777,0.5251998 0.4462972,0.812414 0.1615134,0.2872194 0.31878,0.5785393 0.4717999,0.8739605 0.153012,0.2954247 0.2975272,0.5908477 0.4335459,0.8862696 0.1360099,0.295424 0.2550223,0.578538 0.3570378,0.849342 l -1.0838647,0 C 4.2399866,10.539018 4.0402156,10.087678 3.8106947,9.6609538 3.5896685,9.2260269 3.3686452,8.8198204 3.1476246,8.4423328 2.9350997,8.8198204 2.7183271,9.2260269 2.4973058,9.6609538 2.2847816,10.087678 2.0935116,10.539018 1.923495,11.014977 l -1.04561065,0 C 0.97139392,10.744173 1.086156,10.465163 1.2221708,10.177944 1.3666854,9.8825224 1.515451,9.5870995 1.668468,9.2916747 1.821483,8.9962534 1.9744991,8.7090367 2.1275166,8.4300236 2.2890321,8.1428093 2.4420481,7.872005 2.5865652,7.6176095 l -1.64492409,-3.0650163 1.10936739,0 1.1476214,2.1910559 1.1603728,-2.1910559 1.0711133,0 -1.644924,3.0403977" />
      <path
         style="line-height:129.99999523%;fill:#000000;font-family:Ubuntu Condensed;-inkscape-font-specification:'Ubuntu Condensed,'"
         inkscape:connector-curvature="0"
         id="path5155"
         d="m 9.1866637,2.6775787 0,2.8083674 0.9231973,-0.010155 0,0.9130425 -0.9231973,0.010155 0,0.9231977 -0.9231977,0 0,-0.9231977 -1.8463954,0 0,-0.9231977 C 6.8037082,4.4036569 7.3402683,3.6293955 8.0740923,2.6775787 l 0.9942128,0 M 7.7150706,4.5138189 C 7.5493671,4.8338669 7.4875579,5.1477538 7.3402683,5.4757909 L 8.2772746,5.4859461 8.263466,3.6293955 C 8.2049428,3.7454142 7.8807709,4.1937838 7.7150706,4.5138189 z"
         sodipodi:nodetypes="ccccccccccccscccs" />
      <path
         style="fill:none;stroke:#000000;stroke-width:1px;stroke-linecap:butt;stroke-linejoin:miter;stroke-opacity:1"
         d="m 11,10.5 -3,0"
         id="path5216"
         inkscape:connector-curvature="0"
         transform="matrix(0.92319771,0,0,0.92319771,-0.04531339,0.85980237)" />
    </g>
  </g>
  <g
     inkscape:groupmode="layer"
     id="layer3"
     inkscape:label="Array"
     style="display:none"
     sodipodi:insensitive="true">
    <path
       style="fill:none;stroke:#000000;stroke-width:1px;stroke-linecap:butt;stroke-linejoin:miter;stroke-opacity:1;display:inline"
       d="m 15.5,1 0,10"
       id="path3862"
       inkscape:connector-curvature="0"
       sodipodi:nodetypes="cc" />
    <path
       style="fill:none;stroke:#000000;stroke-width:1px;stroke-linecap:butt;stroke-linejoin:miter;stroke-opacity:1;display:inline"
       d="m 13.5,1 0,10"
       id="path3864"
       inkscape:connector-curvature="0"
       sodipodi:nodetypes="cc" />
  </g>
</svg>
