<?xml version="1.0" encoding="UTF-8" standalone="no"?>
<!-- Created with Inkscape (http://www.inkscape.org/) -->

<svg
   xmlns:dc="http://purl.org/dc/elements/1.1/"
   xmlns:cc="http://creativecommons.org/ns#"
   xmlns:rdf="http://www.w3.org/1999/02/22-rdf-syntax-ns#"
   xmlns:svg="http://www.w3.org/2000/svg"
   xmlns="http://www.w3.org/2000/svg"
   xmlns:xlink="http://www.w3.org/1999/xlink"
   xmlns:sodipodi="http://sodipodi.sourceforge.net/DTD/sodipodi-0.dtd"
   xmlns:inkscape="http://www.inkscape.org/namespaces/inkscape"
   width="16"
   height="16"
   id="svg2"
   version="1.1"
   inkscape:version="0.48.4 r9939"
   sodipodi:docname="ExternProto.16.svg">
  <defs
     id="defs4">
    <linearGradient
       id="linearGradient5372">
      <stop
         style="stop-color:#323232;stop-opacity:1;"
         offset="0"
         id="stop5374" />
      <stop
         style="stop-color:#c8c8c8;stop-opacity:1;"
         offset="1"
         id="stop5376" />
    </linearGradient>
    <linearGradient
       id="linearGradient4389">
      <stop
         style="stop-color:#ffffff;stop-opacity:1;"
         offset="0"
         id="stop4391" />
      <stop
         style="stop-color:#323232;stop-opacity:1;"
         offset="1"
         id="stop4393" />
    </linearGradient>
    <linearGradient
       id="linearGradient4107">
      <stop
         style="stop-color:#000000;stop-opacity:1;"
         offset="0"
         id="stop4109" />
      <stop
         style="stop-color:#c8c8c8;stop-opacity:1;"
         offset="1"
         id="stop4111" />
    </linearGradient>
    <radialGradient
       inkscape:collect="always"
       xlink:href="#linearGradient4389-4"
       id="radialGradient4395-5"
       cx="7"
       cy="4.5"
       fx="7"
       fy="4.5"
       r="4.5"
       gradientUnits="userSpaceOnUse"
       gradientTransform="matrix(1.2222222,4.4509668e-8,-4.450967e-8,1.2222222,-1.5555552,-1.0000003)" />
    <linearGradient
       id="linearGradient4389-4">
      <stop
         style="stop-color:#ffffff;stop-opacity:1;"
         offset="0"
         id="stop4391-1" />
      <stop
         style="stop-color:#323232;stop-opacity:1;"
         offset="1"
         id="stop4393-0" />
    </linearGradient>
    <linearGradient
       inkscape:collect="always"
       xlink:href="#linearGradient5372"
       id="linearGradient5479"
       gradientUnits="userSpaceOnUse"
       gradientTransform="matrix(1.3426164,0.55612962,-0.55612989,1.3426156,4.1825051,-7.6466915)"
       x1="5.4938726"
       y1="11.014977"
       x2="5.4938726"
       y2="1.7830001" />
    <linearGradient
       inkscape:collect="always"
       xlink:href="#linearGradient5372"
       id="linearGradient4016"
       gradientUnits="userSpaceOnUse"
       gradientTransform="matrix(1.3426164,0.55612962,-0.55612989,1.3426156,4.1825051,-3.6466915)"
       x1="5.4938726"
       y1="11.014977"
       x2="5.4938726"
       y2="1.7830001" />
    <linearGradient
       inkscape:collect="always"
       xlink:href="#linearGradient5372"
       id="linearGradient4530"
       gradientUnits="userSpaceOnUse"
       gradientTransform="matrix(1.6061206,0.66527656,-0.66527687,1.6061196,3.4332771,-5.9324907)"
       x1="5.4938726"
       y1="11.014977"
       x2="5.4938726"
       y2="1.7830001" />
  </defs>
  <sodipodi:namedview
     id="base"
     pagecolor="#ffffff"
     bordercolor="#666666"
     borderopacity="1.0"
     inkscape:pageopacity="0.0"
     inkscape:pageshadow="2"
     inkscape:zoom="22.627417"
     inkscape:cx="0.29225033"
     inkscape:cy="4.4888565"
     inkscape:document-units="px"
     inkscape:current-layer="layer2"
     showgrid="true"
     inkscape:snap-page="true"
     showguides="false"
     inkscape:guide-bbox="true"
     inkscape:window-width="1855"
     inkscape:window-height="1056"
     inkscape:window-x="65"
     inkscape:window-y="24"
     inkscape:window-maximized="1"
     inkscape:snap-bbox="true"
     showborder="true"
     inkscape:snap-nodes="true"
     inkscape:object-nodes="false">
    <inkscape:grid
       type="xygrid"
       id="grid3066"
       empspacing="2"
       visible="true"
       enabled="true"
       snapvisiblegridlinesonly="true"
       spacingy="0.5px"
       spacingx="0.5px" />
    <sodipodi:guide
       orientation="1,0"
       position="6,6"
       id="guide3068" />
    <sodipodi:guide
       orientation="0,1"
       position="6,6"
       id="guide3070" />
    <sodipodi:guide
       orientation="1,0"
       position="11,-1"
       id="guide4103" />
    <sodipodi:guide
       orientation="0,1"
       position="11,11"
       id="guide4115" />
    <sodipodi:guide
       orientation="0,1"
       position="11,1"
       id="guide4117" />
    <sodipodi:guide
       orientation="1,0"
       position="1,1"
       id="guide4119" />
  </sodipodi:namedview>
  <metadata
     id="metadata7">
    <rdf:RDF>
      <cc:Work
         rdf:about="">
        <dc:format>image/svg+xml</dc:format>
        <dc:type
           rdf:resource="http://purl.org/dc/dcmitype/StillImage" />
        <dc:title></dc:title>
      </cc:Work>
    </rdf:RDF>
  </metadata>
  <g
     inkscape:groupmode="layer"
     id="layer2"
     inkscape:label="Prototype"
     style="display:inline"
     transform="translate(0,4)">
    <path
       style="font-size:13px;font-style:normal;font-variant:normal;font-weight:normal;font-stretch:normal;text-align:start;line-height:129.99999523%;letter-spacing:0px;word-spacing:0px;writing-mode:lr-tb;text-anchor:start;fill:url(#linearGradient4530);fill-opacity:1;stroke:none;font-family:Ubuntu Condensed;-inkscape-font-specification:'Ubuntu Condensed,'"
       d="m 7.21875,0 -0.8125,2.34375 -1.328125,0.5 L 5,5 3.1875,5.078125 2.34375,6.40625 0,7.21875 l 0,1.5625 2.34375,0.8125 0.53125,1.25 -1.125,2.28125 1.125,1.125 2.28125,-1.125 1.25,0.53125 0.8125,2.34375 1.5625,0 0.8125,-2.34375 1.25,-0.53125 2.28125,1.125 1.125,-1.125 -1.125,-2.28125 0.53125,-1.25 L 16,8.78125 16,7.21875 13.65625,6.40625 13.125,5.15625 14.25,2.875 13.125,1.75 10.84375,2.875 9.59375,2.34375 8.78125,0 z M 8,4.78125 c 0.8214775,0 1.6544838,0.3107342 2.28125,0.9375 1.253533,1.253532 1.253533,3.3089686 0,4.5625 -1.2535326,1.253532 -3.3089678,1.253532 -4.5625,0 -1.2535327,-1.2535314 -1.2535327,-3.3089683 0,-4.5625 C 6.3455162,5.091984 7.1785226,4.78125 8,4.78125 z"
       transform="translate(0,-4)"
       id="path3244"
       inkscape:connector-curvature="0"
       sodipodi:nodetypes="ccccccccccccccccccccccccccccccccssssss" />
    <path
       style="font-size:13px;font-style:normal;font-variant:normal;font-weight:normal;font-stretch:normal;text-align:start;line-height:129.99999523%;letter-spacing:0px;word-spacing:0px;writing-mode:lr-tb;text-anchor:start;fill:none;stroke:#000000;stroke-width:0.59999996;stroke-miterlimit:4;stroke-opacity:1;stroke-dasharray:none;font-family:Ubuntu Condensed;-inkscape-font-specification:'Ubuntu Condensed,'"
       d="m 3.0625,5.25 -0.5,1.1875 -2.25,0.8125 0,1.5 2.25,0.8125 0.5,1.1875 L 2,12.9375 3.0625,14 5.25,12.9375 l 1.1875,0.5 0.8125,2.25 1.5,0 0.8125,-2.25 1.1875,-0.5 L 12.9375,14 14,12.9375 12.9375,10.75 l 0.5,-1.1875 2.25,-0.8125 0,-1.5 -2.25,-0.8125 L 12.9375,5.25 14,3.0625 12.9375,2 10.75,3.0625 9.5625,2.5625 8.75,0.3125 l -1.5,0 -0.8125,2.25 -1.1875,0.5 M 8,4.90625 c 0.7906722,0 1.5842381,0.3029879 2.1875,0.90625 1.206526,1.2065246 1.206526,3.1684758 0,4.375 -1.2065246,1.206524 -3.1684752,1.206524 -4.375,0 -1.2065253,-1.2065242 -1.2065253,-3.1684757 0,-4.375 C 6.4157625,5.2092377 7.2093279,4.90625 8,4.90625 z"
       transform="translate(0,-4)"
       id="path5332"
       inkscape:connector-curvature="0"
       sodipodi:nodetypes="ccccccccccccccccccccccccccccccssssss" />
  </g>
  <g
     inkscape:groupmode="layer"
     id="layer1"
     inkscape:label="Extern"
     style="display:inline"
     transform="translate(0,4)">
    <path
       style="font-size:13px;font-style:normal;font-variant:normal;font-weight:normal;font-stretch:normal;text-align:start;line-height:129.99999523%;letter-spacing:0px;word-spacing:0px;writing-mode:lr-tb;text-anchor:start;fill:#000000;fill-opacity:1;stroke:none;display:inline;font-family:Ubuntu Condensed;-inkscape-font-specification:'Ubuntu Condensed,'"
       d="M 4,-4 0,0 4,0 z"
       id="path4017"
       inkscape:connector-curvature="0"
       sodipodi:nodetypes="cccc" />
  </g>
</svg>
