<?xml version="1.0" encoding="UTF-8" standalone="no"?>
<!-- Created with Inkscape (http://www.inkscape.org/) -->

<svg
   xmlns:dc="http://purl.org/dc/elements/1.1/"
   xmlns:cc="http://creativecommons.org/ns#"
   xmlns:rdf="http://www.w3.org/1999/02/22-rdf-syntax-ns#"
   xmlns:svg="http://www.w3.org/2000/svg"
   xmlns="http://www.w3.org/2000/svg"
   xmlns:sodipodi="http://sodipodi.sourceforge.net/DTD/sodipodi-0.dtd"
   xmlns:inkscape="http://www.inkscape.org/namespaces/inkscape"
   width="210mm"
   height="297mm"
   viewBox="0 0 210 297"
   version="1.1"
   id="svg8"
   inkscape:version="0.92.2 2405546, 2018-03-11"
   sodipodi:docname="colors.svg">
  <defs
     id="defs2" />
  <sodipodi:namedview
     id="base"
     pagecolor="#ffffff"
     bordercolor="#666666"
     borderopacity="1.0"
     inkscape:pageopacity="0.0"
     inkscape:pageshadow="2"
     inkscape:zoom="0.49497475"
     inkscape:cx="263.91304"
     inkscape:cy="639.32528"
     inkscape:document-units="mm"
     inkscape:current-layer="layer1"
     showgrid="false"
     inkscape:snap-bbox="true"
     inkscape:bbox-nodes="true"
     inkscape:window-width="1465"
     inkscape:window-height="708"
     inkscape:window-x="286"
     inkscape:window-y="278"
     inkscape:window-maximized="0" />
  <metadata
     id="metadata5">
    <rdf:RDF>
      <cc:Work
         rdf:about="">
        <dc:format>image/svg+xml</dc:format>
        <dc:type
           rdf:resource="http://purl.org/dc/dcmitype/StillImage" />
        <dc:title></dc:title>
      </cc:Work>
    </rdf:RDF>
  </metadata>
  <g
     inkscape:label="Ebene 1"
     inkscape:groupmode="layer"
     id="layer1"
     style="display:inline">
    <path
       style="opacity:1;fill:#000000;fill-opacity:0.94117647;stroke:none;stroke-width:0.79374993;stroke-linecap:round;stroke-miterlimit:4;stroke-dasharray:none;stroke-dashoffset:0;stroke-opacity:1"
       d="m 24.854256,20.277469 h 19.985143 c 0.004,0 0.0074,0.004 0.0074,0.009 v 19.98197 c 0,0.005 -0.0031,0.009 -0.0074,0.009 H 24.854256 c -0.004,0 -0.0074,-0.004 -0.0074,-0.009 v -19.98197 c 0,-0.005 0.0031,-0.009 0.0074,-0.009 z"
       id="rect815"
       inkscape:connector-curvature="0" />
    <path
       style="display:inline;opacity:1;fill:#abb2bf;fill-opacity:1;stroke:none;stroke-width:0.79374993;stroke-linecap:round;stroke-miterlimit:4;stroke-dasharray:none;stroke-dashoffset:0;stroke-opacity:1"
       d="m 24.854256,40.277439 h 19.985143 c 0.004,0 0.0074,0.004 0.0074,0.009 v 19.98197 c 0,0.005 -0.0031,0.009 -0.0074,0.009 H 24.854256 c -0.004,0 -0.0074,-0.004 -0.0074,-0.009 v -19.98197 c 0,-0.005 0.0031,-0.009 0.0074,-0.009 z"
       id="rect815-3"
       inkscape:connector-curvature="0" />
    <path
       style="display:inline;opacity:1;fill:#61afef;fill-opacity:1;stroke:none;stroke-width:0.79374993;stroke-linecap:round;stroke-miterlimit:4;stroke-dasharray:none;stroke-dashoffset:0;stroke-opacity:1"
       d="m 24.854256,60.277409 h 19.985143 c 0.004,0 0.0074,0.004 0.0074,0.009 v 19.98197 c 0,0.005 -0.0031,0.009 -0.0074,0.009 H 24.854256 c -0.004,0 -0.0074,-0.004 -0.0074,-0.009 v -19.98197 c 0,-0.005 0.0031,-0.009 0.0074,-0.009 z"
       id="rect815-3-6"
       inkscape:connector-curvature="0" />
    <path
       style="display:inline;opacity:1;fill:#e06c75;fill-opacity:1;stroke:none;stroke-width:0.79374993;stroke-linecap:round;stroke-miterlimit:4;stroke-dasharray:none;stroke-dashoffset:0;stroke-opacity:1"
       d="m 24.854654,80.277379 h 19.985145 c 0.004,0 0.007,0.004 0.007,0.009 v 19.981971 c 0,0.005 -0.003,0.009 -0.007,0.009 H 24.854654 c -0.004,0 -0.0074,-0.004 -0.0074,-0.009 V 80.286379 c 0,-0.005 0.0031,-0.009 0.0074,-0.009 z"
       id="rect815-3-6-7"
       inkscape:connector-curvature="0"
       inkscape:transform-center-x="17.238885"
       inkscape:transform-center-y="2.6726953" />
    <path
       style="display:inline;opacity:1;fill:#6ce0dd;fill-opacity:1;stroke:none;stroke-width:0.79374993;stroke-linecap:round;stroke-miterlimit:4;stroke-dasharray:none;stroke-dashoffset:0;stroke-opacity:1"
       d="m 24.854254,100.27735 h 19.98514 c 0.004,0 0.007,0.004 0.007,0.009 v 19.98197 c 0,0.005 -0.003,0.009 -0.007,0.009 h -19.98514 c -0.004,0 -0.007,-0.004 -0.007,-0.009 v -19.98197 c 0,-0.005 0.003,-0.009 0.007,-0.009 z"
       id="rect815-3-6-7-5"
       inkscape:connector-curvature="0"
       inkscape:transform-center-x="17.238885"
       inkscape:transform-center-y="2.6726953" />
    <path
       style="display:inline;opacity:1;fill:#98c379;fill-opacity:1;stroke:none;stroke-width:0.79374993;stroke-linecap:round;stroke-miterlimit:4;stroke-dasharray:none;stroke-dashoffset:0;stroke-opacity:1"
       d="m 24.854254,120.27732 h 19.98514 c 0.004,0 0.007,0.004 0.007,0.009 v 19.98197 c 0,0.005 -0.003,0.009 -0.007,0.009 h -19.98514 c -0.004,0 -0.007,-0.004 -0.007,-0.009 v -19.98197 c 0,-0.005 0.003,-0.009 0.007,-0.009 z"
       id="rect815-3-6-7-5-3"
       inkscape:connector-curvature="0"
       inkscape:transform-center-x="17.238885"
       inkscape:transform-center-y="2.6726953" />
    <path
       style="display:inline;opacity:1;fill:#d19a66;fill-opacity:1;stroke:none;stroke-width:0.79374993;stroke-linecap:round;stroke-miterlimit:4;stroke-dasharray:none;stroke-dashoffset:0;stroke-opacity:1"
       d="m 24.854254,140.27729 h 19.98514 c 0.004,0 0.007,0.004 0.007,0.009 v 19.98197 c 0,0.005 -0.003,0.009 -0.007,0.009 h -19.98514 c -0.004,0 -0.007,-0.004 -0.007,-0.009 v -19.98197 c 0,-0.005 0.003,-0.009 0.007,-0.009 z"
       id="rect815-3-6-7-5-3-5"
       inkscape:connector-curvature="0"
       inkscape:transform-center-x="17.238885"
       inkscape:transform-center-y="2.6726953" />
    <path
       style="display:inline;opacity:1;fill:#ba32a2;fill-opacity:1;stroke:none;stroke-width:0.79374993;stroke-linecap:round;stroke-miterlimit:4;stroke-dasharray:none;stroke-dashoffset:0;stroke-opacity:1"
       d="m 24.854254,160.27726 h 19.98514 c 0.004,0 0.007,0.004 0.007,0.009 v 19.98197 c 0,0.005 -0.003,0.009 -0.007,0.009 h -19.98514 c -0.004,0 -0.007,-0.004 -0.007,-0.009 v -19.98197 c 0,-0.005 0.003,-0.009 0.007,-0.009 z"
       id="rect815-3-6-7-5-3-5-6"
       inkscape:connector-curvature="0"
       inkscape:transform-center-x="17.238885"
       inkscape:transform-center-y="2.6726953" />
    <path
       style="display:inline;opacity:1;fill:#e5c07b;fill-opacity:1;stroke:none;stroke-width:0.79374993;stroke-linecap:round;stroke-miterlimit:4;stroke-dasharray:none;stroke-dashoffset:0;stroke-opacity:1"
       d="m 24.854254,180.27723 h 19.98514 c 0.004,0 0.007,0.004 0.007,0.009 v 19.98197 c 0,0.005 -0.003,0.009 -0.007,0.009 h -19.98514 c -0.004,0 -0.007,-0.004 -0.007,-0.009 v -19.98197 c 0,-0.005 0.003,-0.009 0.007,-0.009 z"
       id="rect815-3-6-7-5-3-5-6-2"
       inkscape:connector-curvature="0"
       inkscape:transform-center-x="17.238885"
       inkscape:transform-center-y="2.6726953" />
    <path
       style="display:inline;opacity:1;fill:#c678dd;fill-opacity:1;stroke:none;stroke-width:0.79374993;stroke-linecap:round;stroke-miterlimit:4;stroke-dasharray:none;stroke-dashoffset:0;stroke-opacity:1"
       d="m 24.854254,200.2772 h 19.98514 c 0.004,0 0.007,0.004 0.007,0.009 v 19.98197 c 0,0.005 -0.003,0.009 -0.007,0.009 h -19.98514 c -0.004,0 -0.007,-0.004 -0.007,-0.009 V 200.2862 c 0,-0.005 0.003,-0.009 0.007,-0.009 z"
       id="rect815-3-6-7-5-3-5-6-2-9"
       inkscape:connector-curvature="0"
       inkscape:transform-center-x="17.238885"
       inkscape:transform-center-y="2.6726953" />
    <path
       style="display:inline;opacity:1;fill:#5c6370;fill-opacity:1;stroke:none;stroke-width:0.79374993;stroke-linecap:round;stroke-miterlimit:4;stroke-dasharray:none;stroke-dashoffset:0;stroke-opacity:1"
       d="m 24.854254,220.27717 h 19.98514 c 0.004,0 0.007,0.004 0.007,0.009 v 19.98197 c 0,0.005 -0.003,0.009 -0.007,0.009 h -19.98514 c -0.004,0 -0.007,-0.004 -0.007,-0.009 v -19.98197 c 0,-0.005 0.003,-0.009 0.007,-0.009 z"
       id="rect815-3-6-7-5-3-5-6-2-9-1"
       inkscape:connector-curvature="0"
       inkscape:transform-center-x="17.238885"
       inkscape:transform-center-y="2.6726953" />
    <path
       style="display:inline;opacity:1;fill:#99394e;fill-opacity:1;stroke:none;stroke-width:0.79374993;stroke-linecap:round;stroke-miterlimit:4;stroke-dasharray:none;stroke-dashoffset:0;stroke-opacity:1"
       d="m 24.854254,240.27714 h 19.98514 c 0.004,0 0.007,0.004 0.007,0.009 v 19.98197 c 0,0.005 -0.003,0.009 -0.007,0.009 h -19.98514 c -0.004,0 -0.007,-0.004 -0.007,-0.009 v -19.98197 c 0,-0.005 0.003,-0.009 0.007,-0.009 z"
       id="rect815-3-6-7-5-3-5-6-2-9-1-2"
       inkscape:connector-curvature="0"
       inkscape:transform-center-x="17.238885"
       inkscape:transform-center-y="2.6726953" />
    <path
       style="display:inline;opacity:1;fill:#dd78cb;fill-opacity:1;stroke:none;stroke-width:0.79374993;stroke-linecap:round;stroke-miterlimit:4;stroke-dasharray:none;stroke-dashoffset:0;stroke-opacity:1"
       d="m 24.854254,260.27711 h 19.98514 c 0.004,0 0.007,0.004 0.007,0.009 v 19.98197 c 0,0.005 -0.003,0.009 -0.007,0.009 h -19.98514 c -0.004,0 -0.007,-0.004 -0.007,-0.009 v -19.98197 c 0,-0.005 0.003,-0.009 0.007,-0.009 z"
       id="rect815-3-6-7-5-3-5-6-2-9-1-2-7"
       inkscape:connector-curvature="0"
       inkscape:transform-center-x="17.238885"
       inkscape:transform-center-y="2.6726953" />
    <path
       style="display:inline;opacity:1;fill:#2c323c;fill-opacity:1;stroke:none;stroke-width:0.79374993;stroke-linecap:round;stroke-miterlimit:4;stroke-dasharray:none;stroke-dashoffset:0;stroke-opacity:1"
       d="m 24.854254,280.27708 h 19.98514 c 0.004,0 0.007,0.004 0.007,0.009 v 19.98197 c 0,0.005 -0.003,0.009 -0.007,0.009 h -19.98514 c -0.004,0 -0.007,-0.004 -0.007,-0.009 v -19.98197 c 0,-0.005 0.003,-0.009 0.007,-0.009 z"
       id="rect815-3-6-7-5-3-5-6-2-9-1-2-7-0"
       inkscape:connector-curvature="0"
       inkscape:transform-center-x="17.238885"
       inkscape:transform-center-y="2.6726953" />
    <path
       style="display:inline;opacity:1;fill:#777d88;fill-opacity:1;stroke:none;stroke-width:0.79374993;stroke-linecap:round;stroke-miterlimit:4;stroke-dasharray:none;stroke-dashoffset:0;stroke-opacity:1"
       d="m 24.854254,300.27705 h 19.98514 c 0.004,0 0.007,0.004 0.007,0.009 v 19.98197 c 0,0.005 -0.003,0.009 -0.007,0.009 h -19.98514 c -0.004,0 -0.007,-0.004 -0.007,-0.009 v -19.98197 c 0,-0.005 0.003,-0.009 0.007,-0.009 z"
       id="rect815-3-6-7-5-3-5-6-2-9-1-2-7-0-9"
       inkscape:connector-curvature="0"
       inkscape:transform-center-x="17.238885"
       inkscape:transform-center-y="2.6726953" />
    <path
       style="display:inline;opacity:1;fill:#282c34;fill-opacity:1;stroke:none;stroke-width:0.79374993;stroke-linecap:round;stroke-miterlimit:4;stroke-dasharray:none;stroke-dashoffset:0;stroke-opacity:1"
       d="m 24.854254,320.27702 h 19.98514 c 0.004,0 0.007,0.004 0.007,0.009 v 19.98197 c 0,0.005 -0.003,0.009 -0.007,0.009 h -19.98514 c -0.004,0 -0.007,-0.004 -0.007,-0.009 v -19.98197 c 0,-0.005 0.003,-0.009 0.007,-0.009 z"
       id="rect815-3-6-7-5-3-5-6-2-9-1-2-7-0-9-3"
       inkscape:connector-curvature="0"
       inkscape:transform-center-x="17.238885"
       inkscape:transform-center-y="2.6726953" />
    <path
       style="display:inline;opacity:1;fill:#000000;fill-opacity:0.94117647;stroke:none;stroke-width:0.79374993;stroke-linecap:round;stroke-miterlimit:4;stroke-dasharray:none;stroke-dashoffset:0;stroke-opacity:1"
       d="m 44.853799,20.277469 h 19.98514 c 0.004,0 0.007,0.004 0.007,0.009 v 19.98197 c 0,0.005 -0.003,0.009 -0.007,0.009 h -19.98514 c -0.004,0 -0.007,-0.004 -0.007,-0.009 v -19.98197 c 0,-0.005 0.003,-0.009 0.007,-0.009 z"
       id="rect815-6"
       inkscape:connector-curvature="0" />
    <path
       style="display:inline;opacity:1;fill:#abb2bf;fill-opacity:1;stroke:none;stroke-width:0.79374993;stroke-linecap:round;stroke-miterlimit:4;stroke-dasharray:none;stroke-dashoffset:0;stroke-opacity:1"
       d="m 44.853799,40.277439 h 19.98514 c 0.004,0 0.007,0.004 0.007,0.009 v 19.98197 c 0,0.005 -0.003,0.009 -0.007,0.009 h -19.98514 c -0.004,1e-6 -0.007,-0.004 -0.007,-0.009 v -19.98197 c 0,-0.005 0.003,-0.009 0.007,-0.009 z"
       id="rect815-3-0"
       inkscape:connector-curvature="0" />
    <path
       style="display:inline;opacity:1;fill:#2ca2ff;fill-opacity:1;stroke:none;stroke-width:0.79374993;stroke-linecap:round;stroke-miterlimit:4;stroke-dasharray:none;stroke-dashoffset:0;stroke-opacity:1"
       d="m 44.853799,60.27741 h 19.98514 c 0.004,0 0.007,0.004 0.007,0.009 v 19.981971 c 0,0.005 -0.003,0.009 -0.007,0.009 h -19.98514 c -0.004,0 -0.007,-0.004 -0.007,-0.009 V 60.286409 c 0,-0.005 0.003,-0.009 0.007,-0.009 z"
       id="rect815-3-6-6"
       inkscape:connector-curvature="0" />
    <path
       style="display:inline;opacity:1;fill:#ee414f;fill-opacity:1;stroke:none;stroke-width:0.79374993;stroke-linecap:round;stroke-miterlimit:4;stroke-dasharray:none;stroke-dashoffset:0;stroke-opacity:1"
       d="m 44.854199,80.277381 h 19.98514 c 0.004,0 0.007,0.004 0.007,0.009 v 19.981979 c 0,0.005 -0.003,0.009 -0.007,0.009 h -19.98514 c -0.004,0 -0.007,-0.004 -0.007,-0.009 V 80.286377 c 0,-0.005 0.003,-0.009 0.007,-0.009 z"
       id="rect815-3-6-7-2"
       inkscape:connector-curvature="0"
       inkscape:transform-center-x="17.238885"
       inkscape:transform-center-y="2.6726953" />
    <path
       style="display:inline;opacity:1;fill:#63e9e6;fill-opacity:1;stroke:none;stroke-width:0.79374993;stroke-linecap:round;stroke-miterlimit:4;stroke-dasharray:none;stroke-dashoffset:0;stroke-opacity:1"
       d="m 44.853799,100.27736 h 19.98514 c 0.004,0 0.007,0.004 0.007,0.009 v 19.98197 c 0,0.005 -0.003,0.009 -0.007,0.009 h -19.98514 c -0.004,0 -0.007,-0.004 -0.007,-0.009 v -19.98198 c 0,-0.005 0.003,-0.009 0.007,-0.009 z"
       id="rect815-3-6-7-5-6"
       inkscape:connector-curvature="0"
       inkscape:transform-center-x="17.238885"
       inkscape:transform-center-y="2.6726953" />
    <path
       style="display:inline;opacity:1;fill:#65bf25;fill-opacity:1;stroke:none;stroke-width:0.79374993;stroke-linecap:round;stroke-miterlimit:4;stroke-dasharray:none;stroke-dashoffset:0;stroke-opacity:1"
       d="m 44.853799,120.27733 h 19.98514 c 0.004,0 0.007,0.004 0.007,0.009 v 19.98197 c 0,0.005 -0.003,0.009 -0.007,0.009 h -19.98514 c -0.004,0 -0.007,-0.004 -0.007,-0.009 v -19.98197 c 0,-0.005 0.003,-0.009 0.007,-0.009 z"
       id="rect815-3-6-7-5-3-1"
       inkscape:connector-curvature="0"
       inkscape:transform-center-x="17.238885"
       inkscape:transform-center-y="2.6726953" />
    <path
       style="display:inline;opacity:1;fill:#f2a020;fill-opacity:1;stroke:none;stroke-width:0.79374993;stroke-linecap:round;stroke-miterlimit:4;stroke-dasharray:none;stroke-dashoffset:0;stroke-opacity:1"
       d="m 44.853799,140.27729 h 19.98514 c 0.004,0 0.007,0.004 0.007,0.009 v 19.98197 c 0,0.005 -0.003,0.009 -0.007,0.009 h -19.98514 c -0.004,0 -0.007,-0.004 -0.007,-0.009 v -19.98197 c 0,-0.005 0.003,-0.009 0.007,-0.009 z"
       id="rect815-3-6-7-5-3-5-8"
       inkscape:connector-curvature="0"
       inkscape:transform-center-x="17.238885"
       inkscape:transform-center-y="2.6726953" />
    <path
       style="display:inline;opacity:1;fill:#ba32a2;fill-opacity:1;stroke:none;stroke-width:0.79374993;stroke-linecap:round;stroke-miterlimit:4;stroke-dasharray:none;stroke-dashoffset:0;stroke-opacity:1"
       d="m 44.853799,160.27726 h 19.98514 c 0.004,0 0.007,0.004 0.007,0.009 v 19.98197 c 0,0.005 -0.003,0.009 -0.007,0.009 h -19.98514 c -0.004,0 -0.007,-0.004 -0.007,-0.009 v -19.98197 c 0,-0.005 0.003,-0.009 0.007,-0.009 z"
       id="rect815-3-6-7-5-3-5-6-7"
       inkscape:connector-curvature="0"
       inkscape:transform-center-x="17.238885"
       inkscape:transform-center-y="2.6726953" />
    <path
       style="display:inline;opacity:1;fill:#f5c136;fill-opacity:1;stroke:none;stroke-width:0.79374993;stroke-linecap:round;stroke-miterlimit:4;stroke-dasharray:none;stroke-dashoffset:0;stroke-opacity:1"
       d="m 44.853799,180.27723 h 19.98514 c 0.004,0 0.007,0.004 0.007,0.009 v 19.98197 c 0,0.005 -0.003,0.009 -0.007,0.009 h -19.98514 c -0.004,0 -0.007,-0.004 -0.007,-0.009 v -19.98197 c 0,-0.005 0.003,-0.009 0.007,-0.009 z"
       id="rect815-3-6-7-5-3-5-6-2-92"
       inkscape:connector-curvature="0"
       inkscape:transform-center-x="17.238885"
       inkscape:transform-center-y="2.6726953" />
    <path
       style="display:inline;opacity:1;fill:#9453dc;fill-opacity:1;stroke:none;stroke-width:0.79374993;stroke-linecap:round;stroke-miterlimit:4;stroke-dasharray:none;stroke-dashoffset:0;stroke-opacity:1"
       d="m 44.853799,200.2772 h 19.98514 c 0.004,0 0.007,0.004 0.007,0.009 v 19.98197 c 0,0.005 -0.003,0.009 -0.007,0.009 h -19.98514 c -0.004,0 -0.007,-0.004 -0.007,-0.009 V 200.2862 c 0,-0.005 0.003,-0.009 0.007,-0.009 z"
       id="rect815-3-6-7-5-3-5-6-2-9-0"
       inkscape:connector-curvature="0"
       inkscape:transform-center-x="17.238885"
       inkscape:transform-center-y="2.6726953" />
    <path
       style="display:inline;opacity:1;fill:#5c6370;fill-opacity:1;stroke:none;stroke-width:0.79374993;stroke-linecap:round;stroke-miterlimit:4;stroke-dasharray:none;stroke-dashoffset:0;stroke-opacity:1"
       d="m 44.853799,220.27717 h 19.98514 c 0.004,0 0.007,0.004 0.007,0.009 v 19.98197 c 0,0.005 -0.003,0.009 -0.007,0.009 h -19.98514 c -0.004,0 -0.007,-0.004 -0.007,-0.009 v -19.98197 c 0,-0.005 0.003,-0.009 0.007,-0.009 z"
       id="rect815-3-6-7-5-3-5-6-2-9-1-23"
       inkscape:connector-curvature="0"
       inkscape:transform-center-x="17.238885"
       inkscape:transform-center-y="2.6726953" />
    <path
       style="display:inline;opacity:1;fill:#ad2543;fill-opacity:1;stroke:none;stroke-width:0.79374993;stroke-linecap:round;stroke-miterlimit:4;stroke-dasharray:none;stroke-dashoffset:0;stroke-opacity:1"
       d="m 44.853799,240.27714 h 19.98514 c 0.004,0 0.007,0.004 0.007,0.009 v 19.98197 c 0,0.005 -0.003,0.009 -0.007,0.009 h -19.98514 c -0.004,0 -0.007,-0.004 -0.007,-0.009 v -19.98197 c 0,-0.005 0.003,-0.009 0.007,-0.009 z"
       id="rect815-3-6-7-5-3-5-6-2-9-1-2-75"
       inkscape:connector-curvature="0"
       inkscape:transform-center-x="17.238885"
       inkscape:transform-center-y="2.6726953" />
    <path
       style="display:inline;opacity:1;fill:#ee6fd8;fill-opacity:1;stroke:none;stroke-width:0.79374993;stroke-linecap:round;stroke-miterlimit:4;stroke-dasharray:none;stroke-dashoffset:0;stroke-opacity:1"
       d="m 44.853799,260.27711 h 19.98514 c 0.004,0 0.007,0.004 0.007,0.009 v 19.98197 c 0,0.005 -0.003,0.009 -0.007,0.009 h -19.98514 c -0.004,0 -0.007,-0.004 -0.007,-0.009 v -19.98197 c 0,-0.005 0.003,-0.009 0.007,-0.009 z"
       id="rect815-3-6-7-5-3-5-6-2-9-1-2-7-9"
       inkscape:connector-curvature="0"
       inkscape:transform-center-x="17.238885"
       inkscape:transform-center-y="2.6726953" />
    <path
       style="display:inline;opacity:1;fill:#2c323c;fill-opacity:1;stroke:none;stroke-width:0.79374993;stroke-linecap:round;stroke-miterlimit:4;stroke-dasharray:none;stroke-dashoffset:0;stroke-opacity:1"
       d="m 44.853799,280.27708 h 19.98514 c 0.004,0 0.007,0.004 0.007,0.009 v 19.98197 c 0,0.005 -0.003,0.009 -0.007,0.009 h -19.98514 c -0.004,0 -0.007,-0.004 -0.007,-0.009 v -19.98197 c 0,-0.005 0.003,-0.009 0.007,-0.009 z"
       id="rect815-3-6-7-5-3-5-6-2-9-1-2-7-0-2"
       inkscape:connector-curvature="0"
       inkscape:transform-center-x="17.238885"
       inkscape:transform-center-y="2.6726953" />
    <path
       style="display:inline;opacity:1;fill:#777d88;fill-opacity:1;stroke:none;stroke-width:0.79374993;stroke-linecap:round;stroke-miterlimit:4;stroke-dasharray:none;stroke-dashoffset:0;stroke-opacity:1"
       d="m 44.853799,300.27704 h 19.98514 c 0.004,0 0.007,0.004 0.007,0.009 v 19.98197 c 0,0.005 -0.003,0.009 -0.007,0.009 h -19.98514 c -0.004,0 -0.007,-0.004 -0.007,-0.009 v -19.98197 c 0,-0.005 0.003,-0.009 0.007,-0.009 z"
       id="rect815-3-6-7-5-3-5-6-2-9-1-2-7-0-9-2"
       inkscape:connector-curvature="0"
       inkscape:transform-center-x="17.238885"
       inkscape:transform-center-y="2.6726953" />
    <path
       style="display:inline;opacity:1;fill:#282c34;fill-opacity:1;stroke:none;stroke-width:0.79374993;stroke-linecap:round;stroke-miterlimit:4;stroke-dasharray:none;stroke-dashoffset:0;stroke-opacity:1"
       d="m 44.853799,320.27703 h 19.98514 c 0.004,0 0.007,0.004 0.007,0.009 V 340.268 c 0,0.005 -0.003,0.009 -0.007,0.009 h -19.98514 c -0.004,0 -0.007,-0.004 -0.007,-0.009 v -19.98197 c 0,-0.005 0.003,-0.009 0.007,-0.009 z"
       id="rect815-3-6-7-5-3-5-6-2-9-1-2-7-0-9-3-8"
       inkscape:connector-curvature="0"
       inkscape:transform-center-x="17.238885"
       inkscape:transform-center-y="2.6726953" />
  </g>
</svg>
