  0
SECTION
  2
HEADER
  9
$ACADVER
  1
AC1014
  9
$HANDSEED
  5
FFFF
  9
$MEASUREMENT
 70
     1
  0
ENDSEC
  0
SECTION
  2
TABLES
  0
TABLE
  2
VPORT
  5
8
330
0
100
AcDbSymbolTable
 70
     4
  0
VPORT
  5
2E
330
8
100
AcDbSymbolTableRecord
100
AcDbViewportTableRecord
  2
*ACTIVE
 70
     0
 10
0.0
 20
0.0
 11
1.0
 21
1.0
 12
210.0
 22
148.5
 13
0.0
 23
0.0
 14
10.0
 24
10.0
 15
10.0
 25
10.0
 16
0.0
 26
0.0
 36
1.0
 17
0.0
 27
0.0
 37
0.0
 40
341.0
 41
1.24
 42
50.0
 43
0.0
 44
0.0
 50
0.0
 51
0.0
 71
     0
 72
   100
 73
     1
 74
     3
 75
     0
 76
     0
 77
     0
 78
     0
  0
ENDTAB
  0
TABLE
  2
LTYPE
  5
5
330
0
100
AcDbSymbolTable
 70
     1
  0
LTYPE
  5
14
330
5
100
AcDbSymbolTableRecord
100
AcDbLinetypeTableRecord
  2
BYBLOCK
 70
     0
  3

 72
    65
 73
     0
 40
0.0
  0
LTYPE
  5
15
330
5
100
AcDbSymbolTableRecord
100
AcDbLinetypeTableRecord
  2
BYLAYER
 70
     0
  3

 72
    65
 73
     0
 40
0.0
  0
LTYPE
  5
16
330
5
100
AcDbSymbolTableRecord
100
AcDbLinetypeTableRecord
  2
CONTINUOUS
 70
     0
  3
Solid line
 72
    65
 73
     0
 40
0.0
  0
ENDTAB
  0
TABLE
  2
LAYER
  5
2
100
AcDbSymbolTable
 70
3
  0
LAYER
  5
50
100
AcDbSymbolTableRecord
100
AcDbLayerTableRecord
  2
0
 70
0
  6
CONTINUOUS
  0
LAYER
  5
51
100
AcDbSymbolTableRecord
100
AcDbLayerTableRecord
  2
Original
 70
0
  6
CONTINUOUS
  0
LAYER
  5
52
100
AcDbSymbolTableRecord
100
AcDbLayerTableRecord
  2
Ebene
 70
0
  6
CONTINUOUS
  0
ENDTAB
  0
TABLE
  2
STYLE
  5
3
330
0
100
AcDbSymbolTable
 70
     1
  0
STYLE
  5
11
330
3
100
AcDbSymbolTableRecord
100
AcDbTextStyleTableRecord
  2
STANDARD
 70
     0
 40
0.0
 41
1.0
 50
0.0
 71
     0
 42
2.5
  3
txt
  4

  0
ENDTAB
  0
TABLE
  2
VIEW
  5
6
330
0
100
AcDbSymbolTable
 70
     0
  0
ENDTAB
  0
TABLE
  2
UCS
  5
7
330
0
100
AcDbSymbolTable
 70
     0
  0
ENDTAB
  0
TABLE
  2
APPID
  5
9
330
0
100
AcDbSymbolTable
 70
     2
  0
APPID
  5
12
330
9
100
AcDbSymbolTableRecord
100
AcDbRegAppTableRecord
  2
ACAD
 70
     0
  0
ENDTAB
  0
TABLE
  2
DIMSTYLE
  5
A
330
0
100
AcDbSymbolTable
 70
     1
  0
DIMSTYLE
105
27
330
A
100
AcDbSymbolTableRecord
100
AcDbDimStyleTableRecord
  2
ISO-25
 70
     0
  3

  4

  5

  6

  7

 40
1.0
 41
2.5
 42
0.625
 43
3.75
 44
1.25
 45
0.0
 46
0.0
 47
0.0
 48
0.0
140
2.5
141
2.5
142
0.0
143
0.03937007874016
144
1.0
145
0.0
146
1.0
147
0.625
 71
     0
 72
     0
 73
     0
 74
     0
 75
     0
 76
     0
 77
     1
 78
     8
170
     0
171
     3
172
     1
173
     0
174
     0
175
     0
176
     0
177
     0
178
     0
270
     2
271
     2
272
     2
273
     2
274
     3
340
11
275
     0
280
     0
281
     0
282
     0
283
     0
284
     8
285
     0
286
     0
287
     3
288
     0
  0
ENDTAB
  0
TABLE
  2
BLOCK_RECORD
  5
1
330
0
100
AcDbSymbolTable
 70
     1
  0
BLOCK_RECORD
  5
1F
330
1
100
AcDbSymbolTableRecord
100
AcDbBlockTableRecord
  2
*MODEL_SPACE
  0
BLOCK_RECORD
  5
1B
330
1
100
AcDbSymbolTableRecord
100
AcDbBlockTableRecord
  2
*PAPER_SPACE
  0
ENDTAB
  0
ENDSEC
  0
SECTION
  2
BLOCKS
  0
BLOCK
  5
20
330
1F
100
AcDbEntity
  8
0
100
AcDbBlockBegin
  2
*MODEL_SPACE
 70
     0
 10
0.0
 20
0.0
 30
0.0
  3
*MODEL_SPACE
  1

  0
ENDBLK
  5
21
330
1F
100
AcDbEntity
  8
0
100
AcDbBlockEnd
  0
BLOCK
  5
1C
330
1B
100
AcDbEntity
 67
     1
  8
0
100
AcDbBlockBegin
  2
*PAPER_SPACE
  1

  0
ENDBLK
  5
1D
330
1B
100
AcDbEntity
 67
     1
  8
0
100
AcDbBlockEnd
  0
ENDSEC
  0
SECTION
  2
ENTITIES
  0
SPLINE
  5
100
100
AcDbEntity
  8
Original
 62
1
100
AcDbSpline
 70
8
 71
3
 72
8
 73
4
 74
0
 40
0
 40
0
 40
0
 40
0
 40
1
 40
1
 40
1
 40
1
 10
215.594663
 20
709.757919
 30
0.0
 10
197.555601
 20
678.811566
 30
0.0
 10
187.370715
 20
642.830131
 30
0.0
 10
187.370715
 20
604.427262
 30
0.0
  0
SPLINE
  5
101
100
AcDbEntity
  8
Original
 62
1
100
AcDbSpline
 70
8
 71
3
 72
8
 73
4
 74
0
 40
0
 40
0
 40
0
 40
0
 40
1
 40
1
 40
1
 40
1
 10
187.370715
 20
604.427262
 30
0.0
 10
187.370715
 20
488.835949
 30
0.0
 10
281.022794
 20
395.088070
 30
0.0
 10
396.577038
 20
394.929950
 30
0.0
  0
SPLINE
  5
102
100
AcDbEntity
  8
Original
 62
1
100
AcDbSpline
 70
8
 71
3
 72
8
 73
4
 74
0
 40
0
 40
0
 40
0
 40
0
 40
1
 40
1
 40
1
 40
1
 10
396.577038
 20
394.929950
 30
0.0
 10
396.674680
 20
394.929810
 30
0.0
 10
396.770283
 20
394.929950
 30
0.0
 10
396.867902
 20
394.929950
 30
0.0
  0
SPLINE
  5
103
100
AcDbEntity
  8
Original
 62
1
100
AcDbSpline
 70
8
 71
3
 72
8
 73
4
 74
0
 40
0
 40
0
 40
0
 40
0
 40
1
 40
1
 40
1
 40
1
 10
396.867902
 20
394.929950
 30
0.0
 10
414.906948
 20
425.876227
 30
0.0
 10
425.091836
 20
461.857717
 30
0.0
 10
425.091836
 20
500.260540
 30
0.0
  0
SPLINE
  5
104
100
AcDbEntity
  8
Original
 62
1
100
AcDbSpline
 70
8
 71
3
 72
8
 73
4
 74
0
 40
0
 40
0
 40
0
 40
0
 40
1
 40
1
 40
1
 40
1
 10
425.091836
 20
500.260540
 30
0.0
 10
425.091836
 20
615.851881
 30
0.0
 10
331.439839
 20
709.599778
 30
0.0
 10
215.885506
 20
709.757919
 30
0.0
  0
SPLINE
  5
105
100
AcDbEntity
  8
Original
 62
1
100
AcDbSpline
 70
8
 71
3
 72
8
 73
4
 74
0
 40
0
 40
0
 40
0
 40
0
 40
1
 40
1
 40
1
 40
1
 10
215.885506
 20
709.757919
 30
0.0
 10
215.858764
 20
709.717731
 30
0.0
 10
215.618730
 20
709.797946
 30
0.0
 10
215.594663
 20
709.757919
 30
0.0
  0
SPLINE
  5
106
100
AcDbEntity
  8
Original
 62
1
100
AcDbSpline
 70
8
 71
3
 72
8
 73
4
 74
0
 40
0
 40
0
 40
0
 40
0
 40
1
 40
1
 40
1
 40
1
 10
396.577038
 20
395.220934
 30
0.0
 10
280.888125
 20
395.220934
 30
0.0
 10
187.079742
 20
301.412540
 30
0.0
 10
187.079742
 20
185.723551
 30
0.0
  0
SPLINE
  5
107
100
AcDbEntity
  8
Original
 62
1
100
AcDbSpline
 70
8
 71
3
 72
8
 73
4
 74
0
 40
0
 40
0
 40
0
 40
0
 40
1
 40
1
 40
1
 40
1
 10
187.079742
 20
185.723551
 30
0.0
 10
187.079742
 20
147.646086
 30
0.0
 10
197.256135
 20
112.034541
 30
0.0
 10
215.012703
 20
81.265910
 30
0.0
  0
SPLINE
  5
108
100
AcDbEntity
  8
Original
 62
1
100
AcDbSpline
 70
8
 71
3
 72
8
 73
4
 74
0
 40
0
 40
0
 40
0
 40
0
 40
1
 40
1
 40
1
 40
1
 10
215.012703
 20
81.265910
 30
0.0
 10
215.110328
 20
81.265780
 30
0.0
 10
215.205934
 20
81.265910
 30
0.0
 10
215.303548
 20
81.265910
 30
0.0
  0
SPLINE
  5
109
100
AcDbEntity
  8
Original
 62
1
100
AcDbSpline
 70
8
 71
3
 72
8
 73
4
 74
0
 40
0
 40
0
 40
0
 40
0
 40
1
 40
1
 40
1
 40
1
 10
215.303548
 20
81.265910
 30
0.0
 10
330.992530
 20
81.265910
 30
0.0
 10
424.800858
 20
175.074240
 30
0.0
 10
424.800858
 20
290.763227
 30
0.0
  0
SPLINE
  5
10a
100
AcDbEntity
  8
Original
 62
1
100
AcDbSpline
 70
8
 71
3
 72
8
 73
4
 74
0
 40
0
 40
0
 40
0
 40
0
 40
1
 40
1
 40
1
 40
1
 10
424.800858
 20
290.763227
 30
0.0
 10
424.800858
 20
328.840692
 30
0.0
 10
414.624511
 20
364.452161
 30
0.0
 10
396.867902
 20
395.220934
 30
0.0
  0
SPLINE
  5
10b
100
AcDbEntity
  8
Original
 62
1
100
AcDbSpline
 70
8
 71
3
 72
8
 73
4
 74
0
 40
0
 40
0
 40
0
 40
0
 40
1
 40
1
 40
1
 40
1
 10
396.867902
 20
395.220934
 30
0.0
 10
396.770283
 20
395.220998
 30
0.0
 10
396.674680
 20
395.220934
 30
0.0
 10
396.577038
 20
395.220934
 30
0.0
  0
LWPOLYLINE
  5
10c
100
AcDbEntity
  8
Original
 62
1
100
AcDbPolyline
 90
2
 70
0
 10
215.594663
 20
709.757919
 30
0.0
 10
215.594663
 20
709.757919
 30
0.0
  0
SPLINE
  5
10d
100
AcDbEntity
  8
Original
 62
1
100
AcDbSpline
 70
8
 71
3
 72
8
 73
4
 74
0
 40
0
 40
0
 40
0
 40
0
 40
1
 40
1
 40
1
 40
1
 10
578.141415
 20
499.678561
 30
0.0
 10
500.672842
 20
499.678561
 30
0.0
 10
433.109744
 20
457.744265
 30
0.0
 10
396.868039
 20
395.220934
 30
0.0
  0
SPLINE
  5
10e
100
AcDbEntity
  8
Original
 62
1
100
AcDbSpline
 70
8
 71
3
 72
8
 73
4
 74
0
 40
0
 40
0
 40
0
 40
0
 40
1
 40
1
 40
1
 40
1
 10
396.868039
 20
395.220934
 30
0.0
 10
433.060397
 20
332.506639
 30
0.0
 10
500.820930
 20
290.181256
 30
0.0
 10
578.432370
 20
290.181256
 30
0.0
  0
SPLINE
  5
10f
100
AcDbEntity
  8
Original
 62
1
100
AcDbSpline
 70
8
 71
3
 72
8
 73
4
 74
0
 40
0
 40
0
 40
0
 40
0
 40
1
 40
1
 40
1
 40
1
 10
578.432370
 20
290.181256
 30
0.0
 10
655.900943
 20
290.181256
 30
0.0
 10
723.464018
 20
332.406555
 30
0.0
 10
759.705746
 20
394.929950
 30
0.0
  0
SPLINE
  5
110
100
AcDbEntity
  8
Original
 62
1
100
AcDbSpline
 70
8
 71
3
 72
8
 73
4
 74
0
 40
0
 40
0
 40
0
 40
0
 40
1
 40
1
 40
1
 40
1
 10
759.705746
 20
394.929950
 30
0.0
 10
723.513365
 20
457.644233
 30
0.0
 10
655.752832
 20
499.678561
 30
0.0
 10
578.141415
 20
499.678561
 30
0.0
  0
LWPOLYLINE
  5
111
100
AcDbEntity
  8
Original
 62
1
100
AcDbPolyline
 90
2
 70
0
 10
396.577038
 20
395.220934
 30
0.0
 10
396.577038
 20
395.220934
 30
0.0
  0
SPLINE
  5
112
100
AcDbEntity
  8
Original
 62
2
100
AcDbSpline
 70
8
 71
3
 72
8
 73
4
 74
0
 40
0
 40
0
 40
0
 40
0
 40
1
 40
1
 40
1
 40
1
 10
272.915831
 20
736.461702
 30
0.0
 10
249.777034
 20
709.117891
 30
0.0
 10
233.498783
 20
675.451707
 30
0.0
 10
226.830216
 20
637.632260
 30
0.0
  0
SPLINE
  5
113
100
AcDbEntity
  8
Original
 62
2
100
AcDbSpline
 70
8
 71
3
 72
8
 73
4
 74
0
 40
0
 40
0
 40
0
 40
0
 40
1
 40
1
 40
1
 40
1
 10
226.830216
 20
637.632260
 30
0.0
 10
206.757966
 20
523.797068
 30
0.0
 10
282.708036
 20
415.210874
 30
0.0
 10
396.479351
 20
394.989382
 30
0.0
  0
SPLINE
  5
114
100
AcDbEntity
  8
Original
 62
2
100
AcDbSpline
 70
8
 71
3
 72
8
 73
4
 74
0
 40
0
 40
0
 40
0
 40
0
 40
1
 40
1
 40
1
 40
1
 10
396.479351
 20
394.989382
 30
0.0
 10
396.575573
 20
394.969299
 30
0.0
 10
396.669917
 20
394.955988
 30
0.0
 10
396.766207
 20
394.935899
 30
0.0
  0
SPLINE
  5
115
100
AcDbEntity
  8
Original
 62
2
100
AcDbSpline
 70
8
 71
3
 72
8
 73
4
 74
0
 40
0
 40
0
 40
0
 40
0
 40
1
 40
1
 40
1
 40
1
 10
396.766207
 20
394.935899
 30
0.0
 10
419.904979
 20
422.279606
 30
0.0
 10
436.183251
 20
455.945813
 30
0.0
 10
442.851811
 20
493.765263
 30
0.0
  0
SPLINE
  5
116
100
AcDbEntity
  8
Original
 62
2
100
AcDbSpline
 70
8
 71
3
 72
8
 73
4
 74
0
 40
0
 40
0
 40
0
 40
0
 40
1
 40
1
 40
1
 40
1
 10
442.851811
 20
493.765263
 30
0.0
 10
462.924038
 20
607.600517
 30
0.0
 10
386.973991
 20
716.186635
 30
0.0
 10
273.202658
 20
736.408187
 30
0.0
  0
SPLINE
  5
117
100
AcDbEntity
  8
Original
 62
2
100
AcDbSpline
 70
8
 71
3
 72
8
 73
4
 74
0
 40
0
 40
0
 40
0
 40
0
 40
1
 40
1
 40
1
 40
1
 10
273.202658
 20
736.408187
 30
0.0
 10
273.169262
 20
736.368159
 30
0.0
 10
272.947256
 20
736.495730
 30
0.0
 10
272.915831
 20
736.461702
 30
0.0
  0
LWPOLYLINE
  5
118
100
AcDbEntity
  8
Original
 62
1
100
AcDbPolyline
 90
2
 70
0
 10
578.141415
 20
499.678561
 30
0.0
 10
578.141415
 20
499.678561
 30
0.0
  0
SPLINE
  5
119
100
AcDbEntity
  8
Original
 62
2
100
AcDbSpline
 70
8
 71
3
 72
8
 73
4
 74
0
 40
0
 40
0
 40
0
 40
0
 40
1
 40
1
 40
1
 40
1
 10
396.529912
 20
395.275954
 30
0.0
 10
282.598524
 20
415.365119
 30
0.0
 10
173.925654
 20
339.271566
 30
0.0
 10
153.836491
 20
225.340173
 30
0.0
  0
SPLINE
  5
11a
100
AcDbEntity
  8
Original
 62
2
100
AcDbSpline
 70
8
 71
3
 72
8
 73
4
 74
0
 40
0
 40
0
 40
0
 40
0
 40
1
 40
1
 40
1
 40
1
 10
153.836491
 20
225.340173
 30
0.0
 10
147.224425
 20
187.841124
 30
0.0
 10
151.062275
 20
151.003540
 30
0.0
 10
163.206214
 20
117.618891
 30
0.0
  0
SPLINE
  5
11b
100
AcDbEntity
  8
Original
 62
2
100
AcDbSpline
 70
8
 71
3
 72
8
 73
4
 74
0
 40
0
 40
0
 40
0
 40
0
 40
1
 40
1
 40
1
 40
1
 10
163.206214
 20
117.618891
 30
0.0
 10
163.302433
 20
117.598808
 30
0.0
 10
163.396759
 20
117.585495
 30
0.0
 10
163.493042
 20
117.565406
 30
0.0
  0
SPLINE
  5
11c
100
AcDbEntity
  8
Original
 62
2
100
AcDbSpline
 70
8
 71
3
 72
8
 73
4
 74
0
 40
0
 40
0
 40
0
 40
0
 40
1
 40
1
 40
1
 40
1
 10
163.493042
 20
117.565406
 30
0.0
 10
277.424497
 20
97.476245
 30
0.0
 10
386.097302
 20
173.569809
 30
0.0
 10
406.186451
 20
287.501199
 30
0.0
  0
SPLINE
  5
11d
100
AcDbEntity
  8
Original
 62
2
100
AcDbSpline
 70
8
 71
3
 72
8
 73
4
 74
0
 40
0
 40
0
 40
0
 40
0
 40
1
 40
1
 40
1
 40
1
 10
406.186451
 20
287.501199
 30
0.0
 10
412.798520
 20
325.000238
 30
0.0
 10
408.960690
 20
361.837833
 30
0.0
 10
396.816722
 20
395.222485
 30
0.0
  0
SPLINE
  5
11e
100
AcDbEntity
  8
Original
 62
2
100
AcDbSpline
 70
8
 71
3
 72
8
 73
4
 74
0
 40
0
 40
0
 40
0
 40
0
 40
1
 40
1
 40
1
 40
1
 10
396.816722
 20
395.222485
 30
0.0
 10
396.720501
 20
395.242567
 30
0.0
 10
396.626180
 20
395.255878
 30
0.0
 10
396.529912
 20
395.275968
 30
0.0
  0
LWPOLYLINE
  5
11f
100
AcDbEntity
  8
Original
 62
2
100
AcDbPolyline
 90
2
 70
0
 10
272.915831
 20
736.461702
 30
0.0
 10
272.915831
 20
736.461702
 30
0.0
  0
SPLINE
  5
120
100
AcDbEntity
  8
Original
 62
2
100
AcDbSpline
 70
8
 71
3
 72
8
 73
4
 74
0
 40
0
 40
0
 40
0
 40
0
 40
1
 40
1
 40
1
 40
1
 10
593.474759
 20
466.618398
 30
0.0
 10
517.183173
 20
480.070603
 30
0.0
 10
443.364635
 20
450.505562
 30
0.0
 10
396.816470
 20
395.225413
 30
0.0
  0
SPLINE
  5
121
100
AcDbEntity
  8
Original
 62
2
100
AcDbSpline
 70
8
 71
3
 72
8
 73
4
 74
0
 40
0
 40
0
 40
0
 40
0
 40
1
 40
1
 40
1
 40
1
 10
396.816470
 20
395.225413
 30
0.0
 10
421.568753
 20
327.179176
 30
0.0
 10
480.950146
 20
273.730298
 30
0.0
 10
557.382470
 20
260.253211
 30
0.0
  0
SPLINE
  5
122
100
AcDbEntity
  8
Original
 62
2
100
AcDbSpline
 70
8
 71
3
 72
8
 73
4
 74
0
 40
0
 40
0
 40
0
 40
0
 40
1
 40
1
 40
1
 40
1
 10
557.382470
 20
260.253211
 30
0.0
 10
633.674147
 20
246.800934
 30
0.0
 10
707.543154
 20
276.652555
 30
0.0
 10
754.091296
 20
331.932767
 30
0.0
  0
SPLINE
  5
123
100
AcDbEntity
  8
Original
 62
2
100
AcDbSpline
 70
8
 71
3
 72
8
 73
4
 74
0
 40
0
 40
0
 40
0
 40
0
 40
1
 40
1
 40
1
 40
1
 10
754.091296
 20
331.932767
 30
0.0
 10
729.339013
 20
399.979005
 30
0.0
 10
669.907174
 20
453.141246
 30
0.0
 10
593.474759
 20
466.618398
 30
0.0
  0
LWPOLYLINE
  5
124
100
AcDbEntity
  8
Original
 62
2
100
AcDbPolyline
 90
2
 70
0
 10
396.529912
 20
395.275968
 30
0.0
 10
396.529912
 20
395.275954
 30
0.0
  0
SPLINE
  5
125
100
AcDbEntity
  8
Original
 62
2
100
AcDbSpline
 70
8
 71
3
 72
8
 73
4
 74
0
 40
0
 40
0
 40
0
 40
0
 40
1
 40
1
 40
1
 40
1
 10
334.003178
 20
752.806060
 30
0.0
 10
306.467703
 20
729.895751
 30
0.0
 10
284.590654
 20
699.567672
 30
0.0
 10
271.456165
 20
663.480787
 30
0.0
  0
SPLINE
  5
126
100
AcDbEntity
  8
Original
 62
2
100
AcDbSpline
 70
8
 71
3
 72
8
 73
4
 74
0
 40
0
 40
0
 40
0
 40
0
 40
1
 40
1
 40
1
 40
1
 10
271.456165
 20
663.480787
 30
0.0
 10
231.921583
 20
554.860503
 30
0.0
 10
287.862062
 20
434.735390
 30
0.0
 10
396.393503
 20
395.064873
 30
0.0
  0
SPLINE
  5
127
100
AcDbEntity
  8
Original
 62
2
100
AcDbSpline
 70
8
 71
3
 72
8
 73
4
 74
0
 40
0
 40
0
 40
0
 40
0
 40
1
 40
1
 40
1
 40
1
 10
396.393503
 20
395.064873
 30
0.0
 10
396.485099
 20
395.031477
 30
0.0
 10
396.575390
 20
394.998083
 30
0.0
 10
396.666963
 20
394.965198
 30
0.0
  0
SPLINE
  5
128
100
AcDbEntity
  8
Original
 62
2
100
AcDbSpline
 70
8
 71
3
 72
8
 73
4
 74
0
 40
0
 40
0
 40
0
 40
0
 40
1
 40
1
 40
1
 40
1
 10
396.666963
 20
394.965198
 30
0.0
 10
424.202438
 20
417.875527
 30
0.0
 10
446.079405
 20
448.203597
 30
0.0
 10
459.213985
 20
484.290459
 30
0.0
  0
SPLINE
  5
129
100
AcDbEntity
  8
Original
 62
2
100
AcDbSpline
 70
8
 71
3
 72
8
 73
4
 74
0
 40
0
 40
0
 40
0
 40
0
 40
1
 40
1
 40
1
 40
1
 10
459.213985
 20
484.290459
 30
0.0
 10
498.748569
 20
592.910819
 30
0.0
 10
442.808074
 20
713.035891
 30
0.0
 10
334.276639
 20
752.706403
 30
0.0
  0
SPLINE
  5
12a
100
AcDbEntity
  8
Original
 62
2
100
AcDbSpline
 70
8
 71
3
 72
8
 73
4
 74
0
 40
0
 40
0
 40
0
 40
0
 40
1
 40
1
 40
1
 40
1
 10
334.276639
 20
752.706403
 30
0.0
 10
334.243229
 20
752.672994
 30
0.0
 10
334.040618
 20
752.836767
 30
0.0
 10
334.003178
 20
752.806060
 30
0.0
  0
LWPOLYLINE
  5
12b
100
AcDbEntity
  8
Original
 62
2
100
AcDbPolyline
 90
2
 70
0
 10
593.474759
 20
466.618398
 30
0.0
 10
593.474759
 20
466.618398
 30
0.0
  0
SPLINE
  5
12c
100
AcDbEntity
  8
Original
 62
2
100
AcDbSpline
 70
8
 71
3
 72
8
 73
4
 74
0
 40
0
 40
0
 40
0
 40
0
 40
1
 40
1
 40
1
 40
1
 10
396.492999
 20
395.338342
 30
0.0
 10
287.780952
 20
434.906281
 30
0.0
 10
167.545591
 20
378.839581
 30
0.0
 10
127.977653
 20
270.127535
 30
0.0
  0
SPLINE
  5
12d
100
AcDbEntity
  8
Original
 62
2
100
AcDbSpline
 70
8
 71
3
 72
8
 73
4
 74
0
 40
0
 40
0
 40
0
 40
0
 40
1
 40
1
 40
1
 40
1
 10
127.977653
 20
270.127535
 30
0.0
 10
114.954355
 20
234.346366
 30
0.0
 10
112.337185
 20
197.401996
 30
0.0
 10
118.499412
 20
162.415745
 30
0.0
  0
SPLINE
  5
12e
100
AcDbEntity
  8
Original
 62
2
100
AcDbSpline
 70
8
 71
3
 72
8
 73
4
 74
0
 40
0
 40
0
 40
0
 40
0
 40
1
 40
1
 40
1
 40
1
 10
118.499412
 20
162.415745
 30
0.0
 10
118.591024
 20
162.382349
 30
0.0
 10
118.681283
 20
162.348827
 30
0.0
 10
118.772883
 20
162.316073
 30
0.0
  0
SPLINE
  5
12f
100
AcDbEntity
  8
Original
 62
2
100
AcDbSpline
 70
8
 71
3
 72
8
 73
4
 74
0
 40
0
 40
0
 40
0
 40
0
 40
1
 40
1
 40
1
 40
1
 10
118.772883
 20
162.316073
 30
0.0
 10
227.484990
 20
122.748120
 30
0.0
 10
347.720286
 20
178.814832
 30
0.0
 10
387.288234
 20
287.526866
 30
0.0
  0
SPLINE
  5
130
100
AcDbEntity
  8
Original
 62
2
100
AcDbSpline
 70
8
 71
3
 72
8
 73
4
 74
0
 40
0
 40
0
 40
0
 40
0
 40
1
 40
1
 40
1
 40
1
 10
387.288234
 20
287.526866
 30
0.0
 10
400.311525
 20
323.308048
 30
0.0
 10
402.928700
 20
360.252408
 30
0.0
 10
396.766459
 20
395.238670
 30
0.0
  0
SPLINE
  5
131
100
AcDbEntity
  8
Original
 62
2
100
AcDbSpline
 70
8
 71
3
 72
8
 73
4
 74
0
 40
0
 40
0
 40
0
 40
0
 40
1
 40
1
 40
1
 40
1
 10
396.766459
 20
395.238670
 30
0.0
 10
396.674840
 20
395.272063
 30
0.0
 10
396.584595
 20
395.305459
 30
0.0
 10
396.492999
 20
395.338342
 30
0.0
  0
LWPOLYLINE
  5
132
100
AcDbEntity
  8
Original
 62
2
100
AcDbPolyline
 90
2
 70
0
 10
334.003178
 20
752.806060
 30
0.0
 10
334.003178
 20
752.806060
 30
0.0
  0
SPLINE
  5
133
100
AcDbEntity
  8
Original
 62
2
100
AcDbSpline
 70
8
 71
3
 72
8
 73
4
 74
0
 40
0
 40
0
 40
0
 40
0
 40
1
 40
1
 40
1
 40
1
 10
602.834321
 20
431.397792
 30
0.0
 10
530.037697
 20
457.893558
 30
0.0
 10
452.206748
 20
441.596115
 30
0.0
 10
396.766459
 20
395.238784
 30
0.0
  0
SPLINE
  5
134
100
AcDbEntity
  8
Original
 62
2
100
AcDbSpline
 70
8
 71
3
 72
8
 73
4
 74
0
 40
0
 40
0
 40
0
 40
0
 40
1
 40
1
 40
1
 40
1
 10
396.766459
 20
395.238784
 30
0.0
 10
409.326617
 20
323.928099
 30
0.0
 10
458.524564
 20
260.979870
 30
0.0
 10
531.455421
 20
234.435150
 30
0.0
  0
SPLINE
  5
135
100
AcDbEntity
  8
Original
 62
2
100
AcDbSpline
 70
8
 71
3
 72
8
 73
4
 74
0
 40
0
 40
0
 40
0
 40
0
 40
1
 40
1
 40
1
 40
1
 10
531.455421
 20
234.435150
 30
0.0
 10
604.252113
 20
207.939385
 30
0.0
 10
682.182559
 20
224.510221
 30
0.0
 10
737.622917
 20
270.867565
 30
0.0
  0
SPLINE
  5
136
100
AcDbEntity
  8
Original
 62
2
100
AcDbSpline
 70
8
 71
3
 72
8
 73
4
 74
0
 40
0
 40
0
 40
0
 40
0
 40
1
 40
1
 40
1
 40
1
 10
737.622917
 20
270.867565
 30
0.0
 10
725.062690
 20
342.178237
 30
0.0
 10
675.765247
 20
404.853075
 30
0.0
 10
602.834321
 20
431.397792
 30
0.0
  0
LWPOLYLINE
  5
137
100
AcDbEntity
  8
Original
 62
2
100
AcDbPolyline
 90
2
 70
0
 10
396.492999
 20
395.338342
 30
0.0
 10
396.492999
 20
395.338342
 30
0.0
  0
LWPOLYLINE
  5
138
100
AcDbEntity
  8
Original
 62
2
100
AcDbPolyline
 90
2
 70
0
 10
602.834321
 20
431.397792
 30
0.0
 10
602.834321
 20
431.397792
 30
0.0
  0
SPLINE
  5
139
100
AcDbEntity
  8
Ebene
 62
7
100
AcDbSpline
 70
8
 71
3
 72
8
 73
4
 74
0
 40
0
 40
0
 40
0
 40
0
 40
1
 40
1
 40
1
 40
1
 10
199.850000
 20
724.275000
 30
0.0
 10
198.958240
 20
723.265552
 30
0.0
 10
198.070904
 20
722.139528
 30
0.0
 10
197.250000
 20
720.775000
 30
0.0
  0
LWPOLYLINE
  5
13a
100
AcDbEntity
  8
Ebene
 62
7
100
AcDbPolyline
 90
2
 70
0
 10
204.425000
 20
731.175000
 30
0.0
 10
199.850000
 20
724.275000
 30
0.0
  0
SPLINE
  5
13b
100
AcDbEntity
  8
Ebene
 62
7
100
AcDbSpline
 70
8
 71
3
 72
8
 73
4
 74
0
 40
0
 40
0
 40
0
 40
0
 40
1
 40
1
 40
1
 40
1
 10
197.100080
 20
720.525000
 30
0.0
 10
177.191776
 20
686.371936
 30
0.0
 10
165.975080
 20
646.610800
 30
0.0
 10
165.975080
 20
604.425000
 30
0.0
  0
SPLINE
  5
13c
100
AcDbEntity
  8
Ebene
 62
7
100
AcDbSpline
 70
8
 71
3
 72
8
 73
4
 74
0
 40
0
 40
0
 40
0
 40
0
 40
1
 40
1
 40
1
 40
1
 10
165.975080
 20
604.425000
 30
0.0
 10
165.975080
 20
511.921368
 30
0.0
 10
220.760200
 20
431.958328
 30
0.0
 10
299.550080
 20
395.150000
 30
0.0
  0
SPLINE
  5
13d
100
AcDbEntity
  8
Ebene
 62
7
100
AcDbSpline
 70
8
 71
3
 72
8
 73
4
 74
0
 40
0
 40
0
 40
0
 40
0
 40
1
 40
1
 40
1
 40
1
 10
299.550080
 20
395.150000
 30
0.0
 10
220.609216
 20
358.401128
 30
0.0
 10
165.675080
 20
278.339160
 30
0.0
 10
165.675080
 20
185.725000
 30
0.0
  0
SPLINE
  5
13e
100
AcDbEntity
  8
Ebene
 62
7
100
AcDbSpline
 70
8
 71
3
 72
8
 73
4
 74
0
 40
0
 40
0
 40
0
 40
0
 40
1
 40
1
 40
1
 40
1
 10
165.675080
 20
185.725000
 30
0.0
 10
165.675080
 20
143.835464
 30
0.0
 10
176.915080
 20
104.468624
 30
0.0
 10
196.475080
 20
70.575000
 30
0.0
  0
LWPOLYLINE
  5
13f
100
AcDbEntity
  8
Ebene
 62
7
100
AcDbPolyline
 90
3
 70
0
 10
197.250000
 20
720.775000
 30
0.0
 10
197.175040
 20
720.650000
 30
0.0
 10
197.100080
 20
720.525000
 30
0.0
  0
SPLINE
  5
140
100
AcDbEntity
  8
Ebene
 62
7
100
AcDbSpline
 70
8
 71
3
 72
8
 73
4
 74
0
 40
0
 40
0
 40
0
 40
0
 40
1
 40
1
 40
1
 40
1
 10
214.975080
 20
59.875000
 30
0.0
 10
215.109720
 20
59.874824
 30
0.0
 10
215.221176
 20
59.875000
 30
0.0
 10
215.300080
 20
59.875000
 30
0.0
  0
SPLINE
  5
141
100
AcDbEntity
  8
Ebene
 62
7
100
AcDbSpline
 70
8
 71
3
 72
8
 73
4
 74
0
 40
0
 40
0
 40
0
 40
0
 40
1
 40
1
 40
1
 40
1
 10
215.300080
 20
59.875000
 30
0.0
 10
342.555104
 20
59.875000
 30
0.0
 10
446.200080
 20
163.519976
 30
0.0
 10
446.200080
 20
290.775000
 30
0.0
  0
SPLINE
  5
142
100
AcDbEntity
  8
Ebene
 62
7
100
AcDbSpline
 70
8
 71
3
 72
8
 73
4
 74
0
 40
0
 40
0
 40
0
 40
0
 40
1
 40
1
 40
1
 40
1
 10
446.200080
 20
290.775000
 30
0.0
 10
446.200080
 20
297.713672
 30
0.0
 10
445.778480
 20
304.538080
 30
0.0
 10
445.175080
 20
311.325000
 30
0.0
  0
SPLINE
  5
143
100
AcDbEntity
  8
Ebene
 62
7
100
AcDbSpline
 70
8
 71
3
 72
8
 73
4
 74
0
 40
0
 40
0
 40
0
 40
0
 40
1
 40
1
 40
1
 40
1
 10
445.175080
 20
311.325000
 30
0.0
 10
482.864840
 20
284.597368
 30
0.0
 10
528.830192
 20
268.775000
 30
0.0
 10
578.425080
 20
268.775000
 30
0.0
  0
SPLINE
  5
144
100
AcDbEntity
  8
Ebene
 62
7
100
AcDbSpline
 70
8
 71
3
 72
8
 73
4
 74
0
 40
0
 40
0
 40
0
 40
0
 40
1
 40
1
 40
1
 40
1
 10
578.425080
 20
268.775000
 30
0.0
 10
663.668336
 20
268.775000
 30
0.0
 10
738.293576
 20
315.311096
 30
0.0
 10
778.225080
 20
384.200000
 30
0.0
  0
LWPOLYLINE
  5
145
100
AcDbEntity
  8
Ebene
 62
7
100
AcDbPolyline
 90
3
 70
0
 10
196.475080
 20
70.575000
 30
0.0
 10
202.650080
 20
59.875000
 30
0.0
 10
214.975080
 20
59.875000
 30
0.0
  0
SPLINE
  5
146
100
AcDbEntity
  8
Ebene
 62
7
100
AcDbSpline
 70
8
 71
3
 72
8
 73
4
 74
0
 40
0
 40
0
 40
0
 40
0
 40
1
 40
1
 40
1
 40
1
 10
778.225080
 20
405.625000
 30
0.0
 10
738.322672
 20
474.767896
 30
0.0
 10
663.486688
 20
521.075000
 30
0.0
 10
578.150000
 20
521.075000
 30
0.0
  0
SPLINE
  5
147
100
AcDbEntity
  8
Ebene
 62
7
100
AcDbSpline
 70
8
 71
3
 72
8
 73
4
 74
0
 40
0
 40
0
 40
0
 40
0
 40
1
 40
1
 40
1
 40
1
 10
578.150000
 20
521.075000
 30
0.0
 10
528.784384
 20
521.075000
 30
0.0
 10
483.009776
 20
505.485184
 30
0.0
 10
445.425000
 20
479.025000
 30
0.0
  0
SPLINE
  5
148
100
AcDbEntity
  8
Ebene
 62
7
100
AcDbSpline
 70
8
 71
3
 72
8
 73
4
 74
0
 40
0
 40
0
 40
0
 40
0
 40
1
 40
1
 40
1
 40
1
 10
445.425000
 20
479.025000
 30
0.0
 10
446.059696
 20
486.031760
 30
0.0
 10
446.500000
 20
493.088168
 30
0.0
 10
446.500000
 20
500.250000
 30
0.0
  0
SPLINE
  5
149
100
AcDbEntity
  8
Ebene
 62
7
100
AcDbSpline
 70
8
 71
3
 72
8
 73
4
 74
0
 40
0
 40
0
 40
0
 40
0
 40
1
 40
1
 40
1
 40
1
 10
446.500000
 20
500.250000
 30
0.0
 10
446.500000
 20
627.053480
 30
0.0
 10
343.587912
 20
730.393512
 30
0.0
 10
216.950000
 20
731.125000
 30
0.0
  0
SPLINE
  5
14a
100
AcDbEntity
  8
Ebene
 62
7
100
AcDbSpline
 70
8
 71
3
 72
8
 73
4
 74
0
 40
0
 40
0
 40
0
 40
0
 40
1
 40
1
 40
1
 40
1
 10
216.950000
 20
731.125000
 30
0.0
 10
216.908080
 20
731.125240
 30
0.0
 10
216.866920
 20
731.124784
 30
0.0
 10
216.825000
 20
731.125000
 30
0.0
  0
SPLINE
  5
14b
100
AcDbEntity
  8
Ebene
 62
7
100
AcDbSpline
 70
8
 71
3
 72
8
 73
4
 74
0
 40
0
 40
0
 40
0
 40
0
 40
1
 40
1
 40
1
 40
1
 10
216.825000
 20
731.125000
 30
0.0
 10
216.712320
 20
731.131400
 30
0.0
 10
216.801000
 20
731.143960
 30
0.0
 10
216.675000
 20
731.149960
 30
0.0
  0
SPLINE
  5
14c
100
AcDbEntity
  8
Ebene
 62
7
100
AcDbSpline
 70
8
 71
3
 72
8
 73
4
 74
0
 40
0
 40
0
 40
0
 40
0
 40
1
 40
1
 40
1
 40
1
 10
216.675000
 20
731.149960
 30
0.0
 10
216.482112
 20
731.159240
 30
0.0
 10
216.157600
 20
731.139080
 30
0.0
 10
215.925000
 20
731.149960
 30
0.0
  0
SPLINE
  5
14d
100
AcDbEntity
  8
Ebene
 62
7
100
AcDbSpline
 70
8
 71
3
 72
8
 73
4
 74
0
 40
0
 40
0
 40
0
 40
0
 40
1
 40
1
 40
1
 40
1
 10
215.925000
 20
731.149960
 30
0.0
 10
215.561184
 20
731.167000
 30
0.0
 10
215.204408
 20
731.172520
 30
0.0
 10
214.675000
 20
731.149960
 30
0.0
  0
LWPOLYLINE
  5
14e
100
AcDbEntity
  8
Ebene
 62
7
100
AcDbPolyline
 90
3
 70
0
 10
778.225080
 20
384.200000
 30
0.0
 10
784.425080
 20
394.900000
 30
0.0
 10
778.225080
 20
405.625000
 30
0.0
  0
SPLINE
  5
14f
100
AcDbEntity
  8
Ebene
 62
7
100
AcDbSpline
 70
8
 71
3
 72
8
 73
4
 74
0
 40
0
 40
0
 40
0
 40
0
 40
1
 40
1
 40
1
 40
1
 10
228.125000
 20
687.900000
 30
0.0
 10
326.364472
 20
681.474896
 30
0.0
 10
403.700000
 20
600.157016
 30
0.0
 10
403.700000
 20
500.250000
 30
0.0
  0
SPLINE
  5
150
100
AcDbEntity
  8
Ebene
 62
7
100
AcDbSpline
 70
8
 71
3
 72
8
 73
4
 74
0
 40
0
 40
0
 40
0
 40
0
 40
1
 40
1
 40
1
 40
1
 10
403.700000
 20
500.250000
 30
0.0
 10
403.700000
 20
470.145296
 30
0.0
 10
396.785736
 20
441.877520
 30
0.0
 10
384.350000
 20
416.775000
 30
0.0
  0
SPLINE
  5
151
100
AcDbEntity
  8
Ebene
 62
7
100
AcDbSpline
 70
8
 71
3
 72
8
 73
4
 74
0
 40
0
 40
0
 40
0
 40
0
 40
1
 40
1
 40
1
 40
1
 10
384.350000
 20
416.775000
 30
0.0
 10
286.107176
 20
423.196576
 30
0.0
 10
208.775000
 20
504.515576
 30
0.0
 10
208.775000
 20
604.425000
 30
0.0
  0
SPLINE
  5
152
100
AcDbEntity
  8
Ebene
 62
7
100
AcDbSpline
 70
8
 71
3
 72
8
 73
4
 74
0
 40
0
 40
0
 40
0
 40
0
 40
1
 40
1
 40
1
 40
1
 10
208.775000
 20
604.425000
 30
0.0
 10
208.775000
 20
634.529552
 30
0.0
 10
215.689392
 20
662.797560
 30
0.0
 10
228.125000
 20
687.900000
 30
0.0
  0
LWPOLYLINE
  5
153
100
AcDbEntity
  8
Ebene
 62
7
100
AcDbPolyline
 90
3
 70
0
 10
214.675000
 20
731.149960
 30
0.0
 10
204.425000
 20
731.174920
 30
0.0
 10
204.425000
 20
731.175000
 30
0.0
  0
SPLINE
  5
154
100
AcDbEntity
  8
Ebene
 62
7
100
AcDbSpline
 70
8
 71
3
 72
8
 73
4
 74
0
 40
0
 40
0
 40
0
 40
0
 40
1
 40
1
 40
1
 40
1
 10
578.150000
 20
478.275000
 30
0.0
 10
643.500584
 20
478.275000
 30
0.0
 10
700.754736
 20
445.258656
 30
0.0
 10
734.475000
 20
394.950000
 30
0.0
  0
SPLINE
  5
155
100
AcDbEntity
  8
Ebene
 62
7
100
AcDbSpline
 70
8
 71
3
 72
8
 73
4
 74
0
 40
0
 40
0
 40
0
 40
0
 40
1
 40
1
 40
1
 40
1
 10
734.475000
 20
394.950000
 30
0.0
 10
700.712920
 20
344.743544
 30
0.0
 10
643.583272
 20
311.575000
 30
0.0
 10
578.425000
 20
311.575000
 30
0.0
  0
SPLINE
  5
156
100
AcDbEntity
  8
Ebene
 62
7
100
AcDbSpline
 70
8
 71
3
 72
8
 73
4
 74
0
 40
0
 40
0
 40
0
 40
0
 40
1
 40
1
 40
1
 40
1
 10
578.425000
 20
311.575000
 30
0.0
 10
513.124128
 20
311.575000
 30
0.0
 10
455.836128
 20
344.840464
 30
0.0
 10
422.100000
 20
395.200000
 30
0.0
  0
SPLINE
  5
157
100
AcDbEntity
  8
Ebene
 62
7
100
AcDbSpline
 70
8
 71
3
 72
8
 73
4
 74
0
 40
0
 40
0
 40
0
 40
0
 40
1
 40
1
 40
1
 40
1
 10
422.100000
 20
395.200000
 30
0.0
 10
455.846016
 20
445.355776
 30
0.0
 10
512.941632
 20
478.275000
 30
0.0
 10
578.150000
 20
478.275000
 30
0.0
  0
LWPOLYLINE
  5
158
100
AcDbEntity
  8
Ebene
 62
7
100
AcDbPolyline
 90
2
 70
0
 10
228.125000
 20
687.900000
 30
0.0
 10
228.125000
 20
687.900000
 30
0.0
  0
SPLINE
  5
159
100
AcDbEntity
  8
Ebene
 62
7
100
AcDbSpline
 70
8
 71
3
 72
8
 73
4
 74
0
 40
0
 40
0
 40
0
 40
0
 40
1
 40
1
 40
1
 40
1
 10
384.275000
 20
373.375000
 30
0.0
 10
396.524728
 20
348.439520
 30
0.0
 10
403.400000
 20
320.522184
 30
0.0
 10
403.400000
 20
290.775000
 30
0.0
  0
SPLINE
  5
15a
100
AcDbEntity
  8
Ebene
 62
7
100
AcDbSpline
 70
8
 71
3
 72
8
 73
4
 74
0
 40
0
 40
0
 40
0
 40
0
 40
1
 40
1
 40
1
 40
1
 10
403.400000
 20
290.775000
 30
0.0
 10
403.400000
 20
190.797976
 30
0.0
 10
325.964528
 20
109.424184
 30
0.0
 10
227.625000
 20
103.100000
 30
0.0
  0
SPLINE
  5
15b
100
AcDbEntity
  8
Ebene
 62
7
100
AcDbSpline
 70
8
 71
3
 72
8
 73
4
 74
0
 40
0
 40
0
 40
0
 40
0
 40
1
 40
1
 40
1
 40
1
 10
227.625000
 20
103.100000
 30
0.0
 10
215.366504
 20
128.042632
 30
0.0
 10
208.475000
 20
155.966464
 30
0.0
 10
208.475000
 20
185.725000
 30
0.0
  0
SPLINE
  5
15c
100
AcDbEntity
  8
Ebene
 62
7
100
AcDbSpline
 70
8
 71
3
 72
8
 73
4
 74
0
 40
0
 40
0
 40
0
 40
0
 40
1
 40
1
 40
1
 40
1
 10
208.475000
 20
185.725000
 30
0.0
 10
208.475000
 20
285.710472
 30
0.0
 10
285.923688
 20
367.062960
 30
0.0
 10
384.275000
 20
373.375000
 30
0.0
  0
LWPOLYLINE
  5
15d
100
AcDbEntity
  8
Ebene
 62
7
100
AcDbPolyline
 90
2
 70
0
 10
578.150000
 20
478.275000
 30
0.0
 10
578.150000
 20
478.275000
 30
0.0
  0
LWPOLYLINE
  5
15e
100
AcDbEntity
  8
Ebene
 62
7
100
AcDbPolyline
 90
2
 70
0
 10
384.275000
 20
373.375000
 30
0.0
 10
384.275000
 20
373.375000
 30
0.0
  0
SPLINE
  5
15f
100
AcDbEntity
  8
Ebene
 62
7
100
AcDbSpline
 70
8
 71
3
 72
8
 73
4
 74
0
 40
0
 40
0
 40
0
 40
0
 40
1
 40
1
 40
1
 40
1
 10
258.650000
 20
752.350000
 30
0.0
 10
258.167312
 20
751.903354
 30
0.0
 10
257.682520
 20
751.497441
 30
0.0
 10
257.200000
 20
750.975000
 30
0.0
  0
LWPOLYLINE
  5
160
100
AcDbEntity
  8
Ebene
 62
7
100
AcDbPolyline
 90
2
 70
0
 10
264.725000
 20
759.650000
 30
0.0
 10
258.650000
 20
752.350000
 30
0.0
  0
SPLINE
  5
161
100
AcDbEntity
  8
Ebene
 62
7
100
AcDbSpline
 70
8
 71
3
 72
8
 73
4
 74
0
 40
0
 40
0
 40
0
 40
0
 40
1
 40
1
 40
1
 40
1
 10
251.525000
 20
743.900000
 30
0.0
 10
228.720696
 20
714.905224
 30
0.0
 10
212.573128
 20
680.046016
 30
0.0
 10
205.750000
 20
641.350000
 30
0.0
  0
SPLINE
  5
162
100
AcDbEntity
  8
Ebene
 62
7
100
AcDbSpline
 70
8
 71
3
 72
8
 73
4
 74
0
 40
0
 40
0
 40
0
 40
0
 40
1
 40
1
 40
1
 40
1
 10
205.750000
 20
641.350000
 30
0.0
 10
189.688376
 20
550.260152
 30
0.0
 10
229.761160
 20
461.983336
 30
0.0
 10
300.950000
 20
412.050000
 30
0.0
  0
SPLINE
  5
163
100
AcDbEntity
  8
Ebene
 62
7
100
AcDbSpline
 70
8
 71
3
 72
8
 73
4
 74
0
 40
0
 40
0
 40
0
 40
0
 40
1
 40
1
 40
1
 40
1
 10
300.950000
 20
412.050000
 30
0.0
 10
216.835392
 20
389.562256
 30
0.0
 10
148.856120
 20
320.250592
 30
0.0
 10
132.775000
 20
229.050000
 30
0.0
  0
SPLINE
  5
164
100
AcDbEntity
  8
Ebene
 62
7
100
AcDbSpline
 70
8
 71
3
 72
8
 73
4
 74
0
 40
0
 40
0
 40
0
 40
0
 40
1
 40
1
 40
1
 40
1
 10
132.775000
 20
229.050000
 30
0.0
 10
125.500984
 20
187.796832
 30
0.0
 10
129.722672
 20
147.075344
 30
0.0
 10
143.100000
 20
110.300000
 30
0.0
  0
LWPOLYLINE
  5
165
100
AcDbEntity
  8
Ebene
 62
7
100
AcDbPolyline
 90
4
 70
0
 10
257.200000
 20
750.975000
 30
0.0
 10
256.575000
 20
750.275000
 30
0.0
 10
251.525000
 20
744.825000
 30
0.0
 10
251.525000
 20
743.900000
 30
0.0
  0
SPLINE
  5
166
100
AcDbEntity
  8
Ebene
 62
7
100
AcDbSpline
 70
8
 71
3
 72
8
 73
4
 74
0
 40
0
 40
0
 40
0
 40
0
 40
1
 40
1
 40
1
 40
1
 10
158.825000
 20
96.675000
 30
0.0
 10
159.800648
 20
96.471400
 30
0.0
 10
159.906104
 20
96.462096
 30
0.0
 10
159.125000
 20
96.625000
 30
0.0
  0
LWPOLYLINE
  5
167
100
AcDbEntity
  8
Ebene
 62
7
100
AcDbPolyline
 90
3
 70
0
 10
143.100000
 20
110.300000
 30
0.0
 10
147.175000
 20
99.100000
 30
0.0
 10
158.825000
 20
96.675000
 30
0.0
  0
SPLINE
  5
168
100
AcDbEntity
  8
Ebene
 62
7
100
AcDbSpline
 70
8
 71
3
 72
8
 73
4
 74
0
 40
0
 40
0
 40
0
 40
0
 40
1
 40
1
 40
1
 40
1
 10
159.775000
 20
96.500040
 30
0.0
 10
285.096784
 20
74.402464
 30
0.0
 10
405.152440
 20
158.453328
 30
0.0
 10
427.250000
 20
283.775040
 30
0.0
  0
SPLINE
  5
169
100
AcDbEntity
  8
Ebene
 62
7
100
AcDbSpline
 70
8
 71
3
 72
8
 73
4
 74
0
 40
0
 40
0
 40
0
 40
0
 40
1
 40
1
 40
1
 40
1
 10
427.250000
 20
283.775040
 30
0.0
 10
428.455432
 20
290.611384
 30
0.0
 10
429.240712
 20
297.433408
 30
0.0
 10
429.825000
 20
304.225040
 30
0.0
  0
SPLINE
  5
16a
100
AcDbEntity
  8
Ebene
 62
7
100
AcDbSpline
 70
8
 71
3
 72
8
 73
4
 74
0
 40
0
 40
0
 40
0
 40
0
 40
1
 40
1
 40
1
 40
1
 10
429.825000
 20
304.225040
 30
0.0
 10
462.301632
 20
271.355888
 30
0.0
 10
504.830920
 20
247.787576
 30
0.0
 10
553.675000
 20
239.175040
 30
0.0
  0
SPLINE
  5
16b
100
AcDbEntity
  8
Ebene
 62
7
100
AcDbSpline
 70
8
 71
3
 72
8
 73
4
 74
0
 40
0
 40
0
 40
0
 40
0
 40
1
 40
1
 40
1
 40
1
 10
553.675000
 20
239.175040
 30
0.0
 10
637.623248
 20
224.372704
 30
0.0
 10
719.162776
 20
257.241736
 30
0.0
 10
770.450000
 20
318.150040
 30
0.0
  0
LWPOLYLINE
  5
16c
100
AcDbEntity
  8
Ebene
 62
7
100
AcDbPolyline
 90
3
 70
0
 10
159.125000
 20
96.625000
 30
0.0
 10
159.450000
 20
96.550040
 30
0.0
 10
159.775000
 20
96.500040
 30
0.0
  0
SPLINE
  5
16d
100
AcDbEntity
  8
Ebene
 62
7
100
AcDbSpline
 70
8
 71
3
 72
8
 73
4
 74
0
 40
0
 40
0
 40
0
 40
0
 40
1
 40
1
 40
1
 40
1
 10
774.200000
 20
339.250000
 30
0.0
 10
746.910448
 20
414.271400
 30
0.0
 10
681.240312
 20
472.881368
 30
0.0
 10
597.200000
 20
487.700000
 30
0.0
  0
SPLINE
  5
16e
100
AcDbEntity
  8
Ebene
 62
7
100
AcDbSpline
 70
8
 71
3
 72
8
 73
4
 74
0
 40
0
 40
0
 40
0
 40
0
 40
1
 40
1
 40
1
 40
1
 10
597.200000
 20
487.700000
 30
0.0
 10
548.578784
 20
496.273192
 30
0.0
 10
500.786912
 20
488.861752
 30
0.0
 10
459.175000
 20
469.325000
 30
0.0
  0
SPLINE
  5
16f
100
AcDbEntity
  8
Ebene
 62
7
100
AcDbSpline
 70
8
 71
3
 72
8
 73
4
 74
0
 40
0
 40
0
 40
0
 40
0
 40
1
 40
1
 40
1
 40
1
 10
459.175000
 20
469.325000
 30
0.0
 10
461.017136
 20
476.116112
 30
0.0
 10
462.681168
 20
482.995872
 30
0.0
 10
463.925000
 20
490.050000
 30
0.0
  0
SPLINE
  5
170
100
AcDbEntity
  8
Ebene
 62
7
100
AcDbSpline
 70
8
 71
3
 72
8
 73
4
 74
0
 40
0
 40
0
 40
0
 40
0
 40
1
 40
1
 40
1
 40
1
 10
463.925000
 20
490.050000
 30
0.0
 10
485.926576
 20
614.827088
 30
0.0
 10
402.671296
 20
734.352328
 30
0.0
 10
278.250000
 20
757.200000
 30
0.0
  0
SPLINE
  5
171
100
AcDbEntity
  8
Ebene
 62
7
100
AcDbSpline
 70
8
 71
3
 72
8
 73
4
 74
0
 40
0
 40
0
 40
0
 40
0
 40
1
 40
1
 40
1
 40
1
 10
278.250000
 20
757.200000
 30
0.0
 10
278.167272
 20
757.221032
 30
0.0
 10
278.014304
 20
757.251432
 30
0.0
 10
277.925000
 20
757.275000
 30
0.0
  0
SPLINE
  5
172
100
AcDbEntity
  8
Ebene
 62
7
100
AcDbSpline
 70
8
 71
3
 72
8
 73
4
 74
0
 40
0
 40
0
 40
0
 40
0
 40
1
 40
1
 40
1
 40
1
 10
277.925000
 20
757.275000
 30
0.0
 10
277.466568
 20
757.395991
 30
0.0
 10
276.845272
 20
757.530856
 30
0.0
 10
276.025000
 20
757.650000
 30
0.0
  0
SPLINE
  5
173
100
AcDbEntity
  8
Ebene
 62
7
100
AcDbSpline
 70
8
 71
3
 72
8
 73
4
 74
0
 40
0
 40
0
 40
0
 40
0
 40
1
 40
1
 40
1
 40
1
 10
276.025000
 20
757.650000
 30
0.0
 10
276.018600
 20
757.650960
 30
0.0
 10
276.006600
 20
757.649040
 30
0.0
 10
276.000040
 20
757.650000
 30
0.0
  0
SPLINE
  5
174
100
AcDbEntity
  8
Ebene
 62
7
100
AcDbSpline
 70
8
 71
3
 72
8
 73
4
 74
0
 40
0
 40
0
 40
0
 40
0
 40
1
 40
1
 40
1
 40
1
 10
276.000040
 20
757.650000
 30
0.0
 10
275.841856
 20
757.672768
 30
0.0
 10
275.578568
 20
757.654880
 30
0.0
 10
275.400040
 20
757.675000
 30
0.0
  0
SPLINE
  5
175
100
AcDbEntity
  8
Ebene
 62
7
100
AcDbSpline
 70
8
 71
3
 72
8
 73
4
 74
0
 40
0
 40
0
 40
0
 40
0
 40
1
 40
1
 40
1
 40
1
 10
275.400040
 20
757.675000
 30
0.0
 10
275.511128
 20
757.663224
 30
0.0
 10
275.721784
 20
757.688208
 30
0.0
 10
275.825040
 20
757.675000
 30
0.0
  0
LWPOLYLINE
  5
176
100
AcDbEntity
  8
Ebene
 62
7
100
AcDbPolyline
 90
3
 70
0
 10
770.450000
 20
318.150040
 30
0.0
 10
778.425000
 20
327.625000
 30
0.0
 10
774.200000
 20
339.250000
 30
0.0
  0
SPLINE
  5
177
100
AcDbEntity
  8
Ebene
 62
7
100
AcDbSpline
 70
8
 71
3
 72
8
 73
4
 74
0
 40
0
 40
0
 40
0
 40
0
 40
1
 40
1
 40
1
 40
1
 10
265.875000
 20
716.275000
 30
0.0
 10
265.976624
 20
716.238840
 30
0.0
 10
266.604600
 20
715.973664
 30
0.0
 10
268.300000
 20
715.575000
 30
0.0
  0
SPLINE
  5
178
100
AcDbEntity
  8
Ebene
 62
7
100
AcDbSpline
 70
8
 71
3
 72
8
 73
4
 74
0
 40
0
 40
0
 40
0
 40
0
 40
1
 40
1
 40
1
 40
1
 10
268.300000
 20
715.575000
 30
0.0
 10
268.118960
 20
715.621880
 30
0.0
 10
267.853096
 20
715.686080
 30
0.0
 10
267.700000
 20
715.725000
 30
0.0
  0
SPLINE
  5
179
100
AcDbEntity
  8
Ebene
 62
7
100
AcDbSpline
 70
8
 71
3
 72
8
 73
4
 74
0
 40
0
 40
0
 40
0
 40
0
 40
1
 40
1
 40
1
 40
1
 10
267.700000
 20
715.725000
 30
0.0
 10
265.994704
 20
716.158512
 30
0.0
 10
265.765080
 20
716.314112
 30
0.0
 10
265.875000
 20
716.275000
 30
0.0
  0
LWPOLYLINE
  5
17a
100
AcDbEntity
  8
Ebene
 62
7
100
AcDbPolyline
 90
3
 70
0
 10
275.825040
 20
757.675000
 30
0.0
 10
264.725040
 20
759.650000
 30
0.0
 10
264.725000
 20
759.650000
 30
0.0
  0
SPLINE
  5
17b
100
AcDbEntity
  8
Ebene
 62
7
100
AcDbSpline
 70
8
 71
3
 72
8
 73
4
 74
0
 40
0
 40
0
 40
0
 40
0
 40
1
 40
1
 40
1
 40
1
 10
268.725000
 20
715.475000
 30
0.0
 10
268.920744
 20
715.430120
 30
0.0
 10
269.216464
 20
715.399240
 30
0.0
 10
269.450000
 20
715.350000
 30
0.0
  0
SPLINE
  5
17c
100
AcDbEntity
  8
Ebene
 62
7
100
AcDbSpline
 70
8
 71
3
 72
8
 73
4
 74
0
 40
0
 40
0
 40
0
 40
0
 40
1
 40
1
 40
1
 40
1
 10
269.450000
 20
715.350000
 30
0.0
 10
269.492000
 20
715.341120
 30
0.0
 10
269.531432
 20
715.308880
 30
0.0
 10
269.575000
 20
715.300000
 30
0.0
  0
SPLINE
  5
17d
100
AcDbEntity
  8
Ebene
 62
7
100
AcDbSpline
 70
8
 71
3
 72
8
 73
4
 74
0
 40
0
 40
0
 40
0
 40
0
 40
1
 40
1
 40
1
 40
1
 10
269.575000
 20
715.300000
 30
0.0
 10
269.220664
 20
715.357040
 30
0.0
 10
268.988840
 20
715.413568
 30
0.0
 10
268.725000
 20
715.475000
 30
0.0
  0
LWPOLYLINE
  5
17e
100
AcDbEntity
  8
Ebene
 62
7
100
AcDbPolyline
 90
2
 70
0
 10
265.875000
 20
716.275000
 30
0.0
 10
265.875000
 20
716.275000
 30
0.0
  0
SPLINE
  5
17f
100
AcDbEntity
  8
Ebene
 62
7
100
AcDbSpline
 70
8
 71
3
 72
8
 73
4
 74
0
 40
0
 40
0
 40
0
 40
0
 40
1
 40
1
 40
1
 40
1
 10
281.475000
 20
712.750000
 30
0.0
 10
377.095840
 20
689.355896
 30
0.0
 10
439.122568
 20
595.857904
 30
0.0
 10
421.775000
 20
497.475000
 30
0.0
  0
SPLINE
  5
180
100
AcDbEntity
  8
Ebene
 62
7
100
AcDbSpline
 70
8
 71
3
 72
8
 73
4
 74
0
 40
0
 40
0
 40
0
 40
0
 40
1
 40
1
 40
1
 40
1
 10
421.775000
 20
497.475000
 30
0.0
 10
416.563832
 20
467.920872
 30
0.0
 10
404.897928
 20
441.366320
 30
0.0
 10
388.375000
 20
418.850000
 30
0.0
  0
LWPOLYLINE
  5
181
100
AcDbEntity
  8
Ebene
 62
7
100
AcDbPolyline
 90
2
 70
0
 10
268.725000
 20
715.475000
 30
0.0
 10
268.725000
 20
715.475000
 30
0.0
  0
SPLINE
  5
182
100
AcDbEntity
  8
Ebene
 62
7
100
AcDbSpline
 70
8
 71
3
 72
8
 73
4
 74
0
 40
0
 40
0
 40
0
 40
0
 40
1
 40
1
 40
1
 40
1
 10
383.025000
 20
419.975000
 30
0.0
 10
290.357304
 20
445.426888
 30
0.0
 10
230.867800
 20
537.330744
 30
0.0
 10
247.900000
 20
633.925000
 30
0.0
  0
SPLINE
  5
183
100
AcDbEntity
  8
Ebene
 62
7
100
AcDbSpline
 70
8
 71
3
 72
8
 73
4
 74
0
 40
0
 40
0
 40
0
 40
0
 40
1
 40
1
 40
1
 40
1
 10
247.900000
 20
633.925000
 30
0.0
 10
253.126712
 20
663.567240
 30
0.0
 10
264.873720
 20
690.190712
 30
0.0
 10
281.475000
 20
712.750000
 30
0.0
  0
LWPOLYLINE
  5
184
100
AcDbEntity
  8
Ebene
 62
7
100
AcDbPolyline
 90
2
 70
0
 10
388.375000
 20
418.850000
 30
0.0
 10
383.025000
 20
419.975000
 30
0.0
  0
SPLINE
  5
185
100
AcDbEntity
  8
Ebene
 62
7
100
AcDbSpline
 70
8
 71
3
 72
8
 73
4
 74
0
 40
0
 40
0
 40
0
 40
0
 40
1
 40
1
 40
1
 40
1
 10
551.550000
 20
448.375000
 30
0.0
 10
564.103728
 20
448.721768
 30
0.0
 10
576.871040
 20
447.820896
 30
0.0
 10
589.750000
 20
445.550000
 30
0.0
  0
SPLINE
  5
186
100
AcDbEntity
  8
Ebene
 62
7
100
AcDbSpline
 70
8
 71
3
 72
8
 73
4
 74
0
 40
0
 40
0
 40
0
 40
0
 40
1
 40
1
 40
1
 40
1
 10
589.750000
 20
445.550000
 30
0.0
 10
654.106464
 20
434.202176
 30
0.0
 10
704.777448
 20
391.723048
 30
0.0
 10
729.250000
 20
336.325000
 30
0.0
  0
SPLINE
  5
187
100
AcDbEntity
  8
Ebene
 62
7
100
AcDbSpline
 70
8
 71
3
 72
8
 73
4
 74
0
 40
0
 40
0
 40
0
 40
0
 40
1
 40
1
 40
1
 40
1
 10
729.250000
 20
336.325000
 30
0.0
 10
687.282584
 20
292.741768
 30
0.0
 10
625.270088
 20
270.010080
 30
0.0
 10
561.100000
 20
281.325000
 30
0.0
  0
SPLINE
  5
188
100
AcDbEntity
  8
Ebene
 62
7
100
AcDbSpline
 70
8
 71
3
 72
8
 73
4
 74
0
 40
0
 40
0
 40
0
 40
0
 40
1
 40
1
 40
1
 40
1
 10
561.100000
 20
281.325000
 30
0.0
 10
496.792592
 20
292.664136
 30
0.0
 10
446.129352
 20
335.374064
 30
0.0
 10
421.650000
 20
390.825000
 30
0.0
  0
SPLINE
  5
189
100
AcDbEntity
  8
Ebene
 62
7
100
AcDbSpline
 70
8
 71
3
 72
8
 73
4
 74
0
 40
0
 40
0
 40
0
 40
0
 40
1
 40
1
 40
1
 40
1
 10
421.650000
 20
390.825000
 30
0.0
 10
455.181352
 20
425.630104
 30
0.0
 10
501.506128
 20
446.992648
 30
0.0
 10
551.550000
 20
448.375000
 30
0.0
  0
LWPOLYLINE
  5
18a
100
AcDbEntity
  8
Ebene
 62
7
100
AcDbPolyline
 90
2
 70
0
 10
281.475000
 20
712.750000
 30
0.0
 10
281.475000
 20
712.750000
 30
0.0
  0
SPLINE
  5
18b
100
AcDbEntity
  8
Ebene
 62
7
100
AcDbSpline
 70
8
 71
3
 72
8
 73
4
 74
0
 40
0
 40
0
 40
0
 40
0
 40
1
 40
1
 40
1
 40
1
 10
354.750000
 20
377.050000
 30
0.0
 10
363.272504
 20
377.276568
 30
0.0
 10
371.912856
 20
376.861936
 30
0.0
 10
380.600000
 20
375.900000
 30
0.0
  0
SPLINE
  5
18c
100
AcDbEntity
  8
Ebene
 62
7
100
AcDbSpline
 70
8
 71
3
 72
8
 73
4
 74
0
 40
0
 40
0
 40
0
 40
0
 40
1
 40
1
 40
1
 40
1
 10
380.600000
 20
375.900000
 30
0.0
 10
388.337488
 20
349.211784
 30
0.0
 10
390.291568
 20
320.526144
 30
0.0
 10
385.125000
 20
291.225000
 30
0.0
  0
SPLINE
  5
18d
100
AcDbEntity
  8
Ebene
 62
7
100
AcDbSpline
 70
8
 71
3
 72
8
 73
4
 74
0
 40
0
 40
0
 40
0
 40
0
 40
1
 40
1
 40
1
 40
1
 10
385.125000
 20
291.225000
 30
0.0
 10
367.764544
 20
192.768784
 30
0.0
 10
277.366576
 20
126.104848
 30
0.0
 10
179.425000
 20
136.950000
 30
0.0
  0
SPLINE
  5
18e
100
AcDbEntity
  8
Ebene
 62
7
100
AcDbSpline
 70
8
 71
3
 72
8
 73
4
 74
0
 40
0
 40
0
 40
0
 40
0
 40
1
 40
1
 40
1
 40
1
 10
179.425000
 20
136.950000
 30
0.0
 10
171.687520
 20
163.638224
 30
0.0
 10
169.733440
 20
192.323848
 30
0.0
 10
174.900000
 20
221.625000
 30
0.0
  0
SPLINE
  5
18f
100
AcDbEntity
  8
Ebene
 62
7
100
AcDbSpline
 70
8
 71
3
 72
8
 73
4
 74
0
 40
0
 40
0
 40
0
 40
0
 40
1
 40
1
 40
1
 40
1
 10
174.900000
 20
221.625000
 30
0.0
 10
190.720656
 20
311.348424
 30
0.0
 10
267.187224
 20
374.722136
 30
0.0
 10
354.750000
 20
377.050000
 30
0.0
  0
LWPOLYLINE
  5
190
100
AcDbEntity
  8
Ebene
 62
7
100
AcDbPolyline
 90
2
 70
0
 10
551.550000
 20
448.375000
 30
0.0
 10
551.550000
 20
448.375000
 30
0.0
  0
LWPOLYLINE
  5
191
100
AcDbEntity
  8
Ebene
 62
7
100
AcDbPolyline
 90
2
 70
0
 10
354.750000
 20
377.050000
 30
0.0
 10
354.750000
 20
377.050000
 30
0.0
  0
SPLINE
  5
192
100
AcDbEntity
  8
Ebene
 62
7
100
AcDbSpline
 70
8
 71
3
 72
8
 73
4
 74
0
 40
0
 40
0
 40
0
 40
0
 40
1
 40
1
 40
1
 40
1
 10
321.225000
 20
769.925000
 30
0.0
 10
320.956648
 20
769.722192
 30
0.0
 10
320.694904
 20
769.571367
 30
0.0
 10
320.425000
 20
769.350000
 30
0.0
  0
LWPOLYLINE
  5
193
100
AcDbEntity
  8
Ebene
 62
7
100
AcDbPolyline
 90
2
 70
0
 10
328.800000
 20
777.475000
 30
0.0
 10
321.225000
 20
769.925000
 30
0.0
  0
SPLINE
  5
194
100
AcDbEntity
  8
Ebene
 62
7
100
AcDbSpline
 70
8
 71
3
 72
8
 73
4
 74
0
 40
0
 40
0
 40
0
 40
0
 40
1
 40
1
 40
1
 40
1
 10
320.325000
 20
769.250000
 30
0.0
 10
289.936240
 20
743.965672
 30
0.0
 10
265.778328
 20
710.441704
 30
0.0
 10
251.350000
 20
670.800000
 30
0.0
  0
SPLINE
  5
195
100
AcDbEntity
  8
Ebene
 62
7
100
AcDbSpline
 70
8
 71
3
 72
8
 73
4
 74
0
 40
0
 40
0
 40
0
 40
0
 40
1
 40
1
 40
1
 40
1
 10
251.350000
 20
670.800000
 30
0.0
 10
219.712064
 20
583.875544
 30
0.0
 10
243.851712
 20
489.986280
 30
0.0
 10
305.300000
 20
428.450000
 30
0.0
  0
SPLINE
  5
196
100
AcDbEntity
  8
Ebene
 62
7
100
AcDbSpline
 70
8
 71
3
 72
8
 73
4
 74
0
 40
0
 40
0
 40
0
 40
0
 40
1
 40
1
 40
1
 40
1
 10
305.300000
 20
428.450000
 30
0.0
 10
218.546096
 20
420.921064
 30
0.0
 10
139.552416
 20
364.482992
 30
0.0
 10
107.875000
 20
277.450000
 30
0.0
  0
SPLINE
  5
197
100
AcDbEntity
  8
Ebene
 62
7
100
AcDbSpline
 70
8
 71
3
 72
8
 73
4
 74
0
 40
0
 40
0
 40
0
 40
0
 40
1
 40
1
 40
1
 40
1
 10
107.875000
 20
277.450000
 30
0.0
 10
93.547896
 20
238.086656
 30
0.0
 10
90.636920
 20
197.239568
 30
0.0
 10
97.425000
 20
158.700000
 30
0.0
  0
LWPOLYLINE
  5
198
100
AcDbEntity
  8
Ebene
 62
7
100
AcDbPolyline
 90
3
 70
0
 10
320.425000
 20
769.350000
 30
0.0
 10
320.375000
 20
769.300000
 30
0.0
 10
320.325000
 20
769.250000
 30
0.0
  0
SPLINE
  5
199
100
AcDbEntity
  8
Ebene
 62
7
100
AcDbSpline
 70
8
 71
3
 72
8
 73
4
 74
0
 40
0
 40
0
 40
0
 40
0
 40
1
 40
1
 40
1
 40
1
 10
111.175000
 20
142.300000
 30
0.0
 10
111.179800
 20
142.298400
 30
0.0
 10
111.312688
 20
142.249760
 30
0.0
 10
111.450000
 20
142.200000
 30
0.0
  0
SPLINE
  5
19a
100
AcDbEntity
  8
Ebene
 62
7
100
AcDbSpline
 70
8
 71
3
 72
8
 73
4
 74
0
 40
0
 40
0
 40
0
 40
0
 40
1
 40
1
 40
1
 40
1
 10
111.450000
 20
142.200000
 30
0.0
 10
111.498240
 20
142.182560
 30
0.0
 10
111.485360
 20
142.198400
 30
0.0
 10
111.550000
 20
142.175040
 30
0.0
  0
SPLINE
  5
19b
100
AcDbEntity
  8
Ebene
 62
7
100
AcDbSpline
 70
8
 71
3
 72
8
 73
4
 74
0
 40
0
 40
0
 40
0
 40
0
 40
1
 40
1
 40
1
 40
1
 10
111.550000
 20
142.175040
 30
0.0
 10
231.105424
 20
98.720160
 30
0.0
 10
363.888024
 20
160.651864
 30
0.0
 10
407.400000
 20
280.200040
 30
0.0
  0
SPLINE
  5
19c
100
AcDbEntity
  8
Ebene
 62
7
100
AcDbSpline
 70
8
 71
3
 72
8
 73
4
 74
0
 40
0
 40
0
 40
0
 40
0
 40
1
 40
1
 40
1
 40
1
 10
407.400000
 20
280.200040
 30
0.0
 10
409.772568
 20
286.718616
 30
0.0
 10
411.696040
 20
293.292720
 30
0.0
 10
413.450000
 20
299.875040
 30
0.0
  0
SPLINE
  5
19d
100
AcDbEntity
  8
Ebene
 62
7
100
AcDbSpline
 70
8
 71
3
 72
8
 73
4
 74
0
 40
0
 40
0
 40
0
 40
0
 40
1
 40
1
 40
1
 40
1
 10
413.450000
 20
299.875040
 30
0.0
 10
439.725656
 20
261.864200
 30
0.0
 10
477.542176
 20
231.288936
 30
0.0
 10
524.150000
 20
214.325040
 30
0.0
  0
SPLINE
  5
19e
100
AcDbEntity
  8
Ebene
 62
7
100
AcDbSpline
 70
8
 71
3
 72
8
 73
4
 74
0
 40
0
 40
0
 40
0
 40
0
 40
1
 40
1
 40
1
 40
1
 10
524.150000
 20
214.325040
 30
0.0
 10
604.252488
 20
185.170192
 30
0.0
 10
690.265256
 20
203.373048
 30
0.0
 10
751.350000
 20
254.450040
 30
0.0
  0
LWPOLYLINE
  5
19f
100
AcDbEntity
  8
Ebene
 62
7
100
AcDbPolyline
 90
3
 70
0
 10
97.425000
 20
158.700000
 30
0.0
 10
99.575000
 20
146.550000
 30
0.0
 10
111.175000
 20
142.300000
 30
0.0
  0
SPLINE
  5
1a0
100
AcDbEntity
  8
Ebene
 62
7
100
AcDbSpline
 70
8
 71
3
 72
8
 73
4
 74
0
 40
0
 40
0
 40
0
 40
0
 40
1
 40
1
 40
1
 40
1
 10
758.700000
 20
274.575000
 30
0.0
 10
744.852280
 20
353.195440
 30
0.0
 10
690.340304
 20
422.313088
 30
0.0
 10
610.150000
 20
451.500000
 30
0.0
  0
SPLINE
  5
1a1
100
AcDbEntity
  8
Ebene
 62
7
100
AcDbSpline
 70
8
 71
3
 72
8
 73
4
 74
0
 40
0
 40
0
 40
0
 40
0
 40
1
 40
1
 40
1
 40
1
 10
610.150000
 20
451.500000
 30
0.0
 10
563.753336
 20
468.386984
 30
0.0
 10
515.399464
 20
469.391440
 30
0.0
 10
471.025000
 20
457.375000
 30
0.0
  0
SPLINE
  5
1a2
100
AcDbEntity
  8
Ebene
 62
7
100
AcDbSpline
 70
8
 71
3
 72
8
 73
4
 74
0
 40
0
 40
0
 40
0
 40
0
 40
1
 40
1
 40
1
 40
1
 10
471.025000
 20
457.375000
 30
0.0
 10
474.022048
 20
463.749232
 30
0.0
 10
476.872600
 20
470.237096
 30
0.0
 10
479.325000
 20
476.975000
 30
0.0
  0
SPLINE
  5
1a3
100
AcDbEntity
  8
Ebene
 62
7
100
AcDbSpline
 70
8
 71
3
 72
8
 73
4
 74
0
 40
0
 40
0
 40
0
 40
0
 40
1
 40
1
 40
1
 40
1
 10
479.325000
 20
476.975000
 30
0.0
 10
522.695040
 20
596.133192
 30
0.0
 10
461.329152
 20
728.426984
 30
0.0
 10
342.575000
 20
772.425000
 30
0.0
  0
SPLINE
  5
1a4
100
AcDbEntity
  8
Ebene
 62
7
100
AcDbSpline
 70
8
 71
3
 72
8
 73
4
 74
0
 40
0
 40
0
 40
0
 40
0
 40
1
 40
1
 40
1
 40
1
 10
342.575000
 20
772.425000
 30
0.0
 10
342.550200
 20
772.434184
 30
0.0
 10
342.524760
 20
772.440824
 30
0.0
 10
342.500040
 20
772.450000
 30
0.0
  0
SPLINE
  5
1a5
100
AcDbEntity
  8
Ebene
 62
7
100
AcDbSpline
 70
8
 71
3
 72
8
 73
4
 74
0
 40
0
 40
0
 40
0
 40
0
 40
1
 40
1
 40
1
 40
1
 10
342.500040
 20
772.450000
 30
0.0
 10
342.472360
 20
772.460240
 30
0.0
 10
342.452760
 20
772.489768
 30
0.0
 10
342.425080
 20
772.500000
 30
0.0
  0
SPLINE
  5
1a6
100
AcDbEntity
  8
Ebene
 62
7
100
AcDbSpline
 70
8
 71
3
 72
8
 73
4
 74
0
 40
0
 40
0
 40
0
 40
0
 40
1
 40
1
 40
1
 40
1
 10
342.425080
 20
772.500000
 30
0.0
 10
342.224240
 20
772.585210
 30
0.0
 10
341.873624
 20
772.696086
 30
0.0
 10
341.625080
 20
772.800000
 30
0.0
  0
LWPOLYLINE
  5
1a7
100
AcDbEntity
  8
Ebene
 62
7
100
AcDbPolyline
 90
3
 70
0
 10
751.350000
 20
254.450040
 30
0.0
 10
760.850000
 20
262.400000
 30
0.0
 10
758.700000
 20
274.575000
 30
0.0
  0
SPLINE
  5
1a8
100
AcDbEntity
  8
Ebene
 62
7
100
AcDbSpline
 70
8
 71
3
 72
8
 73
4
 74
0
 40
0
 40
0
 40
0
 40
0
 40
1
 40
1
 40
1
 40
1
 10
340.700000
 20
773.150000
 30
0.0
 10
340.675680
 20
773.158080
 30
0.0
 10
340.649840
 20
773.166896
 30
0.0
 10
340.625040
 20
773.175000
 30
0.0
  0
SPLINE
  5
1a9
100
AcDbEntity
  8
Ebene
 62
7
100
AcDbSpline
 70
8
 71
3
 72
8
 73
4
 74
0
 40
0
 40
0
 40
0
 40
0
 40
1
 40
1
 40
1
 40
1
 10
340.625040
 20
773.175000
 30
0.0
 10
340.582560
 20
773.188864
 30
0.0
 10
340.494080
 20
773.211072
 30
0.0
 10
340.450040
 20
773.225000
 30
0.0
  0
LWPOLYLINE
  5
1aa
100
AcDbEntity
  8
Ebene
 62
7
100
AcDbPolyline
 90
2
 70
0
 10
341.625080
 20
772.800000
 30
0.0
 10
340.700000
 20
773.150000
 30
0.0
  0
SPLINE
  5
1ab
100
AcDbEntity
  8
Ebene
 62
7
100
AcDbSpline
 70
8
 71
3
 72
8
 73
4
 74
0
 40
0
 40
0
 40
0
 40
0
 40
1
 40
1
 40
1
 40
1
 10
338.300000
 20
727.975000
 30
0.0
 10
428.416480
 20
688.337080
 30
0.0
 10
473.270056
 20
585.481448
 30
0.0
 10
439.100000
 20
491.600000
 30
0.0
  0
SPLINE
  5
1ac
100
AcDbEntity
  8
Ebene
 62
7
100
AcDbSpline
 70
8
 71
3
 72
8
 73
4
 74
0
 40
0
 40
0
 40
0
 40
0
 40
1
 40
1
 40
1
 40
1
 10
439.100000
 20
491.600000
 30
0.0
 10
428.804248
 20
463.312752
 30
0.0
 10
412.644384
 20
439.134728
 30
0.0
 10
392.375000
 20
419.800000
 30
0.0
  0
SPLINE
  5
1ad
100
AcDbEntity
  8
Ebene
 62
7
100
AcDbSpline
 70
8
 71
3
 72
8
 73
4
 74
0
 40
0
 40
0
 40
0
 40
0
 40
1
 40
1
 40
1
 40
1
 10
392.375000
 20
419.800000
 30
0.0
 10
302.258520
 20
459.437928
 30
0.0
 10
257.379952
 20
562.293624
 30
0.0
 10
291.550000
 20
656.175000
 30
0.0
  0
SPLINE
  5
1ae
100
AcDbEntity
  8
Ebene
 62
7
100
AcDbSpline
 70
8
 71
3
 72
8
 73
4
 74
0
 40
0
 40
0
 40
0
 40
0
 40
1
 40
1
 40
1
 40
1
 10
291.550000
 20
656.175000
 30
0.0
 10
301.845656
 20
684.462216
 30
0.0
 10
318.030592
 20
708.640272
 30
0.0
 10
338.300000
 20
727.975000
 30
0.0
  0
LWPOLYLINE
  5
1af
100
AcDbEntity
  8
Ebene
 62
7
100
AcDbPolyline
 90
3
 70
0
 10
340.450040
 20
773.225000
 30
0.0
 10
328.800000
 20
777.475000
 30
0.0
 10
328.800000
 20
777.475000
 30
0.0
  0
SPLINE
  5
1b0
100
AcDbEntity
  8
Ebene
 62
7
100
AcDbSpline
 70
8
 71
3
 72
8
 73
4
 74
0
 40
0
 40
0
 40
0
 40
0
 40
1
 40
1
 40
1
 40
1
 10
533.575000
 20
422.725000
 30
0.0
 10
554.135280
 20
422.445912
 30
0.0
 10
575.043392
 20
418.754688
 30
0.0
 10
595.525000
 20
411.300000
 30
0.0
  0
SPLINE
  5
1b1
100
AcDbEntity
  8
Ebene
 62
7
100
AcDbSpline
 70
8
 71
3
 72
8
 73
4
 74
0
 40
0
 40
0
 40
0
 40
0
 40
1
 40
1
 40
1
 40
1
 10
595.525000
 20
411.300000
 30
0.0
 10
656.926072
 20
388.951816
 30
0.0
 10
699.439128
 20
338.322368
 30
0.0
 10
713.925000
 20
279.525000
 30
0.0
  0
SPLINE
  5
1b2
100
AcDbEntity
  8
Ebene
 62
7
100
AcDbSpline
 70
8
 71
3
 72
8
 73
4
 74
0
 40
0
 40
0
 40
0
 40
0
 40
1
 40
1
 40
1
 40
1
 10
713.925000
 20
279.525000
 30
0.0
 10
665.026032
 20
243.886864
 30
0.0
 10
600.008800
 20
232.262776
 30
0.0
 10
538.775000
 20
254.550000
 30
0.0
  0
SPLINE
  5
1b3
100
AcDbEntity
  8
Ebene
 62
7
100
AcDbSpline
 70
8
 71
3
 72
8
 73
4
 74
0
 40
0
 40
0
 40
0
 40
0
 40
1
 40
1
 40
1
 40
1
 10
538.775000
 20
254.550000
 30
0.0
 10
477.420976
 20
276.881088
 30
0.0
 10
434.933528
 20
327.724696
 30
0.0
 10
420.450000
 20
386.575000
 30
0.0
  0
SPLINE
  5
1b4
100
AcDbEntity
  8
Ebene
 62
7
100
AcDbSpline
 70
8
 71
3
 72
8
 73
4
 74
0
 40
0
 40
0
 40
0
 40
0
 40
1
 40
1
 40
1
 40
1
 10
420.450000
 20
386.575000
 30
0.0
 10
452.984080
 20
410.273936
 30
0.0
 10
492.619112
 20
423.280936
 30
0.0
 10
533.575000
 20
422.725000
 30
0.0
  0
LWPOLYLINE
  5
1b5
100
AcDbEntity
  8
Ebene
 62
7
100
AcDbPolyline
 90
2
 70
0
 10
338.300000
 20
727.975000
 30
0.0
 10
338.300000
 20
727.975000
 30
0.0
  0
SPLINE
  5
1b6
100
AcDbEntity
  8
Ebene
 62
7
100
AcDbSpline
 70
8
 71
3
 72
8
 73
4
 74
0
 40
0
 40
0
 40
0
 40
0
 40
1
 40
1
 40
1
 40
1
 10
324.425000
 20
386.675000
 30
0.0
 10
342.002960
 20
386.693160
 30
0.0
 10
359.821888
 20
384.188040
 30
0.0
 10
377.450000
 20
379.025000
 30
0.0
  0
SPLINE
  5
1b7
100
AcDbEntity
  8
Ebene
 62
7
100
AcDbSpline
 70
8
 71
3
 72
8
 73
4
 74
0
 40
0
 40
0
 40
0
 40
0
 40
1
 40
1
 40
1
 40
1
 10
377.450000
 20
379.025000
 30
0.0
 10
380.433888
 20
351.401440
 30
0.0
 10
377.350048
 20
322.805712
 30
0.0
 10
367.175000
 20
294.850000
 30
0.0
  0
SPLINE
  5
1b8
100
AcDbEntity
  8
Ebene
 62
7
100
AcDbSpline
 70
8
 71
3
 72
8
 73
4
 74
0
 40
0
 40
0
 40
0
 40
0
 40
1
 40
1
 40
1
 40
1
 10
367.175000
 20
294.850000
 30
0.0
 10
332.980216
 20
200.900584
 30
0.0
 10
232.398520
 20
150.930216
 30
0.0
 10
137.825000
 20
178.625000
 30
0.0
  0
SPLINE
  5
1b9
100
AcDbEntity
  8
Ebene
 62
7
100
AcDbSpline
 70
8
 71
3
 72
8
 73
4
 74
0
 40
0
 40
0
 40
0
 40
0
 40
1
 40
1
 40
1
 40
1
 10
137.825000
 20
178.625000
 30
0.0
 10
134.840872
 20
206.248968
 30
0.0
 10
137.899800
 20
234.843856
 30
0.0
 10
148.075000
 20
262.800000
 30
0.0
  0
SPLINE
  5
1ba
100
AcDbEntity
  8
Ebene
 62
7
100
AcDbSpline
 70
8
 71
3
 72
8
 73
4
 74
0
 40
0
 40
0
 40
0
 40
0
 40
1
 40
1
 40
1
 40
1
 10
148.075000
 20
262.800000
 30
0.0
 10
175.896968
 20
339.240248
 30
0.0
 10
247.696184
 20
386.595744
 30
0.0
 10
324.425000
 20
386.675000
 30
0.0
  0
LWPOLYLINE
  5
1bb
100
AcDbEntity
  8
Ebene
 62
7
100
AcDbPolyline
 90
2
 70
0
 10
533.575000
 20
422.725000
 30
0.0
 10
533.575000
 20
422.725000
 30
0.0
  0
LWPOLYLINE
  5
1bc
100
AcDbEntity
  8
Ebene
 62
7
100
AcDbPolyline
 90
2
 70
0
 10
324.425000
 20
386.675000
 30
0.0
 10
324.425000
 20
386.675000
 30
0.0
  0
ENDSEC
  0
SECTION
  2
OBJECTS
  0
DICTIONARY
  5
C
330
0
100
AcDbDictionary
  3
ACAD_GROUP
350
D
  3
ACAD_MLINESTYLE
350
17
  0
DICTIONARY
  5
D
330
C
100
AcDbDictionary
  0
DICTIONARY
  5
1A
330
C
100
AcDbDictionary
  0
DICTIONARY
  5
17
330
C
100
AcDbDictionary
  3
STANDARD
350
18
  0
DICTIONARY
  5
19
330
C
100
AcDbDictionary
  0
ENDSEC
  0
EOF
